<svg width="463" height="609" viewBox="0 0 463 609" fill="none" xmlns="http://www.w3.org/2000/svg">
<mask id="mask0_1207_1916" style="mask-type:alpha" maskUnits="userSpaceOnUse" x="0" y="0" width="463" height="609">
<rect width="463" height="609" fill="#D9D9D9"/>
</mask>
<g mask="url(#mask0_1207_1916)">
<g opacity="0.1">
<path d="M97.6837 208.932L97.0397 208.76L68.1241 316.674L147.395 395.944L255.681 366.93L284.696 258.643L205.426 179.372L97.1391 208.389L97.0397 208.76L97.6837 208.932L97.8562 209.576L205.027 180.86L283.209 259.043L254.593 365.841L147.794 394.458L69.6115 316.275L98.3276 209.105L97.6837 208.932L97.8562 209.576L97.6837 208.932Z" fill="#47A2DF"/>
<path d="M106.366 217.615L103.79 216.925L77.7537 314.093L149.976 386.315L248.632 359.88L275.067 261.224L202.845 189.003L104.188 215.437L103.79 216.925L106.366 217.615L107.056 220.191L201.251 194.952L269.119 262.818L244.278 355.526L151.569 380.367L83.7021 312.5L108.941 218.305L106.366 217.615L107.056 220.191L106.366 217.615" fill="#47A2DF"/>
<path d="M200.617 403.773L229.45 434.53L256.356 427.889L256.036 426.594L229.888 433.047L201.589 402.86L200.617 403.773Z" fill="#47A2DF"/>
<path d="M183.547 396.681L231.133 447.444L255.525 441.319L255.2 440.027L231.57 445.96L184.519 395.768L183.547 396.681Z" fill="#47A2DF"/>
<path d="M201.926 400.249C203.62 400.703 204.624 402.445 204.171 404.138C203.716 405.833 201.976 406.838 200.282 406.384C198.587 405.93 197.582 404.19 198.036 402.495C198.49 400.801 200.231 399.795 201.926 400.249Z" fill="#47A2DF"/>
<path d="M184.854 393.156C186.548 393.61 187.553 395.352 187.099 397.045C186.646 398.739 184.904 399.745 183.21 399.291C181.516 398.837 180.511 397.095 180.965 395.402C181.419 393.708 183.16 392.702 184.854 393.156Z" fill="#47A2DF"/>
<path d="M234.779 389.189C236.473 389.643 237.479 391.384 237.025 393.079C236.571 394.773 234.829 395.777 233.135 395.323C231.44 394.869 230.434 393.128 230.888 391.435C231.342 389.74 233.084 388.735 234.779 389.189Z" fill="#47A2DF"/>
<path d="M324.689 479.097C326.382 479.551 327.388 481.293 326.934 482.987C326.48 484.682 324.738 485.687 323.045 485.233C321.35 484.779 320.345 483.038 320.799 481.343C321.253 479.649 322.994 478.643 324.689 479.097Z" fill="#47A2DF"/>
<path d="M363.522 505.765C365.216 506.219 366.221 507.96 365.767 509.655C365.314 511.348 363.572 512.355 361.878 511.901C360.184 511.447 359.179 509.705 359.633 508.011C360.087 506.316 361.828 505.311 363.522 505.765Z" fill="#47A2DF"/>
<path d="M363.171 508.361L228.637 373.826L227.694 374.769L362.228 509.304" fill="#47A2DF"/>
<path d="M324.338 481.694L234.429 391.786L233.486 392.729L323.395 482.637" fill="#47A2DF"/>
<path d="M391.202 561.305L256.668 426.77L255.725 427.712L390.259 562.247" fill="#47A2DF"/>
<path d="M390.367 574.737L255.833 440.201L254.89 441.144L389.424 575.68" fill="#47A2DF"/>
<path d="M292.159 311.871L322.084 340.446L315.39 366.533L316.682 366.864L323.57 340.021L293.08 310.906L292.159 311.871" fill="#47A2DF"/>
<path d="M285.223 294.733L334.979 342.244L328.829 365.82L330.12 366.156L336.469 341.822L286.144 293.769L285.223 294.733Z" fill="#47A2DF"/>
<path d="M289.542 312.182C289.982 313.88 291.713 314.902 293.413 314.463C295.111 314.025 296.131 312.292 295.693 310.594C295.254 308.895 293.522 307.873 291.825 308.313C290.126 308.751 289.104 310.483 289.542 312.182Z" fill="#47A2DF"/>
<path d="M282.609 295.045C283.046 296.743 284.779 297.764 286.477 297.326C288.177 296.888 289.198 295.156 288.759 293.458C288.321 291.759 286.589 290.737 284.89 291.175C283.192 291.614 282.17 293.346 282.609 295.045" fill="#47A2DF"/>
<path d="M278.181 344.93C278.62 346.629 280.352 347.65 282.051 347.213C283.75 346.774 284.77 345.042 284.332 343.344C283.893 341.644 282.16 340.624 280.464 341.061C278.765 341.5 277.743 343.232 278.181 344.93Z" fill="#47A2DF"/>
<path d="M367.258 435.665C367.697 437.363 369.43 438.385 371.127 437.946C372.826 437.509 373.848 435.777 373.409 434.078C372.97 432.38 371.239 431.358 369.539 431.796C367.841 432.234 366.821 433.966 367.258 435.665" fill="#47A2DF"/>
<path d="M397.119 473.482L263.829 337.713L262.877 338.647L396.167 474.417" fill="#47A2DF"/>
<path d="M370.809 434.403L281.733 343.671L280.782 344.604L369.857 435.338" fill="#47A2DF"/>
<path d="M449.801 502L316.511 366.231L315.559 367.165L448.849 502.933" fill="#47A2DF"/>
<path d="M463.24 501.29L329.95 365.521L328.999 366.455L462.289 502.223" fill="#47A2DF"/>
<path d="M152.265 171.496L123.432 140.739L96.5261 147.38L96.8459 148.675L122.994 142.22L151.293 172.409L152.265 171.496Z" fill="#47A2DF"/>
<path d="M169.338 178.589L121.75 127.825L97.3589 133.949L97.6845 135.243L121.315 129.309L168.365 179.5L169.338 178.589Z" fill="#47A2DF"/>
<path d="M150.958 175.021C149.263 174.567 148.258 172.825 148.712 171.131C149.166 169.436 150.907 168.43 152.602 168.884C154.296 169.338 155.302 171.08 154.847 172.775C154.394 174.469 152.651 175.475 150.958 175.021Z" fill="#47A2DF"/>
<path d="M168.029 182.112C166.334 181.657 165.329 179.917 165.783 178.222C166.237 176.528 167.978 175.522 169.673 175.976C171.368 176.43 172.372 178.172 171.919 179.866C171.465 181.561 169.724 182.566 168.029 182.112Z" fill="#47A2DF"/>
<path d="M118.104 186.081C116.41 185.627 115.404 183.885 115.858 182.191C116.312 180.495 118.055 179.49 119.748 179.944C121.443 180.398 122.449 182.139 121.995 183.835C121.541 185.529 119.799 186.535 118.104 186.081Z" fill="#47A2DF"/>
<path d="M28.1946 96.1718C26.501 95.718 25.495 93.9756 25.9488 92.282C26.403 90.5871 28.1454 89.5812 29.839 90.035C31.5339 90.4891 32.5398 92.2315 32.0857 93.9264C31.6319 95.62 29.8895 96.6259 28.1946 96.1718Z" fill="#47A2DF"/>
<path d="M-10.2896 66.9077L124.247 201.442L125.189 200.499L-9.34675 65.9649" fill="#47A2DF"/>
<path d="M28.5445 93.5749L118.454 183.485L119.396 182.542L29.4873 92.6321" fill="#47A2DF"/>
<path d="M-38.3192 13.9644L96.2154 148.499L97.1582 147.557L-37.3764 13.0216" fill="#47A2DF"/>
<path d="M-37.4852 0.531772L97.0494 135.067L97.9922 134.124L-36.5424 -0.411024" fill="#47A2DF"/>
<path d="M60.7235 263.4L30.7973 234.823L37.4931 208.737L36.2018 208.405L29.3127 235.248L59.8027 264.364L60.7235 263.4Z" fill="#47A2DF"/>
<path d="M67.6581 280.535L17.9031 233.025L24.0528 209.451L22.7629 209.113L16.4151 233.447L66.7386 281.499L67.6581 280.535" fill="#47A2DF"/>
<path d="M63.3383 263.087C62.9002 261.389 61.1683 260.367 59.4704 260.805C57.7721 261.245 56.7504 262.977 57.1885 264.675C57.6263 266.374 59.3585 267.394 61.0577 266.956C62.756 266.517 63.7777 264.785 63.3383 263.087" fill="#47A2DF"/>
<path d="M70.2729 280.223C69.8347 278.525 68.1028 277.503 66.4046 277.943C64.7054 278.38 63.6836 280.112 64.1227 281.812C64.5612 283.508 66.2931 284.53 67.991 284.092C69.6902 283.654 70.7123 281.921 70.2729 280.223Z" fill="#47A2DF"/>
<path d="M100.436 361.98C99.9977 360.281 98.2642 359.26 96.566 359.699C94.8684 360.136 93.8466 361.868 94.2844 363.567C94.7226 365.265 96.4558 366.287 98.1537 365.849C99.8529 365.411 100.874 363.678 100.436 361.98Z" fill="#47A2DF"/>
<path d="M74.7014 230.337C74.2624 228.638 72.5301 227.617 70.8322 228.055C69.1339 228.495 68.1122 230.227 68.5503 231.925C68.9885 233.623 70.7204 234.644 72.4196 234.207C74.1178 233.767 75.1396 232.035 74.7014 230.337Z" fill="#47A2DF"/>
<path d="M-44.2353 101.786L89.0537 237.554L90.0051 236.621L-43.2839 100.853" fill="#47A2DF"/>
<path d="M-17.927 140.864L71.1514 231.597L72.1028 230.664L-16.9756 139.93" fill="#47A2DF"/>
<path d="M-96.9176 73.2684L36.3711 209.038L37.3229 208.103L-95.9662 72.3348" fill="#47A2DF"/>
<path d="M-110.357 73.979L22.9327 209.749L23.8844 208.814L-109.406 73.0454" fill="#47A2DF"/>
<path d="M69.1303 335.539L129.813 396.223L130.756 395.28L70.0731 334.596" fill="#47A2DF"/>
<path d="M255.754 210.042C255.315 208.344 253.583 207.322 251.885 207.762C250.186 208.198 249.165 209.931 249.603 211.63C250.043 213.328 251.774 214.35 253.471 213.911C255.17 213.473 256.192 211.742 255.754 210.042Z" fill="#47A2DF"/>
<path d="M224.448 183.6L285.13 244.284L286.073 243.342L225.39 182.657" fill="#47A2DF"/>
<path d="M266.508 187.813L164.017 90.97L103.712 97.611L-28.03 -34.6974L-31.8101 -30.9342L101.745 103.193L162.147 96.5413L262.846 191.689L266.508 187.813" fill="#47A2DF"/>
<path d="M272.822 188.923L272.132 191.499C273.191 191.784 274.014 192.456 274.525 193.335C275.031 194.218 275.2 195.265 274.919 196.326C274.634 197.384 273.962 198.206 273.082 198.719C272.2 199.223 271.152 199.394 270.092 199.111C269.034 198.826 268.211 198.155 267.7 197.275C267.194 196.393 267.024 195.345 267.306 194.286C267.591 193.226 268.263 192.404 269.143 191.893C270.025 191.387 271.073 191.216 272.132 191.499L272.822 188.923L273.512 186.347C268.564 185.022 263.483 187.958 262.154 192.906C260.831 197.854 263.765 202.936 268.712 204.263C273.661 205.588 278.742 202.652 280.069 197.706C281.395 192.758 278.461 187.674 273.512 186.347L272.822 188.923" fill="#47A2DF"/>
<path d="M86.8219 385.794L189.312 482.637L249.616 475.996L381.359 608.304L385.137 604.541L251.584 470.414L191.181 477.066L90.4845 381.917L86.8219 385.794" fill="#47A2DF"/>
<path d="M80.506 384.683L81.1962 382.107C80.1379 381.822 79.3153 381.152 78.8042 380.272C78.298 379.39 78.1278 378.341 78.4102 377.282C78.6951 376.223 79.3668 375.401 80.2464 374.89C81.1288 374.384 82.1767 374.213 83.2357 374.496C84.2953 374.781 85.1174 375.453 85.6285 376.332C86.1347 377.215 86.3053 378.262 86.0229 379.321C85.738 380.38 85.066 381.203 84.1864 381.714C83.304 382.221 82.2565 382.39 81.1962 382.107L80.506 384.683L79.8158 387.259C84.7643 388.583 89.8461 385.649 91.1745 380.702C92.4978 375.753 89.5635 370.672 84.616 369.344C79.6672 368.021 74.587 370.954 73.2586 375.901C71.9353 380.85 74.868 385.932 79.8158 387.259L80.506 384.683" fill="#47A2DF"/>
<path d="M52.8823 340.451C51.3698 346.096 45.5645 349.448 39.9183 347.935C34.2722 346.422 30.9205 340.617 32.433 334.972C33.9462 329.325 39.7515 325.973 45.3977 327.486C51.0438 328.999 54.3955 334.804 52.8823 340.451ZM45.897 325.622C45.7605 325.586 45.6236 325.556 45.4873 325.523L45.7145 324.088L43.9601 323.81L43.7332 325.244C43.4513 325.219 43.1711 325.204 42.8915 325.196L42.8152 323.75L41.0416 323.842L41.1175 325.29C40.8371 325.327 40.5596 325.368 40.2844 325.421L39.9098 324.022L38.1934 324.483L38.5696 325.881C38.3032 325.974 38.0421 326.078 37.7838 326.187L37.1241 324.893L35.5416 325.699L36.2009 326.994C35.9604 327.139 35.7237 327.291 35.4926 327.453L34.5805 326.324L33.1988 327.442L34.1126 328.57C33.9066 328.762 33.7075 328.958 33.5142 329.165L32.3895 328.252L31.2715 329.632L32.3949 330.545C32.2355 330.774 32.085 331.011 31.939 331.252L30.6466 330.594L29.8403 332.176L31.1335 332.836C31.0247 333.093 30.9252 333.356 30.8331 333.623L29.4293 333.247L28.9692 334.963L30.3731 335.339C30.3196 335.616 30.2742 335.894 30.2401 336.171L28.7905 336.094L28.6972 337.869L30.1459 337.944C30.1518 338.226 30.1629 338.509 30.1863 338.787L28.7579 339.013L29.0359 340.768L30.466 340.541C30.5306 340.815 30.604 341.087 30.6868 341.355L29.3317 341.874L29.9694 343.533L31.3232 343.014C31.4428 343.268 31.5719 343.518 31.7078 343.763L30.4894 344.554L31.4566 346.045L32.675 345.253C32.844 345.478 33.0181 345.698 33.2028 345.911L32.1771 346.936L33.4335 348.192L34.4575 347.168C34.6692 347.351 34.8888 347.526 35.1136 347.697L34.3241 348.912L35.814 349.879L36.6032 348.665C36.8487 348.799 37.0992 348.926 37.3556 349.046L36.8353 350.4L38.4935 351.037L39.0144 349.681C39.1486 349.721 39.2824 349.762 39.419 349.799C39.5555 349.835 39.6921 349.866 39.8284 349.899L39.6011 351.334L41.3559 351.611L41.5824 350.178C41.8644 350.203 42.1445 350.218 42.4245 350.224L42.5008 351.671L44.2744 351.579L44.1985 350.131C44.4785 350.096 44.7561 350.054 45.0316 350L45.4058 351.4L47.1219 350.941L46.7464 349.54C47.0125 349.448 47.2736 349.344 47.5322 349.234L48.1916 350.529L49.7745 349.722L49.1151 348.427C49.3552 348.283 49.5919 348.131 49.8227 347.97L50.7368 349.097L52.1172 347.979L51.2031 346.852C51.4088 346.662 51.6084 346.463 51.8001 346.257L52.9265 347.169L54.0445 345.789L52.9204 344.879C53.0814 344.649 53.2323 344.41 53.377 344.169L54.669 344.828L55.4758 343.245L54.1821 342.586C54.2909 342.329 54.3904 342.066 54.4826 341.8L55.8864 342.176L56.3464 340.459L54.9426 340.083C54.9961 339.806 55.0415 339.528 55.0756 339.252L56.5256 339.327L56.6185 337.553L55.1701 337.477C55.1655 337.195 55.1537 336.915 55.129 336.636L56.5581 336.408L56.2801 334.653L54.8496 334.881C54.7854 334.606 54.7113 334.336 54.6288 334.067L55.9843 333.547L55.3479 331.888L53.9921 332.41C53.8728 332.154 53.7438 331.905 53.6082 331.658L54.8266 330.867L53.859 329.378L52.641 330.168C52.4717 329.944 52.2975 329.724 52.1132 329.51L53.1382 328.487L51.8822 327.23L50.8581 328.255C50.6464 328.071 50.4269 327.896 50.2024 327.724L50.992 326.508L49.502 325.542L48.7128 326.756C48.467 326.623 48.2165 326.496 47.9601 326.377L48.4807 325.021L46.8221 324.385L46.3012 325.742C46.167 325.701 46.0336 325.659 45.897 325.622" fill="#47A2DF"/>
<path d="M310.271 281.527C309.393 284.805 306.023 286.751 302.745 285.872C299.467 284.994 297.521 281.624 298.399 278.346C299.278 275.067 302.648 273.122 305.926 274.001C309.204 274.879 311.15 278.248 310.271 281.527ZM306.216 272.919L305.978 272.862L306.111 272.028L305.091 271.866L304.959 272.699C304.796 272.686 304.633 272.675 304.471 272.672L304.427 271.832L303.396 271.886L303.442 272.726C303.278 272.746 303.117 272.77 302.958 272.802L302.739 271.99L301.743 272.257L301.961 273.069C301.807 273.123 301.656 273.184 301.505 273.247L301.123 272.495L300.204 272.963L300.587 273.716C300.447 273.8 300.31 273.889 300.177 273.98L299.645 273.325L298.845 273.975L299.375 274.629C299.255 274.741 299.14 274.855 299.028 274.975L298.374 274.445L297.724 275.247L298.377 275.775C298.285 275.909 298.197 276.046 298.112 276.187L297.362 275.805L296.895 276.724L297.645 277.106C297.582 277.255 297.524 277.409 297.47 277.564L296.655 277.346L296.388 278.341L297.203 278.56C297.173 278.72 297.146 278.881 297.127 279.042L296.285 278.998L296.23 280.029L297.072 280.072C297.075 280.236 297.082 280.399 297.095 280.561L296.265 280.693L296.427 281.711L297.258 281.58C297.296 281.739 297.338 281.896 297.386 282.051L296.599 282.354L296.969 283.316L297.756 283.014C297.825 283.163 297.899 283.308 297.979 283.451L297.271 283.909L297.832 284.774L298.539 284.315C298.638 284.445 298.739 284.574 298.846 284.697L298.25 285.292L298.979 286.022L299.575 285.426C299.697 285.532 299.825 285.634 299.956 285.734L299.497 286.439L300.362 287.001L300.821 286.296C300.962 286.374 301.108 286.447 301.257 286.517L300.955 287.302L301.919 287.673L302.221 286.886L302.455 286.954L302.692 287.012L302.561 287.845L303.58 288.005L303.711 287.175C303.875 287.188 304.038 287.198 304.2 287.201L304.243 288.041L305.274 287.987L305.229 287.147C305.392 287.126 305.553 287.101 305.713 287.071L305.93 287.884L306.927 287.617L306.708 286.803C306.863 286.751 307.015 286.689 307.164 286.626L307.548 287.378L308.466 286.909L308.083 286.159C308.223 286.075 308.36 285.986 308.494 285.892L309.025 286.546L309.826 285.898L309.296 285.243C309.416 285.132 309.532 285.017 309.643 284.898L310.296 285.428L310.945 284.627L310.293 284.098C310.387 283.964 310.474 283.826 310.558 283.686L311.308 284.069L311.776 283.149L311.026 282.766C311.089 282.617 311.147 282.464 311.2 282.31L312.014 282.528L312.281 281.533L311.467 281.315C311.498 281.153 311.525 280.991 311.544 280.83L312.386 280.875L312.439 279.845L311.599 279.801C311.597 279.636 311.59 279.474 311.576 279.312L312.405 279.181L312.243 278.161L311.412 278.294C311.377 278.133 311.333 277.977 311.285 277.821L312.071 277.519L311.701 276.556L310.915 276.857C310.845 276.712 310.771 276.566 310.692 276.423L311.399 275.963L310.838 275.099L310.13 275.558C310.032 275.428 309.931 275.3 309.824 275.176L310.419 274.582L309.69 273.852L309.096 274.447C308.973 274.339 308.845 274.238 308.714 274.139L309.174 273.434L308.307 272.872L307.85 273.578C307.708 273.5 307.562 273.427 307.414 273.357L307.716 272.57L306.754 272.2L306.45 272.988L306.216 272.919Z" fill="#47A2DF"/>
<path d="M-0.064322 215.652C-0.850442 218.586 -3.86692 220.329 -6.80204 219.542C-9.73846 218.756 -11.4795 215.738 -10.6934 212.804C-9.90691 209.869 -6.89042 208.127 -3.95401 208.913C-1.01888 209.7 0.722143 212.717 -0.064322 215.652ZM-1.65759 206.159L-2.05128 206.722C-2.27032 207.034 -2.66762 207.157 -3.03078 207.039C-3.15879 206.997 -3.28913 206.958 -3.4205 206.922C-3.54671 206.889 -3.67265 206.859 -3.7993 206.832L-3.79994 205.484C-3.79878 205.011 -4.18241 204.63 -4.65333 204.63L-6.10389 204.63C-6.57447 204.629 -6.95866 205.012 -6.95854 205.486L-6.95783 206.173C-6.95872 206.553 -7.21099 206.881 -7.57443 206.991L-7.72858 207.041C-8.09022 207.159 -8.48627 207.035 -8.70516 206.724L-9.10064 206.16C-9.37098 205.772 -9.90335 205.678 -10.2896 205.95L-11.4773 206.782C-11.8644 207.052 -11.9591 207.586 -11.6872 207.972L-11.2939 208.534C-11.0773 208.843 -11.0913 209.256 -11.3237 209.552C-11.4972 209.772 -11.6579 210.001 -11.8065 210.241C-12.0056 210.562 -12.3876 210.715 -12.7508 210.617L-13.4153 210.439C-13.8712 210.317 -14.3399 210.588 -14.4621 211.044L-14.8372 212.444C-14.9593 212.9 -14.6888 213.368 -14.2329 213.49L-13.5709 213.668C-13.2025 213.766 -12.9516 214.097 -12.9389 214.478L-12.9329 214.641C-12.9118 215.02 -13.1338 215.37 -13.4917 215.5L-14.1357 215.735C-14.578 215.896 -14.8071 216.386 -14.6458 216.829L-14.1496 218.192C-13.9882 218.636 -13.4972 218.864 -13.0549 218.702L-12.408 218.467C-12.05 218.336 -11.6547 218.463 -11.4256 218.767L-11.3288 218.895C-11.0942 219.194 -11.0744 219.61 -11.2927 219.92L-11.6871 220.485C-11.9588 220.87 -11.8643 221.404 -11.4771 221.674L-10.2906 222.506C-9.90346 222.777 -9.37015 222.682 -9.0994 222.295L-8.70605 221.734C-8.48666 221.42 -8.08937 221.297 -7.7269 221.418C-7.59854 221.459 -7.46821 221.498 -7.33556 221.534C-7.21063 221.567 -7.08503 221.598 -6.95838 221.625L-6.9574 222.971C-6.95822 223.443 -6.57495 223.826 -6.10438 223.826L-4.65346 223.826C-4.1816 223.827 -3.79869 223.443 -3.79916 222.971L-3.79856 222.284C-3.79896 221.904 -3.54669 221.576 -3.18256 221.463L-3.0291 221.416C-2.66746 221.298 -2.27107 221.42 -2.05251 221.733L-1.65803 222.296C-1.38605 222.682 -0.853657 222.776 -0.466495 222.506L0.719922 221.674C1.10708 221.404 1.20144 220.871 0.929814 220.484L0.535633 219.92C0.319908 219.612 0.333642 219.2 0.566323 218.904C0.739476 218.685 0.900543 218.455 1.04916 218.215C1.24794 217.895 1.63023 217.741 1.9947 217.839L2.65799 218.016C3.11391 218.138 3.58257 217.868 3.70473 217.412L4.07985 216.012C4.20201 215.556 3.93143 215.087 3.47551 214.965L2.81351 214.788C2.44517 214.689 2.19393 214.36 2.18159 213.978L2.17525 213.816C2.15415 213.436 2.37643 213.086 2.73405 212.957L3.37676 212.722C3.8203 212.561 4.04979 212.07 3.88843 211.626L3.39316 210.265C3.23051 209.821 2.73986 209.592 2.29632 209.753L1.65068 209.989C1.29306 210.118 0.897018 209.994 0.669609 209.688L0.569878 209.561C0.33688 209.261 0.317953 208.848 0.535709 208.535L0.929417 207.972C1.20146 207.585 1.10691 207.052 0.719797 206.781L-0.467117 205.951C-0.854232 205.68 -1.38684 205.772 -1.65759 206.159" fill="#47A2DF"/>
<path d="M296.235 405.657C295.449 408.591 292.431 410.333 289.496 409.547C286.561 408.76 284.82 405.743 285.606 402.809C286.393 399.873 289.409 398.131 292.344 398.918C295.279 399.704 297.022 402.721 296.235 405.657ZM294.642 396.164L294.248 396.727C294.028 397.039 293.632 397.162 293.268 397.043C293.141 397.001 293.009 396.962 292.878 396.927C292.752 396.893 292.626 396.863 292.5 396.837L292.5 395.489C292.5 395.016 292.117 394.634 291.645 394.633L290.196 394.634C289.724 394.634 289.341 395.017 289.342 395.488L289.341 396.176C289.341 396.557 289.089 396.886 288.725 396.996L288.57 397.045C288.208 397.163 287.812 397.039 287.594 396.728L287.199 396.164C286.929 395.777 286.395 395.682 286.009 395.954L284.821 396.786C284.435 397.057 284.34 397.59 284.612 397.977L285.006 398.539C285.222 398.848 285.207 399.261 284.975 399.556C284.802 399.776 284.642 400.005 284.492 400.245C284.294 400.566 283.911 400.719 283.548 400.622L282.883 400.444C282.428 400.322 281.958 400.592 281.836 401.048L281.461 402.448C281.339 402.904 281.611 403.373 282.065 403.495L282.729 403.672C283.096 403.771 283.348 404.102 283.359 404.482L283.367 404.644C283.387 405.023 283.165 405.374 282.808 405.505L282.164 405.739C281.721 405.899 281.492 406.39 281.654 406.834L282.149 408.196C282.31 408.64 282.801 408.868 283.245 408.707L283.89 408.471C284.25 408.341 284.644 408.467 284.873 408.772L284.969 408.9C285.205 409.199 285.224 409.614 285.007 409.924L284.611 410.489C284.341 410.875 284.434 411.408 284.821 411.679L286.009 412.511C286.396 412.781 286.929 412.687 287.2 412.3L287.594 411.738C287.812 411.424 288.21 411.302 288.572 411.421C288.701 411.464 288.83 411.502 288.963 411.538C289.088 411.571 289.215 411.603 289.341 411.63L289.341 412.975C289.34 413.447 289.723 413.83 290.196 413.83L291.645 413.83C292.117 413.83 292.5 413.448 292.5 412.976L292.5 412.288C292.5 411.907 292.753 411.58 293.117 411.468L293.269 411.42C293.632 411.301 294.029 411.424 294.247 411.736L294.64 412.3C294.912 412.686 295.445 412.781 295.832 412.51L297.02 411.679C297.407 411.408 297.5 410.875 297.229 410.488L296.835 409.924C296.62 409.617 296.632 409.205 296.866 408.907C297.039 408.69 297.2 408.458 297.347 408.219C297.546 407.899 297.929 407.745 298.293 407.843L298.956 408.021C299.413 408.143 299.882 407.873 300.004 407.417L300.379 406.017C300.502 405.561 300.231 405.092 299.774 404.97L299.113 404.792C298.745 404.694 298.492 404.364 298.48 403.982L298.474 403.821C298.452 403.441 298.675 403.09 299.034 402.962L299.676 402.727C300.121 402.565 300.349 402.075 300.188 401.631L299.692 400.268C299.53 399.825 299.039 399.596 298.596 399.756L297.949 399.993C297.593 400.123 297.196 399.997 296.968 399.693L296.87 399.564C296.635 399.265 296.616 398.852 296.834 398.539L297.229 397.977C297.5 397.59 297.405 397.056 297.018 396.785L295.831 395.955C295.446 395.684 294.913 395.777 294.642 396.164" fill="#47A2DF"/>
<path d="M303.39 239.472C302.903 241.289 301.036 242.367 299.219 241.88C297.403 241.393 296.324 239.526 296.811 237.709C297.298 235.893 299.166 234.816 300.982 235.302C302.799 235.789 303.876 237.656 303.39 239.472ZM302.403 233.599L302.161 233.947C302.023 234.14 301.778 234.215 301.553 234.143L301.312 234.07L301.078 234.014L301.078 233.18C301.078 232.888 300.842 232.652 300.549 232.652L299.652 232.652C299.359 232.651 299.123 232.888 299.123 233.181L299.123 233.606C299.123 233.841 298.966 234.045 298.741 234.113L298.646 234.144C298.422 234.216 298.178 234.14 298.041 233.947L297.798 233.599C297.63 233.359 297.3 233.3 297.061 233.468L296.326 233.983C296.086 234.151 296.03 234.481 296.197 234.72L296.441 235.068C296.575 235.259 296.566 235.513 296.421 235.698C296.313 235.833 296.216 235.976 296.122 236.123C296 236.322 295.762 236.416 295.539 236.356L295.127 236.246C294.845 236.17 294.556 236.339 294.48 236.621L294.248 237.487C294.172 237.769 294.339 238.06 294.621 238.135L295.032 238.245C295.258 238.306 295.415 238.51 295.421 238.746L295.426 238.845C295.439 239.081 295.302 239.298 295.08 239.378L294.682 239.524C294.407 239.623 294.265 239.927 294.366 240.201L294.673 241.044C294.773 241.318 295.076 241.46 295.35 241.359L295.75 241.215C295.972 241.134 296.216 241.212 296.358 241.4L296.418 241.48C296.564 241.665 296.576 241.921 296.441 242.114L296.197 242.463C296.028 242.702 296.087 243.032 296.326 243.2L297.062 243.713C297.301 243.881 297.63 243.824 297.798 243.584L298.041 243.236C298.176 243.043 298.423 242.967 298.648 243.039L298.889 243.112L299.123 243.168L299.124 244.002C299.123 244.294 299.36 244.532 299.652 244.53L300.549 244.53C300.84 244.531 301.078 244.294 301.078 244.003L301.078 243.576C301.079 243.34 301.234 243.139 301.46 243.069L301.555 243.04C301.779 242.966 302.024 243.043 302.159 243.235L302.403 243.583C302.571 243.823 302.9 243.881 303.139 243.714L303.875 243.199C304.113 243.032 304.173 242.702 304.005 242.462L303.761 242.114C303.627 241.923 303.635 241.667 303.78 241.484C303.886 241.348 303.987 241.207 304.079 241.059C304.201 240.86 304.437 240.766 304.663 240.826L305.074 240.936C305.356 241.012 305.646 240.844 305.722 240.562L305.954 239.695C306.03 239.413 305.862 239.122 305.58 239.047L305.17 238.937C304.942 238.876 304.787 238.673 304.779 238.436L304.775 238.337C304.762 238.101 304.9 237.885 305.12 237.804L305.519 237.66C305.795 237.56 305.935 237.256 305.836 236.981L305.529 236.137C305.429 235.865 305.125 235.722 304.851 235.823L304.451 235.967C304.23 236.048 303.984 235.97 303.843 235.782L303.782 235.702C303.638 235.517 303.625 235.261 303.761 235.068L304.005 234.72C304.172 234.48 304.115 234.15 303.875 233.982L303.14 233.469C302.901 233.3 302.571 233.359 302.403 233.599" fill="#47A2DF"/>
<path d="M190.093 293.76L190.182 293.89C190.606 294.523 192.269 297.334 191.345 300.761C190.752 302.968 189.099 305.477 185.271 307.899L185.116 308.176C185.116 308.176 185.114 308.245 185.107 308.381C185.083 308.789 184.996 309.77 184.679 310.953C184.293 312.397 183.565 314.137 182.215 315.521C180.865 316.906 178.903 317.958 175.95 318.042C175.768 318.047 175.623 318.198 175.626 318.381L175.625 318.505C175.617 318.757 175.578 319.365 175.394 320.047C175.222 320.694 174.92 321.404 174.416 321.959C173.91 322.514 173.214 322.928 172.167 323.012L171.918 323.155L171.873 323.44L171.905 323.557C172.052 324.123 172.602 326.629 171.893 329.265C171.194 331.838 169.36 334.546 164.676 335.869L164.475 336.026L164.443 336.079C164.271 336.366 163.392 337.721 161.719 338.907C160.043 340.092 157.585 341.115 154.186 340.763C153.395 340.681 152.655 340.54 151.967 340.356C149.148 339.601 147.162 338.104 145.878 336.795C145.236 336.14 144.769 335.531 144.467 335.09C144.314 334.87 144.204 334.691 144.13 334.568L144.05 334.429L144.026 334.384C143.965 334.267 143.841 334.196 143.709 334.205L143.586 334.208C143.333 334.211 142.716 334.19 141.992 333.996C141.236 333.794 140.371 333.406 139.655 332.668C138.939 331.929 138.357 330.839 138.186 329.165C138.172 329.033 138.08 328.922 137.954 328.881C137.954 328.881 137.823 328.84 137.579 328.742C136.725 328.398 134.591 327.381 132.914 325.323C131.24 323.262 129.993 320.184 130.89 315.574C130.916 315.44 130.856 315.302 130.741 315.229L130.631 315.155C130.07 314.769 127.497 312.876 125.519 309.437C123.544 305.997 122.147 301.025 123.923 294.386C124.329 292.869 124.903 291.264 125.674 289.57L125.665 289.272L125.565 289.073C125.106 288.121 123.331 283.933 124.627 279.112C125.326 276.508 126.909 273.707 130.102 271.083L130.219 270.767L130.21 270.715C130.172 270.455 130.037 269.259 130.396 267.925C130.862 266.232 132.043 264.327 135.322 263.621C135.468 263.59 135.576 263.467 135.585 263.318L135.599 263.181C135.63 262.9 135.722 262.21 135.971 261.28C136.829 258.11 139.444 252.225 147.57 250.18C147.7 250.147 147.798 250.04 147.819 249.907L147.844 249.777C147.862 249.688 147.892 249.555 147.937 249.388C148.166 248.529 148.793 246.756 150.289 245.159C151.786 243.563 154.142 242.124 157.919 241.909L158.166 241.777L158.207 241.728C158.425 241.459 159.515 240.201 161.325 239.233C163.14 238.265 165.659 237.578 168.816 238.422L168.988 238.47L169.293 238.404L169.319 238.382C169.628 238.14 172.431 236.056 176.684 237.197C177.695 237.468 178.791 237.921 179.961 238.628L180.217 238.667L180.323 238.641C180.837 238.528 183.128 238.108 185.609 238.775C186.727 239.075 187.884 239.592 188.95 240.453C190.883 242.017 191.943 243.31 192.519 244.199C192.805 244.645 192.973 244.989 193.067 245.216L193.157 245.469L193.174 245.526L193.177 245.536L193.24 245.523L193.177 245.535L193.177 245.536L193.24 245.523L193.177 245.535C193.201 245.66 193.297 245.761 193.422 245.791L193.491 245.81C193.977 245.94 196.932 246.779 200.078 248.671C203.226 250.562 206.547 253.496 207.841 257.796C208.671 260.549 208.414 263.598 207.631 266.522C206.725 269.901 205.12 273.103 203.74 275.452C203.05 276.627 202.418 277.59 201.958 278.257C201.498 278.926 201.215 279.294 201.214 279.295C201.102 279.441 201.13 279.651 201.275 279.763C201.422 279.875 201.631 279.847 201.744 279.7C201.754 279.682 206.413 273.626 208.275 266.694C209.077 263.697 209.359 260.526 208.479 257.603C207.112 253.075 203.646 250.038 200.422 248.099C197.194 246.159 194.188 245.306 193.664 245.166L193.585 245.145L193.503 245.468L193.83 245.401C193.814 245.318 193.328 243.136 189.369 239.935C188.221 239.006 186.974 238.451 185.781 238.131C182.755 237.323 180.08 238.014 180.051 238.02L180.134 238.343L180.305 238.058C179.086 237.32 177.93 236.841 176.856 236.553C172.008 235.258 168.898 237.863 168.863 237.894L169.078 238.149L169.168 237.828L168.988 237.778C165.431 236.822 162.574 237.72 160.637 238.853C158.696 239.988 157.653 241.352 157.636 241.373L157.901 241.575L157.882 241.243C153.948 241.462 151.4 242.992 149.802 244.704C148.202 246.415 147.541 248.288 147.293 249.215C147.196 249.577 147.161 249.796 147.159 249.806L147.489 249.858L147.408 249.533C138.988 251.645 136.2 257.819 135.327 261.108C134.981 262.399 134.921 263.256 134.921 263.272L135.253 263.295L135.183 262.969C131.671 263.702 130.238 265.889 129.752 267.753C129.303 269.432 129.558 270.856 129.562 270.883L129.89 270.825L129.679 270.567C126.387 273.27 124.714 276.206 123.983 278.939C122.437 284.735 125.064 289.557 125.079 289.591L125.372 289.431L125.068 289.293C124.282 291.017 123.696 292.658 123.279 294.213C121.329 301.474 123.096 306.893 125.359 310.461C127.62 314.032 130.359 315.774 130.383 315.791L130.562 315.509L130.235 315.445C129.158 320.91 131.034 324.48 133.185 326.615C135.332 328.755 137.726 329.507 137.754 329.517L137.854 329.199L137.522 329.233C137.703 331.029 138.352 332.285 139.176 333.133C140 333.98 140.984 334.416 141.819 334.64C142.891 334.927 143.729 334.872 143.753 334.87L143.731 334.538L143.435 334.691C143.456 334.727 145.873 339.408 151.795 341C152.516 341.193 153.291 341.34 154.117 341.426C157.923 341.825 160.675 340.561 162.449 339.196C164.225 337.832 165.042 336.378 165.056 336.353L164.766 336.189L164.856 336.51C169.739 335.153 171.809 332.195 172.537 329.437C173.397 326.213 172.518 323.28 172.512 323.249L172.193 323.345L172.218 323.677C173.424 323.586 174.31 323.074 174.911 322.407C175.513 321.74 175.847 320.932 176.038 320.22C176.307 319.214 176.292 318.389 176.293 318.37L175.959 318.375L175.969 318.709C179.074 318.626 181.236 317.49 182.694 315.986C184.153 314.485 184.917 312.64 185.323 311.125C185.766 309.469 185.781 308.203 185.782 308.185L185.449 308.18L185.627 308.463C189.557 305.98 191.349 303.327 191.989 300.934C193.121 296.671 190.646 293.392 190.625 293.36C190.514 293.213 190.305 293.183 190.159 293.293C190.012 293.404 189.982 293.613 190.093 293.76" fill="white"/>
<path d="M172.72 281.608L168.304 298.091L151.822 293.675L156.239 277.192L172.72 281.608Z" fill="white"/>
<path d="M170.302 296.553L170.041 297.525L150.601 292.317L150.862 291.344L170.302 296.553Z" fill="white"/>
<path d="M170.893 294.344L170.633 295.316L151.193 290.108L151.454 289.135L170.893 294.344Z" fill="white"/>
<path d="M171.486 292.134L171.226 293.106L151.786 287.898L152.047 286.925L171.486 292.134Z" fill="white"/>
<path d="M172.078 289.926L171.817 290.898L152.378 285.69L152.638 284.717L172.078 289.926Z" fill="white"/>
<path d="M172.669 287.718L172.409 288.689L152.97 283.481L153.23 282.51L172.669 287.718Z" fill="white"/>
<path d="M173.262 285.508L173.001 286.48L153.561 281.272L153.822 280.299L173.262 285.508Z" fill="white"/>
<path d="M173.853 283.299L173.593 284.271L154.153 279.063L154.414 278.09L173.853 283.299Z" fill="white"/>
<path d="M170.973 279.733L171.945 279.994L166.736 299.434L165.764 299.173L170.973 279.733Z" fill="white"/>
<path d="M168.763 279.142L169.735 279.402L164.526 298.842L163.554 298.581L168.763 279.142Z" fill="white"/>
<path d="M166.555 278.55L167.526 278.81L162.317 298.25L161.346 297.99L166.555 278.55Z" fill="white"/>
<path d="M164.345 277.958L165.317 278.219L160.108 297.658L159.136 297.398L164.345 277.958Z" fill="white"/>
<path d="M162.136 277.366L163.108 277.627L157.899 297.066L156.927 296.806L162.136 277.366Z" fill="white"/>
<path d="M159.927 276.774L160.898 277.034L155.689 296.474L154.718 296.213L159.927 276.774Z" fill="white"/>
<path d="M157.719 276.182L158.69 276.442L153.481 295.882L152.51 295.622L157.719 276.182Z" fill="white"/>
<path d="M130.737 315.794L151.268 303.138L151.415 302.94L153.832 293.918C153.88 293.74 153.774 293.557 153.596 293.51C153.419 293.462 153.236 293.568 153.188 293.745L150.805 302.64L130.386 315.227C130.231 315.323 130.181 315.528 130.279 315.685C130.375 315.842 130.58 315.89 130.737 315.794" fill="white"/>
<path d="M130.476 319.924L152.607 306.955L152.76 306.753L156.041 294.51C156.088 294.333 155.983 294.15 155.805 294.102C155.627 294.055 155.444 294.16 155.397 294.338L152.152 306.448L130.139 319.349C129.98 319.442 129.927 319.645 130.019 319.804C130.114 319.963 130.317 320.017 130.476 319.924" fill="white"/>
<path d="M164.802 279.487L167.602 269.035L193.724 245.716C193.861 245.594 193.874 245.383 193.75 245.246C193.629 245.108 193.418 245.097 193.28 245.219L167.084 268.605L166.984 268.767L164.158 279.314C164.11 279.492 164.216 279.675 164.394 279.722C164.571 279.77 164.754 279.664 164.802 279.487" fill="white"/>
<path d="M138.01 329.494L156.249 319.834L156.414 319.625L162.594 296.561C162.641 296.384 162.537 296.201 162.358 296.153C162.18 296.106 161.999 296.212 161.951 296.389L155.807 319.312L137.698 328.905C137.536 328.992 137.473 329.193 137.559 329.356C137.645 329.519 137.847 329.58 138.01 329.494" fill="white"/>
<path d="M143.883 334.834L156.329 328.363L156.497 328.152L164.803 297.154C164.851 296.976 164.745 296.793 164.567 296.745C164.39 296.698 164.207 296.803 164.159 296.981L155.891 327.838L143.576 334.242C143.413 334.328 143.349 334.529 143.434 334.693C143.519 334.855 143.721 334.919 143.883 334.834Z" fill="white"/>
<path d="M140.182 321.683L142.585 312.715C142.632 312.538 142.527 312.355 142.349 312.307C142.171 312.259 141.989 312.365 141.941 312.543L139.538 321.51C139.49 321.688 139.596 321.871 139.774 321.919C139.951 321.966 140.134 321.861 140.182 321.683Z" fill="white"/>
<path d="M147.246 317.153L155.971 319.93C156.147 319.987 156.334 319.889 156.389 319.713C156.446 319.538 156.349 319.351 156.173 319.295L147.448 316.518C147.272 316.462 147.085 316.559 147.028 316.734C146.973 316.91 147.07 317.098 147.246 317.153Z" fill="white"/>
<path d="M139.828 321.83L139.741 322.152C140.187 322.272 140.451 322.729 140.333 323.175C140.212 323.621 139.755 323.885 139.309 323.766C138.863 323.647 138.599 323.189 138.718 322.742C138.839 322.297 139.296 322.033 139.741 322.152L139.828 321.83L139.914 321.508C139.113 321.294 138.289 321.768 138.074 322.57C137.859 323.372 138.335 324.195 139.136 324.41C139.939 324.625 140.762 324.15 140.977 323.347C141.191 322.546 140.716 321.723 139.914 321.508L139.828 321.83Z" fill="white"/>
<path d="M139.106 298.326L141.508 289.36C141.556 289.182 141.45 288.999 141.273 288.952C141.095 288.904 140.912 289.01 140.864 289.188L138.462 298.154C138.414 298.332 138.52 298.515 138.698 298.562C138.875 298.61 139.058 298.504 139.106 298.326Z" fill="white"/>
<path d="M138.752 298.473L138.666 298.794C139.111 298.914 139.375 299.371 139.257 299.818C139.136 300.264 138.679 300.528 138.233 300.41C137.788 300.289 137.524 299.832 137.642 299.386C137.763 298.939 138.22 298.675 138.666 298.794L138.752 298.473L138.838 298.151C138.037 297.936 137.213 298.411 136.998 299.213C136.783 300.014 137.26 300.838 138.06 301.053C138.863 301.267 139.686 300.792 139.901 299.991C140.116 299.189 139.64 298.366 138.838 298.151L138.752 298.473Z" fill="white"/>
<path d="M152.933 268.603L150.53 277.571C150.483 277.749 150.588 277.932 150.766 277.979C150.944 278.027 151.127 277.921 151.174 277.743L153.577 268.776C153.625 268.598 153.519 268.415 153.341 268.368C153.164 268.32 152.981 268.426 152.933 268.603Z" fill="white"/>
<path d="M153.345 268.472L153.259 268.794C154.06 269.009 154.883 268.533 155.098 267.732C155.312 266.931 154.837 266.107 154.036 265.892C153.234 265.677 152.411 266.154 152.196 266.955C151.981 267.756 152.456 268.579 153.259 268.794L153.345 268.472L153.431 268.15C152.984 268.03 152.721 267.572 152.84 267.127C152.959 266.682 153.417 266.418 153.864 266.536C154.308 266.657 154.572 267.114 154.454 267.56C154.333 268.004 153.876 268.269 153.431 268.15L153.345 268.472Z" fill="white"/>
<path d="M184.063 265.882L181.66 274.849C181.612 275.027 181.718 275.21 181.896 275.257C182.074 275.305 182.256 275.2 182.304 275.022L184.707 266.054C184.755 265.876 184.649 265.694 184.471 265.646C184.293 265.598 184.111 265.704 184.063 265.882Z" fill="white"/>
<path d="M184.475 265.752L184.388 266.074C185.19 266.287 186.013 265.812 186.229 265.011C186.442 264.209 185.967 263.386 185.166 263.171C184.364 262.956 183.541 263.431 183.326 264.234C183.111 265.035 183.586 265.858 184.388 266.074L184.475 265.752L184.561 265.43C184.114 265.309 183.85 264.852 183.97 264.406C184.09 263.959 184.547 263.695 184.994 263.815C185.439 263.934 185.703 264.392 185.585 264.839C185.464 265.284 185.007 265.548 184.561 265.43L184.475 265.752Z" fill="white"/>
<path d="M179.352 283.385L179.266 283.707C180.067 283.922 180.89 283.447 181.105 282.644C181.319 281.843 180.844 281.02 180.043 280.805C179.241 280.59 178.418 281.066 178.203 281.867C177.988 282.669 178.463 283.492 179.266 283.707L179.352 283.385L179.438 283.063C178.992 282.942 178.728 282.485 178.847 282.039C178.966 281.595 179.423 281.331 179.871 281.449C180.316 281.57 180.58 282.027 180.461 282.472C180.341 282.917 179.884 283.181 179.438 283.063L179.352 283.385Z" fill="white"/>
<path d="M194.188 262.159L190.342 276.514C190.294 276.692 190.4 276.875 190.577 276.923C190.755 276.97 190.938 276.865 190.986 276.687L194.832 262.332C194.88 262.154 194.774 261.971 194.596 261.924C194.419 261.876 194.236 261.982 194.188 262.159Z" fill="white"/>
<path d="M194.543 262.31L194.457 262.632C195.34 262.868 196.25 262.344 196.486 261.461C196.723 260.577 196.197 259.669 195.314 259.432C194.43 259.196 193.523 259.72 193.284 260.603C193.049 261.487 193.573 262.395 194.457 262.632L194.543 262.31L194.629 261.988C194.101 261.846 193.788 261.304 193.928 260.776C194.071 260.248 194.613 259.936 195.141 260.076C195.669 260.219 195.982 260.761 195.842 261.288C195.7 261.816 195.157 262.129 194.629 261.988L194.543 262.31Z" fill="white"/>
<path d="M235.829 284.041L235.743 284.363C236.627 284.6 237.533 284.076 237.771 283.192C238.008 282.308 237.484 281.4 236.601 281.162C235.716 280.925 234.807 281.45 234.57 282.335C234.333 283.218 234.858 284.126 235.743 284.363L235.829 284.041L235.916 283.719C235.387 283.576 235.074 283.034 235.214 282.507C235.357 281.978 235.899 281.665 236.429 281.806C236.955 281.948 237.268 282.49 237.127 283.02C236.985 283.546 236.443 283.859 235.916 283.719L235.829 284.041Z" fill="white"/>
<path d="M229.795 289.117L229.709 289.439C230.593 289.675 231.5 289.151 231.737 288.268C231.974 287.383 231.45 286.475 230.567 286.238C229.683 286.001 228.775 286.526 228.538 287.41C228.301 288.294 228.826 289.202 229.709 289.439L229.795 289.117L229.882 288.795C229.354 288.653 229.041 288.111 229.182 287.583C229.324 287.054 229.866 286.742 230.394 286.882C230.92 287.025 231.234 287.565 231.093 288.095C230.95 288.623 230.408 288.936 229.882 288.795L229.795 289.117Z" fill="white"/>
<path d="M224.162 297.042L224.076 297.364C224.96 297.601 225.868 297.077 226.104 296.193C226.341 295.31 225.817 294.402 224.933 294.165C224.049 293.928 223.141 294.452 222.904 295.336C222.667 296.219 223.191 297.127 224.076 297.364L224.162 297.042L224.249 296.72C223.719 296.579 223.406 296.036 223.548 295.508C223.689 294.982 224.231 294.669 224.761 294.809C225.287 294.952 225.6 295.494 225.46 296.021C225.318 296.549 224.776 296.862 224.249 296.72L224.162 297.042Z" fill="white"/>
<path d="M227.793 305.787L227.707 306.109C228.591 306.345 229.499 305.821 229.736 304.936C229.972 304.053 229.448 303.145 228.565 302.908C227.681 302.671 226.773 303.196 226.536 304.079C226.299 304.964 226.824 305.872 227.707 306.109L227.793 305.787L227.88 305.465C227.352 305.323 227.039 304.781 227.18 304.252C227.322 303.724 227.864 303.412 228.392 303.552C228.92 303.695 229.232 304.235 229.092 304.764C228.949 305.293 228.406 305.606 227.88 305.465L227.793 305.787Z" fill="white"/>
<path d="M178.16 251.447L178.074 251.769C178.876 251.984 179.7 251.508 179.914 250.707C180.129 249.904 179.654 249.081 178.852 248.866C178.049 248.651 177.226 249.127 177.011 249.929C176.797 250.73 177.272 251.554 178.074 251.769L178.16 251.447L178.246 251.125C177.801 251.005 177.537 250.547 177.655 250.101C177.776 249.656 178.233 249.392 178.679 249.51C179.124 249.631 179.388 250.088 179.27 250.534C179.15 250.979 178.692 251.243 178.246 251.125L178.16 251.447Z" fill="white"/>
<path d="M146.036 315.274L145.949 315.596C146.395 315.716 146.659 316.173 146.541 316.619C146.42 317.063 145.963 317.329 145.517 317.209C145.071 317.09 144.808 316.631 144.925 316.187C145.046 315.741 145.503 315.477 145.949 315.596L146.036 315.274L146.122 314.952C145.321 314.738 144.496 315.213 144.282 316.014C144.068 316.816 144.543 317.639 145.344 317.853C146.146 318.068 146.969 317.593 147.184 316.792C147.399 315.991 146.923 315.168 146.122 314.952L146.036 315.274Z" fill="white"/>
<path d="M168.798 319.739L168.711 320.061C169.157 320.181 169.421 320.639 169.303 321.085C169.182 321.53 168.725 321.794 168.279 321.676C167.832 321.555 167.568 321.098 167.688 320.652C167.807 320.207 168.265 319.941 168.711 320.061L168.798 319.739L168.884 319.417C168.082 319.202 167.259 319.677 167.044 320.48C166.829 321.281 167.304 322.105 168.106 322.32C168.907 322.535 169.731 322.058 169.947 321.258C170.16 320.455 169.685 319.632 168.884 319.417L168.798 319.739Z" fill="white"/>
<path d="M166.442 297.297L163.822 307.072C163.791 307.19 163.826 307.316 163.915 307.4L175.729 318.618C175.862 318.744 176.073 318.739 176.201 318.604C176.327 318.471 176.322 318.26 176.189 318.133L164.518 307.052L167.085 297.469C167.133 297.291 167.027 297.109 166.85 297.061C166.672 297.013 166.489 297.119 166.442 297.297" fill="white"/>
<path d="M167.76 319.687L160.384 312.951C160.248 312.828 160.037 312.837 159.913 312.972C159.789 313.109 159.799 313.32 159.934 313.443L167.31 320.179C167.446 320.302 167.657 320.293 167.781 320.158C167.905 320.021 167.895 319.81 167.76 319.687Z" fill="white"/>
<path d="M162.883 332.856L162.797 333.178C163.241 333.298 163.506 333.756 163.387 334.201C163.267 334.647 162.808 334.912 162.364 334.793C161.918 334.673 161.655 334.215 161.773 333.769C161.894 333.324 162.351 333.06 162.797 333.178L162.883 332.856L162.969 332.534C162.168 332.319 161.345 332.796 161.129 333.596C160.915 334.399 161.39 335.222 162.191 335.437C162.992 335.651 163.816 335.176 164.031 334.374C164.245 333.573 163.77 332.748 162.969 332.534L162.883 332.856Z" fill="white"/>
<path d="M161.853 332.772L156.405 327.797C156.27 327.673 156.059 327.683 155.934 327.819C155.811 327.954 155.821 328.165 155.956 328.29L161.403 333.264C161.54 333.388 161.751 333.378 161.874 333.242C161.999 333.106 161.989 332.895 161.853 332.772Z" fill="white"/>
<path d="M152.297 291.906L137.108 287.836L136.985 287.826L125.335 289.1C125.153 289.121 125.021 289.285 125.041 289.468C125.061 289.652 125.225 289.784 125.408 289.762L136.996 288.496L152.125 292.55C152.302 292.597 152.485 292.492 152.533 292.314C152.581 292.136 152.475 291.953 152.297 291.906" fill="white"/>
<path d="M129.624 271.024L137.387 281.423L137.569 281.544L153.901 285.921C154.078 285.968 154.261 285.863 154.309 285.685C154.357 285.507 154.251 285.324 154.073 285.277L137.852 280.93L130.157 270.626C130.047 270.478 129.839 270.448 129.691 270.558C129.544 270.669 129.513 270.877 129.624 271.024Z" fill="white"/>
<path d="M134.992 263.503L145.31 276.449L145.484 276.564L155.676 279.295C155.854 279.342 156.037 279.237 156.084 279.059C156.132 278.881 156.026 278.698 155.849 278.651L145.762 275.948L135.513 263.088C135.398 262.944 135.189 262.92 135.046 263.034C134.902 263.149 134.877 263.359 134.992 263.503Z" fill="white"/>
<path d="M147.237 250.076L162.528 267.723L159.739 278.13C159.692 278.308 159.797 278.491 159.975 278.539C160.153 278.586 160.336 278.481 160.383 278.303L163.218 267.724L163.147 267.42L147.74 249.639C147.619 249.499 147.409 249.484 147.271 249.605C147.131 249.726 147.116 249.936 147.237 250.076" fill="white"/>
<path d="M157.643 241.788L168.366 254.771L161.948 278.722C161.901 278.9 162.006 279.083 162.184 279.131C162.362 279.178 162.545 279.073 162.592 278.895L169.054 254.778L168.989 254.48L158.158 241.363C158.04 241.221 157.83 241.202 157.688 241.318C157.546 241.436 157.525 241.646 157.643 241.788" fill="white"/>
<path d="M168.513 238.195L177.505 249.633C177.619 249.779 177.829 249.803 177.973 249.69C178.118 249.576 178.143 249.367 178.029 249.222L169.038 237.784C168.925 237.639 168.715 237.614 168.57 237.727C168.426 237.842 168.4 238.05 168.513 238.195Z" fill="white"/>
<path d="M185.811 247.046L185.724 247.368C186.527 247.583 187.35 247.108 187.565 246.305C187.779 245.504 187.305 244.68 186.502 244.465C185.701 244.25 184.878 244.727 184.663 245.528C184.448 246.33 184.923 247.153 185.724 247.368L185.811 247.046L185.897 246.724C185.452 246.603 185.188 246.146 185.307 245.7C185.426 245.255 185.884 244.991 186.33 245.109C186.776 245.23 187.04 245.687 186.921 246.133C186.801 246.578 186.344 246.842 185.897 246.724L185.811 247.046Z" fill="white"/>
<path d="M179.489 238.344L184.887 245.21C185 245.354 185.209 245.38 185.355 245.266C185.498 245.153 185.524 244.943 185.41 244.798L180.012 237.932C179.899 237.787 179.689 237.761 179.544 237.876C179.401 237.989 179.375 238.199 179.489 238.344Z" fill="white"/>
<path d="M171.429 281.262L173.274 274.374L201.416 279.825C201.596 279.859 201.771 279.742 201.805 279.561C201.841 279.38 201.722 279.206 201.542 279.17L173.097 273.661C172.925 273.628 172.756 273.733 172.711 273.902L170.785 281.089C170.737 281.267 170.843 281.45 171.02 281.498C171.198 281.545 171.381 281.44 171.429 281.262" fill="white"/>
<path d="M185.671 307.933L175.567 298.795L179.593 283.77C179.641 283.591 179.535 283.409 179.357 283.362C179.178 283.314 178.997 283.419 178.949 283.598L174.87 298.819C174.838 298.94 174.875 299.069 174.969 299.152L185.224 308.428C185.361 308.551 185.572 308.54 185.696 308.404C185.818 308.267 185.808 308.057 185.671 307.933Z" fill="white"/>
<path d="M183.952 292.126L202.927 296.07L204.897 299.885L205.122 300.057L226.412 304.656C226.592 304.695 226.769 304.58 226.808 304.4C226.846 304.22 226.732 304.043 226.552 304.005L205.418 299.439L203.448 295.623L203.219 295.45L184.088 291.474C183.908 291.437 183.732 291.552 183.695 291.733C183.656 291.913 183.773 292.089 183.952 292.126" fill="white"/>
<path d="M184.577 287.73L223.158 295.749C223.338 295.786 223.514 295.67 223.551 295.49C223.589 295.309 223.473 295.133 223.292 295.096L184.713 287.078C184.533 287.04 184.355 287.156 184.318 287.336C184.281 287.517 184.397 287.693 184.577 287.73" fill="white"/>
<path d="M185.557 284.073L209.119 288.969C209.259 288.998 209.4 288.936 209.473 288.813L212.276 284.082L228.785 287.821C228.965 287.863 229.144 287.749 229.184 287.569C229.225 287.391 229.113 287.212 228.933 287.171L212.187 283.378C212.045 283.347 211.9 283.409 211.826 283.534L209.021 288.268L185.693 283.42C185.513 283.382 185.336 283.498 185.298 283.678C185.261 283.859 185.377 284.035 185.557 284.073" fill="white"/>
<path d="M186.397 280.017L206.278 284.15C206.422 284.18 206.567 284.113 206.638 283.986L209.974 277.957L234.829 282.748C235.01 282.782 235.185 282.665 235.219 282.484C235.254 282.303 235.136 282.127 234.956 282.093L209.862 277.256C209.721 277.229 209.577 277.297 209.508 277.423L206.174 283.447L186.533 279.365C186.353 279.327 186.177 279.443 186.138 279.623C186.101 279.804 186.217 279.98 186.397 280.017" fill="white"/>
</g>
</g>
</svg>
