<svg width="488" height="833" viewBox="0 0 488 833" fill="none" xmlns="http://www.w3.org/2000/svg">
<mask id="mask0_1207_1918" style="mask-type:alpha" maskUnits="userSpaceOnUse" x="0" y="0" width="488" height="833">
<rect width="488" height="833" fill="#D9D9D9"/>
</mask>
<g mask="url(#mask0_1207_1918)">
<g opacity="0.1">
<path d="M408.26 272.743V271.871H262.23L188.965 398.773L262.23 525.674H408.764L482.031 398.773L408.762 271.871H408.26V272.743L407.506 273.178L480.018 398.773L407.757 523.931H263.237L190.976 398.773L263.237 273.614H408.26V272.743L407.506 273.178L408.26 272.743Z" fill="#47A2DF"/>
<path d="M400.235 286.642V283.156H268.747L201.996 398.773L268.747 514.39H402.248L468.999 398.773L402.248 283.156H400.235V286.642L397.217 288.385L460.949 398.773L398.224 507.418H272.771L210.044 398.773L272.771 290.127H400.235V286.642L397.217 288.385L400.235 286.642" fill="#47A2DF"/>
<path d="M197.086 468.617L168.008 515.424L185.495 547.148L187.022 546.307L170.028 515.477L198.568 469.535L197.086 468.617Z" fill="#47A2DF"/>
<path d="M200.265 444.664L152.272 521.919L168.257 550.642L169.779 549.795L154.294 521.967L201.747 445.583L200.265 444.664Z" fill="#47A2DF"/>
<path d="M201.978 469.077C201.978 471.369 200.119 473.227 197.827 473.227C195.534 473.227 193.676 471.369 193.676 469.077C193.676 466.783 195.534 464.926 197.827 464.926C200.119 464.926 201.978 466.783 201.978 469.077Z" fill="#47A2DF"/>
<path d="M205.157 445.122C205.157 447.416 203.298 449.273 201.006 449.273C198.714 449.273 196.854 447.416 196.854 445.122C196.854 442.83 198.714 440.973 201.006 440.973C203.298 440.973 205.157 442.83 205.157 445.122Z" fill="#47A2DF"/>
<path d="M227.056 506.814C227.056 509.105 225.198 510.965 222.904 510.965C220.613 510.965 218.755 509.105 218.755 506.814C218.755 504.52 220.613 502.66 222.904 502.66C225.198 502.66 227.056 504.52 227.056 506.814Z" fill="#47A2DF"/>
<path d="M143.958 650.745C143.958 653.037 142.098 654.896 139.807 654.896C137.513 654.896 135.655 653.037 135.655 650.745C135.655 648.452 137.513 646.595 139.807 646.595C142.098 646.595 143.958 648.452 143.958 650.745Z" fill="#47A2DF"/>
<path d="M123.426 708.796C123.426 711.089 121.568 712.947 119.274 712.947C116.983 712.947 115.123 711.089 115.123 708.796C115.123 706.505 116.983 704.647 119.274 704.647C121.568 704.647 123.426 706.505 123.426 708.796Z" fill="#47A2DF"/>
<path d="M120.029 709.231L244.373 493.861L242.864 492.99L118.52 708.36" fill="#47A2DF"/>
<path d="M140.561 651.181L223.659 507.249L222.15 506.378L139.052 650.309" fill="#47A2DF"/>
<path d="M62.6694 762.533L187.014 547.163L185.505 546.292L61.1602 761.662" fill="#47A2DF"/>
<path d="M45.4273 766.024L169.774 550.654L168.264 549.783L43.918 765.153" fill="#47A2DF"/>
<path d="M344.085 553.102L318.132 600.551L282.931 600.924L282.95 602.667L319.17 602.284L345.615 553.939L344.085 553.102" fill="#47A2DF"/>
<path d="M363.377 538.548L320.224 617.441L288.378 617.652L288.39 619.395L321.261 619.178L364.906 539.385L363.377 538.548Z" fill="#47A2DF"/>
<path d="M342.808 549.904C340.813 551.033 340.109 553.565 341.238 555.563C342.366 557.558 344.898 558.261 346.893 557.133C348.891 556.004 349.595 553.471 348.465 551.478C347.338 549.48 344.805 548.776 342.808 549.904Z" fill="#47A2DF"/>
<path d="M362.099 535.353C360.102 536.479 359.4 539.013 360.527 541.008C361.655 543.006 364.187 543.71 366.182 542.58C368.18 541.453 368.884 538.921 367.756 536.923C366.627 534.928 364.095 534.224 362.099 535.353" fill="#47A2DF"/>
<path d="M297.617 546.638C295.62 547.768 294.918 550.3 296.044 552.297C297.173 554.293 299.705 554.995 301.701 553.867C303.698 552.738 304.4 550.206 303.274 548.212C302.145 546.215 299.613 545.511 297.617 546.638Z" fill="#47A2DF"/>
<path d="M213.195 689.799C211.199 690.927 210.495 693.461 211.625 695.455C212.751 697.452 215.283 698.156 217.28 697.027C219.276 695.899 219.98 693.367 218.852 691.37C217.724 689.374 215.192 688.672 213.195 689.799" fill="#47A2DF"/>
<path d="M175.551 740.293L301.874 526.076L300.373 525.191L174.049 739.408" fill="#47A2DF"/>
<path d="M215.989 693.855L300.409 550.697L298.909 549.812L214.486 692.97" fill="#47A2DF"/>
<path d="M157.369 816.455L283.691 602.238L282.191 601.353L155.868 815.569" fill="#47A2DF"/>
<path d="M162.811 833.183L289.134 618.966L287.633 618.08L161.311 832.297" fill="#47A2DF"/>
<path d="M473.99 328.989L503.069 282.181L485.581 250.457L484.055 251.299L501.05 282.129L472.509 328.071L473.99 328.989Z" fill="#47A2DF"/>
<path d="M470.811 352.944L518.804 275.688L502.82 246.965L501.297 247.814L516.784 275.641L469.331 352.024L470.811 352.944Z" fill="#47A2DF"/>
<path d="M469.098 328.531C469.098 326.238 470.957 324.38 473.249 324.38C475.543 324.38 477.402 326.238 477.402 328.531C477.402 330.823 475.543 332.683 473.249 332.683C470.957 332.683 469.098 330.823 469.098 328.531Z" fill="#47A2DF"/>
<path d="M465.921 352.484C465.921 350.191 467.779 348.333 470.072 348.333C472.364 348.333 474.224 350.191 474.224 352.484C474.224 354.778 472.364 356.636 470.072 356.636C467.779 356.636 465.921 354.778 465.921 352.484Z" fill="#47A2DF"/>
<path d="M444.02 290.793C444.02 288.501 445.879 286.642 448.171 286.642C450.466 286.642 452.324 288.501 452.324 290.793C452.324 293.087 450.466 294.946 448.171 294.946C445.879 294.946 444.02 293.087 444.02 290.793Z" fill="#47A2DF"/>
<path d="M551.048 88.3734L426.705 303.746L428.214 304.617L552.557 89.2448" fill="#47A2DF"/>
<path d="M530.516 146.425L447.416 290.357L448.925 291.229L532.025 147.297" fill="#47A2DF"/>
<path d="M608.408 35.0734L484.063 250.444L485.573 251.315L609.917 35.9448" fill="#47A2DF"/>
<path d="M326.989 244.505L352.945 197.054L388.146 196.683L388.128 194.94L351.906 195.323L325.461 243.668L326.989 244.505Z" fill="#47A2DF"/>
<path d="M307.701 259.057L350.853 180.166L382.697 179.955L382.687 178.212L349.816 178.43L306.173 258.222L307.701 259.057" fill="#47A2DF"/>
<path d="M328.268 247.701C330.264 246.573 330.968 244.041 329.84 242.045C328.711 240.05 326.179 239.346 324.183 240.473C322.186 241.601 321.484 244.133 322.611 246.13C323.74 248.126 326.273 248.83 328.268 247.701" fill="#47A2DF"/>
<path d="M308.979 262.253C310.974 261.126 311.678 258.593 310.549 256.598C309.422 254.601 306.889 253.897 304.892 255.026C302.898 256.154 302.194 258.686 303.322 260.681C304.449 262.679 306.983 263.383 308.979 262.253Z" fill="#47A2DF"/>
<path d="M215.961 327.992C217.958 326.865 218.661 324.331 217.532 322.335C216.406 320.34 213.873 319.636 211.876 320.763C209.881 321.891 209.177 324.425 210.304 326.42C211.432 328.418 213.966 329.12 215.961 327.992Z" fill="#47A2DF"/>
<path d="M373.46 250.968C375.458 249.839 376.16 247.307 375.032 245.311C373.903 243.316 371.371 242.612 369.375 243.739C367.38 244.867 366.676 247.399 367.803 249.396C368.932 251.392 371.465 252.096 373.46 250.968Z" fill="#47A2DF"/>
<path d="M457.883 107.807C459.877 106.679 460.581 104.147 459.453 102.151C458.324 100.154 455.792 99.4501 453.796 100.579C451.801 101.707 451.096 104.239 452.224 106.235C453.353 108.232 455.886 108.934 457.883 107.807" fill="#47A2DF"/>
<path d="M495.528 57.3146L369.205 271.53L370.706 272.415L497.028 58.1999" fill="#47A2DF"/>
<path d="M455.089 103.75L370.668 246.912L372.168 247.797L456.589 104.635" fill="#47A2DF"/>
<path d="M513.71 -18.8466L387.386 195.369L388.888 196.254L515.211 -17.9612" fill="#47A2DF"/>
<path d="M508.266 -35.5758L381.941 178.641L383.444 179.526L509.766 -34.6905" fill="#47A2DF"/>
<path d="M238.755 279.523L182.667 376.668L184.176 377.539L240.265 280.394" fill="#47A2DF"/>
<path d="M460.335 472.69C462.331 471.561 463.035 469.028 461.905 467.033C460.78 465.036 458.247 464.333 456.25 465.461C454.255 466.59 453.551 469.123 454.678 471.116C455.806 473.114 458.338 473.818 460.335 472.69Z" fill="#47A2DF"/>
<path d="M483.129 424.219L427.041 521.364L428.55 522.235L484.639 425.09" fill="#47A2DF"/>
<path d="M492.04 478.748L579.636 316.585L550.851 242.694L673.329 31.602L667.299 28.1024L543.137 242.098L571.97 316.109L485.907 475.435L492.04 478.748" fill="#47A2DF"/>
<path d="M492.774 487.094H489.288C489.287 488.528 488.717 489.793 487.779 490.736C486.836 491.674 485.571 492.242 484.137 492.245C482.704 492.244 481.439 491.674 480.494 490.736C479.558 489.793 478.989 488.528 478.987 487.094C478.989 485.661 479.558 484.396 480.496 483.453C481.439 482.515 482.704 481.946 484.137 481.944C485.571 481.946 486.836 482.515 487.779 483.453C488.717 484.396 489.287 485.661 489.288 487.094H492.774H496.26C496.258 480.398 490.833 474.976 484.137 474.973C477.441 474.976 472.017 480.4 472.016 487.094C472.017 493.791 477.443 499.213 484.137 499.215C490.833 499.215 496.258 493.791 496.26 487.094H492.774" fill="#47A2DF"/>
<path d="M181.29 318.861L93.6924 481.022L122.478 554.913L0 766.005L6.03007 769.503L130.192 555.509L101.359 481.498L187.423 322.174L181.29 318.861" fill="#47A2DF"/>
<path d="M180.557 310.511H184.042C184.044 309.078 184.612 307.813 185.55 306.87C186.493 305.933 187.76 305.363 189.192 305.361C190.625 305.363 191.89 305.933 192.833 306.87C193.771 307.813 194.341 309.078 194.342 310.511C194.341 311.945 193.771 313.211 192.833 314.153C191.89 315.091 190.625 315.661 189.192 315.663C187.76 315.661 186.493 315.091 185.55 314.153C184.612 313.211 184.044 311.945 184.042 310.511H180.557H177.071C177.073 317.207 182.497 322.63 189.192 322.634C195.888 322.63 201.31 317.207 201.314 310.511C201.31 303.815 195.888 298.393 189.192 298.39C182.497 298.393 177.073 303.815 177.071 310.511H180.557" fill="#47A2DF"/>
<path d="M227.056 260.671C219.418 260.671 213.222 254.475 213.222 246.835C213.222 239.194 219.418 232.999 227.056 232.999C234.698 232.999 240.894 239.194 240.894 246.835C240.894 254.475 234.698 260.671 227.056 260.671ZM243.416 246.835C243.416 246.65 243.407 246.467 243.402 246.284L245.291 246.085L245.049 243.776L243.161 243.975C243.097 243.611 243.022 243.252 242.937 242.896L244.737 242.31L244.021 240.102L242.219 240.688C242.077 240.346 241.931 240.01 241.771 239.681L243.411 238.734L242.248 236.723L240.61 237.671C240.403 237.366 240.183 237.072 239.958 236.782L241.368 235.512L239.815 233.786L238.404 235.057C238.139 234.802 237.867 234.555 237.585 234.318L238.702 232.784L236.823 231.418L235.708 232.953C235.396 232.758 235.08 232.573 234.754 232.399L235.526 230.67L233.405 229.726L232.633 231.453C232.29 231.329 231.94 231.219 231.586 231.116L231.98 229.262L229.709 228.779L229.313 230.635C228.953 230.585 228.586 230.548 228.219 230.522V228.623H225.896V230.522C225.528 230.548 225.162 230.585 224.801 230.635L224.407 228.779L222.135 229.262L222.53 231.116C222.177 231.219 221.823 231.329 221.479 231.453L220.711 229.726L218.59 230.67L219.36 232.399C219.036 232.573 218.717 232.758 218.407 232.953L217.293 231.418L215.415 232.784L216.528 234.318C216.248 234.555 215.976 234.802 215.713 235.057L214.301 233.786L212.746 235.512L214.158 236.782C213.931 237.072 213.712 237.366 213.506 237.671L211.864 236.723L210.704 238.734L212.344 239.681C212.183 240.01 212.037 240.346 211.898 240.688L210.096 240.102L209.379 242.31L211.179 242.896C211.092 243.252 211.017 243.611 210.953 243.975L209.067 243.776L208.823 246.085L210.712 246.284C210.707 246.467 210.7 246.65 210.7 246.835C210.7 247.019 210.707 247.202 210.712 247.385L208.823 247.584L209.067 249.893L210.953 249.695C211.017 250.059 211.092 250.418 211.179 250.773L209.379 251.359L210.096 253.567L211.898 252.982C212.037 253.323 212.183 253.659 212.345 253.989L210.704 254.935L211.864 256.946L213.506 255.998C213.712 256.303 213.931 256.598 214.158 256.887L212.746 258.158L214.301 259.883L215.713 258.613C215.976 258.867 216.248 259.114 216.528 259.351L215.415 260.887L217.293 262.251L218.407 260.716C218.717 260.911 219.036 261.096 219.36 261.269L218.59 262.999L220.711 263.944L221.479 262.217C221.824 262.342 222.177 262.452 222.53 262.553L222.135 264.407L224.407 264.89L224.801 263.034C225.162 263.084 225.528 263.121 225.896 263.147V265.047H228.219V263.147C228.586 263.121 228.953 263.084 229.313 263.034L229.709 264.89L231.98 264.407L231.586 262.553C231.94 262.452 232.29 262.342 232.633 262.217L233.405 263.944L235.526 262.999L234.754 261.27C235.08 261.096 235.396 260.911 235.708 260.716L236.823 262.251L238.702 260.887L237.585 259.351C237.867 259.114 238.139 258.867 238.404 258.613L239.815 259.883L241.368 258.158L239.958 256.887C240.183 256.598 240.403 256.303 240.61 255.998L242.248 256.946L243.411 254.935L241.771 253.989C241.931 253.659 242.077 253.323 242.219 252.982L244.021 253.567L244.737 251.359L242.937 250.773C243.022 250.418 243.097 250.059 243.161 249.695L245.049 249.893L245.291 247.584L243.402 247.385C243.407 247.202 243.416 247.019 243.416 246.835" fill="#47A2DF"/>
<path d="M388.526 565.705C384.091 565.705 380.494 562.108 380.494 557.672C380.494 553.237 384.091 549.64 388.526 549.64C392.963 549.64 396.559 553.237 396.559 557.672C396.559 562.108 392.963 565.705 388.526 565.705ZM398.023 557.672L398.014 557.353L399.112 557.238L398.971 555.896L397.874 556.012C397.836 555.801 397.794 555.591 397.744 555.386L398.789 555.046L398.373 553.763L397.327 554.105C397.247 553.904 397.162 553.709 397.068 553.519L398.019 552.969L397.345 551.801L396.393 552.352C396.273 552.176 396.146 552.005 396.015 551.836L396.834 551.099L395.933 550.096L395.112 550.835C394.959 550.687 394.8 550.544 394.64 550.407L395.286 549.514L394.195 548.723L393.549 549.614C393.368 549.5 393.185 549.394 392.995 549.293L393.443 548.287L392.21 547.738L391.764 548.742C391.564 548.671 391.362 548.606 391.154 548.547L391.383 547.47L390.065 547.191L389.837 548.268C389.628 548.239 389.413 548.218 389.199 548.202V547.099H387.852V548.202C387.639 548.218 387.426 548.239 387.217 548.268L386.987 547.191L385.668 547.47L385.898 548.547C385.692 548.606 385.488 548.671 385.288 548.742L384.84 547.738L383.61 548.287L384.058 549.293C383.869 549.394 383.685 549.5 383.505 549.614L382.857 548.723L381.768 549.514L382.414 550.407C382.25 550.544 382.092 550.687 381.938 550.835L381.121 550.096L380.218 551.099L381.037 551.836C380.907 552.005 380.778 552.176 380.659 552.352L379.706 551.801L379.031 552.969L379.985 553.519C379.892 553.709 379.807 553.904 379.725 554.105L378.679 553.763L378.263 555.046L379.308 555.386C379.258 555.591 379.214 555.801 379.176 556.012L378.083 555.896L377.94 557.238L379.037 557.353L379.03 557.672L379.037 557.991L377.94 558.108L378.083 559.448L379.176 559.333C379.214 559.544 379.258 559.753 379.308 559.959L378.263 560.297L378.679 561.581L379.725 561.24C379.807 561.439 379.892 561.634 379.985 561.825L379.031 562.374L379.706 563.542L380.659 562.991C380.778 563.169 380.907 563.34 381.037 563.507L380.218 564.246L381.121 565.247L381.938 564.509C382.092 564.657 382.25 564.8 382.414 564.938L381.768 565.829L382.857 566.622L383.505 565.731C383.685 565.844 383.869 565.952 384.058 566.052L383.61 567.056L384.84 567.605L385.288 566.602C385.488 566.676 385.692 566.738 385.898 566.798L385.668 567.873L386.987 568.154L387.217 567.076C387.426 567.106 387.639 567.127 387.852 567.143V568.244H389.199V567.143C389.413 567.127 389.628 567.106 389.837 567.076L390.065 568.154L391.383 567.873L391.154 566.798C391.362 566.738 391.564 566.676 391.764 566.602L392.21 567.605L393.443 567.056L392.995 566.052C393.185 565.952 393.368 565.844 393.549 565.731L394.195 566.622L395.286 565.829L394.64 564.938C394.8 564.8 394.959 564.657 395.112 564.509L395.933 565.247L396.834 564.246L396.015 563.507C396.146 563.34 396.273 563.169 396.393 562.991L397.345 563.542L398.019 562.374L397.068 561.825C397.162 561.634 397.247 561.439 397.327 561.24L398.373 561.581L398.789 560.297L397.744 559.959C397.794 559.753 397.836 559.544 397.874 559.333L398.971 559.448L399.112 558.108L398.014 557.991L398.023 557.672Z" fill="#47A2DF"/>
<path d="M366.71 151.603C362.74 151.603 359.519 148.384 359.519 144.412C359.519 140.439 362.74 137.22 366.71 137.22C370.682 137.22 373.902 140.439 373.902 144.412C373.902 148.384 370.682 151.603 366.71 151.603ZM378.157 146.38L377.313 146.073C376.844 145.903 376.555 145.442 376.581 144.944C376.591 144.768 376.597 144.59 376.597 144.412C376.597 144.242 376.592 144.073 376.583 143.904L378.284 143.447C378.882 143.288 379.234 142.675 379.073 142.081L378.584 140.249C378.425 139.655 377.811 139.299 377.214 139.459L376.346 139.693C375.866 139.82 375.366 139.613 375.105 139.191L374.99 139.013C374.718 138.597 374.741 138.055 375.06 137.673L375.638 136.983C376.035 136.511 375.975 135.807 375.501 135.411L374.049 134.193C373.576 133.795 372.871 133.856 372.475 134.33L371.898 135.017C371.581 135.395 371.055 135.517 370.603 135.324C370.267 135.179 369.924 135.054 369.57 134.947C369.097 134.804 368.775 134.374 368.775 133.882V132.983C368.775 132.366 368.275 131.866 367.658 131.866H365.764C365.147 131.866 364.646 132.366 364.646 132.983V133.879C364.646 134.377 364.313 134.806 363.838 134.951L363.634 135.014C363.162 135.169 362.646 135.007 362.36 134.599L361.846 133.865C361.492 133.361 360.797 133.238 360.291 133.591L358.738 134.679C358.233 135.033 358.111 135.73 358.465 136.234L358.981 136.971C359.266 137.379 359.24 137.921 358.934 138.313L358.805 138.478C358.507 138.876 357.989 139.041 357.524 138.87L356.677 138.564C356.098 138.351 355.457 138.651 355.246 139.231L354.597 141.01C354.387 141.591 354.686 142.232 355.267 142.443L356.109 142.75C356.579 142.921 356.868 143.381 356.839 143.879C356.83 144.055 356.825 144.233 356.825 144.412C356.825 144.581 356.828 144.751 356.837 144.92L355.138 145.376C354.542 145.535 354.188 146.148 354.346 146.743L354.838 148.574C354.997 149.17 355.61 149.524 356.206 149.364L357.074 149.132C357.553 149.003 358.053 149.21 358.318 149.632L358.43 149.81C358.702 150.226 358.681 150.768 358.36 151.15L357.783 151.838C357.388 152.312 357.449 153.017 357.921 153.414L359.373 154.63C359.845 155.028 360.549 154.967 360.946 154.493L361.525 153.804C361.84 153.428 362.365 153.306 362.818 153.499C363.153 153.644 363.498 153.769 363.852 153.876C364.322 154.019 364.646 154.449 364.646 154.942V155.84C364.646 156.457 365.147 156.957 365.764 156.957H367.658C368.275 156.957 368.775 156.457 368.775 155.84V154.944C368.775 154.446 369.106 154.017 369.584 153.872L369.786 153.81C370.258 153.654 370.776 153.817 371.06 154.224L371.574 154.956C371.928 155.462 372.625 155.585 373.13 155.232L374.681 154.146C375.187 153.79 375.311 153.093 374.957 152.588L374.441 151.852C374.157 151.445 374.179 150.903 374.488 150.512L374.615 150.343C374.915 149.948 375.431 149.784 375.9 149.953L376.743 150.259C377.323 150.472 377.965 150.172 378.176 149.592L378.822 147.813C379.033 147.232 378.737 146.591 378.157 146.38" fill="#47A2DF"/>
<path d="M227.056 589.976C223.085 589.976 219.865 586.756 219.865 582.784C219.865 578.812 223.085 575.593 227.056 575.593C231.029 575.593 234.248 578.812 234.248 582.784C234.248 586.756 231.029 589.976 227.056 589.976ZM238.502 584.753L237.659 584.446C237.19 584.274 236.901 583.815 236.927 583.315C236.937 583.141 236.942 582.961 236.942 582.784C236.942 582.613 236.937 582.444 236.928 582.277L238.629 581.82C239.227 581.66 239.579 581.048 239.421 580.452L238.929 578.622C238.771 578.026 238.157 577.672 237.563 577.832L236.693 578.064C236.212 578.193 235.712 577.986 235.451 577.564L235.336 577.385C235.064 576.968 235.086 576.426 235.405 576.046L235.984 575.356C236.381 574.884 236.32 574.178 235.846 573.782L234.394 572.564C233.922 572.168 233.216 572.229 232.821 572.703L232.244 573.39C231.927 573.768 231.4 573.889 230.949 573.695C230.613 573.552 230.269 573.427 229.915 573.319C229.443 573.177 229.121 572.745 229.121 572.254V571.355C229.121 570.739 228.621 570.237 228.004 570.237H226.109C225.492 570.237 224.992 570.739 224.992 571.355V572.252C224.992 572.749 224.659 573.179 224.183 573.322L223.981 573.387C223.509 573.54 222.991 573.378 222.706 572.972L222.191 572.238C221.839 571.733 221.142 571.611 220.637 571.964L219.084 573.05C218.579 573.404 218.457 574.101 218.81 574.607L219.326 575.342C219.612 575.752 219.586 576.292 219.279 576.684L219.15 576.85C218.852 577.249 218.335 577.412 217.869 577.243L217.022 576.935C216.444 576.724 215.802 577.022 215.591 577.602L214.943 579.384C214.732 579.964 215.032 580.605 215.612 580.816L216.454 581.123C216.925 581.292 217.214 581.754 217.186 582.25C217.176 582.428 217.17 582.604 217.17 582.784C217.17 582.953 217.174 583.124 217.183 583.293L215.483 583.747C214.887 583.906 214.534 584.52 214.694 585.116L215.184 586.946C215.344 587.542 215.956 587.895 216.552 587.737L217.42 587.503C217.901 587.374 218.399 587.583 218.664 588.005L218.776 588.181C219.049 588.599 219.028 589.141 218.708 589.523L218.129 590.21C217.733 590.684 217.794 591.388 218.267 591.785L219.718 593.003C220.191 593.401 220.895 593.338 221.292 592.866L221.871 592.177C222.186 591.801 222.711 591.677 223.166 591.872C223.499 592.017 223.845 592.143 224.197 592.247C224.668 592.39 224.992 592.82 224.992 593.314V594.211C224.992 594.83 225.492 595.33 226.109 595.33H228.004C228.621 595.33 229.121 594.83 229.121 594.211V593.317C229.121 592.819 229.452 592.388 229.929 592.244L230.132 592.181C230.604 592.026 231.121 592.188 231.406 592.597L231.92 593.329C232.273 593.837 232.971 593.958 233.476 593.605L235.029 592.517C235.534 592.163 235.656 591.466 235.304 590.961L234.787 590.224C234.502 589.818 234.527 589.274 234.834 588.883L234.963 588.716C235.261 588.319 235.776 588.155 236.245 588.324L237.089 588.633C237.669 588.843 238.31 588.544 238.521 587.963L239.168 586.184C239.381 585.605 239.083 584.964 238.502 584.753" fill="#47A2DF"/>
<path d="M439.295 542.789C436.836 542.789 434.843 540.796 434.843 538.337C434.843 535.88 436.836 533.886 439.295 533.886C441.752 533.886 443.744 535.88 443.744 538.337C443.744 540.796 441.752 542.789 439.295 542.789ZM446.376 539.556L445.854 539.367C445.563 539.259 445.386 538.975 445.401 538.667L445.412 538.337L445.403 538.024L446.456 537.741C446.825 537.642 447.043 537.264 446.944 536.894L446.64 535.762C446.543 535.392 446.163 535.174 445.793 535.274L445.257 535.417C444.96 535.497 444.65 535.368 444.488 535.106L444.417 534.997C444.249 534.739 444.263 534.404 444.46 534.167L444.817 533.742C445.063 533.449 445.027 533.011 444.734 532.767L443.835 532.013C443.542 531.767 443.106 531.807 442.86 532.1L442.503 532.525C442.308 532.759 441.984 532.834 441.701 532.713C441.494 532.623 441.281 532.548 441.064 532.48C440.771 532.393 440.572 532.124 440.572 531.823V531.265C440.572 530.884 440.262 530.575 439.88 530.575H438.707C438.326 530.575 438.015 530.884 438.015 531.265V531.821C438.015 532.128 437.811 532.395 437.515 532.482L437.391 532.522C437.099 532.618 436.778 532.518 436.602 532.266L436.283 531.812C436.065 531.499 435.633 531.422 435.321 531.642L434.361 532.314C434.049 532.534 433.972 532.964 434.192 533.276L434.509 533.733C434.687 533.986 434.671 534.32 434.481 534.563L434.401 534.665C434.216 534.913 433.897 535.014 433.608 534.909L433.085 534.719C432.726 534.587 432.329 534.773 432.198 535.131L431.799 536.234C431.668 536.593 431.851 536.989 432.21 537.119L432.733 537.309C433.022 537.414 433.202 537.7 433.186 538.008L433.176 538.337L433.184 538.651L432.132 538.935C431.762 539.033 431.543 539.413 431.644 539.78L431.947 540.913C432.045 541.281 432.424 541.501 432.792 541.403L433.331 541.258C433.629 541.18 433.935 541.307 434.099 541.569L434.169 541.678C434.338 541.936 434.324 542.273 434.127 542.508L433.77 542.933C433.524 543.226 433.563 543.662 433.854 543.907L434.753 544.662C435.044 544.906 435.481 544.869 435.727 544.577L436.084 544.151C436.28 543.918 436.605 543.841 436.886 543.961C437.093 544.05 437.306 544.129 437.524 544.195C437.817 544.282 438.015 544.549 438.015 544.854V545.41C438.015 545.791 438.326 546.102 438.707 546.102H439.88C440.262 546.102 440.572 545.791 440.572 545.41V544.855C440.572 544.547 440.776 544.282 441.072 544.191L441.196 544.153C441.489 544.057 441.809 544.158 441.985 544.409L442.303 544.864C442.522 545.178 442.953 545.253 443.266 545.035L444.228 544.361C444.539 544.143 444.615 543.71 444.396 543.398L444.079 542.942C443.901 542.691 443.916 542.355 444.106 542.112L444.187 542.008C444.371 541.764 444.69 541.661 444.98 541.767L445.502 541.957C445.861 542.088 446.259 541.903 446.389 541.544L446.789 540.443C446.921 540.084 446.735 539.686 446.376 539.556" fill="#47A2DF"/>
<path d="M332.423 418.111L332.288 418.268C331.633 419.017 328.646 422.067 324.007 422.06C321.02 422.058 317.293 420.819 312.94 416.805L312.537 416.704C312.537 416.704 312.45 416.725 312.276 416.762C311.753 416.87 310.484 417.091 308.885 417.091C306.931 417.093 304.487 416.762 302.283 415.526C300.078 414.291 298.086 412.17 296.981 408.47C296.913 408.241 296.673 408.109 296.443 408.175L296.286 408.215C295.965 408.29 295.184 408.447 294.261 408.445C293.386 408.447 292.387 408.306 291.516 407.858C290.645 407.407 289.886 406.668 289.426 405.374L289.161 405.108L288.787 405.148L288.649 405.228C287.985 405.604 285.007 407.147 281.439 407.143C277.953 407.131 273.914 405.732 270.66 400.266L270.393 400.066L270.315 400.043C269.895 399.923 267.887 399.271 265.824 397.56C263.76 395.845 261.637 393.088 260.932 388.677C260.768 387.65 260.695 386.669 260.695 385.738C260.695 381.923 261.913 378.91 263.131 376.845C263.741 375.813 264.351 375.018 264.806 374.487C265.032 374.22 265.221 374.02 265.351 373.886L265.499 373.738L265.548 373.692C265.676 373.575 265.723 373.394 265.667 373.23L265.622 373.077C265.533 372.758 265.35 371.972 265.35 370.993C265.35 369.97 265.547 368.746 266.237 367.592C266.927 366.439 268.107 365.336 270.161 364.553C270.324 364.49 270.433 364.337 270.442 364.164C270.442 364.164 270.449 363.985 270.491 363.643C270.636 362.449 271.198 359.41 273.229 356.597C275.264 353.786 278.729 351.17 284.853 350.743C285.031 350.731 285.184 350.609 285.238 350.438L285.294 350.274C285.592 349.436 287.112 345.546 290.784 341.886C294.459 338.228 300.265 334.783 309.247 334.779C311.3 334.779 313.52 334.96 315.92 335.361L316.293 335.248L316.511 335.055C317.557 334.154 322.245 330.495 328.77 330.501C332.294 330.502 336.365 331.553 340.758 334.697L341.198 334.737L341.26 334.709C341.576 334.574 343.04 333.998 344.845 334C347.141 334.016 349.945 334.863 351.945 338.763C352.034 338.938 352.226 339.032 352.418 338.993L352.595 338.964C352.96 338.908 353.862 338.791 355.121 338.791C359.413 338.802 367.728 340.112 373.059 349.68C373.145 349.833 373.314 349.921 373.488 349.901L373.661 349.889C373.779 349.882 373.957 349.875 374.183 349.875C375.346 349.874 377.796 350.065 380.318 351.414C382.84 352.765 385.454 355.252 387.003 359.949L387.253 360.215L387.329 360.25C387.742 360.435 389.699 361.385 391.535 363.344C393.37 365.308 395.09 368.255 395.092 372.526L395.09 372.76L395.276 373.122L395.313 373.148C395.723 373.457 399.302 376.291 399.301 382.045C399.301 383.414 399.098 384.951 398.602 386.667L398.64 387.004L398.708 387.129C399.025 387.739 400.331 390.489 400.327 393.848C400.327 395.36 400.066 396.997 399.339 398.633C398.018 401.603 396.744 403.379 395.817 404.407C395.351 404.92 394.973 405.247 394.719 405.442L394.429 405.643L394.363 405.683L394.351 405.69L394.389 405.765L394.353 405.69H394.351L394.389 405.765L394.353 405.69C394.203 405.763 394.109 405.918 394.112 406.085V406.18C394.112 406.837 394.053 410.852 392.728 415.463C391.406 420.078 388.825 425.263 383.833 428.351C380.639 430.331 376.702 431.039 372.746 431.039C368.173 431.039 363.587 430.094 360.154 429.148C358.437 428.674 357.008 428.202 356.01 427.846C355.009 427.492 354.45 427.259 354.448 427.259C354.225 427.166 353.971 427.273 353.878 427.494C353.786 427.717 353.892 427.971 354.115 428.064C354.141 428.071 363.364 431.905 372.746 431.91C376.801 431.908 380.9 431.192 384.293 429.092C389.548 425.835 392.209 420.43 393.567 415.704C394.924 410.972 394.984 406.889 394.984 406.18V406.073L394.548 406.079L394.743 406.469C394.842 406.42 397.432 405.069 400.135 398.987C400.92 397.223 401.198 395.461 401.198 393.848C401.195 389.754 399.417 386.61 399.4 386.575L399.02 386.789L399.438 386.91C399.958 385.12 400.172 383.499 400.172 382.045C400.167 375.486 395.825 372.441 395.775 372.408L395.526 372.765L395.961 372.77L395.963 372.526C395.967 367.711 393.867 364.408 391.78 362.347C389.691 360.28 387.617 359.424 387.584 359.41L387.418 359.813L387.831 359.677C386.224 354.783 383.431 352.083 380.728 350.646C378.026 349.204 375.438 349.004 374.183 349.004C373.694 349.004 373.406 349.033 373.392 349.035L373.439 349.469L373.821 349.257C368.307 339.34 359.568 337.909 355.121 337.92C353.373 337.92 352.271 338.134 352.25 338.139L352.334 338.566L352.723 338.368C350.609 334.181 347.362 333.111 344.845 333.129C342.573 333.131 340.861 333.934 340.828 333.948L341.013 334.342L341.267 333.988C336.741 330.746 332.468 329.628 328.77 329.629C320.929 329.638 315.73 334.586 315.692 334.617L315.993 334.933L316.065 334.502C313.621 334.093 311.352 333.908 309.247 333.908C299.421 333.903 293.177 337.967 289.437 342.031C285.693 346.093 284.421 350.14 284.407 350.177L284.824 350.307L284.794 349.874C277.53 350.361 273.657 353.938 271.69 357.376C269.714 360.811 269.574 364.088 269.571 364.126L270.006 364.145L269.851 363.737C267.645 364.574 266.279 365.818 265.487 367.145C264.696 368.473 264.478 369.862 264.478 370.993C264.478 372.443 264.832 373.481 264.842 373.511L265.254 373.372L264.961 373.049C264.923 373.087 259.83 377.723 259.823 385.738C259.823 386.714 259.9 387.743 260.071 388.814C260.855 393.755 263.382 396.802 265.705 398.579C268.028 400.36 270.141 400.901 270.177 400.909L270.285 400.488L269.91 400.711C273.276 406.417 277.711 408.029 281.439 408.015C285.801 408.01 289.207 405.908 289.243 405.89L289.015 405.519L288.604 405.664C289.127 407.156 290.073 408.1 291.119 408.633C292.164 409.169 293.297 409.317 294.261 409.317C295.622 409.317 296.659 409.019 296.683 409.013L296.563 408.593L296.145 408.719C297.3 412.611 299.466 414.956 301.858 416.288C304.247 417.623 306.835 417.963 308.885 417.963C311.126 417.963 312.729 417.553 312.752 417.548L312.645 417.126L312.349 417.447C316.813 421.568 320.769 422.933 324.007 422.931C329.772 422.919 333.074 418.684 333.108 418.648C333.256 418.458 333.223 418.184 333.034 418.036C332.844 417.888 332.571 417.921 332.423 418.111" fill="white"/>
<path d="M341.888 392.066H319.584V369.764H341.888V392.066Z" fill="white"/>
<path d="M322.202 394.068H320.887V367.763H322.202V394.068Z" fill="white"/>
<path d="M325.191 394.068H323.875V367.763H325.191V394.068Z" fill="white"/>
<path d="M328.182 394.068H326.866V367.763H328.182V394.068Z" fill="white"/>
<path d="M331.17 394.068H329.854V367.763H331.17V394.068Z" fill="white"/>
<path d="M334.158 394.068H332.844V367.763H334.158V394.068Z" fill="white"/>
<path d="M337.148 394.068H335.832V367.763H337.148V394.068Z" fill="white"/>
<path d="M340.137 394.068H338.821V367.763H340.137V394.068Z" fill="white"/>
<path d="M343.664 389.225V390.541H317.358V389.225H343.664Z" fill="white"/>
<path d="M343.664 386.235V387.551H317.358V386.235H343.664Z" fill="white"/>
<path d="M343.664 383.247V384.562H317.358V383.247H343.664Z" fill="white"/>
<path d="M343.664 380.257V381.573H317.358V380.257H343.664Z" fill="white"/>
<path d="M343.664 377.268V378.584H317.358V377.268H343.664Z" fill="white"/>
<path d="M343.664 374.28V375.594H317.358V374.28H343.664Z" fill="white"/>
<path d="M343.664 371.29V372.604H317.358V371.29H343.664Z" fill="white"/>
<path d="M284.524 350.624L307.449 372.264L307.749 372.383H319.957C320.197 372.383 320.392 372.188 320.392 371.947C320.392 371.707 320.197 371.511 319.957 371.511H307.921L285.122 349.99C284.948 349.826 284.672 349.833 284.507 350.009C284.341 350.183 284.35 350.458 284.524 350.624" fill="white"/>
<path d="M279.223 351.693L303.084 375.247L303.39 375.372H319.957C320.198 375.372 320.393 375.177 320.393 374.936C320.393 374.696 320.198 374.501 319.957 374.501H303.57L279.835 351.072C279.664 350.903 279.389 350.905 279.219 351.076C279.05 351.248 279.052 351.524 279.223 351.693" fill="white"/>
<path d="M341.888 381.352H356.031L394.309 406.443C394.51 406.575 394.78 406.519 394.912 406.317C395.045 406.117 394.987 405.847 394.787 405.714L356.398 380.552L356.16 380.48H341.888C341.647 380.48 341.452 380.676 341.452 380.916C341.452 381.157 341.647 381.352 341.888 381.352" fill="white"/>
<path d="M269.688 364.441L288.056 384.201L288.374 384.339H319.584C319.825 384.339 320.02 384.145 320.02 383.903C320.02 383.663 319.825 383.469 319.584 383.469L288.565 383.467L270.326 363.849C270.162 363.673 269.887 363.662 269.711 363.826C269.533 363.99 269.525 364.265 269.688 364.441" fill="white"/>
<path d="M264.933 373.664L277.314 387.188L277.637 387.329H319.584C319.824 387.329 320.02 387.134 320.02 386.893C320.02 386.653 319.824 386.458 319.584 386.458H277.828L265.577 373.077C265.413 372.899 265.137 372.887 264.96 373.049C264.784 373.211 264.771 373.488 264.933 373.664Z" fill="white"/>
<path d="M280.284 364.543H292.419C292.66 364.543 292.855 364.348 292.855 364.107C292.855 363.867 292.66 363.672 292.419 363.672H280.284C280.044 363.672 279.849 363.867 279.849 364.107C279.849 364.348 280.044 364.543 280.284 364.543Z" fill="white"/>
<path d="M288.394 371.929L287.839 383.884C287.827 384.125 288.014 384.329 288.254 384.339C288.495 384.351 288.699 384.165 288.709 383.925L289.263 371.969C289.275 371.728 289.089 371.525 288.849 371.512C288.608 371.502 288.404 371.688 288.394 371.929Z" fill="white"/>
<path d="M279.979 364.145H279.543C279.543 364.748 279.055 365.236 278.452 365.238C277.848 365.236 277.36 364.748 277.36 364.145C277.36 363.542 277.848 363.054 278.452 363.053C279.055 363.054 279.543 363.542 279.543 364.145H279.979H280.415C280.415 363.061 279.536 362.181 278.452 362.181C277.367 362.181 276.488 363.061 276.488 364.145C276.488 365.231 277.367 366.109 278.452 366.109C279.536 366.109 280.415 365.231 280.415 364.145H279.979Z" fill="white"/>
<path d="M309.41 355.281H321.544C321.784 355.281 321.979 355.086 321.979 354.846C321.979 354.605 321.784 354.41 321.544 354.41H309.41C309.17 354.41 308.975 354.605 308.975 354.846C308.975 355.086 309.17 355.281 309.41 355.281Z" fill="white"/>
<path d="M309.105 354.884H308.669C308.669 355.487 308.181 355.975 307.576 355.976C306.973 355.975 306.485 355.487 306.484 354.884C306.485 354.281 306.973 353.793 307.576 353.791C308.181 353.793 308.669 354.281 308.669 354.884H309.105H309.541C309.541 353.8 308.662 352.919 307.576 352.919C306.492 352.919 305.614 353.8 305.612 354.884C305.614 355.969 306.492 356.848 307.576 356.848C308.662 356.848 309.541 355.969 309.541 354.884H309.105Z" fill="white"/>
<path d="M351.616 362.684H339.481C339.24 362.684 339.045 362.879 339.045 363.12C339.045 363.36 339.24 363.556 339.481 363.556H351.616C351.856 363.556 352.051 363.36 352.051 363.12C352.051 362.879 351.856 362.684 351.616 362.684Z" fill="white"/>
<path d="M351.92 363.161H351.484C351.484 364.245 352.363 365.123 353.447 365.123C354.531 365.123 355.411 364.245 355.411 363.161C355.411 362.075 354.531 361.197 353.447 361.197C352.363 361.197 351.484 362.075 351.484 363.161H351.92H352.356C352.356 362.556 352.846 362.068 353.447 362.068C354.05 362.068 354.538 362.556 354.54 363.161C354.538 363.762 354.05 364.25 353.447 364.252C352.846 364.25 352.356 363.762 352.356 363.161H351.92Z" fill="white"/>
<path d="M365.581 401.066H353.446C353.206 401.066 353.011 401.261 353.011 401.502C353.011 401.742 353.206 401.938 353.446 401.938H365.581C365.822 401.938 366.017 401.742 366.017 401.502C366.017 401.261 365.822 401.066 365.581 401.066Z" fill="white"/>
<path d="M365.885 401.542H365.449C365.451 402.626 366.329 403.504 367.413 403.506C368.499 403.504 369.377 402.626 369.377 401.542C369.377 400.456 368.499 399.578 367.413 399.578C366.329 399.578 365.451 400.456 365.449 401.542H365.885H366.321C366.322 400.937 366.81 400.449 367.413 400.449C368.018 400.449 368.506 400.937 368.506 401.542C368.506 402.145 368.018 402.633 367.413 402.634C366.81 402.633 366.322 402.145 366.321 401.542H365.885Z" fill="white"/>
<path d="M341.888 401.04H341.452C341.452 402.124 342.331 403.002 343.416 403.002C344.5 403.002 345.379 402.124 345.379 401.04C345.379 399.954 344.5 399.075 343.416 399.075C342.331 399.075 341.452 399.954 341.452 401.04H341.888H342.324C342.325 400.435 342.813 399.947 343.416 399.947C344.018 399.947 344.506 400.435 344.507 401.04C344.506 401.643 344.018 402.131 343.416 402.131C342.813 402.131 342.325 401.643 342.324 401.04H341.888Z" fill="white"/>
<path d="M373.707 412.591H354.281C354.041 412.591 353.846 412.787 353.846 413.027C353.846 413.268 354.041 413.463 354.281 413.463H373.707C373.947 413.463 374.142 413.268 374.142 413.027C374.142 412.787 373.947 412.591 373.707 412.591Z" fill="white"/>
<path d="M373.637 413.09H373.201C373.201 414.285 374.17 415.256 375.366 415.256C376.561 415.256 377.53 414.285 377.53 413.09C377.53 411.894 376.561 410.925 375.366 410.923C374.17 410.925 373.201 411.894 373.201 413.09H373.637H374.073C374.073 412.375 374.651 411.796 375.366 411.795C376.08 411.796 376.657 412.375 376.659 413.09C376.657 413.804 376.079 414.383 375.366 414.384C374.651 414.383 374.073 413.804 374.073 413.09H373.637Z" fill="white"/>
<path d="M360.167 472.568H359.731C359.731 473.763 360.7 474.731 361.896 474.732C363.093 474.732 364.062 473.763 364.064 472.568C364.064 471.371 363.093 470.4 361.896 470.4C360.7 470.4 359.731 471.371 359.731 472.568H360.167H360.603C360.605 471.852 361.183 471.273 361.896 471.271C362.612 471.273 363.191 471.852 363.193 472.568C363.191 473.281 362.612 473.859 361.896 473.861C361.183 473.859 360.605 473.281 360.603 472.568H360.167Z" fill="white"/>
<path d="M351.718 466.667H351.282C351.282 467.862 352.251 468.831 353.447 468.831C354.644 468.831 355.613 467.862 355.613 466.667C355.613 465.471 354.644 464.502 353.447 464.502C352.251 464.502 351.282 465.471 351.282 466.667H351.718H352.154C352.154 465.952 352.732 465.373 353.447 465.373C354.163 465.373 354.74 465.952 354.742 466.667C354.74 467.379 354.163 467.958 353.447 467.96C352.732 467.958 352.154 467.379 352.154 466.667H351.718Z" fill="white"/>
<path d="M339.806 462.236H339.37C339.37 463.431 340.339 464.4 341.535 464.4C342.73 464.4 343.699 463.431 343.699 462.236C343.699 461.039 342.73 460.07 341.535 460.07C340.339 460.07 339.37 461.039 339.37 462.236H339.806H340.242C340.242 461.52 340.82 460.941 341.535 460.941C342.247 460.941 342.826 461.52 342.828 462.236C342.826 462.949 342.247 463.527 341.535 463.529C340.82 463.527 340.242 462.949 340.242 462.236H339.806Z" fill="white"/>
<path d="M329.993 469.779H329.558C329.558 470.974 330.527 471.943 331.724 471.943C332.919 471.943 333.888 470.974 333.888 469.779C333.888 468.583 332.919 467.614 331.724 467.614C330.527 467.614 329.558 468.583 329.558 469.779H329.993H330.429C330.429 469.064 331.008 468.486 331.724 468.486C332.438 468.486 333.015 469.064 333.017 469.779C333.015 470.493 332.438 471.07 331.724 471.072C331.008 471.07 330.429 470.492 330.429 469.779H329.993Z" fill="white"/>
<path d="M381.809 388.73H381.373C381.373 389.816 382.253 390.694 383.337 390.694C384.423 390.694 385.301 389.816 385.301 388.73C385.301 387.644 384.423 386.766 383.337 386.766C382.253 386.766 381.373 387.644 381.373 388.73H381.809H382.244C382.246 388.127 382.734 387.639 383.337 387.637C383.94 387.639 384.428 388.127 384.43 388.73C384.428 389.333 383.94 389.821 383.337 389.823C382.734 389.821 382.246 389.333 382.244 388.73H381.809Z" fill="white"/>
<path d="M290.358 369.763H289.922C289.921 370.366 289.433 370.854 288.83 370.856C288.228 370.854 287.739 370.366 287.739 369.763C287.739 369.16 288.228 368.672 288.83 368.671C289.433 368.672 289.921 369.16 289.922 369.763H290.358H290.794C290.792 368.679 289.914 367.799 288.83 367.799C287.746 367.801 286.867 368.679 286.867 369.763C286.867 370.847 287.746 371.726 288.83 371.728C289.914 371.728 290.792 370.847 290.794 369.763H290.358Z" fill="white"/>
<path d="M292.419 400.013H291.984C291.984 400.616 291.494 401.104 290.891 401.106C290.288 401.104 289.8 400.616 289.798 400.013C289.8 399.409 290.288 398.921 290.891 398.921C291.494 398.921 291.984 399.409 291.984 400.013H292.419H292.855C292.855 398.928 291.977 398.049 290.891 398.049C289.807 398.049 288.927 398.928 288.927 400.013C288.927 401.097 289.807 401.976 290.891 401.978C291.977 401.976 292.855 401.097 292.855 400.013H292.419Z" fill="white"/>
<path d="M319.957 389.447H306.729C306.569 389.447 306.422 389.534 306.346 389.675L296.18 408.385C296.065 408.596 296.143 408.861 296.356 408.976C296.567 409.091 296.832 409.013 296.947 408.802L306.989 390.318H319.957C320.197 390.318 320.393 390.123 320.393 389.882C320.393 389.642 320.197 389.447 319.957 389.447" fill="white"/>
<path d="M292.136 398.685L298.145 387.094C298.255 386.881 298.171 386.618 297.958 386.506C297.744 386.397 297.481 386.48 297.371 386.693L291.362 398.284C291.252 398.497 291.336 398.76 291.548 398.872C291.763 398.981 292.026 398.898 292.136 398.685Z" fill="white"/>
<path d="M273.859 396.983H273.423C273.421 397.584 272.933 398.074 272.33 398.074C271.727 398.074 271.238 397.584 271.238 396.983C271.238 396.38 271.727 395.892 272.33 395.89C272.933 395.892 273.421 396.38 273.423 396.983H273.859H274.294C274.294 395.899 273.414 395.021 272.33 395.019C271.245 395.021 270.366 395.899 270.366 396.983C270.366 398.067 271.245 398.945 272.33 398.945C273.414 398.945 274.294 398.067 274.294 396.983H273.859Z" fill="white"/>
<path d="M273.617 395.655L278.054 387.094C278.166 386.882 278.082 386.618 277.868 386.507C277.655 386.397 277.392 386.481 277.28 386.693L272.843 395.254C272.733 395.468 272.817 395.731 273.03 395.841C273.244 395.953 273.507 395.869 273.617 395.655Z" fill="white"/>
<path d="M321.979 369.764V349.209L321.949 349.05L316.4 334.774C316.311 334.55 316.06 334.439 315.836 334.526C315.611 334.613 315.499 334.866 315.588 335.089L321.108 349.291V369.764C321.108 370.004 321.303 370.199 321.543 370.199C321.784 370.199 321.979 370.004 321.979 369.764" fill="white"/>
<path d="M340.672 334.073L330.17 347.393L330.077 347.663V369.764C330.077 370.004 330.272 370.199 330.513 370.199C330.753 370.199 330.949 370.004 330.949 369.764V347.813L341.355 334.611C341.505 334.423 341.472 334.15 341.283 334C341.093 333.852 340.82 333.883 340.672 334.073Z" fill="white"/>
<path d="M351.985 338.306L339.13 355.713L339.045 355.971V369.764C339.045 370.004 339.24 370.199 339.481 370.199C339.721 370.199 339.916 370.004 339.916 369.764V356.114L352.686 338.824C352.829 338.63 352.789 338.358 352.595 338.216C352.402 338.073 352.128 338.113 351.985 338.306Z" fill="white"/>
<path d="M373.079 349.225L355.971 374.501H341.888C341.647 374.501 341.452 374.696 341.452 374.936C341.452 375.177 341.647 375.372 341.888 375.372H356.203L356.564 375.18L373.8 349.713C373.936 349.513 373.884 349.242 373.685 349.108C373.485 348.972 373.215 349.025 373.079 349.225" fill="white"/>
<path d="M387.063 359.56L374.299 377.49H341.888C341.647 377.49 341.452 377.685 341.452 377.926C341.452 378.166 341.647 378.361 341.888 378.361H374.523L374.877 378.178L387.774 360.066C387.913 359.869 387.866 359.597 387.671 359.457C387.474 359.318 387.202 359.363 387.063 359.56" fill="white"/>
<path d="M395.278 372.067L383.878 387.289C383.733 387.482 383.773 387.756 383.965 387.899C384.159 388.043 384.431 388.005 384.575 387.812L395.975 372.59C396.119 372.398 396.079 372.125 395.888 371.98C395.694 371.837 395.422 371.876 395.278 372.067Z" fill="white"/>
<path d="M389.954 396.901H389.519C389.519 397.987 390.397 398.865 391.483 398.865C392.567 398.865 393.447 397.987 393.447 396.901C393.447 395.817 392.567 394.939 391.483 394.939C390.397 394.939 389.519 395.817 389.519 396.901H389.954H390.39C390.392 396.298 390.88 395.81 391.483 395.81C392.086 395.81 392.574 396.298 392.575 396.901C392.574 397.506 392.086 397.994 391.483 397.994C390.88 397.994 390.392 397.506 390.39 396.901H389.954Z" fill="white"/>
<path d="M398.803 385.975L391.961 395.112C391.816 395.304 391.854 395.578 392.048 395.722C392.239 395.865 392.513 395.827 392.658 395.634L399.5 386.496C399.645 386.304 399.606 386.031 399.413 385.886C399.221 385.743 398.948 385.782 398.803 385.975Z" fill="white"/>
<path d="M341.888 390.318H351.208L353.847 427.692C353.864 427.931 354.072 428.112 354.312 428.095C354.553 428.079 354.732 427.87 354.717 427.629L352.048 389.852C352.033 389.624 351.843 389.446 351.614 389.446H341.888C341.647 389.446 341.452 389.642 341.452 389.882C341.452 390.123 341.647 390.318 341.888 390.318" fill="white"/>
<path d="M313.033 417.324L321.153 401.475H341.484C341.727 401.475 341.92 401.28 341.92 401.04C341.92 400.798 341.727 400.604 341.484 400.604H320.886C320.723 400.604 320.573 400.695 320.5 400.841L312.258 416.927C312.148 417.141 312.234 417.405 312.448 417.514C312.662 417.622 312.924 417.539 313.033 417.324Z" fill="white"/>
<path d="M332.409 409.804L333.848 435.096L329.699 438.872L329.558 439.215L330.954 467.651C330.966 467.891 331.17 468.076 331.41 468.064C331.651 468.052 331.835 467.848 331.823 467.607L330.438 439.379L334.589 435.601L334.73 435.254L333.278 409.755C333.265 409.515 333.059 409.332 332.818 409.346C332.578 409.358 332.395 409.565 332.409 409.804" fill="white"/>
<path d="M338.171 409.107L341.099 460.53C341.113 460.771 341.318 460.954 341.559 460.94C341.799 460.926 341.982 460.72 341.968 460.48L339.04 409.059C339.026 408.818 338.821 408.633 338.58 408.647C338.34 408.661 338.157 408.867 338.171 409.107" fill="white"/>
<path d="M343.119 409.107L344.909 440.512C344.919 440.699 345.046 440.856 345.226 440.906L352.146 442.844L353.011 464.953C353.02 465.194 353.223 465.382 353.464 465.372C353.703 465.363 353.891 465.161 353.882 464.92L353.006 442.494C352.997 442.304 352.87 442.142 352.687 442.091L345.761 440.152L343.99 409.059C343.976 408.818 343.771 408.633 343.53 408.647C343.29 408.661 343.107 408.867 343.119 409.107" fill="white"/>
<path d="M348.525 408.796L350.033 435.295C350.043 435.487 350.177 435.647 350.362 435.694L359.102 437.865L361.462 470.867C361.479 471.107 361.687 471.289 361.927 471.271C362.168 471.254 362.349 471.045 362.332 470.806L359.949 437.487C359.935 437.301 359.801 437.142 359.618 437.097L350.885 434.925L349.395 408.747C349.381 408.506 349.175 408.323 348.935 408.336C348.694 408.35 348.511 408.555 348.525 408.796" fill="white"/>
</g>
</g>
</svg>
