<svg width="160" height="123" viewBox="0 0 160 123" fill="none" xmlns="http://www.w3.org/2000/svg">
<path d="M0.206691 8.39117C-0.129551 8.8293 -0.0469514 9.45706 0.391181 9.7933L7.53097 15.2727C7.9691 15.6089 8.59685 15.5263 8.93309 15.0882C9.26933 14.65 9.18674 14.0223 8.7486 13.686L2.40213 8.8155L7.27268 2.46902C7.60892 2.03089 7.52632 1.40314 7.08819 1.0669C6.65005 0.730655 6.0223 0.813254 5.68606 1.25139L0.206691 8.39117ZM153.507 122.37C153.988 122.642 154.598 122.473 154.87 121.993L159.303 114.16C159.575 113.679 159.406 113.069 158.925 112.797C158.445 112.525 157.835 112.694 157.563 113.175L153.622 120.137L146.66 116.197C146.179 115.925 145.569 116.094 145.297 116.575C145.025 117.055 145.194 117.665 145.675 117.937L153.507 122.37ZM1.13045 9.99144C29.4248 6.26851 61.0607 11.3586 88.7803 28.7841C116.486 46.201 140.346 75.9827 153.036 121.767L154.964 121.233C142.154 75.0173 118.014 44.799 89.8447 27.0909C61.6893 9.39142 29.5752 4.23147 0.869545 8.00854L1.13045 9.99144Z" fill="white"/>
</svg>
