<svg width="37" height="95" viewBox="0 0 37 95" fill="none" xmlns="http://www.w3.org/2000/svg">
<path d="M2.31709 0.923495C1.9987 0.472227 1.37476 0.364511 0.923495 0.682906C0.472227 1.0013 0.364511 1.62524 0.682906 2.0765L2.31709 0.923495ZM24.6107 94.4574C24.8633 94.9485 25.4662 95.1419 25.9573 94.8893L33.9609 90.7732C34.4521 90.5206 34.6455 89.9177 34.3929 89.4265C34.1403 88.9354 33.5374 88.742 33.0462 88.9946L25.9319 92.6534L22.2732 85.5391C22.0206 85.0479 21.4177 84.8545 20.9265 85.1071C20.4354 85.3597 20.242 85.9626 20.4946 86.4538L24.6107 94.4574ZM0.682906 2.0765C6.06719 9.70778 11.9088 14.346 17.1714 18.234C22.4713 22.1496 27.0255 25.2089 30.1781 29.7572C33.2864 34.2415 35.076 40.2658 34.4861 50.1671C33.8947 60.096 30.9146 73.8452 24.5478 93.6946L26.4522 94.3054C32.8354 74.4048 35.8762 60.4665 36.4826 50.286C37.0907 40.0779 35.2552 33.571 31.8219 28.6178C28.4329 23.7286 23.5287 20.4442 18.3598 16.6254C13.1537 12.779 7.51614 8.29222 2.31709 0.923495L0.682906 2.0765Z" fill="white"/>
</svg>
