<svg width="35" height="113" viewBox="0 0 35 113" fill="none" xmlns="http://www.w3.org/2000/svg">
<path d="M33.1643 112.716C33.5595 113.101 34.1927 113.094 34.5784 112.698C34.9641 112.303 34.9563 111.67 34.5611 111.284L33.1643 112.716ZM28.7145 6.52386C29.0038 6.05342 28.857 5.43751 28.3865 5.14819L20.7203 0.433467C20.2498 0.144148 19.6339 0.290975 19.3446 0.761414C19.0553 1.23185 19.2021 1.84776 19.6726 2.13708L26.487 6.32795L22.2961 13.1424C22.0068 13.6128 22.1536 14.2287 22.6241 14.5181C23.0945 14.8074 23.7104 14.6605 23.9997 14.1901L28.7145 6.52386ZM34.5611 111.284C13.8693 91.0934 3.0707 67.0706 2.07576 47.0753C1.57848 37.0816 3.53033 28.139 7.86187 21.1684C12.1825 14.2153 18.9066 9.16307 28.0946 6.97274L27.6308 5.02726C17.9422 7.33693 10.7686 12.7013 6.16313 20.1128C1.56854 27.5068 -0.434192 36.8767 0.0782272 47.1747C1.10267 67.7627 12.1806 92.24 33.1643 112.716L34.5611 111.284Z" fill="white"/>
</svg>
