<svg width="256" height="299" viewBox="0 0 256 299" fill="none" xmlns="http://www.w3.org/2000/svg">
<g opacity="0.1">
<path d="M-23.3901 75.3254L32.3611 19.5742C22.4498 25.2378 13.2818 31.9988 4.9634 39.68L-3.28431 47.9277C-10.9656 56.2107 -17.7265 65.4141 -23.3901 75.3254Z" fill="url(#paint0_linear_844_616)"/>
<path d="M-40.0264 119.644L76.6797 2.9375C73.4585 3.57466 70.2727 4.3534 67.1223 5.20295L-37.7609 110.086C-38.6458 113.237 -39.3892 116.422 -40.0264 119.644Z" fill="url(#paint1_linear_844_616)"/>
<path d="M-43 149.307C-43 149.626 -43 149.944 -43 150.263L107.263 0C106.944 0 106.626 0 106.307 0C104.148 0 101.989 0.0707715 99.8293 0.141567L-42.8585 142.829C-42.9293 144.989 -43 147.113 -43 149.307Z" fill="url(#paint2_linear_844_616)"/>
<path d="M-40.6643 175.608L132.678 2.26554C130.589 1.91157 128.466 1.5576 126.377 1.27441L-41.6201 169.272C-41.3723 171.431 -41.0537 173.519 -40.6643 175.608Z" fill="url(#paint3_linear_844_616)"/>
<path d="M-35.0002 197.626L154.66 7.96519C152.82 7.32804 150.979 6.76167 149.138 6.19531L-36.7346 192.068C-36.2037 193.944 -35.6373 195.785 -35.0002 197.626Z" fill="url(#paint4_linear_844_616)"/>
<path d="M-26.7527 217.058L174.129 16.1763C172.501 15.3622 170.872 14.548 169.209 13.8047L-29.1597 212.138C-28.3809 213.801 -27.6022 215.43 -26.7527 217.058Z" fill="url(#paint5_linear_844_616)"/>
<path d="M-16.4169 234.368L191.403 26.5484C189.951 25.5572 188.5 24.5661 187.049 23.6104L-19.3193 229.978C-18.3636 231.465 -17.4081 232.917 -16.4169 234.368Z" fill="url(#paint6_linear_844_616)"/>
<path d="M-4.13272 249.765L206.802 38.8308C205.527 37.6626 204.218 36.5299 202.908 35.4326L-7.56641 245.907C-6.43368 247.217 -5.30085 248.491 -4.13272 249.765Z" fill="url(#paint7_linear_844_616)"/>
<path d="M9.95493 263.358L220.394 52.9192C219.297 51.6094 218.164 50.2997 216.996 49.0254L6.06128 259.96C7.33559 261.128 8.64522 262.261 9.95493 263.358Z" fill="url(#paint8_linear_844_616)"/>
<path d="M25.8832 275.11L232.181 68.8128C231.225 67.3261 230.269 65.8749 229.243 64.459L21.4939 272.208C22.9452 273.199 24.3965 274.19 25.8832 275.11Z" fill="url(#paint9_linear_844_616)"/>
<path d="M43.759 284.915L241.95 86.7239C241.172 85.0602 240.393 83.432 239.579 81.8037L38.8389 282.544C40.4672 283.358 42.0953 284.137 43.759 284.915Z" fill="url(#paint10_linear_844_616)"/>
<path d="M63.8653 292.49L249.561 106.83C248.995 104.954 248.428 103.113 247.827 101.308L58.343 290.791C60.1483 291.357 61.9892 291.924 63.8653 292.49Z" fill="url(#paint11_linear_844_616)"/>
<path d="M86.661 297.34L254.375 129.626C254.092 127.502 253.773 125.414 253.419 123.29L80.3604 296.349C82.4488 296.738 84.5372 297.057 86.661 297.34Z" fill="url(#paint12_linear_844_616)"/>
<path d="M106.343 298.65C108.644 298.65 110.944 298.579 113.21 298.473L255.508 156.175C255.614 153.909 255.685 151.608 255.685 149.308C255.685 149.131 255.685 148.918 255.685 148.741L105.812 298.615C105.953 298.615 106.166 298.65 106.343 298.65Z" fill="url(#paint13_linear_844_616)"/>
<path d="M146.094 293.269L250.305 189.059C251.19 185.908 251.968 182.687 252.605 179.466L136.466 295.605C139.722 294.933 142.944 294.154 146.094 293.269Z" fill="url(#paint14_linear_844_616)"/>
<path d="M235.544 224.208L181.244 278.508C203.721 265.446 222.482 246.686 235.544 224.208Z" fill="url(#paint15_linear_844_616)"/>
</g>
<defs>
<linearGradient id="paint0_linear_844_616" x1="28.241" y1="25.1612" x2="-15.2692" y2="64.6036" gradientUnits="userSpaceOnUse">
<stop stop-color="white" stop-opacity="0"/>
<stop offset="1" stop-color="white"/>
</linearGradient>
<linearGradient id="paint1_linear_844_616" x1="68.0549" y1="14.6329" x2="-23.0266" y2="97.199" gradientUnits="userSpaceOnUse">
<stop stop-color="white" stop-opacity="0"/>
<stop offset="1" stop-color="white"/>
</linearGradient>
<linearGradient id="paint2_linear_844_616" x1="96.1581" y1="15.0583" x2="-21.1124" y2="121.365" gradientUnits="userSpaceOnUse">
<stop stop-color="white" stop-opacity="0"/>
<stop offset="1" stop-color="white"/>
</linearGradient>
<linearGradient id="paint3_linear_844_616" x1="119.797" y1="18.7448" x2="-16.2563" y2="142.053" gradientUnits="userSpaceOnUse">
<stop stop-color="white" stop-opacity="0"/>
<stop offset="1" stop-color="white"/>
</linearGradient>
<linearGradient id="paint4_linear_844_616" x1="140.516" y1="25.3791" x2="-8.88039" y2="160.783" gradientUnits="userSpaceOnUse">
<stop stop-color="white" stop-opacity="0"/>
<stop offset="1" stop-color="white"/>
</linearGradient>
<linearGradient id="paint5_linear_844_616" x1="159.106" y1="34.1732" x2="0.476855" y2="177.996" gradientUnits="userSpaceOnUse">
<stop stop-color="white" stop-opacity="0"/>
<stop offset="1" stop-color="white"/>
</linearGradient>
<linearGradient id="paint6_linear_844_616" x1="175.83" y1="44.7309" x2="11.35" y2="193.808" gradientUnits="userSpaceOnUse">
<stop stop-color="white" stop-opacity="0"/>
<stop offset="1" stop-color="white"/>
</linearGradient>
<linearGradient id="paint7_linear_844_616" x1="190.959" y1="56.9115" x2="23.684" y2="208.573" gradientUnits="userSpaceOnUse">
<stop stop-color="white" stop-opacity="0"/>
<stop offset="1" stop-color="white"/>
</linearGradient>
<linearGradient id="paint8_linear_844_616" x1="204.554" y1="70.5042" x2="37.2816" y2="222.138" gradientUnits="userSpaceOnUse">
<stop stop-color="white" stop-opacity="0"/>
<stop offset="1" stop-color="white"/>
</linearGradient>
<linearGradient id="paint9_linear_844_616" x1="216.611" y1="85.5689" x2="52.2082" y2="234.626" gradientUnits="userSpaceOnUse">
<stop stop-color="white" stop-opacity="0"/>
<stop offset="1" stop-color="white"/>
</linearGradient>
<linearGradient id="paint10_linear_844_616" x1="226.94" y1="102.158" x2="68.4247" y2="245.853" gradientUnits="userSpaceOnUse">
<stop stop-color="white" stop-opacity="0"/>
<stop offset="1" stop-color="white"/>
</linearGradient>
<linearGradient id="paint11_linear_844_616" x1="235.43" y1="120.467" x2="86.2213" y2="255.75" gradientUnits="userSpaceOnUse">
<stop stop-color="white" stop-opacity="0"/>
<stop offset="1" stop-color="white"/>
</linearGradient>
<linearGradient id="paint12_linear_844_616" x1="241.515" y1="140.732" x2="105.683" y2="263.84" gradientUnits="userSpaceOnUse">
<stop stop-color="white" stop-opacity="0"/>
<stop offset="1" stop-color="white"/>
</linearGradient>
<linearGradient id="paint13_linear_844_616" x1="244.609" y1="163.764" x2="127.618" y2="269.793" gradientUnits="userSpaceOnUse">
<stop stop-color="white" stop-opacity="0"/>
<stop offset="1" stop-color="white"/>
</linearGradient>
<linearGradient id="paint14_linear_844_616" x1="244.023" y1="191.104" x2="153.383" y2="273.27" gradientUnits="userSpaceOnUse">
<stop stop-color="white" stop-opacity="0"/>
<stop offset="1" stop-color="white"/>
</linearGradient>
<linearGradient id="paint15_linear_844_616" x1="231.531" y1="229.65" x2="189.153" y2="268.065" gradientUnits="userSpaceOnUse">
<stop stop-color="white" stop-opacity="0"/>
<stop offset="1" stop-color="white"/>
</linearGradient>
</defs>
</svg>
