<svg width="134" height="135" viewBox="0 0 134 135" fill="none" xmlns="http://www.w3.org/2000/svg">
<g opacity="0.1">
<path d="M10.8113 11.5282L41.5477 -19.2083C36.0835 -16.0858 31.0291 -12.3584 26.443 -8.12363L21.8959 -3.57658C17.6611 0.989977 13.9337 6.06391 10.8113 11.5282Z" fill="url(#paint0_linear_827_65)"/>
<path d="M1.6394 35.9613L65.9811 -28.3804C64.2052 -28.0291 62.4488 -27.5998 60.712 -27.1314L2.88841 30.6922C2.40053 32.429 1.99068 34.1854 1.6394 35.9613Z" fill="url(#paint1_linear_827_65)"/>
<path d="M0 52.3152C0 52.4908 0 52.6664 0 52.8421L82.842 -30C82.6663 -30 82.4908 -30 82.3151 -30C81.1247 -30 79.9342 -29.961 78.7438 -29.922L0.078018 48.7439C0.0389875 49.9343 0 51.1052 0 52.3152Z" fill="url(#paint2_linear_827_65)"/>
<path d="M1.28769 66.815L96.8536 -28.7509C95.7022 -28.9461 94.5314 -29.1412 93.38 -29.2974L0.760742 63.3218C0.897349 64.5122 1.07302 65.6636 1.28769 66.815Z" fill="url(#paint3_linear_827_65)"/>
<path d="M4.41033 78.9535L108.973 -25.609C107.958 -25.9602 106.943 -26.2725 105.928 -26.5847L3.4541 75.8896C3.74683 76.9239 4.05905 77.9387 4.41033 78.9535Z" fill="url(#paint4_linear_827_65)"/>
<path d="M8.95739 89.6672L119.706 -21.0816C118.808 -21.5305 117.911 -21.9793 116.994 -22.3892L7.63037 86.9546C8.05971 87.8718 8.48903 88.7695 8.95739 89.6672Z" fill="url(#paint5_linear_827_65)"/>
<path d="M14.6556 99.2102L129.229 -15.3636C128.429 -15.9101 127.629 -16.4565 126.829 -16.9834L13.0554 96.7902C13.5823 97.6099 14.1091 98.41 14.6556 99.2102Z" fill="url(#paint6_linear_827_65)"/>
<path d="M21.4279 107.699L137.719 -8.59189C137.016 -9.23589 136.294 -9.86036 135.572 -10.4653L19.5349 105.572C20.1594 106.294 20.7839 106.997 21.4279 107.699Z" fill="url(#paint7_linear_827_65)"/>
<path d="M29.1947 115.193L145.213 -0.824751C144.608 -1.54681 143.983 -2.26889 143.339 -2.97144L27.0481 113.32C27.7506 113.964 28.4727 114.588 29.1947 115.193Z" fill="url(#paint8_linear_827_65)"/>
<path d="M37.9763 121.672L151.711 7.93744C151.184 7.1178 150.657 6.31772 150.091 5.53711L35.5564 120.072C36.3565 120.618 37.1566 121.165 37.9763 121.672Z" fill="url(#paint9_linear_827_65)"/>
<path d="M47.8314 127.078L157.097 17.8122C156.668 16.895 156.238 15.9973 155.79 15.0996L45.1189 125.77C46.0166 126.219 46.9142 126.649 47.8314 127.078Z" fill="url(#paint10_linear_827_65)"/>
<path d="M58.9163 131.254L161.293 28.897C160.981 27.8627 160.669 26.8478 160.337 25.8525L55.8718 130.317C56.8671 130.63 57.882 130.942 58.9163 131.254Z" fill="url(#paint11_linear_827_65)"/>
<path d="M71.4839 133.928L163.947 41.4646C163.791 40.2937 163.615 39.1423 163.42 37.9714L68.0103 133.381C69.1617 133.596 70.313 133.772 71.4839 133.928Z" fill="url(#paint12_linear_827_65)"/>
<path d="M82.3348 134.65C83.6033 134.65 84.8716 134.611 86.1206 134.552L164.572 56.1011C164.63 54.8521 164.669 53.5837 164.669 52.3152C164.669 52.2176 164.669 52.1005 164.669 52.0029L82.042 134.63C82.1201 134.63 82.2372 134.65 82.3348 134.65Z" fill="url(#paint13_linear_827_65)"/>
<path d="M104.25 131.684L161.703 74.2307C162.191 72.4939 162.62 70.718 162.972 68.9421L98.9421 132.972C100.738 132.601 102.513 132.171 104.25 131.684Z" fill="url(#paint14_linear_827_65)"/>
<path d="M153.565 93.6091L123.629 123.546C136.021 116.344 146.364 106.001 153.565 93.6091Z" fill="url(#paint15_linear_827_65)"/>
</g>
<defs>
<linearGradient id="paint0_linear_827_65" x1="39.2763" y1="-16.1281" x2="15.2885" y2="5.61705" gradientUnits="userSpaceOnUse">
<stop stop-color="white" stop-opacity="0"/>
<stop offset="1" stop-color="white"/>
</linearGradient>
<linearGradient id="paint1_linear_827_65" x1="61.2261" y1="-21.9325" x2="11.0116" y2="23.5873" gradientUnits="userSpaceOnUse">
<stop stop-color="white" stop-opacity="0"/>
<stop offset="1" stop-color="white"/>
</linearGradient>
<linearGradient id="paint2_linear_827_65" x1="76.7198" y1="-21.6982" x2="12.0669" y2="36.91" gradientUnits="userSpaceOnUse">
<stop stop-color="white" stop-opacity="0"/>
<stop offset="1" stop-color="white"/>
</linearGradient>
<linearGradient id="paint3_linear_827_65" x1="89.7522" y1="-19.6657" x2="14.7442" y2="48.3158" gradientUnits="userSpaceOnUse">
<stop stop-color="white" stop-opacity="0"/>
<stop offset="1" stop-color="white"/>
</linearGradient>
<linearGradient id="paint4_linear_827_65" x1="101.175" y1="-16.0084" x2="18.8105" y2="58.6416" gradientUnits="userSpaceOnUse">
<stop stop-color="white" stop-opacity="0"/>
<stop offset="1" stop-color="white"/>
</linearGradient>
<linearGradient id="paint5_linear_827_65" x1="111.424" y1="-11.1597" x2="23.9694" y2="68.132" gradientUnits="userSpaceOnUse">
<stop stop-color="white" stop-opacity="0"/>
<stop offset="1" stop-color="white"/>
</linearGradient>
<linearGradient id="paint6_linear_827_65" x1="120.644" y1="-5.33932" x2="29.9639" y2="76.8489" gradientUnits="userSpaceOnUse">
<stop stop-color="white" stop-opacity="0"/>
<stop offset="1" stop-color="white"/>
</linearGradient>
<linearGradient id="paint7_linear_827_65" x1="128.985" y1="1.37626" x2="36.7637" y2="84.9893" gradientUnits="userSpaceOnUse">
<stop stop-color="white" stop-opacity="0"/>
<stop offset="1" stop-color="white"/>
</linearGradient>
<linearGradient id="paint8_linear_827_65" x1="136.48" y1="8.87016" x2="44.2603" y2="92.4681" gradientUnits="userSpaceOnUse">
<stop stop-color="white" stop-opacity="0"/>
<stop offset="1" stop-color="white"/>
</linearGradient>
<linearGradient id="paint9_linear_827_65" x1="143.127" y1="17.1753" x2="52.4896" y2="99.3525" gradientUnits="userSpaceOnUse">
<stop stop-color="white" stop-opacity="0"/>
<stop offset="1" stop-color="white"/>
</linearGradient>
<linearGradient id="paint10_linear_827_65" x1="148.822" y1="26.3213" x2="61.43" y2="105.543" gradientUnits="userSpaceOnUse">
<stop stop-color="white" stop-opacity="0"/>
<stop offset="1" stop-color="white"/>
</linearGradient>
<linearGradient id="paint11_linear_827_65" x1="153.502" y1="36.4151" x2="71.2415" y2="110.999" gradientUnits="userSpaceOnUse">
<stop stop-color="white" stop-opacity="0"/>
<stop offset="1" stop-color="white"/>
</linearGradient>
<linearGradient id="paint12_linear_827_65" x1="156.857" y1="47.5875" x2="81.9709" y2="115.458" gradientUnits="userSpaceOnUse">
<stop stop-color="white" stop-opacity="0"/>
<stop offset="1" stop-color="white"/>
</linearGradient>
<linearGradient id="paint13_linear_827_65" x1="158.563" y1="60.2852" x2="94.064" y2="118.74" gradientUnits="userSpaceOnUse">
<stop stop-color="white" stop-opacity="0"/>
<stop offset="1" stop-color="white"/>
</linearGradient>
<linearGradient id="paint14_linear_827_65" x1="158.24" y1="75.3587" x2="108.269" y2="120.658" gradientUnits="userSpaceOnUse">
<stop stop-color="white" stop-opacity="0"/>
<stop offset="1" stop-color="white"/>
</linearGradient>
<linearGradient id="paint15_linear_827_65" x1="151.353" y1="96.6091" x2="127.989" y2="117.788" gradientUnits="userSpaceOnUse">
<stop stop-color="white" stop-opacity="0"/>
<stop offset="1" stop-color="white"/>
</linearGradient>
</defs>
</svg>
