<svg width="121" height="122" viewBox="0 0 121 122" fill="none" xmlns="http://www.w3.org/2000/svg">
<path d="M52.498 112.847L52.3596 113.546L57.0656 114.478L56.5549 117.056L52.01 116.156L51.8738 116.844L56.4186 117.744L55.9164 120.28L51.2104 119.347L51.072 120.046L56.5409 121.129L57.9668 113.93L52.498 112.847Z" fill="#913BFF"/>
<path d="M43.6716 111.273L39.8736 112.956L39.8148 112.926L38.8666 108.882L37.9644 108.433L39.0558 113.075L39.0314 113.124L34.6951 115.003L35.5972 115.452L39.3561 113.824L39.4051 113.848L40.4022 117.843L41.2946 118.287L40.1837 113.709L40.213 113.651L44.5639 111.717L43.6716 111.273Z" fill="#913BFF"/>
<path d="M30.6903 104.946L29.1026 106.714L27.1709 104.98C25.989 103.92 24.5503 103.85 23.4967 105.023C22.4505 106.189 22.6746 107.612 23.8564 108.673L26.3669 110.926L31.269 105.465L30.6903 104.946ZM24.3809 108.187C23.4191 107.323 23.2641 106.463 24.0836 105.55C24.9177 104.621 25.7824 104.691 26.7442 105.554L28.627 107.244L26.2638 109.877L24.3809 108.187Z" fill="#913BFF"/>
<path d="M16.3291 89.931L15.7587 90.357L18.544 94.0868L13.2345 98.0518L13.6998 98.6749L19.5798 94.2839L16.3291 89.931Z" fill="#913BFF"/>
<path d="M14.7867 87.4315C13.8204 85.4533 11.8137 84.7391 9.75682 85.7439C7.69991 86.7486 7.02967 88.7704 7.99595 90.7486C8.95262 92.7071 10.9593 93.4213 13.0162 92.4165C15.0731 91.4118 15.7434 89.39 14.7867 87.4315ZM14.1076 87.7632C14.9201 89.4264 14.4469 90.8035 12.6557 91.6784C10.8645 92.5533 9.48747 92.0801 8.67503 90.4169C7.85777 88.7438 8.32619 87.3569 10.1174 86.482C11.9086 85.6071 13.2904 86.0901 14.1076 87.7632Z" fill="#913BFF"/>
<path d="M9.98247 77.6131L7.0494 78.2486L6.7154 76.7071C6.50897 75.7544 6.68471 75.3241 7.20531 74.8302L9.00599 73.1064L8.8158 72.2286L6.9136 74.0529C6.54946 74.3896 6.29701 74.7245 6.27061 75.2233L6.21709 75.2349C5.89736 73.9145 4.95553 73.1883 3.7459 73.4504C2.42923 73.7357 1.88954 74.9173 2.21426 76.416L2.97504 79.9271L10.1472 78.3731L9.98247 77.6131ZM3.50616 79.0163L2.91239 76.2759C2.66653 75.1412 2.98623 74.4444 4.00318 74.224C5.02012 74.0037 5.5996 74.5057 5.84546 75.6404L6.43923 78.3808L3.50616 79.0163Z" fill="#913BFF"/>
<path d="M7.48989 61.1464L6.77821 61.1267L6.64567 65.9223L4.01795 65.8497L4.14595 61.2183L3.44522 61.1989L3.31722 65.8303L0.733285 65.7589L0.865825 60.9633L0.154147 60.9436L0.00012207 66.5166L7.33586 66.7193L7.48989 61.1464Z" fill="#913BFF"/>
<path d="M7.59484 49.1334L2.88133 47.0097L1.97357 46.6248L1.99606 46.5748L3.08829 46.5504L8.40571 46.2671L8.79265 45.4083L5.48195 41.2377L4.77216 40.4133L4.79915 40.3534L5.68892 40.7783L10.4024 42.902L10.7219 42.193L4.03109 39.1784L3.59016 40.1571L6.94629 44.3602L7.92363 45.4973L7.90113 45.5473L6.39737 45.5785L1.02103 45.8592L0.584595 46.8279L7.27538 49.8424L7.59484 49.1334Z" fill="#913BFF"/>
<path d="M18.3771 28.4901C19.8496 26.8534 19.7606 24.7253 18.0588 23.1942C16.357 21.663 14.2314 21.7985 12.7588 23.4351C11.301 25.0555 11.39 27.1836 13.0918 28.7147C14.7936 30.2459 16.9192 30.1104 18.3771 28.4901ZM17.8153 27.9846C16.5772 29.3606 15.1232 29.4374 13.6412 28.104C12.1593 26.7707 12.0826 25.3167 13.3207 23.9406C14.5661 22.5564 16.0274 22.4715 17.5094 23.8048C18.9913 25.1382 19.0607 26.6003 17.8153 27.9846Z" fill="#913BFF"/>
<path d="M25.6828 20.3591L23.9953 17.8773L25.2996 16.9904C26.1058 16.4423 26.5706 16.4442 27.2234 16.742L29.496 17.7663L30.2388 17.2613L27.835 16.1805C27.3865 15.9689 26.9815 15.8602 26.509 16.0224L26.4782 15.9772C27.5829 15.1863 27.9036 14.0411 27.2077 13.0176C26.4502 11.9035 25.1525 11.8455 23.8844 12.7077L20.9135 14.7277L25.0397 20.7963L25.6828 20.3591ZM21.9569 14.8792L24.2756 13.3026C25.2357 12.6498 26.0016 12.6853 26.5867 13.5458C27.1717 14.4063 26.9232 15.1316 25.9631 15.7844L23.6443 17.361L21.9569 14.8792Z" fill="#913BFF"/>
<path d="M40.0185 11.8829L39.7703 11.2156L35.2738 12.8882L34.3574 10.4244L38.6998 8.80912L38.4554 8.1521L34.113 9.76738L33.2118 7.34464L37.7082 5.67209L37.46 5.00481L32.2347 6.94849L34.7932 13.8266L40.0185 11.8829Z" fill="#913BFF"/>
<path d="M49.1714 8.98568L48.9314 7.48224L47.9796 7.63416L48.2196 9.1376L49.1714 8.98568Z" fill="#913BFF"/>
<path d="M64.754 8.01346L64.8485 7.30781L60.0935 6.67119L60.4423 4.0657L65.0345 4.68053L65.1275 3.98573L60.5353 3.37091L60.8783 0.808851L65.6333 1.44547L65.7278 0.739821L60.202 0L59.2282 7.27364L64.754 8.01346Z" fill="#913BFF"/>
<path d="M73.6614 9.03355L77.3469 7.11728L77.4075 7.14283L78.6063 11.12L79.5347 11.5117L78.1557 6.94735L78.177 6.89689L82.3876 4.75044L81.4592 4.3587L77.8093 6.21867L77.7589 6.19738L76.5143 2.27225L75.596 1.88477L76.9904 6.38435L76.9649 6.4449L72.7431 8.64607L73.6614 9.03355Z" fill="#913BFF"/>
<path d="M87.0122 14.5384L88.4865 12.674L90.5227 14.2841C91.7684 15.2692 93.2087 15.2491 94.1869 14.0119C95.1584 12.7833 94.846 11.3772 93.6002 10.3921L90.954 8.29968L86.4022 14.0561L87.0122 14.5384ZM93.1071 10.9098C94.1209 11.7115 94.3292 12.5605 93.5684 13.5227C92.7939 14.5022 91.9265 14.4866 90.9127 13.6849L88.928 12.1156L91.1224 9.34049L93.1071 10.9098Z" fill="#913BFF"/>
<path d="M102.283 28.6273L102.825 28.1665L99.8126 24.6178L104.864 20.3292L104.361 19.7363L98.7666 24.4857L102.283 28.6273Z" fill="#913BFF"/>
<path d="M103.978 31.0258C105.066 32.9398 107.113 33.5274 109.104 32.3962C111.094 31.265 111.637 29.2053 110.549 27.2913C109.472 25.3964 107.424 24.8088 105.434 25.94C103.444 27.0712 102.901 29.1308 103.978 31.0258ZM104.635 30.6524C103.721 29.0431 104.107 27.6392 105.84 26.6542C107.573 25.6691 108.977 26.0555 109.892 27.6648C110.812 29.2836 110.431 30.697 108.698 31.682C106.965 32.667 105.555 32.2712 104.635 30.6524Z" fill="#913BFF"/>
<path d="M109.386 40.5251L112.274 39.7078L112.703 41.2254C112.969 42.1633 112.82 42.6038 112.331 43.1292L110.642 44.962L110.886 45.8262L112.671 43.8868C113.013 43.5281 113.244 43.1781 113.24 42.6786L113.292 42.6636C113.694 43.9615 114.679 44.6275 115.87 44.2904C117.166 43.9235 117.631 42.7105 117.214 41.235L116.235 37.7782L109.174 39.7768L109.386 40.5251ZM115.762 38.7204L116.526 41.4184C116.842 42.5355 116.566 43.251 115.565 43.5343C114.564 43.8177 113.954 43.3528 113.638 42.2357L112.874 39.5377L115.762 38.7204Z" fill="#913BFF"/>
<path d="M112.902 56.8042L113.613 56.7794L113.446 51.9848L116.073 51.8933L116.234 56.5237L116.935 56.4992L116.774 51.8689L119.357 51.7789L119.524 56.5734L120.236 56.5487L120.042 50.9769L112.707 51.2324L112.902 56.8042Z" fill="#913BFF"/>
<path d="M113.546 68.8002L118.383 70.6256L119.313 70.9531L119.294 71.0044L118.205 71.0969L112.916 71.7115L112.583 72.5928L116.148 76.5487L116.908 77.3271L116.885 77.3886L115.97 77.0201L111.133 75.1947L110.859 75.9223L117.724 78.5134L118.103 77.5091L114.491 73.5236L113.445 72.4497L113.464 72.3985L114.963 72.2734L120.312 71.6577L120.687 70.6637L113.821 68.0726L113.546 68.8002Z" fill="#913BFF"/>
<path d="M104.073 90.0765C102.706 91.8019 102.928 93.9203 104.722 95.3422C106.516 96.7642 108.629 96.4963 109.996 94.771C111.35 93.0628 111.129 90.9444 109.334 89.5224C107.54 88.1005 105.427 88.3684 104.073 90.0765ZM104.666 90.546C105.816 89.0953 107.262 88.928 108.824 90.1662C110.386 91.4044 110.554 92.8509 109.404 94.3015C108.247 95.7608 106.794 95.9367 105.232 94.6985C103.67 93.4602 103.509 92.0052 104.666 90.546Z" fill="#913BFF"/>
<path d="M97.2896 98.6475L99.1287 101.019L97.8823 101.986C97.1119 102.583 96.6479 102.61 95.9777 102.354L93.6456 101.473L92.9358 102.024L95.4024 102.952C95.8632 103.135 96.2743 103.219 96.7356 103.027L96.7692 103.07C95.716 103.929 95.4674 105.092 96.2259 106.07C97.0514 107.134 98.3503 107.111 99.5621 106.172L102.401 103.97L97.9042 98.1709L97.2896 98.6475ZM101.35 103.884L99.1345 105.602C98.217 106.314 97.4503 106.326 96.8127 105.504C96.1751 104.682 96.3779 103.942 97.2954 103.231L99.5113 101.512L101.35 103.884Z" fill="#913BFF"/>
<path d="M83.5106 108.002L83.7999 108.652L88.1832 106.702L89.2517 109.104L85.0185 110.987L85.3034 111.628L89.5366 109.745L90.5873 112.107L86.204 114.056L86.4934 114.707L91.5872 112.441L88.6044 105.736L83.5106 108.002Z" fill="#913BFF"/>
<path d="M74.5569 111.465L74.8903 112.95L75.8307 112.739L75.4974 111.254L74.5569 111.465Z" fill="#913BFF"/>
</svg>
