<svg width="1920" height="759" viewBox="0 0 1920 759" fill="none" xmlns="http://www.w3.org/2000/svg">
<g opacity="0.05">
<path d="M164.441 736.092C491.011 587.886 602.452 424.442 642.839 300.45C687.909 162.07 664.666 10.8262 713.319 1.43387C744.472 -4.58248 782.805 51.8936 854.273 175.696C1071 551.111 1075.9 650.807 1168.24 676.682C1297.59 712.956 1377.33 542.305 1576.15 545.983C1722.18 548.691 1840.35 643.707 1920 728.166" stroke="white" stroke-miterlimit="10"/>
<path d="M156.613 721.193C473.988 576.178 591.83 417.306 635.42 301.1C684.131 171.236 661.126 27.8054 709.273 21.0218C740.227 16.6573 777.839 72.1675 846.873 191.727C1056.67 555.014 1063.18 655.952 1154.8 680.55C1284.9 714.987 1361.17 531.992 1562.1 529.5C1566.48 529.446 1570.79 529.446 1575.11 529.554C1717.68 533.233 1837.53 628.294 1918.88 712.234" stroke="white" stroke-miterlimit="10"/>
<path d="M148.777 706.294C456.932 564.484 581.083 410.455 627.988 301.759C680.267 180.602 657.589 44.803 705.214 40.6191C735.978 37.9111 772.875 92.4599 839.456 207.772C1042.28 558.914 1050.35 661.418 1141.37 684.418C1272.1 717.456 1345.04 521.588 1548.05 513.013C1552.5 512.823 1556.94 512.634 1561.38 512.656C1706.3 513.397 1832.38 610.421 1917.75 696.297" stroke="white" stroke-miterlimit="10"/>
<path d="M140.953 691.396C439.932 552.749 570.197 403.934 620.573 302.418C676.274 190.166 654.087 61.8142 701.167 60.221C731.756 59.1829 767.894 112.748 832.055 223.813C1027.94 562.85 1037.6 666.703 1127.95 688.286C1259.38 719.681 1328.96 511.109 1534.01 496.526C1538.56 496.201 1543.11 495.889 1547.64 495.754C1694.91 491.394 1827.23 592.544 1916.61 680.351" stroke="white" stroke-miterlimit="10"/>
<path d="M133.137 676.497C422.921 541.055 559.1 397.759 613.16 303.077C672.06 199.924 650.612 78.843 697.133 79.8224C727.551 80.4588 762.94 133.04 824.667 239.858C1013.6 566.767 1024.87 671.974 1114.54 692.149C1246.71 721.883 1312.91 500.551 1519.98 480.02C1524.63 479.569 1529.29 479.117 1533.95 478.837C1683.56 470.524 1822.12 574.657 1915.53 664.415" stroke="white" stroke-miterlimit="10"/>
<path d="M125.297 661.598C405.891 529.356 547.697 391.959 605.739 303.741C667.501 209.862 647.115 95.8856 693.085 99.4195C723.343 101.748 757.967 153.327 817.26 255.903C999.249 570.685 1012.12 677.228 1101.12 696.017C1234.01 724.068 1296.85 489.922 1505.94 463.546C1510.69 462.946 1515.44 462.337 1520.23 461.948C1672.17 449.717 1817 556.793 1914.42 648.491" stroke="white" stroke-miterlimit="10"/>
<path d="M117.477 646.7C388.87 517.644 535.938 386.53 598.313 304.4C662.484 219.9 643.661 112.951 689.032 119.021C719.139 123.047 752.994 173.633 809.849 271.944C984.891 574.598 999.387 682.468 1087.69 699.881C1221.34 726.235 1280.79 479.23 1491.9 447.059C1496.76 446.319 1501.6 445.56 1506.5 445.05C1660.76 428.929 1811.86 538.929 1913.28 632.555" stroke="white" stroke-miterlimit="10"/>
<path d="M109.633 631.801C371.832 505.936 509.271 368.219 590.878 305.059C640.305 219.724 640.183 130.038 684.971 138.618C714.927 144.359 748.013 193.907 802.433 288.012C970.525 578.538 986.642 687.713 1074.26 703.771C1208.65 728.401 1264.71 468.498 1477.84 430.594C1482.79 429.714 1487.75 428.811 1492.77 428.17C1649.36 408.199 1806.74 521.065 1912.17 616.641" stroke="white" stroke-miterlimit="10"/>
<path d="M101.809 616.902C354.817 494.228 495.971 360.181 583.463 305.717C633.513 227.961 636.725 147.149 680.929 158.22C710.739 165.685 743.046 214.186 795.033 304.034C956.154 582.433 973.926 692.899 1060.84 707.617C1195.99 730.5 1248.65 457.661 1463.8 414.084C1468.85 413.059 1473.92 412.012 1479.06 411.245C1637.98 387.455 1801.59 503.169 1911.06 600.681" stroke="white" stroke-miterlimit="10"/>
<path d="M93.9648 602.003C337.778 482.52 482.646 352.151 576.023 306.376C626.696 236.193 633.248 164.277 676.867 177.817C706.526 187.02 738.064 234.478 787.612 320.075C941.812 586.365 961.195 698.084 1047.41 711.476C1183.32 732.594 1232.56 446.792 1449.75 397.588C1454.9 396.423 1460.07 395.236 1465.32 394.338C1626.58 366.752 1796.44 485.287 1909.92 584.74" stroke="white" stroke-miterlimit="10"/>
<path d="M86.1445 587.105C320.768 470.813 469.345 344.117 568.607 307.04C619.903 244.435 629.784 181.432 672.82 197.419C702.328 208.377 733.101 254.775 780.216 336.106C927.464 590.255 948.487 703.248 1033.99 715.335C1170.67 734.657 1216.47 435.87 1435.71 381.091C1440.96 379.778 1446.23 378.46 1451.6 377.426C1615.2 346.072 1791.32 467.405 1908.81 568.794" stroke="white" stroke-miterlimit="10"/>
<path d="M78.3008 572.202C303.719 459.11 456.035 336.084 561.177 307.717C613.096 252.69 626.297 198.615 668.753 217.039C698.101 229.766 728.115 275.081 772.791 352.183C913.092 594.204 935.756 708.434 1020.56 719.23C1158.02 736.737 1200.35 424.957 1421.66 364.635C1427.01 363.178 1432.36 361.72 1437.87 360.573C1603.81 325.468 1786.17 449.573 1907.68 552.902" stroke="white" stroke-miterlimit="10"/>
<path d="M70.4766 557.303C286.705 447.402 442.715 328.05 553.757 308.358C606.299 260.909 622.805 215.784 664.716 236.618C693.893 251.124 723.153 295.355 765.395 368.21C898.77 598.104 923.06 713.556 1007.13 723.08C1145.38 738.737 1184.23 413.935 1407.62 348.13C1413.07 346.523 1418.55 344.934 1424.17 343.639C1592.47 304.824 1781.06 431.65 1906.58 536.938" stroke="white" stroke-miterlimit="10"/>
<path d="M62.6719 542.404C269.69 435.694 429.414 320.021 546.346 309.026C599.506 269.155 619.308 232.98 660.679 256.219C689.681 272.513 718.196 315.643 758.004 384.251C884.413 602.022 910.363 718.693 993.722 726.948C1132.75 740.732 1168.09 402.886 1393.58 331.643C1399.13 329.887 1404.72 328.163 1410.45 326.737C1581.11 284.202 1775.92 413.791 1905.49 521.002" stroke="white" stroke-miterlimit="10"/>
<path d="M54.8125 527.506C252.646 423.987 416.089 311.987 538.906 309.68C592.689 277.387 615.771 250.18 656.611 275.83C685.423 293.915 713.208 335.939 750.558 400.305C870.021 605.948 897.616 723.797 980.26 730.82C1120.08 742.704 1151.88 391.865 1379.5 315.16C1385.15 313.26 1390.85 311.405 1396.68 309.843C1569.72 263.617 1770.75 395.927 1904.31 505.074" stroke="white" stroke-miterlimit="10"/>
<path d="M46.9961 512.607C235.634 412.279 402.791 303.953 531.493 310.34C585.904 285.624 612.248 267.39 652.577 295.418C681.19 315.304 708.249 356.223 743.19 416.341C855.702 609.853 884.942 728.88 966.875 734.679C1107.47 744.631 1135.73 380.758 1365.5 298.686C1371.24 296.637 1377.04 294.651 1383.02 292.959C1558.42 243.031 1765.65 378.04 1903.23 489.11" stroke="white" stroke-miterlimit="10"/>
<path d="M39.1484 497.708C218.596 400.575 389.462 295.937 524.054 310.998C579.059 293.847 608.679 284.608 648.512 315.019C676.91 336.706 703.264 376.51 735.765 432.368C841.331 613.752 872.217 733.939 953.434 738.524C1094.82 746.513 1119.5 369.627 1351.44 282.157C1357.28 279.955 1363.19 277.843 1369.26 276.015C1547.07 222.468 1760.51 360.167 1902.09 473.191" stroke="white" stroke-miterlimit="10"/>
<path d="M31.332 482.792C201.585 388.85 376.165 287.872 516.642 311.644C572.295 302.08 605.127 301.805 644.468 334.599C672.652 358.069 698.305 396.78 728.368 448.409C826.987 617.661 859.518 738.999 940.02 742.393C1082.19 748.405 1103.28 358.511 1337.41 265.698C1343.34 263.342 1349.36 261.103 1355.55 259.14C1535.77 201.923 1755.38 342.299 1900.99 457.277" stroke="white" stroke-miterlimit="10"/>
<path d="M23.4883 467.897C184.541 377.178 360.99 336.526 509.207 312.32C564.67 303.262 601.538 319.041 640.406 354.218C668.361 379.493 693.323 417.09 720.952 464.471C812.621 621.605 846.792 744.062 926.583 746.278C1069.53 750.246 1087.01 347.353 1323.35 249.196C1329.38 246.696 1335.52 244.326 1341.81 242.228C1524.44 181.374 1750.21 324.416 1899.86 441.318" stroke="white" stroke-miterlimit="10"/>
<path d="M15.668 453.003C167.54 365.443 346.185 284.527 501.796 312.971C557.93 323.234 597.957 336.246 636.368 373.811C664.085 400.892 688.36 437.369 713.555 480.508C798.283 625.514 834.085 749.081 913.17 750.133C1056.88 752.047 1070.74 336.174 1309.31 232.7C1315.44 230.046 1321.69 227.564 1328.1 225.321C1513.28 161.181 1745.1 306.539 1898.76 425.381" stroke="white" stroke-miterlimit="10"/>
<path d="M7.81641 438.109C150.484 353.74 334.055 270.102 494.353 313.634C551.213 329.079 594.336 353.465 632.299 393.413C659.767 422.298 683.371 457.665 706.127 496.553C783.908 629.436 821.346 754.416 899.726 754.005C1044.2 753.247 1054.26 324.674 1295.25 216.217C1301.47 213.401 1307.83 210.802 1314.35 208.422C1501.91 140.491 1739.94 288.661 1897.61 409.44" stroke="white" stroke-miterlimit="10"/>
<path d="M0 423.215C133.472 342.041 322.909 255.768 486.941 314.302C734.22 402.557 755.613 759.949 886.321 757.873C1035.32 755.508 1038.37 290.562 1300.65 191.524C1490.57 119.807 1734.84 270.788 1896.51 393.512" stroke="white" stroke-miterlimit="10"/>
</g>
</svg>
