<svg width="76" height="74" viewBox="0 0 76 74" fill="none" xmlns="http://www.w3.org/2000/svg">
<g clip-path="url(#clip0_939_258)" filter="url(#filter0_f_939_258)">
<path d="M63.5547 46.5098L18.7576 58.5131C16.9585 58.9952 15.1091 57.9275 14.627 56.1284L6.61508 26.2274C6.133 24.4283 7.20074 22.5789 8.99986 22.0968L53.7971 10.0934C55.5962 9.61137 57.4456 10.6791 57.9277 12.4782L65.9396 42.3792C66.4216 44.1783 65.354 46.0277 63.5547 46.5098Z" fill="url(#paint0_linear_939_258)"/>
<path d="M61.1439 44.5816L19.881 55.6379C18.4507 56.0212 16.9806 55.1724 16.5973 53.7422L9.51471 27.3094C9.13147 25.8792 9.98025 24.4091 11.4105 24.0258L52.6735 12.9694C54.1038 12.5862 55.5739 13.435 55.9571 14.8652L63.0397 41.2978C63.423 42.7282 62.5742 44.1983 61.1439 44.5816Z" fill="url(#paint1_linear_939_258)"/>
<path d="M12.2837 47.3828L14.6269 56.128C15.109 57.9271 16.9584 58.9948 18.7575 58.5127L63.5548 46.5094C65.3539 46.0273 66.4216 44.1779 65.9396 42.3788L63.5963 33.6336L12.2837 47.3828Z" fill="url(#paint2_linear_939_258)"/>
<path d="M59.4537 43.3607L20.7347 53.7354C19.4209 54.0874 18.0706 53.3077 17.7187 51.9941L11.3595 28.2615C11.0075 26.9477 11.7872 25.5974 13.1008 25.2454L51.8198 14.8707C53.1336 14.5187 54.4839 15.2984 54.8359 16.612L61.1949 40.3445C61.547 41.6583 60.7673 43.0087 59.4537 43.3607Z" fill="url(#paint3_linear_939_258)"/>
<path d="M32.3089 19.4924C32.8585 19.3451 33.1847 18.7801 33.0374 18.2305C32.8902 17.6808 32.3252 17.3546 31.7755 17.5019C31.2259 17.6492 30.8997 18.2141 31.0469 18.7638C31.1942 19.3135 31.7592 19.6396 32.3089 19.4924Z" fill="url(#paint4_linear_939_258)"/>
<path d="M32.2093 19.1218C32.5542 19.0294 32.7589 18.6748 32.6665 18.3299C32.574 17.985 32.2195 17.7803 31.8746 17.8727C31.5296 17.9651 31.3249 18.3197 31.4173 18.6646C31.5098 19.0095 31.8643 19.2142 32.2093 19.1218Z" fill="url(#paint5_linear_939_258)"/>
<path d="M31.7889 36.3729C31.3698 35.971 30.733 36.0924 30.331 36.5116L28.3158 38.7509C27.0773 37.9053 25.3403 37.9448 24.2688 39.0623L22.5736 40.8303C21.5021 41.9478 21.5345 43.6318 22.4313 44.8337L22.0687 45.2662C20.8301 44.4207 19.0931 44.4602 18.0216 45.5777L16.3265 47.3456C15.255 48.4631 15.2875 50.1472 16.1843 51.3491L13.9354 53.4736C14.0826 53.647 14.1625 54.0134 14.1957 54.5137L14.6276 56.1254C15.1096 57.9246 16.959 58.9923 18.7581 58.5102L53.844 49.109C44.0723 43.4687 31.7998 36.3833 31.7889 36.3729Z" fill="url(#paint6_linear_939_258)"/>
<path d="M65.9402 42.3764L57.9282 12.4755C57.8536 12.1971 57.7461 11.9362 57.6113 11.6959C57.122 11.0673 56.4595 10.6326 55.6184 10.3928L54.0415 12.0083C52.8029 11.1628 51.066 11.2023 49.9944 12.3198L48.2993 14.0877C47.2278 15.2053 47.3677 16.8605 48.2645 18.0625L47.7944 18.5238C46.5558 17.6783 44.8188 17.7178 43.7473 18.8353L42.0522 20.6032C40.9807 21.7207 41.0919 23.2685 41.9886 24.4705L39.6611 26.7313C39.2592 27.1505 39.2444 27.7086 39.6636 28.1105L66.0544 43.3236C66.061 43.0113 66.025 42.6932 65.9402 42.3764Z" fill="url(#paint7_linear_939_258)"/>
<path d="M65.9398 42.3766L64.8139 38.1744C62.5004 36.85 60.2262 35.5657 60.0499 35.5145L57.7268 34.9386C56.8567 34.6859 56.0716 34.8019 55.3498 35.2359C55.0853 35.0178 51.8054 33.1187 51.3823 32.9961L49.0591 32.4202C47.5721 31.9875 46.0482 32.8219 45.3985 34.1736L42.5045 33.1346C41.9463 32.9722 41.3634 33.293 41.201 33.8511C41.0926 34.2244 41.2013 34.6085 41.4523 34.8706L25.4882 25.7056C25.1687 25.4412 24.8229 25.3406 24.3998 25.218L22.0478 24.5347C21.1774 24.2809 20.3923 24.3969 19.6708 24.832C19.406 24.6128 16.1265 22.7148 15.7031 22.5912L13.3799 22.0153C11.8932 21.5836 10.3692 22.418 9.71953 23.7697L7.43082 23.0256C6.97672 23.5031 6.66943 24.1072 6.5526 24.7603L9.209 26.294L9.19122 26.3263C9.34223 27.444 9.9872 28.4592 11.0948 28.8681L48.5913 50.5167L63.5552 46.5072C65.3543 46.0251 66.4219 44.1757 65.9398 42.3766Z" fill="url(#paint8_linear_939_258)"/>
<path d="M65.9399 42.3769L64.8331 38.2463L41.039 24.5087C38.9576 23.1645 36.3378 22.6714 33.756 23.3632C28.9089 24.662 26.0324 29.6442 27.3312 34.4915C28.023 37.0732 29.7599 39.0955 31.9647 40.226L49.4095 50.2978L63.5553 46.5074C65.3543 46.0254 66.4219 44.176 65.9399 42.3769Z" fill="url(#paint9_linear_939_258)"/>
<path d="M11.7898 58.8226L12.2999 60.7262C12.5359 61.607 13.1532 62.3362 13.983 62.7143L16.8593 64.0251C17.6487 64.3849 18.5388 64.4589 19.3769 64.2343L65.8805 51.7737C66.7186 51.5491 67.4524 51.0401 67.9562 50.3338L69.7918 47.7604C70.3213 47.018 70.4913 46.0779 70.2553 45.1971L69.7452 43.2935C69.3735 41.9061 67.9475 41.0828 66.56 41.4545L13.6288 55.6374C12.2414 56.0092 11.4181 57.4352 11.7898 58.8226V58.8226Z" fill="url(#paint10_linear_939_258)"/>
<path d="M12.3984 61.0273C12.6835 61.7717 13.2502 62.3799 13.9832 62.7139L16.8595 64.0247C17.6491 64.3845 18.539 64.4585 19.3771 64.2339L65.8808 51.7733C66.7188 51.5487 67.4527 51.0397 67.9564 50.3334L69.792 47.76C70.2598 47.1043 70.4465 46.2942 70.3212 45.507L12.3984 61.0273Z" fill="url(#paint11_linear_939_258)"/>
<path d="M43.9516 50.322L37.642 52.0127C36.1943 52.4006 34.7063 51.5415 34.3184 50.0938L45.8705 46.9984C46.2584 48.446 45.3993 49.9341 43.9516 50.322Z" fill="url(#paint12_linear_939_258)"/>
<path d="M17.1158 58.5191L16.3766 58.7172C15.9526 58.8308 15.5169 58.5793 15.4033 58.1553L15.2052 57.4161C15.0916 56.9921 15.3432 56.5564 15.7671 56.4428L16.5064 56.2447C16.9303 56.1311 17.3661 56.3826 17.4797 56.8066L17.6777 57.5458C17.7913 57.9698 17.5398 58.4055 17.1158 58.5191Z" fill="url(#paint13_linear_939_258)"/>
<path d="M20.0157 57.7418L19.2765 57.9399C18.8525 58.0535 18.4168 57.8019 18.3032 57.3779L18.1051 56.6387C17.9915 56.2147 18.2431 55.779 18.667 55.6654L19.4063 55.4673C19.8302 55.3537 20.266 55.6053 20.3796 56.0293L20.5776 56.7685C20.6912 57.1925 20.4397 57.6282 20.0157 57.7418Z" fill="url(#paint14_linear_939_258)"/>
<path d="M22.9156 56.9654L22.1764 57.1635C21.7524 57.2771 21.3167 57.0256 21.2031 56.6016L21.005 55.8624C20.8914 55.4384 21.143 55.0026 21.5669 54.889L22.3062 54.691C22.7301 54.5774 23.1659 54.8289 23.2795 55.2529L23.4775 55.9921C23.5912 56.4161 23.3395 56.8519 22.9156 56.9654Z" fill="url(#paint15_linear_939_258)"/>
<path d="M17.1626 52.4017L16.3901 51.661C15.1455 50.4677 15.1039 48.4845 16.2971 47.2399L17.9922 45.472C19.1855 44.2275 21.1688 44.1858 22.4133 45.3791L23.1858 46.1198C24.4303 47.313 24.472 49.2963 23.2788 50.5408L21.5836 52.3088C20.3904 53.5533 18.4071 53.595 17.1626 52.4017ZM20.9578 46.897C20.5503 46.5063 19.9009 46.52 19.5102 46.9274L17.8151 48.6954C17.4244 49.1028 17.438 49.7523 17.8456 50.1429L18.6181 50.8836C19.0256 51.2744 19.675 51.2607 20.0657 50.8532L21.7608 49.0853C22.1516 48.6778 22.1379 48.0284 21.7304 47.6377L20.9578 46.897Z" fill="url(#paint16_linear_939_258)"/>
<path d="M23.4096 45.8861L22.6371 45.1454C21.3926 43.9521 21.3509 41.9689 22.5442 40.7243L24.2393 38.9564C25.4326 37.7119 27.4158 37.6702 28.6604 38.8634L29.4329 39.6042C30.6774 40.7974 30.7191 42.7807 29.5258 44.0252L27.8307 45.7931C26.6373 47.0377 24.6541 47.0794 23.4096 45.8861ZM27.2048 40.3814C26.7973 39.9906 26.1479 40.0044 25.7573 40.4118L24.0621 42.1797C23.6713 42.5872 23.6851 43.2366 24.0925 43.6273L24.865 44.368C25.2725 44.7588 25.9219 44.7451 26.3126 44.3376L28.0077 42.5697C28.3985 42.1622 28.3848 41.5128 27.9773 41.1221L27.2048 40.3814Z" fill="url(#paint17_linear_939_258)"/>
<path d="M26.5975 41.7887C26.1784 41.3868 26.1643 40.7212 26.5662 40.302L30.302 36.4059C30.7039 35.9868 31.3695 35.9727 31.7887 36.3747C32.2078 36.7766 32.2218 37.4422 31.8199 37.8614L28.0842 41.7575C27.6824 42.1767 27.0167 42.1906 26.5975 41.7887Z" fill="url(#paint18_linear_939_258)"/>
<path d="M20.2821 48.3756C19.8629 47.9737 19.8489 47.3081 20.2508 46.889L23.9865 42.9928C24.3885 42.5737 25.0541 42.5597 25.4732 42.9616C25.8924 43.3635 25.9064 44.0291 25.5045 44.4483L21.7688 48.3444C21.3668 48.7635 20.7012 48.7776 20.2821 48.3756Z" fill="url(#paint19_linear_939_258)"/>
<path d="M13.9662 54.9625C13.547 54.5606 13.533 53.895 13.9349 53.4759L17.6706 49.5798C18.0725 49.1606 18.7382 49.1466 19.1573 49.5485C19.5764 49.9504 19.5905 50.6161 19.1886 51.0352L15.4528 54.9313C15.0509 55.3504 14.3854 55.3644 13.9662 54.9625Z" fill="url(#paint20_linear_939_258)"/>
<path d="M42.8598 25.5521L42.0873 24.8114C40.8428 23.6181 40.8011 21.6349 41.9944 20.3903L43.6895 18.6224C44.8828 17.3779 46.866 17.3362 48.1106 18.5295L48.8831 19.2702C50.1276 20.4634 50.1693 22.4467 48.976 23.6912L47.2809 25.4591C46.0876 26.7037 44.1044 26.7454 42.8598 25.5521ZM46.6551 20.0475C46.2476 19.6568 45.5982 19.6705 45.2075 20.078L43.5124 21.8459C43.1217 22.2533 43.1353 22.9028 43.5429 23.2934L44.3154 24.0341C44.7229 24.4249 45.3723 24.4112 45.7629 24.0037L47.4581 22.2358C47.8489 21.8283 47.8351 21.1789 47.4277 20.7882L46.6551 20.0475Z" fill="url(#paint21_linear_939_258)"/>
<path d="M49.1069 19.0365L48.3344 18.2958C47.0899 17.1025 47.0482 15.1192 48.2415 13.8747L49.9366 12.1068C51.1298 10.8623 53.1131 10.8206 54.3576 12.0138L55.1301 12.7545C56.3747 13.9478 56.4163 15.9311 55.2231 17.1756L53.528 18.9435C52.3347 20.1881 50.3515 20.2298 49.1069 19.0365ZM52.9021 13.5319C52.4946 13.1411 51.8452 13.1549 51.4546 13.5623L49.7594 15.3302C49.3686 15.7377 49.3824 16.3871 49.7898 16.7778L50.5623 17.5185C50.9698 17.9093 51.6192 17.8956 52.0099 17.4881L53.705 15.7202C54.0958 15.3127 54.0821 14.6633 53.6746 14.2726L52.9021 13.5319Z" fill="url(#paint22_linear_939_258)"/>
<path d="M52.2948 14.9391C51.8756 14.5372 51.8616 13.8716 52.2635 13.4524L55.9992 9.55632C56.4012 9.13719 57.0668 9.12314 57.4859 9.52506C57.9051 9.92698 57.9191 10.5926 57.5172 11.0117L53.7815 14.9079C53.3796 15.327 52.714 15.341 52.2948 14.9391Z" fill="url(#paint23_linear_939_258)"/>
<path d="M45.9789 21.526C45.5597 21.1241 45.5457 20.4585 45.9476 20.0393L49.6833 16.1432C50.0852 15.7241 50.7509 15.7101 51.17 16.112C51.5891 16.5139 51.6032 17.1795 51.2013 17.5987L47.4655 21.4948C47.0636 21.914 46.398 21.9279 45.9789 21.526Z" fill="url(#paint24_linear_939_258)"/>
<path d="M39.6634 28.112C39.2443 27.71 39.2302 27.0444 39.6322 26.6253L43.3679 22.7292C43.7698 22.31 44.4354 22.296 44.8546 22.6979C45.2737 23.0998 45.2878 23.7655 44.8858 24.1846L41.1501 28.0807C40.7483 28.4999 40.0827 28.5139 39.6634 28.112Z" fill="url(#paint25_linear_939_258)"/>
<path d="M58.006 42.5484L55.654 41.8649C53.9983 41.3838 53.0428 39.6454 53.524 37.9897L53.8226 36.962C54.3038 35.3063 56.0422 34.3508 57.6978 34.832L60.0498 35.5154C61.7054 35.9965 62.661 37.7349 62.1798 39.3907L61.8812 40.4184C61.3999 42.0741 59.6615 43.0296 58.006 42.5484ZM55.5434 38.5766C55.3859 39.1188 55.6986 39.6879 56.2408 39.8454L58.5928 40.5289C59.1349 40.6864 59.7041 40.3735 59.8616 39.8314L60.1603 38.8037C60.3178 38.2615 60.005 37.6924 59.463 37.5349L57.111 36.8514C56.5688 36.6939 55.9996 37.0066 55.8421 37.5488L55.5434 38.5766Z" fill="url(#paint26_linear_939_258)"/>
<path d="M49.338 40.0299L46.986 39.3464C45.3304 38.8652 44.3748 37.1268 44.856 35.4712L45.1546 34.4434C45.6358 32.7878 47.3742 31.8322 49.0299 32.3134L51.3818 32.9969C53.0375 33.4781 53.9931 35.2165 53.5119 36.8721L53.2132 37.8998C52.7322 39.5555 50.9938 40.511 49.338 40.0299ZM46.8755 36.058C46.718 36.6002 47.0308 37.1693 47.573 37.3268L49.925 38.0103C50.4671 38.1678 51.0363 37.855 51.1938 37.3129L51.4924 36.2851C51.65 35.743 51.3372 35.1738 50.795 35.0163L48.443 34.3328C47.9008 34.1753 47.3317 34.4881 47.1742 35.0303L46.8755 36.058Z" fill="url(#paint27_linear_939_258)"/>
<path d="M48.4038 35.9447C48.5658 35.387 48.2452 34.8035 47.6875 34.6415L42.5042 33.1353C41.9466 32.9733 41.3631 33.2939 41.2011 33.8515C41.0391 34.4092 41.3597 34.9927 41.9174 35.1547L47.1007 36.6609C47.6582 36.8231 48.2417 36.5023 48.4038 35.9447Z" fill="url(#paint28_linear_939_258)"/>
<path d="M57.1665 38.4915C57.3285 37.9339 57.0079 37.3504 56.4502 37.1884L51.2669 35.6821C50.7093 35.5201 50.1258 35.8408 49.9638 36.3984C49.8018 36.9561 50.1224 37.5395 50.6801 37.7015L55.8634 39.2078C56.421 39.3698 57.0045 39.0492 57.1665 38.4915Z" fill="url(#paint29_linear_939_258)"/>
<path d="M65.9297 41.0374C66.0917 40.4798 65.7711 39.8963 65.2134 39.7343L60.0301 38.228C59.4725 38.066 58.889 38.3867 58.727 38.9443C58.565 39.502 58.8856 40.0854 59.4433 40.2474L64.6265 41.7537C65.1842 41.9157 65.7676 41.5951 65.9297 41.0374Z" fill="url(#paint30_linear_939_258)"/>
<path d="M22.3268 32.1441L19.9748 31.4606C18.3191 30.9795 17.3636 29.2411 17.8448 27.5854L18.1434 26.5577C18.6246 24.902 20.363 23.9465 22.0186 24.4277L24.3706 25.1112C26.0262 25.5922 26.9818 27.3306 26.5006 28.9864L26.202 30.0141C25.7208 31.6696 23.9824 32.6252 22.3268 32.1441ZM19.8643 28.1723C19.7068 28.7144 20.0196 29.2836 20.5617 29.4411L22.9137 30.1246C23.4558 30.2821 24.025 29.9692 24.1826 29.4271L24.4812 28.3994C24.6387 27.8572 24.3259 27.2881 23.7839 27.1305L21.4319 26.447C20.8897 26.2895 20.3206 26.6023 20.163 27.1445L19.8643 28.1723Z" fill="url(#paint31_linear_939_258)"/>
<path d="M13.6588 29.6256L11.3068 28.9421C9.65116 28.4609 8.69562 26.7225 9.17679 25.0669L9.47544 24.0391C9.95662 22.3835 11.695 21.4279 13.3507 21.9091L15.7026 22.5926C17.3583 23.0738 18.3139 24.8122 17.8327 26.4678L17.534 27.4955C17.0529 29.1512 15.3144 30.1066 13.6588 29.6256ZM11.1963 25.6537C11.0388 26.1959 11.3516 26.765 11.8938 26.9225L14.2458 27.606C14.7879 27.7635 15.3571 27.4508 15.5146 26.9086L15.8132 25.8808C15.9708 25.3387 15.658 24.7695 15.1158 24.612L12.7638 23.9285C12.2216 23.771 11.6525 24.0838 11.495 24.626L11.1963 25.6537Z" fill="url(#paint32_linear_939_258)"/>
<path d="M12.7247 25.5403C12.8867 24.9827 12.5661 24.3992 12.0084 24.2372L6.82505 22.731C6.26741 22.569 5.68392 22.8896 5.52191 23.4472C5.35989 24.0049 5.68054 24.5884 6.23818 24.7504L11.4215 26.2566C11.9791 26.4187 12.5626 26.098 12.7247 25.5403Z" fill="url(#paint33_linear_939_258)"/>
<path d="M21.4873 28.0872C21.6493 27.5296 21.3287 26.9461 20.771 26.7841L15.5877 25.2778C15.0301 25.1158 14.4466 25.4365 14.2846 25.9941C14.1226 26.5518 14.4432 27.1352 15.0009 27.2973L20.1842 28.8035C20.7418 28.9656 21.3253 28.6449 21.4873 28.0872Z" fill="url(#paint34_linear_939_258)"/>
<path d="M30.2505 30.6331C30.4125 30.0755 30.0919 29.492 29.5342 29.33L24.3509 27.8237C23.7933 27.6617 23.2098 27.9824 23.0478 28.54C22.8858 29.0977 23.2064 29.6811 23.7641 29.8432L28.9473 31.3494C29.5049 31.5116 30.0884 31.1908 30.2505 30.6331Z" fill="url(#paint35_linear_939_258)"/>
<path d="M38.4588 40.9172C43.306 39.6184 46.1825 34.6362 44.8837 29.789C43.5849 24.9419 38.6027 22.0654 33.7555 23.3642C28.9084 24.6629 26.0319 29.6452 27.3307 34.4923C28.6295 39.3395 33.6117 42.216 38.4588 40.9172Z" fill="url(#paint36_linear_939_258)"/>
<path d="M44.8839 29.7894C44.8427 29.6358 44.7978 29.4843 44.7493 29.3348L37.6034 25.2092C36.5431 24.5437 35.2492 24.41 33.9474 24.7588C31.4642 25.4241 30.064 27.8494 30.7294 30.3326L30.8762 30.8808C30.5576 31.1693 30.3783 31.5135 30.4972 31.9573L32.2 38.3121C32.3008 38.6883 32.4649 39.0008 32.8011 39.1341L36.4161 41.2212C37.0927 41.1977 37.777 41.1004 38.4588 40.9177C43.3062 39.6189 46.1827 34.6365 44.8839 29.7894Z" fill="url(#paint37_linear_939_258)"/>
<path d="M39.8142 28.6388L38.1788 29.077L37.9936 28.3856C37.5698 26.8042 35.9385 25.8624 34.3571 26.2861C32.7757 26.7098 31.8338 28.3412 32.2576 29.9226L32.4428 30.614L30.8075 31.0522L30.6222 30.3608C29.9568 27.8776 31.4358 25.3161 33.9189 24.6507C36.4021 23.9854 38.9636 25.4643 39.6289 27.9474L39.8142 28.6388Z" fill="url(#paint38_linear_939_258)"/>
<path d="M34.1562 25.5361C32.0962 26.0881 30.8694 28.2129 31.4214 30.2729L31.5751 30.8464L32.4428 30.6139L32.2576 29.9225C31.8338 28.3411 32.7757 26.7098 34.3571 26.286C35.9385 25.8623 37.5698 26.8042 37.9936 28.3855L38.1788 29.0769L39.0466 28.8444L38.8929 28.2709C38.3411 26.2109 36.2161 24.9842 34.1562 25.5361Z" fill="url(#paint39_linear_939_258)"/>
<path d="M41.8472 36.9514L33.5421 39.1768C32.9107 39.3459 32.2618 38.9713 32.0926 38.3399L30.3898 31.985C30.2206 31.3536 30.5953 30.7047 31.2267 30.5355L39.5317 28.3102C40.1631 28.141 40.8121 28.5157 40.9813 29.147L42.684 35.5019C42.8532 36.1333 42.4785 36.7823 41.8472 36.9514Z" fill="url(#paint40_linear_939_258)"/>
<path d="M38.3487 32.3846C38.0482 31.2634 36.8957 30.5979 35.7744 30.8984C34.6531 31.1988 33.9877 32.3514 34.2881 33.4726C34.5008 34.2664 35.1407 34.8312 35.894 34.9871L36.1443 35.9213C36.2791 36.4242 36.7959 36.7226 37.2988 36.5878C37.8016 36.4531 38.1 35.9362 37.9653 35.4334L37.7149 34.4992C38.2896 33.9875 38.5614 33.1785 38.3487 32.3846Z" fill="url(#paint41_linear_939_258)"/>
<path d="M37.158 36.0604C36.947 36.1169 36.7294 35.9912 36.6728 35.7803L36.3353 34.5206L36.0055 34.4524C35.4252 34.3323 34.9697 33.9028 34.8166 33.3315C34.5947 32.5031 35.088 31.6485 35.9165 31.4265C36.7449 31.2046 37.5995 31.698 37.8215 32.5264C37.9745 33.0976 37.7948 33.6973 37.3523 34.0915L37.1008 34.3155L37.4383 35.5752C37.4946 35.7863 37.3689 36.0039 37.158 36.0604Z" fill="url(#paint42_linear_939_258)"/>
<path d="M31.6289 36.6094L32.0925 38.3396C32.2617 38.971 32.9107 39.3457 33.542 39.1765L41.8471 36.9512C42.4785 36.782 42.8531 36.133 42.684 35.5017L42.2203 33.7714L31.6289 36.6094Z" fill="url(#paint43_linear_939_258)"/>
</g>
<defs>
<filter id="filter0_f_939_258" x="-4.74219" y="-4.74219" width="83.4849" height="83.4844" filterUnits="userSpaceOnUse" color-interpolation-filters="sRGB">
<feFlood flood-opacity="0" result="BackgroundImageFix"/>
<feBlend mode="normal" in="SourceGraphic" in2="BackgroundImageFix" result="shape"/>
<feGaussianBlur stdDeviation="2.5" result="effect1_foregroundBlur_939_258"/>
</filter>
<linearGradient id="paint0_linear_939_258" x1="22.9297" y1="26.5971" x2="66.5713" y2="51.7936" gradientUnits="userSpaceOnUse">
<stop stop-color="#0B799D"/>
<stop offset="1" stop-color="#07485E"/>
</linearGradient>
<linearGradient id="paint1_linear_939_258" x1="58.4958" y1="47.1316" x2="6.9116" y2="17.3494" gradientUnits="userSpaceOnUse">
<stop stop-color="#0B799D"/>
<stop offset="1" stop-color="#07485E"/>
</linearGradient>
<linearGradient id="paint2_linear_939_258" x1="38.5465" y1="42.7718" x2="40.408" y2="49.7191" gradientUnits="userSpaceOnUse">
<stop stop-color="#07485E" stop-opacity="0"/>
<stop offset="1" stop-color="#03232E"/>
</linearGradient>
<linearGradient id="paint3_linear_939_258" x1="22.0612" y1="26.0954" x2="50.5155" y2="42.5235" gradientUnits="userSpaceOnUse">
<stop stop-color="#FDBF00"/>
<stop offset="1" stop-color="#FF9100"/>
</linearGradient>
<linearGradient id="paint4_linear_939_258" x1="33.935" y1="19.59" x2="29.6273" y2="17.1029" gradientUnits="userSpaceOnUse">
<stop stop-color="#0B799D"/>
<stop offset="1" stop-color="#07485E"/>
</linearGradient>
<linearGradient id="paint5_linear_939_258" x1="30.854" y1="17.8114" x2="33.5576" y2="19.3723" gradientUnits="userSpaceOnUse">
<stop stop-color="#0B799D"/>
<stop offset="1" stop-color="#07485E"/>
</linearGradient>
<linearGradient id="paint6_linear_939_258" x1="29.508" y1="49.6794" x2="17.4329" y2="40.9787" gradientUnits="userSpaceOnUse">
<stop stop-color="#E63950" stop-opacity="0"/>
<stop offset="0.0467" stop-color="#E4354B" stop-opacity="0.047"/>
<stop offset="0.4669" stop-color="#D31822" stop-opacity="0.467"/>
<stop offset="0.7991" stop-color="#C90709" stop-opacity="0.799"/>
<stop offset="1" stop-color="#C50000"/>
</linearGradient>
<linearGradient id="paint7_linear_939_258" x1="56.0243" y1="24.0155" x2="40.5066" y2="15.0563" gradientUnits="userSpaceOnUse">
<stop stop-color="#E63950" stop-opacity="0"/>
<stop offset="0.0467" stop-color="#E4354B" stop-opacity="0.047"/>
<stop offset="0.4669" stop-color="#D31822" stop-opacity="0.467"/>
<stop offset="0.7991" stop-color="#C90709" stop-opacity="0.799"/>
<stop offset="1" stop-color="#C50000"/>
</linearGradient>
<linearGradient id="paint8_linear_939_258" x1="35.5022" y1="37.2365" x2="40.582" y2="18.0119" gradientUnits="userSpaceOnUse">
<stop stop-color="#E63950" stop-opacity="0"/>
<stop offset="0.0467" stop-color="#E4354B" stop-opacity="0.047"/>
<stop offset="0.4669" stop-color="#D31822" stop-opacity="0.467"/>
<stop offset="0.7991" stop-color="#C90709" stop-opacity="0.799"/>
<stop offset="1" stop-color="#C50000"/>
</linearGradient>
<linearGradient id="paint9_linear_939_258" x1="49.8325" y1="40.0639" x2="19.861" y2="22.7598" gradientUnits="userSpaceOnUse">
<stop stop-color="#E63950" stop-opacity="0"/>
<stop offset="0.0467" stop-color="#E4354B" stop-opacity="0.047"/>
<stop offset="0.4669" stop-color="#D31822" stop-opacity="0.467"/>
<stop offset="0.7991" stop-color="#C90709" stop-opacity="0.799"/>
<stop offset="1" stop-color="#C50000"/>
</linearGradient>
<linearGradient id="paint10_linear_939_258" x1="40.3375" y1="49.4528" x2="43.4733" y2="61.1557" gradientUnits="userSpaceOnUse">
<stop stop-color="#0B799D"/>
<stop offset="1" stop-color="#07485E"/>
</linearGradient>
<linearGradient id="paint11_linear_939_258" x1="40.2028" y1="51.2509" x2="48.4864" y2="65.9304" gradientUnits="userSpaceOnUse">
<stop stop-color="#07485E" stop-opacity="0"/>
<stop offset="1" stop-color="#03232E"/>
</linearGradient>
<linearGradient id="paint12_linear_939_258" x1="40.2329" y1="49.0625" x2="40.9231" y2="51.6384" gradientUnits="userSpaceOnUse">
<stop stop-color="#0B799D"/>
<stop offset="1" stop-color="#07485E"/>
</linearGradient>
<linearGradient id="paint13_linear_939_258" x1="16.1372" y1="57.3562" x2="17.3885" y2="57.8695" gradientUnits="userSpaceOnUse">
<stop stop-color="#FF637B"/>
<stop offset="1" stop-color="#E63950"/>
</linearGradient>
<linearGradient id="paint14_linear_939_258" x1="19.0371" y1="56.5789" x2="20.2885" y2="57.0921" gradientUnits="userSpaceOnUse">
<stop stop-color="#FF637B"/>
<stop offset="1" stop-color="#E63950"/>
</linearGradient>
<linearGradient id="paint15_linear_939_258" x1="21.5411" y1="55.5231" x2="24.6638" y2="57.326" gradientUnits="userSpaceOnUse">
<stop stop-color="#FF637B"/>
<stop offset="1" stop-color="#E63950"/>
</linearGradient>
<linearGradient id="paint16_linear_939_258" x1="17.0974" y1="46.3197" x2="22.3827" y2="51.3864" gradientUnits="userSpaceOnUse">
<stop stop-color="#B5DBFF"/>
<stop offset="1" stop-color="#48B2E3"/>
</linearGradient>
<linearGradient id="paint17_linear_939_258" x1="23.3418" y1="39.8056" x2="28.6271" y2="44.8723" gradientUnits="userSpaceOnUse">
<stop stop-color="#B5DBFF"/>
<stop offset="1" stop-color="#48B2E3"/>
</linearGradient>
<linearGradient id="paint18_linear_939_258" x1="28.3824" y1="38.3193" x2="29.9001" y2="39.7742" gradientUnits="userSpaceOnUse">
<stop stop-color="#B5DBFF"/>
<stop offset="1" stop-color="#48B2E3"/>
</linearGradient>
<linearGradient id="paint19_linear_939_258" x1="22.0696" y1="44.9046" x2="23.5872" y2="46.3595" gradientUnits="userSpaceOnUse">
<stop stop-color="#B5DBFF"/>
<stop offset="1" stop-color="#48B2E3"/>
</linearGradient>
<linearGradient id="paint20_linear_939_258" x1="15.7564" y1="51.4899" x2="17.2741" y2="52.9448" gradientUnits="userSpaceOnUse">
<stop stop-color="#B5DBFF"/>
<stop offset="1" stop-color="#48B2E3"/>
</linearGradient>
<linearGradient id="paint21_linear_939_258" x1="42.7837" y1="19.4765" x2="48.0689" y2="24.5432" gradientUnits="userSpaceOnUse">
<stop stop-color="#B5DBFF"/>
<stop offset="1" stop-color="#48B2E3"/>
</linearGradient>
<linearGradient id="paint22_linear_939_258" x1="49.0281" y1="12.9624" x2="54.3133" y2="18.029" gradientUnits="userSpaceOnUse">
<stop stop-color="#B5DBFF"/>
<stop offset="1" stop-color="#48B2E3"/>
</linearGradient>
<linearGradient id="paint23_linear_939_258" x1="54.0688" y1="11.4759" x2="55.5863" y2="12.9307" gradientUnits="userSpaceOnUse">
<stop stop-color="#B5DBFF"/>
<stop offset="1" stop-color="#48B2E3"/>
</linearGradient>
<linearGradient id="paint24_linear_939_258" x1="47.7554" y1="18.0614" x2="49.273" y2="19.5162" gradientUnits="userSpaceOnUse">
<stop stop-color="#B5DBFF"/>
<stop offset="1" stop-color="#48B2E3"/>
</linearGradient>
<linearGradient id="paint25_linear_939_258" x1="41.4427" y1="24.6457" x2="42.9603" y2="26.1006" gradientUnits="userSpaceOnUse">
<stop stop-color="#B5DBFF"/>
<stop offset="1" stop-color="#48B2E3"/>
</linearGradient>
<linearGradient id="paint26_linear_939_258" x1="58.86" y1="35.141" x2="56.8162" y2="42.1716" gradientUnits="userSpaceOnUse">
<stop stop-color="#B5DBFF"/>
<stop offset="1" stop-color="#48B2E3"/>
</linearGradient>
<linearGradient id="paint27_linear_939_258" x1="50.1952" y1="32.6224" x2="48.1514" y2="39.6529" gradientUnits="userSpaceOnUse">
<stop stop-color="#B5DBFF"/>
<stop offset="1" stop-color="#48B2E3"/>
</linearGradient>
<linearGradient id="paint28_linear_939_258" x1="45.0868" y1="33.8548" x2="44.4999" y2="35.8736" gradientUnits="userSpaceOnUse">
<stop stop-color="#B5DBFF"/>
<stop offset="1" stop-color="#48B2E3"/>
</linearGradient>
<linearGradient id="paint29_linear_939_258" x1="53.8464" y1="36.4016" x2="53.2596" y2="38.4204" gradientUnits="userSpaceOnUse">
<stop stop-color="#B5DBFF"/>
<stop offset="1" stop-color="#48B2E3"/>
</linearGradient>
<linearGradient id="paint30_linear_939_258" x1="62.6065" y1="38.9475" x2="62.0196" y2="40.9663" gradientUnits="userSpaceOnUse">
<stop stop-color="#B5DBFF"/>
<stop offset="1" stop-color="#48B2E3"/>
</linearGradient>
<linearGradient id="paint31_linear_939_258" x1="23.1936" y1="24.7366" x2="21.1498" y2="31.7672" gradientUnits="userSpaceOnUse">
<stop stop-color="#B5DBFF"/>
<stop offset="1" stop-color="#48B2E3"/>
</linearGradient>
<linearGradient id="paint32_linear_939_258" x1="14.5287" y1="22.218" x2="12.4848" y2="29.2486" gradientUnits="userSpaceOnUse">
<stop stop-color="#B5DBFF"/>
<stop offset="1" stop-color="#48B2E3"/>
</linearGradient>
<linearGradient id="paint33_linear_939_258" x1="9.42025" y1="23.4504" x2="8.83337" y2="25.4692" gradientUnits="userSpaceOnUse">
<stop stop-color="#B5DBFF"/>
<stop offset="1" stop-color="#48B2E3"/>
</linearGradient>
<linearGradient id="paint34_linear_939_258" x1="18.1798" y1="25.9973" x2="17.5929" y2="28.0161" gradientUnits="userSpaceOnUse">
<stop stop-color="#B5DBFF"/>
<stop offset="1" stop-color="#48B2E3"/>
</linearGradient>
<linearGradient id="paint35_linear_939_258" x1="26.9398" y1="28.5433" x2="26.3529" y2="30.5621" gradientUnits="userSpaceOnUse">
<stop stop-color="#B5DBFF"/>
<stop offset="1" stop-color="#48B2E3"/>
</linearGradient>
<linearGradient id="paint36_linear_939_258" x1="29.4716" y1="25.9318" x2="42.7428" y2="38.3497" gradientUnits="userSpaceOnUse">
<stop stop-color="#0B799D"/>
<stop offset="1" stop-color="#07485E"/>
</linearGradient>
<linearGradient id="paint37_linear_939_258" x1="45.0044" y1="37.8344" x2="28.0704" y2="28.0574" gradientUnits="userSpaceOnUse">
<stop stop-color="#07485E" stop-opacity="0"/>
<stop offset="1" stop-color="#03232E"/>
</linearGradient>
<linearGradient id="paint38_linear_939_258" x1="31.6923" y1="26.6769" x2="37.0351" y2="29.7617" gradientUnits="userSpaceOnUse">
<stop stop-color="#EDF5FF"/>
<stop offset="1" stop-color="#B5DBFF"/>
</linearGradient>
<linearGradient id="paint39_linear_939_258" x1="35.0884" y1="29.0154" x2="32.3812" y2="18.9119" gradientUnits="userSpaceOnUse">
<stop stop-color="#B5DBFF" stop-opacity="0"/>
<stop offset="0.2428" stop-color="#93CEF6" stop-opacity="0.243"/>
<stop offset="0.5763" stop-color="#6ABFEC" stop-opacity="0.576"/>
<stop offset="0.8403" stop-color="#51B5E5" stop-opacity="0.84"/>
<stop offset="1" stop-color="#48B2E3"/>
</linearGradient>
<linearGradient id="paint40_linear_939_258" x1="32.987" y1="31.6939" x2="38.9388" y2="35.1301" gradientUnits="userSpaceOnUse">
<stop stop-color="#FFDA2D"/>
<stop offset="1" stop-color="#FDBF00"/>
</linearGradient>
<linearGradient id="paint41_linear_939_258" x1="39.0763" y1="35.0134" x2="33.1395" y2="31.5858" gradientUnits="userSpaceOnUse">
<stop stop-color="#FFDA2D"/>
<stop offset="1" stop-color="#FDBF00"/>
</linearGradient>
<linearGradient id="paint42_linear_939_258" x1="38.5141" y1="34.6893" x2="33.8614" y2="32.003" gradientUnits="userSpaceOnUse">
<stop stop-color="#0B799D"/>
<stop offset="1" stop-color="#07485E"/>
</linearGradient>
<linearGradient id="paint43_linear_939_258" x1="37.3297" y1="36.7021" x2="37.7086" y2="38.1159" gradientUnits="userSpaceOnUse">
<stop stop-color="#FF9100" stop-opacity="0"/>
<stop offset="1" stop-color="#FF9100"/>
</linearGradient>
<clipPath id="clip0_939_258">
<rect width="60" height="60" fill="white" transform="translate(0.257812 15.7871) rotate(-15)"/>
</clipPath>
</defs>
</svg>
