<svg width="80" height="80" viewBox="0 0 80 80" fill="none" xmlns="http://www.w3.org/2000/svg">
<path d="M48.4492 13.9614C45.1007 5.73184 37.0006 -0.0578452 27.5545 0.000436049C15.5039 0.0746548 5.59573 9.79481 5.30339 21.842C5.15917 27.7857 7.3312 33.2203 10.9806 37.3081C13.8898 40.5668 15.3498 44.8589 15.2026 49.225C15.1831 49.8053 15.1801 50.3898 15.1945 50.9781C15.5795 66.8218 29.1143 80.0095 44.9628 80C61.3898 79.9901 74.7034 66.6703 74.7034 50.2411C74.7034 38.1982 67.5496 27.8273 57.2601 23.1437C53.2496 21.3182 50.1098 18.0426 48.4492 13.9614Z" fill="url(#paint0_linear_828_380)"/>
<path d="M69.8887 44.5632V38.7182C69.8887 38.1831 69.5337 37.7129 69.0191 37.5663L62.9709 35.8438C62.3785 33.4296 61.4262 31.157 60.1715 29.0874L63.2305 23.592C63.4909 23.1245 63.4093 22.541 63.031 22.1626L58.898 18.0296C58.5196 17.6512 57.9362 17.5698 57.4687 17.8301L51.9732 20.8892C49.9037 19.6345 47.631 18.6821 45.2168 18.0898L43.4941 12.0417C43.3476 11.527 42.8774 11.1721 42.3423 11.1721H36.4974C35.9623 11.1721 35.4921 11.5271 35.3455 12.0417L33.6229 18.0898C31.2087 18.6821 28.936 19.6345 26.8665 20.8892L21.371 17.8301C20.9035 17.5698 20.3201 17.6513 19.9416 18.0296L15.8087 22.1626C15.4302 22.541 15.3488 23.1245 15.6091 23.592L18.6682 29.0874C17.4135 31.157 16.4612 33.4296 15.8688 35.8438L9.8207 37.5663C9.30602 37.7129 8.95117 38.1831 8.95117 38.7182V44.5632C8.95117 45.0984 9.30617 45.5685 9.8207 45.7151L15.8688 47.4376C16.4612 49.8518 17.4135 52.1245 18.6682 54.194L15.6091 59.6895C15.3488 60.157 15.4304 60.7404 15.8087 61.1188L19.9416 65.2518C20.3201 65.6302 20.9035 65.7117 21.371 65.4513L26.8665 62.3923C28.936 63.647 31.2087 64.5993 33.6229 65.1917L35.3455 71.2398C35.4921 71.7545 35.9623 72.1093 36.4974 72.1093H42.3423C42.8774 72.1093 43.3476 71.7543 43.4941 71.2398L45.2168 65.1917C47.631 64.5993 49.9037 63.647 51.9732 62.3923L57.4687 65.4513C57.9362 65.7117 58.5196 65.6301 58.898 65.2518L63.031 61.1188C63.4095 60.7404 63.4909 60.157 63.2305 59.6895L60.1715 54.194C61.4262 52.1245 62.3785 49.8518 62.9709 47.4376L69.019 45.7149C69.5337 45.5685 69.8887 45.0982 69.8887 44.5632Z" fill="#9FB0FE"/>
<path d="M27.3276 20.6171V30.3452C27.3276 31.2093 26.6261 31.9108 25.762 31.9108H17.2011C17.6292 30.9343 18.1214 29.9905 18.6683 29.0874L15.6089 23.5921C15.3495 23.1249 15.4308 22.5405 15.8089 22.1624L19.9417 18.0296C20.3198 17.6515 20.9042 17.5702 21.3714 17.8296L26.8667 20.889C27.0183 20.7968 27.173 20.7062 27.3276 20.6171Z" fill="#8399FE"/>
<path d="M49.7953 52.0244C55.5302 46.2895 55.5302 36.9913 49.7953 31.2563C44.0603 25.5214 34.7621 25.5214 29.0271 31.2563C23.2922 36.9913 23.2922 46.2895 29.0271 52.0244C34.7621 57.7594 44.0603 57.7594 49.7953 52.0244Z" fill="#FFC4DF"/>
<path d="M39.4198 53.7326C46.0979 53.7326 51.5116 48.3189 51.5116 41.6407C51.5116 34.9625 46.0979 29.5488 39.4198 29.5488C32.7416 29.5488 27.3279 34.9625 27.3279 41.6407C27.3279 48.3189 32.7416 53.7326 39.4198 53.7326Z" fill="#FF7EB8"/>
<path d="M39.4199 60.7031C28.9088 60.7031 20.3574 52.1517 20.3574 41.6406C20.3574 41.2092 20.7073 40.8594 21.1387 40.8594C21.5701 40.8594 21.9199 41.2092 21.9199 41.6406C21.9199 51.2902 29.7704 59.1406 39.4199 59.1406C39.8513 59.1406 40.2012 59.4905 40.2012 59.9219C40.2012 60.3533 39.8513 60.7031 39.4199 60.7031Z" fill="#D2DEFF"/>
<path d="M57.7012 42.4219C57.2698 42.4219 56.9199 42.072 56.9199 41.6406C56.9199 31.9911 49.0695 24.1406 39.4199 24.1406C38.9885 24.1406 38.6387 23.7908 38.6387 23.3594C38.6387 22.928 38.9885 22.5781 39.4199 22.5781C49.931 22.5781 58.4824 31.1295 58.4824 41.6406C58.4824 42.072 58.1326 42.4219 57.7012 42.4219Z" fill="#D2DEFF"/>
<path d="M35.7667 44.3023C35.5668 44.3023 35.3667 44.226 35.2143 44.0735L33.3338 42.1931C33.0287 41.8879 33.0287 41.3932 33.3338 41.0882L35.2143 39.2078C35.5192 38.9028 36.0142 38.9028 36.319 39.2078C36.6242 39.5129 36.6242 40.0076 36.319 40.3126L34.991 41.6407L36.319 42.9689C36.6242 43.274 36.6242 43.7687 36.319 44.0737C36.1665 44.226 35.9665 44.3023 35.7667 44.3023Z" fill="white"/>
<path d="M43.073 44.3022C42.8731 44.3022 42.673 44.2259 42.5206 44.0734C42.2155 43.7683 42.2155 43.2736 42.5206 42.9686L43.8486 41.6405L42.5206 40.3124C42.2155 40.0072 42.2155 39.5125 42.5206 39.2075C42.8255 38.9025 43.3205 38.9025 43.6253 39.2075L45.5058 41.088C45.8109 41.3931 45.8109 41.8878 45.5058 42.1928L43.6253 44.0733C43.473 44.2259 43.273 44.3022 43.073 44.3022Z" fill="white"/>
<path d="M38.3573 44.3023C38.2271 44.3023 38.0953 44.2698 37.974 44.2012C37.5982 43.9891 37.4656 43.5125 37.6778 43.1367L39.8015 39.3758C40.0135 39.0001 40.4903 38.8675 40.8659 39.0795C41.2417 39.2917 41.3743 39.7683 41.1621 40.1439L39.0384 43.9048C38.8946 44.1594 38.63 44.3023 38.3573 44.3023Z" fill="white"/>
<path d="M25.7616 29.6083H6.64877C5.78377 29.6083 5.08252 28.9071 5.08252 28.0421V12.8424C5.08252 11.9774 5.78377 11.2761 6.64877 11.2761H25.7616C26.6266 11.2761 27.3278 11.9774 27.3278 12.8424V28.0421C27.3278 28.9071 26.6267 29.6083 25.7616 29.6083Z" fill="white"/>
<path d="M69.8887 44.5632V38.7182C69.8887 38.1831 69.5337 37.7129 69.0191 37.5663L62.9709 35.8438C62.3785 33.4296 61.4262 31.157 60.1715 29.0874L63.2305 23.592C63.4909 23.1245 63.4093 22.541 63.031 22.1626L58.898 18.0296C58.5196 17.6512 57.9362 17.5698 57.4687 17.8301L51.9732 20.8892C49.9037 19.6345 47.631 18.6821 45.2168 18.0898L43.4941 12.0417C43.3476 11.527 42.8774 11.1721 42.3423 11.1721H36.4974C35.9623 11.1721 35.4921 11.5271 35.3455 12.0417L33.6229 18.0898C31.2087 18.6821 28.936 19.6345 26.8665 20.8892L21.371 17.8301C20.9035 17.5698 20.3201 17.6513 19.9416 18.0296L15.8087 22.1626C15.4302 22.541 15.3488 23.1245 15.6091 23.592L18.6682 29.0874C17.4135 31.157 16.4612 33.4296 15.8688 35.8438L9.8207 37.5663C9.30602 37.7129 8.95117 38.1831 8.95117 38.7182V44.5632C8.95117 45.0984 9.30617 45.5685 9.8207 45.7151L15.8688 47.4376C16.4612 49.8518 17.4135 52.1245 18.6682 54.194L15.6091 59.6895C15.3488 60.157 15.4304 60.7404 15.8087 61.1188L19.9416 65.2518C20.3201 65.6302 20.9035 65.7117 21.371 65.4513L26.8665 62.3923C28.936 63.647 31.2087 64.5993 33.6229 65.1917L35.3455 71.2398C35.4921 71.7545 35.9623 72.1093 36.4974 72.1093H42.3423C42.8774 72.1093 43.3476 71.7543 43.4941 71.2398L45.2168 65.1917C47.631 64.5993 49.9037 63.647 51.9732 62.3923L57.4687 65.4513C57.9362 65.7117 58.5196 65.6301 58.898 65.2518L63.031 61.1188C63.4095 60.7404 63.4909 60.157 63.2305 59.6895L60.1715 54.194C61.4262 52.1245 62.3785 49.8518 62.9709 47.4376L69.019 45.7149C69.5337 45.5685 69.8887 45.0982 69.8887 44.5632Z" fill="url(#paint1_linear_828_380)"/>
<path d="M25.7615 11.2761H20.4238V29.6083H25.7615C26.6265 29.6083 27.3277 28.9071 27.3277 28.0421V12.8424C27.3277 11.9774 26.6265 11.2761 25.7615 11.2761Z" fill="#DCFDEE"/>
<path d="M27.328 16.3925V12.8424C27.328 11.9774 26.6267 11.2761 25.7617 11.2761H6.64877C5.78377 11.2761 5.08252 11.9774 5.08252 12.8424V16.3925H27.328Z" fill="#01ECA5"/>
<path d="M17.2768 25.9514H9.5088C9.0763 25.9514 8.72583 25.6008 8.72583 25.1685C8.72583 24.7361 9.0763 24.3855 9.5088 24.3855H17.2769C17.7094 24.3855 18.0599 24.7361 18.0599 25.1685C18.0597 25.601 17.7093 25.9514 17.2768 25.9514Z" fill="#B7C5FF"/>
<path d="M13.048 22.7007H9.5088C9.0763 22.7007 8.72583 22.3501 8.72583 21.9177C8.72583 21.4854 9.0763 21.1348 9.5088 21.1348H13.048C13.4805 21.1348 13.831 21.4854 13.831 21.9177C13.831 22.3501 13.4805 22.7007 13.048 22.7007Z" fill="#B7C5FF"/>
<path d="M73.3512 68.4799H49.5509C48.6859 68.4799 47.9846 67.7786 47.9846 66.9136V51.714C47.9846 50.849 48.6859 50.1477 49.5509 50.1477H73.3512C74.2162 50.1477 74.9174 50.849 74.9174 51.714V66.9136C74.9174 67.7786 74.2162 68.4799 73.3512 68.4799Z" fill="white"/>
<path d="M74.9174 55.2641V51.714C74.9174 50.849 74.2162 50.1477 73.3512 50.1477H49.5509C48.6859 50.1477 47.9846 50.849 47.9846 51.714V55.2641H74.9174Z" fill="#02FFB3"/>
<path d="M53.6117 64.2172C53.5879 64.2172 53.564 64.2161 53.5401 64.2139C53.2295 64.1854 52.9656 63.975 52.8687 63.6784L51.7968 60.3956C51.6629 59.9854 51.8868 59.5443 52.297 59.4104C52.7072 59.2765 53.1483 59.5004 53.2822 59.9106L53.7915 61.4704L54.077 60.9459C54.2137 60.6947 54.477 60.5381 54.7633 60.5381C55.0495 60.5381 55.3128 60.6945 55.4495 60.9459L55.735 61.4704L56.2443 59.9106C56.3781 59.5004 56.8192 59.2764 57.2295 59.4104C57.6397 59.5443 57.8637 59.9854 57.7297 60.3956L56.6578 63.6784C56.5609 63.975 56.297 64.1854 55.9865 64.2139C55.6762 64.2428 55.3781 64.0834 55.229 63.8093L54.7634 62.9537L54.2978 63.8093C54.1601 64.0622 53.8959 64.2172 53.6117 64.2172Z" fill="#6583FE"/>
<path d="M60.2994 64.2172C60.2757 64.2172 60.2518 64.2161 60.2279 64.2139C59.9173 64.1854 59.6533 63.975 59.5565 63.6784L58.4846 60.3956C58.3507 59.9854 58.5746 59.5443 58.9847 59.4104C59.3949 59.2765 59.836 59.5004 59.9699 59.9106L60.4793 61.4704L60.7647 60.9459C60.9015 60.6947 61.1647 60.5381 61.451 60.5381C61.7372 60.5381 62.0005 60.6945 62.1372 60.9459L62.4227 61.4704L62.9321 59.9106C63.0658 59.5004 63.5069 59.2764 63.9173 59.4104C64.3274 59.5443 64.5515 59.9854 64.4174 60.3956L63.3455 63.6784C63.2487 63.975 62.9847 64.1854 62.6743 64.2139C62.3637 64.2428 62.0657 64.0834 61.9168 63.8093L61.4512 62.9537L60.9855 63.8093C60.8477 64.0622 60.5835 64.2172 60.2994 64.2172Z" fill="#6583FE"/>
<path d="M69.2904 64.2172C69.0063 64.2172 68.742 64.0622 68.6045 63.8093L68.1388 62.9537L67.6732 63.8093C67.5241 64.0832 67.227 64.2426 66.9157 64.2139C66.6051 64.1854 66.3412 63.975 66.2445 63.6784L65.1726 60.3956C65.0387 59.9854 65.2626 59.5443 65.6727 59.4104C66.0829 59.2765 66.524 59.5004 66.6579 59.9106L67.1673 61.4704L67.4527 60.9459C67.5895 60.6947 67.8527 60.5381 68.139 60.5381C68.4252 60.5381 68.6885 60.6945 68.8252 60.9459L69.1107 61.4704L69.6201 59.9106C69.7538 59.5004 70.1949 59.2764 70.6052 59.4104C71.0154 59.5443 71.2395 59.9854 71.1054 60.3956L70.0335 63.6784C69.9366 63.975 69.6727 64.1854 69.3623 64.2139C69.338 64.2161 69.3141 64.2172 69.2904 64.2172Z" fill="#6583FE"/>
<path d="M69.2133 31.3698C69.0133 31.3698 68.8135 31.2935 68.6608 31.141L66.943 29.4232C66.6378 29.1181 66.6378 28.6234 66.943 28.3184L68.6608 26.6006C68.966 26.2956 69.4605 26.2956 69.7656 26.6006L71.4835 28.3184C71.7886 28.6235 71.7886 29.1182 71.4835 29.4232L69.7658 31.1409C69.6131 31.2934 69.4133 31.3698 69.2133 31.3698ZM68.6003 28.8706L69.2133 29.4835L69.8263 28.8706L69.2133 28.2576L68.6003 28.8706Z" fill="#FF7EB8"/>
<path d="M55.8298 14.551C55.3984 14.551 55.0485 14.2012 55.0485 13.7698C55.0485 13.2507 54.6263 12.8285 54.1074 12.8285C53.676 12.8285 53.3262 12.4787 53.3262 12.0473C53.3262 11.6159 53.676 11.266 54.1074 11.266C54.6263 11.266 55.0485 10.8439 55.0485 10.325C55.0485 9.89354 55.3984 9.5437 55.8298 9.5437C56.2612 9.5437 56.611 9.89354 56.611 10.325C56.611 10.8439 57.0332 11.266 57.5521 11.266C57.9835 11.266 58.3334 11.6159 58.3334 12.0473C58.3334 12.4787 57.9835 12.8285 57.5521 12.8285C57.0332 12.8285 56.611 13.2507 56.611 13.7698C56.611 14.2014 56.2612 14.551 55.8298 14.551Z" fill="#97FFD2"/>
<path d="M9.88885 55.2096C9.45744 55.2096 9.1076 54.8597 9.1076 54.4283C9.1076 53.9094 8.68541 53.4872 8.1665 53.4872C7.7351 53.4872 7.38525 53.1374 7.38525 52.706C7.38525 52.2746 7.7351 51.9247 8.1665 51.9247C8.68541 51.9247 9.1076 51.5025 9.1076 50.9836C9.1076 50.5522 9.45744 50.2024 9.88885 50.2024C10.3203 50.2024 10.6701 50.5522 10.6701 50.9836C10.6701 51.5025 11.0923 51.9247 11.6112 51.9247C12.0426 51.9247 12.3924 52.2746 12.3924 52.706C12.3924 53.1374 12.0426 53.4872 11.6112 53.4872C11.0923 53.4872 10.6701 53.9094 10.6701 54.4283C10.6701 54.8597 10.3203 55.2096 9.88885 55.2096Z" fill="#6583FE"/>
<path d="M8.72592 63.6019C8.29451 63.6019 7.94467 63.2521 7.94467 62.8207C7.94467 62.3018 7.52248 61.8796 7.00342 61.8796C6.57201 61.8796 6.22217 61.5297 6.22217 61.0983C6.22217 60.6669 6.57201 60.3171 7.00342 60.3171C7.52248 60.3171 7.94467 59.8949 7.94467 59.376C7.94467 58.9446 8.29451 58.5947 8.72592 58.5947C9.15732 58.5947 9.50717 58.9446 9.50717 59.376C9.50717 59.8949 9.92935 60.3171 10.4483 60.3171C10.8797 60.3171 11.2295 60.6669 11.2295 61.0983C11.2295 61.5297 10.8797 61.8796 10.4483 61.8796C9.92935 61.8796 9.50717 62.3018 9.50717 62.8207C9.50717 63.2521 9.15732 63.6019 8.72592 63.6019Z" fill="#97FFD2"/>
<defs>
<linearGradient id="paint0_linear_828_380" x1="9.30667" y1="4.33715" x2="64.5118" y2="75.2603" gradientUnits="userSpaceOnUse">
<stop offset="0.0485" stop-color="white" stop-opacity="0"/>
<stop offset="0.9993" stop-color="#913BFF" stop-opacity="0.57"/>
</linearGradient>
<linearGradient id="paint1_linear_828_380" x1="39.4199" y1="11.1721" x2="39.4199" y2="72.1093" gradientUnits="userSpaceOnUse">
<stop offset="0.0028" stop-color="#FF7EB8" stop-opacity="0"/>
<stop offset="1" stop-color="#FF7EB8" stop-opacity="0.6"/>
</linearGradient>
</defs>
</svg>
