<svg width="80" height="84" viewBox="0 0 80 84" fill="none" xmlns="http://www.w3.org/2000/svg">
<g clip-path="url(#clip0_939_329)" filter="url(#filter0_f_939_329)">
<path d="M21.6486 66.8316L9.57632 63.5969C8.94461 63.4276 8.56976 62.7784 8.73902 62.1466C8.90829 61.5149 9.55766 61.1401 10.1893 61.3093L22.2615 64.5441C23.1985 64.7952 24.1651 64.2372 24.4162 63.3001L25.8838 57.8229C26.0531 57.1912 26.7024 56.8164 27.334 56.9857C27.9658 57.1549 28.3406 57.8042 28.1713 58.4359L26.7037 63.913C26.1147 66.1114 23.8469 67.4207 21.6486 66.8316Z" fill="url(#paint0_linear_939_329)"/>
<path d="M8.50539 64.6204C9.83196 64.9759 11.1955 64.1886 11.551 62.862C11.9064 61.5355 11.1192 60.1719 9.7926 59.8165C8.46603 59.461 7.10247 60.2483 6.74702 61.5748C6.39156 62.9014 7.17881 64.2649 8.50539 64.6204Z" fill="url(#paint1_linear_939_329)"/>
<path d="M43.4771 72.681L55.5493 75.9157C56.181 76.085 56.8303 75.7101 56.9996 75.0784C57.1688 74.4467 56.7939 73.7974 56.1623 73.6282L44.09 70.3934C43.1531 70.1424 42.5949 69.1758 42.846 68.2387L44.3136 62.7616C44.4829 62.1299 44.1079 61.4806 43.4763 61.3114C42.8447 61.1421 42.1953 61.5169 42.026 62.1487L40.5585 67.6258C39.9694 69.8241 41.2787 72.0919 43.4771 72.681Z" fill="url(#paint2_linear_939_329)"/>
<path d="M55.9649 77.3372C57.2914 77.6927 58.655 76.9054 59.0104 75.5788C59.3659 74.2523 58.5786 72.8887 57.2521 72.5333C55.9255 72.1778 54.5619 72.965 54.2065 74.2916C53.851 75.6182 54.6383 76.9817 55.9649 77.3372Z" fill="url(#paint3_linear_939_329)"/>
<path d="M32.2352 70.9781C31.6035 70.8089 31.2286 70.1596 31.3979 69.5279L33.9548 59.9856C34.124 59.3539 34.7733 58.979 35.405 59.1483C36.0367 59.3175 36.4116 59.9668 36.2423 60.5985L33.6854 70.1408C33.5162 70.7726 32.8669 71.1474 32.2352 70.9781Z" fill="url(#paint4_linear_939_329)"/>
<path d="M36.5227 11.3205L24.4504 8.08577C23.8187 7.9165 23.1694 8.29135 23.0002 8.92307C22.8309 9.55478 23.2059 10.2041 23.8375 10.3733L35.9097 13.6081C36.8467 13.8591 37.4048 14.8257 37.1537 15.7627L35.6861 21.2399C35.5169 21.8716 35.8918 22.5209 36.5234 22.6901C37.1551 22.8594 37.8044 22.4845 37.9737 21.8528L39.4412 16.3758C40.0303 14.1774 38.721 11.9096 36.5227 11.3205Z" fill="url(#paint5_linear_939_329)"/>
<path d="M22.7476 11.4681C24.0741 11.8235 25.4377 11.0363 25.7932 9.70969C26.1486 8.38312 25.3614 7.01957 24.0348 6.66411C22.7082 6.30866 21.3447 7.09591 20.9892 8.42248C20.6338 9.74905 21.421 11.1126 22.7476 11.4681Z" fill="url(#paint6_linear_939_329)"/>
<path d="M58.3511 17.1689L70.4234 20.4036C71.0551 20.5729 71.43 21.2221 71.2607 21.8539C71.0914 22.4856 70.4421 22.8604 69.8105 22.6912L57.7382 19.4564C56.8013 19.2054 55.8346 19.7634 55.5835 20.7004L54.1159 26.1776C53.9467 26.8093 53.2973 27.1841 52.6657 27.0149C52.0341 26.8456 51.6591 26.1963 51.8284 25.5646L53.2959 20.0876C53.885 17.8891 56.1528 16.5798 58.3511 17.1689Z" fill="url(#paint7_linear_939_329)"/>
<path d="M70.207 24.1849C71.5336 24.5403 72.8972 23.7531 73.2526 22.4265C73.6081 21.0999 72.8208 19.7364 71.4943 19.3809C70.1677 19.0255 68.8041 19.8127 68.4487 21.1393C68.0932 22.4659 68.8805 23.8294 70.207 24.1849Z" fill="url(#paint8_linear_939_329)"/>
<path d="M47.7644 13.0223C47.1327 12.853 46.4834 13.2279 46.3141 13.8596L43.7573 23.4019C43.588 24.0336 43.9629 24.6829 44.5946 24.8522C45.2263 25.0214 45.8755 24.6466 46.0448 24.0149L48.6017 14.4725C48.7709 13.8408 48.3961 13.1916 47.7644 13.0223V13.0223Z" fill="url(#paint9_linear_939_329)"/>
<path d="M15.2634 23.6742L16.7345 18.1838C16.9038 17.5521 17.5531 17.1772 18.1848 17.3465C18.8165 17.5158 19.1913 18.1652 19.0221 18.7968L17.5509 24.2872C17.2999 25.2241 17.8579 26.1908 18.7949 26.4419L24.2721 27.9095C24.9038 28.0787 25.2786 28.7281 25.1094 29.3597C24.9401 29.9913 24.2908 30.3663 23.6591 30.197L18.182 28.7294C15.9837 28.1404 14.6743 25.8726 15.2634 23.6742Z" fill="url(#paint10_linear_939_329)"/>
<path d="M17.4697 20.1585C18.7963 20.5139 20.1599 19.7267 20.5153 18.4001C20.8708 17.0736 20.0835 15.71 18.757 15.3545C17.4304 14.9991 16.0668 15.7863 15.7114 17.1129C15.3559 18.4395 16.1432 19.803 17.4697 20.1585Z" fill="url(#paint11_linear_939_329)"/>
<path d="M9.41414 45.5025L7.94298 50.993C7.77371 51.6247 8.14856 52.2739 8.78028 52.4432C9.41199 52.6125 10.0613 52.2375 10.2305 51.6059L11.7017 46.1155C11.9527 45.1785 12.9193 44.6204 13.8564 44.8714L19.3335 46.339C19.9652 46.5083 20.6145 46.1333 20.7837 45.5017C20.953 44.8701 20.5782 44.2208 19.9464 44.0515L14.4693 42.5839C12.271 41.9949 10.0032 43.3042 9.41414 45.5025Z" fill="url(#paint12_linear_939_329)"/>
<path d="M8.28029 54.4544C9.60686 54.8098 10.9704 54.0226 11.3259 52.696C11.6813 51.3695 10.8941 50.0059 9.5675 49.6504C8.24093 49.295 6.87737 50.0822 6.52192 51.4088C6.16647 52.7354 6.95371 54.0989 8.28029 54.4544Z" fill="url(#paint13_linear_939_329)"/>
<path d="M11.1169 34.261C11.2861 33.6292 11.9354 33.2544 12.5671 33.4237L22.1094 35.9805C22.7411 36.1498 23.116 36.799 22.9467 37.4308C22.7775 38.0625 22.1282 38.4373 21.4965 38.2681L11.9543 35.7112C11.3226 35.542 10.9476 34.8927 11.1169 34.261Z" fill="url(#paint14_linear_939_329)"/>
<path d="M70.5851 38.4971L72.0562 33.0066C72.2255 32.3749 71.8506 31.7257 71.2189 31.5564C70.5872 31.3871 69.9379 31.7621 69.7687 32.3937L68.2975 37.8841C68.0465 38.8211 67.0799 39.3792 66.1428 39.1281L60.6657 37.6605C60.034 37.4913 59.3847 37.8662 59.2154 38.4978C59.0462 39.1294 59.421 39.7788 60.0527 39.9481L65.5299 41.4157C67.7282 42.0047 69.996 40.6954 70.5851 38.4971Z" fill="url(#paint15_linear_939_329)"/>
<path d="M70.4317 34.3499C71.7582 34.7054 73.1218 33.9181 73.4772 32.5915C73.8327 31.265 73.0454 29.9014 71.7189 29.546C70.3923 29.1905 69.0287 29.9777 68.6733 31.3043C68.3178 32.6309 69.1051 33.9944 70.4317 34.3499Z" fill="url(#paint16_linear_939_329)"/>
<path d="M64.7358 60.3263L63.2646 65.8167C63.0954 66.4485 62.4461 66.8233 61.8144 66.654C61.1827 66.4848 60.8079 65.8354 60.9771 65.2038L62.4483 59.7134C62.6993 58.7764 62.1413 57.8098 61.2043 57.5587L55.7271 56.0911C55.0954 55.9218 54.7206 55.2724 54.8898 54.6408C55.0591 54.0092 55.7083 53.6343 56.3401 53.8035L61.8172 55.2711C64.0155 55.8602 65.3248 58.128 64.7358 60.3263Z" fill="url(#paint17_linear_939_329)"/>
<path d="M61.2422 68.6458C62.5688 69.0013 63.9323 68.214 64.2878 66.8874C64.6432 65.5609 63.856 64.1973 62.5294 63.8418C61.2028 63.4864 59.8393 64.2736 59.4838 65.6002C59.1284 66.9268 59.9156 68.2903 61.2422 68.6458Z" fill="url(#paint18_linear_939_329)"/>
<path d="M68.8828 49.7394C69.052 49.1076 68.6772 48.4584 68.0455 48.2891L58.5031 45.7323C57.8714 45.563 57.2222 45.9378 57.0529 46.5696C56.8836 47.2013 57.2585 47.8505 57.8902 48.0198L67.4325 50.5767C68.0641 50.7459 68.7135 50.3711 68.8828 49.7394Z" fill="url(#paint19_linear_939_329)"/>
<path d="M35.8009 61.2855L36.4278 61.2686C38.0237 61.2256 39.7591 60.4924 41.4466 59.1479C43.0616 57.8615 44.6433 56.0101 46.0209 53.7942L46.4279 53.1394L45.6592 53.0807C43.4253 52.9097 41.1053 52.5408 38.764 51.9841L38.3215 51.8788L35.801 61.2856L35.8009 61.2855Z" fill="url(#paint20_linear_939_329)"/>
<path d="M57.3447 51.5807L56.0334 52.0561C55.0211 52.423 53.8734 52.7052 52.6221 52.8946C51.4421 53.0733 50.1639 53.1721 48.823 53.1883L48.5509 53.1915L48.4191 53.4295C47.2676 55.5108 45.9624 57.3286 44.5399 58.8322C43.8672 59.5432 43.1674 60.1817 42.46 60.7299L41.0561 61.8181L42.8139 61.5628C48.4633 60.7422 53.4827 57.5305 56.5852 52.7507L57.3447 51.5807Z" fill="url(#paint21_linear_939_329)"/>
<path d="M53.0054 36.3125L53.0005 36.5845L53.2346 36.7233C54.3878 37.4077 55.4453 38.1324 56.3778 38.8772C57.3668 39.6669 58.2196 40.4851 58.9128 41.309L59.8108 42.3763L59.7382 40.9834C59.4411 35.2927 56.7001 30.0016 52.218 26.4662L50.8232 25.3662L51.495 27.0106C51.8335 27.839 52.1202 28.7419 52.3474 29.694C52.8274 31.7075 53.0488 33.9341 53.0054 36.3125Z" fill="url(#paint22_linear_939_329)"/>
<path d="M53.5248 39.1167L52.8853 38.6904L52.8003 39.4542C52.5911 41.3351 52.228 43.2483 51.7209 45.141C51.2137 47.0336 50.5717 48.8721 49.8123 50.6056L49.504 51.3095L50.271 51.2601C55.1829 50.9439 58.4799 49.3946 59.0905 47.1157C59.7012 44.8368 57.6206 41.8465 53.5248 39.1167Z" fill="url(#paint23_linear_939_329)"/>
<path d="M46.5408 23.5273L46.0063 23.1992L43.4858 32.6059L43.9216 32.736C46.2277 33.4246 48.4213 34.2651 50.4413 35.234L51.1364 35.5675L51.1113 34.7968C51.0263 32.189 50.5821 29.7948 49.8268 27.8733C49.0376 25.8652 47.9014 24.3624 46.5408 23.5273Z" fill="url(#paint24_linear_939_329)"/>
<path d="M38.8059 50.0721L39.2749 50.183C41.9748 50.8213 44.6092 51.1948 47.1051 51.2933L47.4102 51.3054L47.5441 51.0308C48.5187 49.0314 49.3158 46.887 49.9133 44.6572C50.5108 42.4274 50.8926 40.1718 51.0483 37.9529L51.0697 37.6481L50.7994 37.506C48.5886 36.3434 46.1204 35.3497 43.4631 34.5525L43.0015 34.4141L38.8059 50.0721Z" fill="url(#paint25_linear_939_329)"/>
<path d="M26.4742 44.8837L27.1138 45.31L27.1987 44.5462C27.4079 42.6653 27.7711 40.752 28.2782 38.8594C28.7853 36.9669 29.4274 35.1283 30.1867 33.3948L30.4951 32.6909L29.728 32.7403C24.8161 33.0565 21.5191 34.6058 20.9085 36.8847C20.2979 39.1636 22.3785 42.1539 26.4742 44.8837Z" fill="url(#paint26_linear_939_329)"/>
<path d="M44.1984 22.7146L43.5715 22.7315C41.9756 22.7745 40.2402 23.5077 38.5526 24.8522C36.9377 26.1386 35.3559 27.99 33.9784 30.2059L33.5714 30.8607L34.3401 30.9194C36.5739 31.0904 38.894 31.4593 41.2353 32.016L41.6778 32.1212L44.1983 22.7145L44.1984 22.7146Z" fill="url(#paint27_linear_939_329)"/>
<path d="M33.4589 60.4736L33.9933 60.8017L36.5138 51.3951L36.0781 51.265C33.7719 50.5765 31.5784 49.736 29.5583 48.7671L28.8633 48.4336L28.8883 49.2042C28.9733 51.812 29.4175 54.2062 30.1729 56.1278C30.962 58.1357 32.0983 59.6386 33.4589 60.4736Z" fill="url(#paint28_linear_939_329)"/>
<path d="M41.1937 33.9297L40.7246 33.8188C38.0248 33.1805 35.3904 32.807 32.8945 32.7085L32.5893 32.6964L32.4555 32.971C31.4809 34.9704 30.6838 37.1148 30.0863 39.3446C29.4888 41.5744 29.107 43.83 28.9512 46.0489L28.9299 46.3537L29.2002 46.4958C31.411 47.6584 33.8792 48.6521 36.5365 49.4493L36.9981 49.5877L41.1937 33.9297Z" fill="url(#paint29_linear_939_329)"/>
<path d="M27.7815 57.5342L29.1762 58.6342L28.5044 56.9898C28.166 56.1614 27.8792 55.2585 27.652 54.3063C27.1719 52.293 26.9505 50.0662 26.9939 47.6879L26.9988 47.4159L26.7647 47.2771C25.6115 46.5927 24.554 45.8679 23.6215 45.1232C22.6325 44.3335 21.7798 43.5153 21.0865 42.6914L20.1885 41.624L20.2611 43.017C20.5582 48.7076 23.2993 53.9988 27.7815 57.5342Z" fill="url(#paint30_linear_939_329)"/>
<path d="M27.3772 31.1067C28.5572 30.928 29.8354 30.8293 31.1763 30.8131L31.4484 30.8098L31.5802 30.5718C32.7318 28.4904 34.0369 26.6727 35.4594 25.1692C36.1322 24.4581 36.832 23.8196 37.5393 23.2714L38.9432 22.1832L37.1854 22.4385C31.536 23.2591 26.5166 26.4708 23.4141 31.2506L22.6547 32.4206L23.9661 31.9453C24.9782 31.5784 26.1259 31.2961 27.3772 31.1067Z" fill="url(#paint31_linear_939_329)"/>
<path d="M59.142 30.9483C56.1899 25.8352 51.4234 22.1777 45.7203 20.6496C40.0173 19.1215 34.0606 19.9057 28.9474 22.8578C23.8342 25.81 20.1769 30.5764 18.6487 36.2794C17.1206 41.9825 17.9048 47.9391 20.8569 53.0524C23.8091 58.1656 28.5756 61.8231 34.2786 63.3512C39.9817 64.8793 45.9383 64.0951 51.0515 61.143C56.1648 58.1908 59.8222 53.4243 61.3504 47.7213C62.8785 42.0182 62.0941 36.0615 59.142 30.9483ZM30.5379 39.4651C31.1421 37.2101 31.9417 35.0917 32.8757 33.1755C35.2266 33.2682 37.8381 33.6167 40.6166 34.2736L36.6706 49.0006C33.9358 48.1802 31.5 47.1762 29.4176 46.0811C29.5669 43.9545 29.9337 41.7202 30.5379 39.4651ZM26.7336 44.4946C22.8155 41.8832 20.8174 39.0323 21.3604 37.006C21.9033 34.9797 25.0592 33.5098 29.758 33.2073C28.9948 34.9499 28.3439 36.8061 27.8262 38.7385C27.3084 40.6709 26.9439 42.6039 26.7336 44.4946ZM50.6434 34.8121C48.6149 33.8392 46.3946 32.9863 44.0551 32.2878L46.2956 23.926C48.9208 25.5376 50.4758 29.6682 50.6434 34.8121ZM43.5839 23.1994L41.3435 31.5611C38.9681 30.9962 36.6188 30.6248 34.3756 30.4531C37.0927 26.0822 40.5047 23.2825 43.5839 23.1994ZM35.9438 51.713L33.7033 60.0746C31.0781 58.4631 29.5231 54.3325 29.3555 49.1886C31.384 50.1615 33.6042 51.0145 35.9438 51.713ZM36.4149 60.8012L38.6554 52.4396C41.0307 53.0044 43.3801 53.3759 45.6232 53.5476C42.9062 57.9185 39.4942 60.7182 36.4149 60.8012ZM39.3822 49.727L43.3283 35.0002C46.063 35.8205 48.4989 36.8246 50.5812 37.9197C50.432 40.0461 50.0652 42.2806 49.461 44.5355C48.8568 46.7905 48.0572 48.909 47.1232 50.8251C44.7723 50.7325 42.1607 50.3841 39.3822 49.727ZM53.2652 39.5061C57.1833 42.1175 59.1814 44.9684 58.6385 46.9947C58.0956 49.0209 54.9397 50.4908 50.2408 50.7933C51.0041 49.0508 51.6549 47.1946 52.1727 45.2621C52.6905 43.3297 53.055 41.3968 53.2652 39.5061ZM59.2707 41.008C58.5628 40.1665 57.6948 39.3305 56.6697 38.5119C55.7102 37.7457 54.638 37.0126 53.4732 36.3214C53.5168 33.9298 53.2951 31.6523 52.8023 29.5859C52.5664 28.5968 52.2731 27.6786 51.9281 26.834C56.2689 30.2578 58.98 35.4395 59.2707 41.008ZM37.2523 22.9015C36.5311 23.4605 35.8179 24.1089 35.1192 24.8476C33.6592 26.3907 32.3284 28.2522 31.1704 30.3453C29.8161 30.3615 28.521 30.4603 27.3069 30.6441C26.0098 30.8405 24.8401 31.1305 23.8063 31.5053C26.8422 26.8282 31.781 23.6962 37.2523 22.9015ZM20.7282 42.9926C21.436 43.8341 22.3041 44.6701 23.3291 45.4887C24.2887 46.2549 25.3609 46.988 26.5257 47.6793C26.482 50.0709 26.7038 52.3483 27.1966 54.4148C27.4325 55.4039 27.7258 56.322 28.0708 57.1667C23.73 53.7429 21.0189 48.5611 20.7282 42.9926ZM42.7466 61.0992C43.4677 60.5402 44.1809 59.8917 44.8797 59.1531C46.3396 57.61 47.6704 55.7484 48.8284 53.6554C50.1828 53.6391 51.4779 53.5404 52.692 53.3566C53.989 53.1602 55.1588 52.8701 56.1925 52.4954C53.1567 57.1724 48.2179 60.3044 42.7466 61.0992Z" fill="url(#paint32_linear_939_329)"/>
<path d="M51.0518 61.1427C56.165 58.1907 59.8225 53.4241 61.3506 47.7211C62.8787 42.018 62.0945 36.0614 59.1424 30.9481C56.1903 25.8349 51.4238 22.1775 45.7207 20.6494L34.2789 63.351C39.9819 64.879 45.9386 64.0948 51.0518 61.1427Z" fill="url(#paint33_linear_939_329)"/>
<path d="M51.1754 61.0697L35.5309 33.9727C35.4128 33.492 34.9746 33.346 34.4312 33.2087L26.1713 31.219C25.0935 30.9468 24.5961 31.7026 24.9382 32.7604L25.4649 34.389C22.5954 35.6447 19.7186 37.6027 17.9625 40.2259C17.5955 44.6676 18.5814 49.1106 20.8571 53.0524C23.8091 58.1656 28.5757 61.8231 34.2788 63.3512C39.9818 64.8794 45.9385 64.0951 51.0517 61.143C51.0933 61.119 51.134 61.094 51.1754 61.0697Z" fill="url(#paint34_linear_939_329)"/>
<path d="M20.5336 52.4502C20.4762 51.2805 21.0331 47.1312 21.3935 45.9426C22.2651 43.068 24.2882 40.8269 26.8142 39.5833L27.3538 41.2518C27.696 42.3096 29.0685 42.5771 29.7829 41.7253L35.241 35.2168C35.9113 34.4175 35.5151 33.1926 34.5038 32.9372L26.2681 30.8571C25.1903 30.5849 24.2343 31.6055 24.5763 32.6632L25.103 34.2919C20.8483 36.1538 17.3703 39.7707 15.9955 44.3961C15.8502 44.8846 15.7278 45.6673 15.6264 46.5507C15.2811 49.5581 17.5131 52.2465 20.5336 52.4502Z" fill="url(#paint35_linear_939_329)"/>
<path d="M59.4767 31.5512C59.473 31.5509 59.4693 31.5505 59.4656 31.5503C59.523 32.7199 58.966 36.8693 58.6057 38.0578C57.7752 40.7966 55.8991 42.9598 53.539 44.2337L52.6102 42.6513C52.2178 41.6751 50.9083 41.45 50.2164 42.2751L44.7583 48.7836C44.3015 49.3282 44.3403 50.0702 44.7311 50.5688L50.8887 61.2342C50.9428 61.2035 50.9975 61.174 51.0514 61.1429C56.1646 58.1908 59.8221 53.4242 61.3503 47.7212C62.8186 42.2407 62.1506 36.5264 59.4767 31.5512Z" fill="url(#paint36_linear_939_329)"/>
<path d="M59.4655 31.5502C59.5229 32.7199 58.966 36.8692 58.6056 38.0578C57.734 40.9324 55.7109 43.1735 53.1849 44.4171L52.6453 42.7486C52.3031 41.6908 50.9306 41.4233 50.2162 42.2751L44.7581 48.7836C44.0878 49.5829 44.484 50.8079 45.4953 51.0632L53.731 53.1433C54.8088 53.4155 55.7648 52.3949 55.4228 51.3372L54.8961 49.7086C59.1508 47.8468 62.6288 44.2298 64.0037 39.6044C64.1488 39.1159 64.2714 38.3332 64.3728 37.4498C64.718 34.4423 62.486 31.7539 59.4655 31.5502Z" fill="url(#paint37_linear_939_329)"/>
</g>
<defs>
<filter id="filter0_f_939_329" x="-2.74268" y="-0.742188" width="85.4849" height="85.4844" filterUnits="userSpaceOnUse" color-interpolation-filters="sRGB">
<feFlood flood-opacity="0" result="BackgroundImageFix"/>
<feBlend mode="normal" in="SourceGraphic" in2="BackgroundImageFix" result="shape"/>
<feGaussianBlur stdDeviation="3" result="effect1_foregroundBlur_939_329"/>
</filter>
<linearGradient id="paint0_linear_939_329" x1="18.7528" y1="60.8066" x2="24.2961" y2="70.4079" gradientUnits="userSpaceOnUse">
<stop stop-color="#EDF5FF"/>
<stop offset="1" stop-color="#B5DBFF"/>
</linearGradient>
<linearGradient id="paint1_linear_939_329" x1="8.58381" y1="61.2395" x2="10.1529" y2="63.957" gradientUnits="userSpaceOnUse">
<stop stop-color="#B9DD39"/>
<stop offset="1" stop-color="#90CC1C"/>
</linearGradient>
<linearGradient id="paint2_linear_939_329" x1="42.6176" y1="61.5402" x2="49.9273" y2="74.201" gradientUnits="userSpaceOnUse">
<stop stop-color="#EDF5FF"/>
<stop offset="1" stop-color="#B5DBFF"/>
</linearGradient>
<linearGradient id="paint3_linear_939_329" x1="56.0433" y1="73.9563" x2="57.6123" y2="76.6738" gradientUnits="userSpaceOnUse">
<stop stop-color="#B9DD39"/>
<stop offset="1" stop-color="#90CC1C"/>
</linearGradient>
<linearGradient id="paint4_linear_939_329" x1="32.6763" y1="64.7567" x2="34.9639" y2="65.3696" gradientUnits="userSpaceOnUse">
<stop stop-color="#EDF5FF"/>
<stop offset="1" stop-color="#B5DBFF"/>
</linearGradient>
<linearGradient id="paint5_linear_939_329" x1="31.0024" y1="15.0905" x2="40.6036" y2="9.54715" gradientUnits="userSpaceOnUse">
<stop stop-color="#EDF5FF"/>
<stop offset="1" stop-color="#B5DBFF"/>
</linearGradient>
<linearGradient id="paint6_linear_939_329" x1="22.826" y1="8.08716" x2="24.395" y2="10.8048" gradientUnits="userSpaceOnUse">
<stop stop-color="#B9DD39"/>
<stop offset="1" stop-color="#90CC1C"/>
</linearGradient>
<linearGradient id="paint7_linear_939_329" x1="52.0364" y1="26.3873" x2="64.6973" y2="19.0776" gradientUnits="userSpaceOnUse">
<stop stop-color="#EDF5FF"/>
<stop offset="1" stop-color="#B5DBFF"/>
</linearGradient>
<linearGradient id="paint8_linear_939_329" x1="70.2855" y1="20.804" x2="71.8545" y2="23.5216" gradientUnits="userSpaceOnUse">
<stop stop-color="#B9DD39"/>
<stop offset="1" stop-color="#90CC1C"/>
</linearGradient>
<linearGradient id="paint9_linear_939_329" x1="45.0357" y1="18.6308" x2="47.3232" y2="19.2438" gradientUnits="userSpaceOnUse">
<stop stop-color="#EDF5FF"/>
<stop offset="1" stop-color="#B5DBFF"/>
</linearGradient>
<linearGradient id="paint10_linear_939_329" x1="19.7703" y1="24.4367" x2="14.0031" y2="27.7664" gradientUnits="userSpaceOnUse">
<stop stop-color="#EDF5FF"/>
<stop offset="1" stop-color="#B5DBFF"/>
</linearGradient>
<linearGradient id="paint11_linear_939_329" x1="19.0924" y1="17.1914" x2="16.3748" y2="18.7604" gradientUnits="userSpaceOnUse">
<stop stop-color="#B9DD39"/>
<stop offset="1" stop-color="#90CC1C"/>
</linearGradient>
<linearGradient id="paint12_linear_939_329" x1="13.6985" y1="47.0957" x2="10.3688" y2="41.3284" gradientUnits="userSpaceOnUse">
<stop stop-color="#EDF5FF"/>
<stop offset="1" stop-color="#B5DBFF"/>
</linearGradient>
<linearGradient id="paint13_linear_939_329" x1="9.48919" y1="53.0314" x2="7.92013" y2="50.3139" gradientUnits="userSpaceOnUse">
<stop stop-color="#B9DD39"/>
<stop offset="1" stop-color="#90CC1C"/>
</linearGradient>
<linearGradient id="paint14_linear_939_329" x1="17.3383" y1="34.7021" x2="16.7254" y2="36.9896" gradientUnits="userSpaceOnUse">
<stop stop-color="#EDF5FF"/>
<stop offset="1" stop-color="#B5DBFF"/>
</linearGradient>
<linearGradient id="paint15_linear_939_329" x1="66.3008" y1="36.9039" x2="69.6305" y2="42.6712" gradientUnits="userSpaceOnUse">
<stop stop-color="#EDF5FF"/>
<stop offset="1" stop-color="#B5DBFF"/>
</linearGradient>
<linearGradient id="paint16_linear_939_329" x1="70.5101" y1="30.969" x2="72.0791" y2="33.6866" gradientUnits="userSpaceOnUse">
<stop stop-color="#B9DD39"/>
<stop offset="1" stop-color="#90CC1C"/>
</linearGradient>
<linearGradient id="paint17_linear_939_329" x1="60.229" y1="59.5639" x2="65.9962" y2="56.2342" gradientUnits="userSpaceOnUse">
<stop stop-color="#EDF5FF"/>
<stop offset="1" stop-color="#B5DBFF"/>
</linearGradient>
<linearGradient id="paint18_linear_939_329" x1="60.9069" y1="66.809" x2="63.6245" y2="65.2401" gradientUnits="userSpaceOnUse">
<stop stop-color="#B9DD39"/>
<stop offset="1" stop-color="#90CC1C"/>
</linearGradient>
<linearGradient id="paint19_linear_939_329" x1="63.2743" y1="47.0107" x2="62.6613" y2="49.2982" gradientUnits="userSpaceOnUse">
<stop stop-color="#EDF5FF"/>
<stop offset="1" stop-color="#B5DBFF"/>
</linearGradient>
<linearGradient id="paint20_linear_939_329" x1="24.2568" y1="28.0143" x2="48.4244" y2="69.8737" gradientUnits="userSpaceOnUse">
<stop stop-color="#B5DBFF"/>
<stop offset="1" stop-color="#76E2F8"/>
</linearGradient>
<linearGradient id="paint21_linear_939_329" x1="31.735" y1="26.4483" x2="49.6805" y2="57.5309" gradientUnits="userSpaceOnUse">
<stop stop-color="#EDF5FF"/>
<stop offset="1" stop-color="#D5E8FE"/>
</linearGradient>
<linearGradient id="paint22_linear_939_329" x1="45.8027" y1="18.3252" x2="63.7484" y2="49.408" gradientUnits="userSpaceOnUse">
<stop stop-color="#EDF5FF"/>
<stop offset="1" stop-color="#D5E8FE"/>
</linearGradient>
<linearGradient id="paint23_linear_939_329" x1="38.0691" y1="20.0399" x2="62.2367" y2="61.8993" gradientUnits="userSpaceOnUse">
<stop stop-color="#B5DBFF"/>
<stop offset="1" stop-color="#76E2F8"/>
</linearGradient>
<linearGradient id="paint24_linear_939_329" x1="40.1536" y1="18.8366" x2="64.3212" y2="60.696" gradientUnits="userSpaceOnUse">
<stop stop-color="#B5DBFF"/>
<stop offset="1" stop-color="#76E2F8"/>
</linearGradient>
<linearGradient id="paint25_linear_939_329" x1="34.0975" y1="25.0842" x2="52.0431" y2="56.167" gradientUnits="userSpaceOnUse">
<stop stop-color="#EDF5FF"/>
<stop offset="1" stop-color="#D5E8FE"/>
</linearGradient>
<linearGradient id="paint26_linear_939_329" x1="23.1376" y1="31.411" x2="41.0832" y2="62.4938" gradientUnits="userSpaceOnUse">
<stop stop-color="#EDF5FF"/>
<stop offset="1" stop-color="#D5E8FE"/>
</linearGradient>
<linearGradient id="paint27_linear_939_329" x1="36.9501" y1="23.4363" x2="54.8956" y2="54.519" gradientUnits="userSpaceOnUse">
<stop stop-color="#EDF5FF"/>
<stop offset="1" stop-color="#D5E8FE"/>
</linearGradient>
<linearGradient id="paint28_linear_939_329" x1="21.0536" y1="32.6149" x2="38.9992" y2="63.6977" gradientUnits="userSpaceOnUse">
<stop stop-color="#EDF5FF"/>
<stop offset="1" stop-color="#D5E8FE"/>
</linearGradient>
<linearGradient id="paint29_linear_939_329" x1="27.1096" y1="26.3681" x2="51.2771" y2="68.2276" gradientUnits="userSpaceOnUse">
<stop stop-color="#B5DBFF"/>
<stop offset="1" stop-color="#76E2F8"/>
</linearGradient>
<linearGradient id="paint30_linear_939_329" x1="15.4042" y1="33.1256" x2="39.5718" y2="74.9851" gradientUnits="userSpaceOnUse">
<stop stop-color="#B5DBFF"/>
<stop offset="1" stop-color="#76E2F8"/>
</linearGradient>
<linearGradient id="paint31_linear_939_329" x1="29.4721" y1="25.0037" x2="53.6396" y2="66.8631" gradientUnits="userSpaceOnUse">
<stop stop-color="#B5DBFF"/>
<stop offset="1" stop-color="#76E2F8"/>
</linearGradient>
<linearGradient id="paint32_linear_939_329" x1="34.9413" y1="21.9266" x2="43.5805" y2="56.212" gradientUnits="userSpaceOnUse">
<stop stop-color="#B5DBFF"/>
<stop offset="1" stop-color="#48B2E3"/>
</linearGradient>
<linearGradient id="paint33_linear_939_329" x1="48.3767" y1="47.1505" x2="20.8586" y2="27.2795" gradientUnits="userSpaceOnUse">
<stop stop-color="#B5DBFF" stop-opacity="0"/>
<stop offset="0.1734" stop-color="#8FC5E9" stop-opacity="0.173"/>
<stop offset="0.4541" stop-color="#56A4C8" stop-opacity="0.454"/>
<stop offset="0.6955" stop-color="#2D8DB1" stop-opacity="0.696"/>
<stop offset="0.8853" stop-color="#147EA2" stop-opacity="0.885"/>
<stop offset="1" stop-color="#0B799D"/>
</linearGradient>
<linearGradient id="paint34_linear_939_329" x1="36.9323" y1="55.0182" x2="21.4285" y2="34.7817" gradientUnits="userSpaceOnUse">
<stop stop-color="#B5DBFF" stop-opacity="0"/>
<stop offset="0.1734" stop-color="#8FC5E9" stop-opacity="0.173"/>
<stop offset="0.4541" stop-color="#56A4C8" stop-opacity="0.454"/>
<stop offset="0.6955" stop-color="#2D8DB1" stop-opacity="0.696"/>
<stop offset="0.8853" stop-color="#147EA2" stop-opacity="0.885"/>
<stop offset="1" stop-color="#0B799D"/>
</linearGradient>
<linearGradient id="paint35_linear_939_329" x1="21.6798" y1="35.3508" x2="27.5223" y2="44.2792" gradientUnits="userSpaceOnUse">
<stop stop-color="#0B799D"/>
<stop offset="1" stop-color="#07485E"/>
</linearGradient>
<linearGradient id="paint36_linear_939_329" x1="60.441" y1="55.5145" x2="53.9998" y2="44.3579" gradientUnits="userSpaceOnUse">
<stop stop-color="#B5DBFF" stop-opacity="0"/>
<stop offset="0.1734" stop-color="#8FC5E9" stop-opacity="0.173"/>
<stop offset="0.4541" stop-color="#56A4C8" stop-opacity="0.454"/>
<stop offset="0.6955" stop-color="#2D8DB1" stop-opacity="0.696"/>
<stop offset="0.8853" stop-color="#147EA2" stop-opacity="0.885"/>
<stop offset="1" stop-color="#0B799D"/>
</linearGradient>
<linearGradient id="paint37_linear_939_329" x1="53.143" y1="40.7572" x2="57.9026" y2="47.9423" gradientUnits="userSpaceOnUse">
<stop stop-color="#0B799D"/>
<stop offset="1" stop-color="#07485E"/>
</linearGradient>
<clipPath id="clip0_939_329">
<rect width="60" height="60" fill="white" transform="translate(18.7866 5.25781) rotate(15)"/>
</clipPath>
</defs>
</svg>
