<svg width="40" height="40" viewBox="0 0 40 40" fill="none" xmlns="http://www.w3.org/2000/svg">
<g clip-path="url(#clip0_907_176)">
<path d="M34.9932 5.32867C30.5869 5.32867 26.3152 3.81047 22.8972 1.02976C21.2096 -0.343255 18.79 -0.343255 17.1024 1.02976C13.6844 3.81055 9.41263 5.32867 5.00643 5.32867C3.63051 5.32867 2.51514 6.44404 2.51514 7.81996V14.497C2.51514 23.0625 6.37216 31.1728 13.0166 36.5786L15.0674 38.2469C17.9404 40.5844 22.0594 40.5844 24.9325 38.2469L26.9832 36.5786C33.6276 31.1729 37.4847 23.0622 37.4847 14.4967C37.4847 11.9332 37.4847 9.5242 37.4847 7.81941C37.4845 6.44349 36.3691 5.32867 34.9932 5.32867V5.32867Z" fill="url(#paint0_linear_907_176)"/>
<path d="M19.9999 37.8019C19.5195 37.8019 19.0497 37.6349 18.6771 37.3318L14.7548 34.1407C11.89 31.8099 9.53719 28.8149 7.95099 25.4796C6.3648 22.1443 5.52637 18.4292 5.52637 14.7359V9.43728C5.52637 8.79626 6.05045 8.25116 6.6906 8.21736C11.0559 7.98654 15.276 6.36779 18.6771 3.60073C19.0498 3.29752 19.5195 3.13062 19.9999 3.13062C20.4803 3.13062 20.95 3.29752 21.3226 3.60065C24.7239 6.36779 28.9441 7.98654 33.3094 8.21736C33.9494 8.25116 34.4733 8.79618 34.4733 9.43713V14.7356C34.4733 18.429 33.6349 22.1441 32.0487 25.4795C30.4625 28.8149 28.1098 31.8099 25.245 34.1407L21.3226 37.3318C20.95 37.635 20.4803 37.8019 19.9999 37.8019V37.8019Z" fill="url(#paint1_linear_907_176)"/>
<path d="M19.9996 36.3391C19.5598 36.3391 19.1297 36.1862 18.7885 35.9086L15.1972 32.9869C12.5741 30.8528 10.4199 28.1105 8.96756 25.0567C7.51524 22.0029 6.74756 18.6013 6.74756 15.2196V10.3681C6.74756 9.78119 7.2274 9.28213 7.81352 9.25107C11.8104 9.0397 15.6745 7.55758 18.7885 5.02402C19.1298 4.74645 19.5599 4.59351 19.9996 4.59351C20.4395 4.59351 20.8696 4.74637 21.2107 5.02394C24.3249 7.55758 28.189 9.0397 32.1859 9.25107C32.772 9.28205 33.2517 9.78103 33.2517 10.3679V15.2192C33.2517 18.6009 32.484 22.0025 31.0317 25.0565C29.5794 28.1104 27.4252 30.8527 24.8021 32.9868L21.2107 35.9086C20.8696 36.1862 20.4395 36.3391 19.9996 36.3391V36.3391Z" fill="url(#paint2_linear_907_176)"/>
<path d="M37.4847 7.81945C37.4847 6.44353 36.3693 5.32871 34.9934 5.32871C30.5871 5.32871 26.3154 3.81051 22.8974 1.0298C22.0536 0.343294 21.0268 0 20 0V40C21.748 40 23.496 39.4157 24.9325 38.247L26.9833 36.5786C33.6277 31.1729 37.4847 23.0623 37.4848 14.4967C37.4847 11.9332 37.4847 9.52416 37.4847 7.81945V7.81945Z" fill="url(#paint3_linear_907_176)"/>
<path d="M33.0526 11.6399C32.2689 10.8564 30.9985 11.017 30.2149 11.8006L20.4385 21.5769C20.3432 21.6722 20.0739 21.8528 19.9995 21.8528C19.9252 21.8528 19.8165 21.8328 19.7211 21.7374L15.9736 17.99C15.19 17.2064 13.9999 17.2064 13.2163 17.99C12.4327 18.7736 12.3524 19.8834 13.136 20.667L28.0941 35.6251C33.6729 30.5888 37.0339 23.5468 37.4419 16.0444L33.0526 11.6399Z" fill="url(#paint4_linear_907_176)"/>
<path d="M26.9833 36.5786C31.7258 32.7202 35.0478 27.4836 36.5613 21.6873L27.5193 12.6454C25.6322 10.6523 22.9615 9.56934 20.0001 9.56934C14.3578 9.56926 9.80705 14.1201 9.80713 19.7624C9.80713 22.7238 10.8901 25.3944 12.8833 27.2815L23.7506 38.1488C24.0826 38.4808 24.612 38.5079 24.9762 38.2116L26.9833 36.5786Z" fill="url(#paint5_linear_907_176)"/>
<path d="M20 30.1154C25.7181 30.1154 30.3535 25.48 30.3535 19.7619C30.3535 14.0439 25.7181 9.40845 20 9.40845C14.2819 9.40845 9.64648 14.0439 9.64648 19.7619C9.64648 25.48 14.2819 30.1154 20 30.1154Z" fill="url(#paint6_linear_907_176)"/>
<path d="M28.3602 13.6553L20.4385 21.5769C20.3432 21.6722 20.0739 21.8528 19.9995 21.8528C19.9252 21.8528 19.8165 21.8328 19.7211 21.7375L15.9737 17.99C15.19 17.2065 13.9999 17.2065 13.2163 17.99C12.4327 18.7736 12.3524 19.8834 13.136 20.667L22.3227 29.8537C26.9221 28.7992 30.353 24.6814 30.353 19.762C30.353 17.4781 29.6129 15.3674 28.3602 13.6553V13.6553Z" fill="url(#paint7_linear_907_176)"/>
<path d="M19.9996 25.7051C18.8225 25.7051 17.7158 25.2467 16.8835 24.4144L13.136 20.667C12.3524 19.8834 12.3524 18.613 13.136 17.8294C13.9196 17.0459 15.19 17.0459 15.9737 17.8294L19.7211 21.5768C19.8165 21.6722 19.9252 21.6922 19.9996 21.6922C20.0739 21.6922 20.1826 21.6722 20.278 21.5768L30.2149 11.6399C30.9986 10.8564 32.269 10.8564 33.0526 11.6399C33.8362 12.4235 33.8362 13.6939 33.0526 14.4775L23.1157 24.4144C22.2833 25.2467 21.1767 25.7051 19.9996 25.7051V25.7051Z" fill="url(#paint8_linear_907_176)"/>
</g>
<defs>
<linearGradient id="paint0_linear_907_176" x1="5.35012" y1="1.88835" x2="35.5043" y2="32.0425" gradientUnits="userSpaceOnUse">
<stop stop-color="#B5DBFF"/>
<stop offset="1" stop-color="#76E2F8"/>
</linearGradient>
<linearGradient id="paint1_linear_907_176" x1="39.6759" y1="36.6942" x2="12.9958" y2="10.014" gradientUnits="userSpaceOnUse">
<stop stop-color="#B5DBFF" stop-opacity="0"/>
<stop offset="0.2428" stop-color="#93CEF6" stop-opacity="0.243"/>
<stop offset="0.5763" stop-color="#6ABFEC" stop-opacity="0.576"/>
<stop offset="0.8403" stop-color="#51B5E5" stop-opacity="0.84"/>
<stop offset="1" stop-color="#48B2E3"/>
</linearGradient>
<linearGradient id="paint2_linear_907_176" x1="14.8411" y1="12.1506" x2="26.5611" y2="23.8706" gradientUnits="userSpaceOnUse">
<stop stop-color="#EDF5FF"/>
<stop offset="1" stop-color="#D5E8FE"/>
</linearGradient>
<linearGradient id="paint3_linear_907_176" x1="23.634" y1="20.6738" x2="-0.443843" y2="9.11647" gradientUnits="userSpaceOnUse">
<stop stop-color="#B5DBFF" stop-opacity="0"/>
<stop offset="0.1734" stop-color="#8FC5E9" stop-opacity="0.173"/>
<stop offset="0.4541" stop-color="#56A4C8" stop-opacity="0.454"/>
<stop offset="0.6955" stop-color="#2D8DB1" stop-opacity="0.696"/>
<stop offset="0.8853" stop-color="#147EA2" stop-opacity="0.885"/>
<stop offset="1" stop-color="#0B799D"/>
</linearGradient>
<linearGradient id="paint4_linear_907_176" x1="32.8444" y1="25.3476" x2="24.6044" y2="19.0873" gradientUnits="userSpaceOnUse">
<stop stop-color="#B5DBFF" stop-opacity="0"/>
<stop offset="0.1734" stop-color="#8FC5E9" stop-opacity="0.173"/>
<stop offset="0.4541" stop-color="#56A4C8" stop-opacity="0.454"/>
<stop offset="0.6955" stop-color="#2D8DB1" stop-opacity="0.696"/>
<stop offset="0.8853" stop-color="#147EA2" stop-opacity="0.885"/>
<stop offset="1" stop-color="#0B799D"/>
</linearGradient>
<linearGradient id="paint5_linear_907_176" x1="31.4577" y1="31.2199" x2="17.7245" y2="17.4867" gradientUnits="userSpaceOnUse">
<stop stop-color="#B5DBFF" stop-opacity="0"/>
<stop offset="0.1734" stop-color="#8FC5E9" stop-opacity="0.173"/>
<stop offset="0.4541" stop-color="#56A4C8" stop-opacity="0.454"/>
<stop offset="0.6955" stop-color="#2D8DB1" stop-opacity="0.696"/>
<stop offset="0.8853" stop-color="#147EA2" stop-opacity="0.885"/>
<stop offset="1" stop-color="#0B799D"/>
</linearGradient>
<linearGradient id="paint6_linear_907_176" x1="15.1844" y1="14.9464" x2="25.1637" y2="24.9257" gradientUnits="userSpaceOnUse">
<stop stop-color="#B9DD39"/>
<stop offset="1" stop-color="#90CC1C"/>
</linearGradient>
<linearGradient id="paint7_linear_907_176" x1="29.4102" y1="25.8233" x2="25.6994" y2="22.1124" gradientUnits="userSpaceOnUse">
<stop stop-color="#66BB00" stop-opacity="0"/>
<stop offset="1" stop-color="#66BB00"/>
</linearGradient>
<linearGradient id="paint8_linear_907_176" x1="19.0884" y1="12.1474" x2="29.4243" y2="22.4833" gradientUnits="userSpaceOnUse">
<stop stop-color="#0B799D"/>
<stop offset="1" stop-color="#07485E"/>
</linearGradient>
<clipPath id="clip0_907_176">
<rect width="40" height="40" fill="white"/>
</clipPath>
</defs>
</svg>
