<svg width="60" height="60" viewBox="0 0 60 60" fill="none" xmlns="http://www.w3.org/2000/svg">
<g clip-path="url(#clip0_939_466)">
<path d="M39.0013 52.3767V51.145C39.0013 50.8065 39.1578 50.4871 39.4252 50.2797C39.9904 49.8413 39.9904 48.9876 39.4252 48.5491C39.1578 48.3417 39.0013 48.0223 39.0013 47.6838V46.4522C39.0013 46.0215 39.3505 45.6724 39.7811 45.6724C40.2118 45.6724 40.5609 45.3233 40.5609 44.8926V44.0078C40.5609 43.5771 40.2117 43.228 39.7811 43.228C39.3504 43.228 39.0013 42.8788 39.0013 42.4482V40.095C39.0013 39.6643 39.3505 39.3151 39.7811 39.3151C40.2118 39.3151 40.5609 38.966 40.5609 38.5354V34.5605H31.7417V54.6393C31.7417 55.435 32.0333 56.2031 32.5613 56.7984L34.9044 59.4397C35.5676 60.1874 36.7351 60.1874 37.3983 59.4397L39.7413 56.7984C40.2695 56.2031 40.561 55.435 40.561 54.6393V53.9363C40.561 53.5056 40.2118 53.1564 39.7812 53.1564C39.3505 53.1565 39.0013 52.8074 39.0013 52.3767Z" fill="url(#paint0_linear_939_466)"/>
<path d="M37.5583 34.5605V55.3976C37.5583 56.1746 36.9284 56.8044 36.1515 56.8044C35.3745 56.8044 34.7446 56.1746 34.7446 55.3976V34.5605H37.5583Z" fill="url(#paint1_linear_939_466)"/>
<path d="M40.561 44.0078C40.561 43.5771 40.2118 43.228 39.7811 43.228C39.3504 43.228 39.0013 42.8788 39.0013 42.4482V40.095C39.0013 39.6643 39.3505 39.3153 39.7811 39.3153C40.2118 39.3153 40.561 38.9661 40.561 38.5354V34.5605H31.7417V36.6408L40.4285 45.3276C40.5122 45.2034 40.5611 45.0537 40.5611 44.8927V44.0078H40.561Z" fill="url(#paint2_linear_939_466)"/>
<path d="M36.1512 12.1562C29.1236 12.1562 23.4263 17.8534 23.4263 24.8812C23.4263 31.909 29.1234 37.6061 36.1512 37.6061C43.179 37.6061 48.8762 31.909 48.8762 24.8812C48.8762 17.8534 43.179 12.1562 36.1512 12.1562ZM36.1512 23.6558C34.1589 23.6558 32.5432 22.0414 32.5432 20.0478C32.5432 18.0554 34.1589 16.4412 36.1512 16.4412C38.1436 16.4412 39.7592 18.0555 39.7592 20.0478C39.7592 22.0414 38.1436 23.6558 36.1512 23.6558Z" fill="url(#paint3_linear_939_466)"/>
<path d="M36.151 14.3809C30.3515 14.3809 25.6504 19.0819 25.6504 24.8814C25.6504 30.681 30.3515 35.382 36.151 35.382C41.9505 35.382 46.6516 30.681 46.6516 24.8814C46.6516 19.0819 41.9505 14.3809 36.151 14.3809ZM36.151 23.656C34.1586 23.656 32.543 22.0417 32.543 20.048C32.543 18.0557 34.1586 16.4414 36.151 16.4414C38.1433 16.4414 39.759 18.0558 39.759 20.048C39.759 22.0417 38.1433 23.656 36.151 23.656Z" fill="url(#paint4_linear_939_466)"/>
<path d="M36.1512 12.1562C29.1236 12.1562 23.4263 17.8534 23.4263 24.8812C23.4263 31.909 29.1234 37.6061 36.1512 37.6061C43.179 37.6061 48.8762 31.909 48.8762 24.8812C48.8762 17.8534 43.179 12.1562 36.1512 12.1562ZM36.1512 23.6558C34.1589 23.6558 32.5432 22.0414 32.5432 20.0478C32.5432 18.0554 34.1589 16.4412 36.1512 16.4412C38.1436 16.4412 39.7592 18.0555 39.7592 20.0478C39.7592 22.0414 38.1436 23.6558 36.1512 23.6558Z" fill="url(#paint5_linear_939_466)"/>
<path d="M15.3411 44.978L16.2119 44.1072C16.4512 43.8679 16.7877 43.7527 17.1235 43.7951C17.8331 43.8847 18.4368 43.2811 18.3471 42.5714C18.3048 42.2357 18.4199 41.8992 18.6592 41.6599L19.5301 40.7891C19.8346 40.4845 20.3284 40.4845 20.6329 40.7891C20.9375 41.0937 21.4312 41.0937 21.7357 40.7891L22.3612 40.1635C22.6658 39.859 22.6658 39.3652 22.3612 39.0607C22.0566 38.7561 22.0566 38.2624 22.3612 37.9579L24.0252 36.2939C24.3298 35.9893 24.8236 35.9893 25.1281 36.2939C25.4326 36.5985 25.9264 36.5985 26.2309 36.2939L29.0415 33.4833L22.8052 27.2471L8.60782 41.4445C8.04511 42.0072 7.70817 42.7565 7.66064 43.5508L7.44982 47.0753C7.39017 48.0728 8.2157 48.8984 9.21323 48.8387L12.7377 48.6279C13.5321 48.5804 14.2813 48.2434 14.8441 47.6807L15.3411 47.1837C15.6457 46.8791 15.6457 46.3854 15.3411 46.0808C15.0365 45.7762 15.0365 45.2826 15.3411 44.978Z" fill="url(#paint6_linear_939_466)"/>
<path d="M26.9183 31.3596L12.1843 46.0936C11.6349 46.6431 10.7442 46.6431 10.1948 46.0936C9.64536 45.5442 9.64536 44.6535 10.1948 44.1041L24.9288 29.3701L26.9183 31.3596Z" fill="url(#paint7_linear_939_466)"/>
<path d="M41.7658 14.5229C36.7965 9.55357 28.7394 9.55357 23.77 14.5229C18.8006 19.4922 18.8007 27.5492 23.77 32.5186C28.7393 37.488 36.7963 37.4879 41.7658 32.5186C46.7352 27.5493 46.7352 19.4922 41.7658 14.5229ZM33.6345 22.6542C32.2256 21.2453 32.2247 18.9615 33.6345 17.5517C35.0433 16.1429 37.3272 16.1439 38.736 17.5526C40.1448 18.9615 40.1457 21.2453 38.7369 22.6542C37.3272 24.0639 35.0432 24.063 33.6345 22.6542Z" fill="url(#paint8_linear_939_466)"/>
<path d="M40.1929 16.0952C36.092 11.9943 29.4437 11.9943 25.3428 16.0952C21.2419 20.1962 21.2419 26.8444 25.3428 30.9454C29.4437 35.0463 36.092 35.0463 40.1929 30.9454C44.2939 26.8444 44.2939 20.1961 40.1929 16.0952ZM33.6344 22.6537C32.2256 21.2449 32.2247 18.961 33.6344 17.5512C35.0433 16.1424 37.3271 16.1435 38.736 17.5522C40.1448 18.961 40.1457 21.2449 38.7369 22.6537C37.3271 24.0635 35.0432 24.0625 33.6344 22.6537Z" fill="url(#paint9_linear_939_466)"/>
<path d="M38.4355 22.9237L47.0175 31.5057C48.1964 29.576 48.8759 27.3083 48.8759 24.8816C48.8759 23.1919 48.5458 21.5796 47.9478 20.1045C46.8377 21.162 44.0398 23.078 38.4355 22.9237Z" fill="url(#paint10_linear_939_466)"/>
<path d="M40.9542 0C34.674 0 29.5426 5.01941 29.3613 11.2585C31.0491 10.7915 32.8127 10.6784 34.5377 10.9201C34.8773 7.67977 37.625 5.14553 40.9542 5.14553C44.5136 5.14553 47.4079 8.04118 47.4079 11.5993C47.4079 14.0987 45.9787 16.2714 43.8962 17.3429C43.0137 17.7971 42.0129 18.0531 40.9542 18.0531C40.2312 18.0531 39.5365 17.9334 38.887 17.7134H38.8857C38.1242 17.4548 37.427 17.0574 36.8224 16.5531C35.7006 16.3511 34.5018 16.6842 33.6347 17.5513C33.0469 18.1392 32.7047 18.8788 32.6082 19.6429C34.1596 21.2561 36.1753 22.4202 38.4354 22.9232C39.2472 23.1033 40.0898 23.1985 40.9542 23.1985C42.5416 23.1985 44.0556 22.8781 45.4346 22.298C49.6127 20.5421 52.5534 16.4076 52.5534 11.5992C52.5534 5.20341 47.35 0 40.9542 0V0Z" fill="url(#paint11_linear_939_466)"/>
<path d="M49.8794 11.5995C49.8794 6.67221 45.8851 2.67773 40.9577 2.67773C36.2944 2.67773 32.4691 6.25609 32.0723 10.8164C32.8947 10.7717 33.7207 10.8056 34.538 10.9202C34.8777 7.67985 37.6253 5.14562 40.9545 5.14562C44.5139 5.14562 47.4083 8.04126 47.4083 11.5994C47.4083 14.0988 45.9791 16.2715 43.8965 17.343C43.014 17.7971 42.0132 18.0531 40.9545 18.0531C40.2316 18.0531 39.5369 17.9335 38.8873 17.7135H38.886C38.1245 17.4549 37.4273 17.0575 36.8227 16.5531C35.8611 16.38 34.8433 16.6014 34.026 17.2141C35.6618 19.231 38.1587 20.521 40.9578 20.521C45.8851 20.5213 49.8794 16.5269 49.8794 11.5995Z" fill="url(#paint12_linear_939_466)"/>
</g>
<defs>
<linearGradient id="paint0_linear_939_466" x1="32.2898" y1="47.2805" x2="39.3378" y2="47.2805" gradientUnits="userSpaceOnUse">
<stop stop-color="#FFDA2D"/>
<stop offset="1" stop-color="#FDBF00"/>
</linearGradient>
<linearGradient id="paint1_linear_939_466" x1="39.0838" y1="45.6824" x2="34.6232" y2="45.6824" gradientUnits="userSpaceOnUse">
<stop stop-color="#FFDA2D"/>
<stop offset="1" stop-color="#FDBF00"/>
</linearGradient>
<linearGradient id="paint2_linear_939_466" x1="38.7465" y1="42.1291" x2="36.0023" y2="35.2256" gradientUnits="userSpaceOnUse">
<stop stop-color="#FF9100" stop-opacity="0"/>
<stop offset="1" stop-color="#FF9100"/>
</linearGradient>
<linearGradient id="paint3_linear_939_466" x1="30.4297" y1="30.6027" x2="56.1662" y2="4.86625" gradientUnits="userSpaceOnUse">
<stop stop-color="#FFDA2D"/>
<stop offset="1" stop-color="#FDBF00"/>
</linearGradient>
<linearGradient id="paint4_linear_939_466" x1="41.1971" y1="19.8353" x2="16.8426" y2="44.1898" gradientUnits="userSpaceOnUse">
<stop stop-color="#FFDA2D"/>
<stop offset="1" stop-color="#FDBF00"/>
</linearGradient>
<linearGradient id="paint5_linear_939_466" x1="45.7399" y1="34.4699" x2="37.1102" y2="25.8401" gradientUnits="userSpaceOnUse">
<stop stop-color="#FF9100" stop-opacity="0"/>
<stop offset="1" stop-color="#FF9100"/>
</linearGradient>
<linearGradient id="paint6_linear_939_466" x1="14.1826" y1="36.6394" x2="19.1654" y2="41.6223" gradientUnits="userSpaceOnUse">
<stop stop-color="#FFDA2D"/>
<stop offset="1" stop-color="#FDBF00"/>
</linearGradient>
<linearGradient id="paint7_linear_939_466" x1="20.1155" y1="40.3128" x2="16.9618" y2="37.1592" gradientUnits="userSpaceOnUse">
<stop stop-color="#FFDA2D"/>
<stop offset="1" stop-color="#FDBF00"/>
</linearGradient>
<linearGradient id="paint8_linear_939_466" x1="24.6587" y1="23.5334" x2="61.05" y2="23.5334" gradientUnits="userSpaceOnUse">
<stop stop-color="#FFDA2D"/>
<stop offset="1" stop-color="#FDBF00"/>
</linearGradient>
<linearGradient id="paint9_linear_939_466" x1="39.8839" y1="23.5329" x2="5.44687" y2="23.5329" gradientUnits="userSpaceOnUse">
<stop stop-color="#FFDA2D"/>
<stop offset="1" stop-color="#FDBF00"/>
</linearGradient>
<linearGradient id="paint10_linear_939_466" x1="45.1605" y1="27.5106" x2="43.3595" y2="21.9792" gradientUnits="userSpaceOnUse">
<stop stop-color="#FF9100" stop-opacity="0"/>
<stop offset="1" stop-color="#FF9100"/>
</linearGradient>
<linearGradient id="paint11_linear_939_466" x1="29.3613" y1="11.5993" x2="52.5534" y2="11.5993" gradientUnits="userSpaceOnUse">
<stop stop-color="#0B799D"/>
<stop offset="1" stop-color="#07485E"/>
</linearGradient>
<linearGradient id="paint12_linear_939_466" x1="52.462" y1="23.1028" x2="32.4686" y2="3.10938" gradientUnits="userSpaceOnUse">
<stop stop-color="#0B799D"/>
<stop offset="1" stop-color="#07485E"/>
</linearGradient>
<clipPath id="clip0_939_466">
<rect width="60" height="60" fill="white"/>
</clipPath>
</defs>
</svg>
