<svg width="40" height="40" viewBox="0 0 40 40" fill="none" xmlns="http://www.w3.org/2000/svg">
<g clip-path="url(#clip0_907_262)">
<path d="M12.4672 39.1565H4.13511C3.69911 39.1565 3.3457 38.8031 3.3457 38.3671C3.3457 37.9311 3.69919 37.5777 4.13511 37.5777H12.4672C13.1139 37.5777 13.6401 37.0516 13.6401 36.4049V32.6246C13.6401 32.1886 13.9935 31.8352 14.4295 31.8352C14.8655 31.8352 15.2189 32.1886 15.2189 32.6246V36.4049C15.2189 37.9221 13.9845 39.1565 12.4672 39.1565Z" fill="url(#paint0_linear_907_262)"/>
<path d="M3.62216 39.9999C4.53774 39.9999 5.27996 39.2577 5.27996 38.3421C5.27996 37.4265 4.53774 36.6843 3.62216 36.6843C2.70658 36.6843 1.96436 37.4265 1.96436 38.3421C1.96436 39.2577 2.70658 39.9999 3.62216 39.9999Z" fill="url(#paint1_linear_907_262)"/>
<path d="M27.5329 39.1565H35.865C36.301 39.1565 36.6544 38.8031 36.6544 38.3671C36.6544 37.9311 36.3009 37.5777 35.865 37.5777H27.5329C26.8863 37.5777 26.3601 37.0516 26.3601 36.4049V32.6246C26.3601 32.1886 26.0066 31.8352 25.5707 31.8352C25.1347 31.8352 24.7812 32.1886 24.7812 32.6246V36.4049C24.7812 37.9221 26.0157 39.1565 27.5329 39.1565Z" fill="url(#paint2_linear_907_262)"/>
<path d="M36.378 39.9999C37.2936 39.9999 38.0358 39.2577 38.0358 38.3421C38.0358 37.4265 37.2936 36.6843 36.378 36.6843C35.4624 36.6843 34.7202 37.4265 34.7202 38.3421C34.7202 39.2577 35.4624 39.9999 36.378 39.9999Z" fill="url(#paint3_linear_907_262)"/>
<path d="M19.9999 40C19.5639 40 19.2104 39.6466 19.2104 39.2106V32.6246C19.2104 32.1886 19.5639 31.8352 19.9999 31.8352C20.4359 31.8352 20.7893 32.1886 20.7893 32.6246V39.2106C20.7893 39.6466 20.4359 40 19.9999 40Z" fill="url(#paint4_linear_907_262)"/>
<path d="M12.4672 0.843506H4.13511C3.69911 0.843506 3.3457 1.19692 3.3457 1.63292C3.3457 2.06892 3.69919 2.42233 4.13511 2.42233H12.4672C13.1139 2.42233 13.6401 2.94845 13.6401 3.59519V7.37543C13.6401 7.81143 13.9935 8.16484 14.4295 8.16484C14.8655 8.16484 15.2189 7.81143 15.2189 7.37543V3.59527C15.2189 2.07794 13.9845 0.843506 12.4672 0.843506V0.843506Z" fill="url(#paint5_linear_907_262)"/>
<path d="M3.62216 3.31561C4.53774 3.31561 5.27996 2.57338 5.27996 1.6578C5.27996 0.742224 4.53774 0 3.62216 0C2.70658 0 1.96436 0.742224 1.96436 1.6578C1.96436 2.57338 2.70658 3.31561 3.62216 3.31561Z" fill="url(#paint6_linear_907_262)"/>
<path d="M27.5329 0.843506H35.865C36.301 0.843506 36.6544 1.19692 36.6544 1.63292C36.6544 2.06892 36.3009 2.42233 35.865 2.42233H27.5329C26.8863 2.42233 26.3601 2.94845 26.3601 3.59519V7.37543C26.3601 7.81143 26.0066 8.16484 25.5707 8.16484C25.1347 8.16484 24.7812 7.81143 24.7812 7.37543V3.59527C24.7812 2.07794 26.0157 0.843506 27.5329 0.843506V0.843506Z" fill="url(#paint7_linear_907_262)"/>
<path d="M36.378 3.31561C37.2936 3.31561 38.0358 2.57338 38.0358 1.6578C38.0358 0.742224 37.2936 0 36.378 0C35.4624 0 34.7202 0.742224 34.7202 1.6578C34.7202 2.57338 35.4624 3.31561 36.378 3.31561Z" fill="url(#paint8_linear_907_262)"/>
<path d="M19.9999 0C19.5639 0 19.2104 0.353412 19.2104 0.789412V7.37537C19.2104 7.81137 19.5639 8.16479 19.9999 8.16479C20.4359 8.16479 20.7893 7.81137 20.7893 7.37537V0.789412C20.7893 0.353412 20.4359 0 19.9999 0V0Z" fill="url(#paint9_linear_907_262)"/>
<path d="M0.90918 12.4673V8.67784C0.90918 8.24184 1.26259 7.88843 1.69859 7.88843C2.13459 7.88843 2.488 8.24192 2.488 8.67784V12.4673C2.488 13.1139 3.01412 13.6401 3.66087 13.6401H7.4411C7.8771 13.6401 8.23051 13.9936 8.23051 14.4295C8.23051 14.8654 7.8771 15.2189 7.4411 15.2189H3.66087C2.14361 15.2189 0.90918 13.9845 0.90918 12.4673V12.4673Z" fill="url(#paint10_linear_907_262)"/>
<path d="M1.72323 9.82269C2.63881 9.82269 3.38104 9.08046 3.38104 8.16488C3.38104 7.2493 2.63881 6.50708 1.72323 6.50708C0.807654 6.50708 0.0654297 7.2493 0.0654297 8.16488C0.0654297 9.08046 0.807654 9.82269 1.72323 9.82269Z" fill="url(#paint11_linear_907_262)"/>
<path d="M0.90918 27.5329V31.3223C0.90918 31.7583 1.26259 32.1118 1.69859 32.1118C2.13459 32.1118 2.488 31.7583 2.488 31.3223V27.5329C2.488 26.8863 3.01412 26.3601 3.66087 26.3601H7.4411C7.8771 26.3601 8.23051 26.0066 8.23051 25.5707C8.23051 25.1347 7.8771 24.7812 7.4411 24.7812H3.66087C2.14361 24.7812 0.90918 26.0157 0.90918 27.5329V27.5329Z" fill="url(#paint12_linear_907_262)"/>
<path d="M1.72323 33.4931C2.63881 33.4931 3.38104 32.7509 3.38104 31.8353C3.38104 30.9197 2.63881 30.1775 1.72323 30.1775C0.807654 30.1775 0.0654297 30.9197 0.0654297 31.8353C0.0654297 32.7509 0.807654 33.4931 1.72323 33.4931Z" fill="url(#paint13_linear_907_262)"/>
<path d="M0.0654297 20.0001C0.0654297 19.5641 0.418841 19.2107 0.854842 19.2107H7.4408C7.8768 19.2107 8.23021 19.5641 8.23021 20.0001C8.23021 20.4361 7.8768 20.7895 7.4408 20.7895H0.85492C0.41892 20.7895 0.0654297 20.4361 0.0654297 20.0001V20.0001Z" fill="url(#paint14_linear_907_262)"/>
<path d="M39.0909 12.4673V8.67784C39.0909 8.24184 38.7375 7.88843 38.3015 7.88843C37.8655 7.88843 37.512 8.24192 37.512 8.67784V12.4673C37.512 13.1139 36.9859 13.6401 36.3392 13.6401H32.5589C32.1229 13.6401 31.7695 13.9936 31.7695 14.4295C31.7695 14.8654 32.1229 15.2189 32.5589 15.2189H36.3392C37.8564 15.2189 39.0909 13.9845 39.0909 12.4673Z" fill="url(#paint15_linear_907_262)"/>
<path d="M38.2765 9.82269C39.192 9.82269 39.9343 9.08046 39.9343 8.16488C39.9343 7.2493 39.192 6.50708 38.2765 6.50708C37.3609 6.50708 36.6187 7.2493 36.6187 8.16488C36.6187 9.08046 37.3609 9.82269 38.2765 9.82269Z" fill="url(#paint16_linear_907_262)"/>
<path d="M39.0909 27.5329V31.3223C39.0909 31.7583 38.7375 32.1118 38.3015 32.1118C37.8655 32.1118 37.512 31.7583 37.512 31.3223V27.5329C37.512 26.8863 36.9859 26.3601 36.3392 26.3601H32.5589C32.1229 26.3601 31.7695 26.0066 31.7695 25.5707C31.7695 25.1347 32.1229 24.7812 32.5589 24.7812H36.3392C37.8564 24.7812 39.0909 26.0157 39.0909 27.5329Z" fill="url(#paint17_linear_907_262)"/>
<path d="M38.2765 33.4931C39.192 33.4931 39.9343 32.7509 39.9343 31.8353C39.9343 30.9197 39.192 30.1775 38.2765 30.1775C37.3609 30.1775 36.6187 30.9197 36.6187 31.8353C36.6187 32.7509 37.3609 33.4931 38.2765 33.4931Z" fill="url(#paint18_linear_907_262)"/>
<path d="M39.9343 20.0001C39.9343 19.5641 39.5809 19.2107 39.1449 19.2107H32.5589C32.1229 19.2107 31.7695 19.5641 31.7695 20.0001C31.7695 20.4361 32.1229 20.7895 32.5589 20.7895H39.1449C39.5808 20.7895 39.9343 20.4361 39.9343 20.0001Z" fill="url(#paint19_linear_907_262)"/>
<path d="M20.624 33.1433L21.0248 33.0243C22.045 32.7212 23.036 31.9496 23.8908 30.7927C24.7087 29.6856 25.4079 28.2205 25.9126 26.5559L26.0617 26.064L25.5566 26.1588C24.0886 26.4342 22.5309 26.5969 20.9272 26.6424L20.6241 26.6509V33.1433H20.624Z" fill="url(#paint20_linear_907_262)"/>
<path d="M32.8223 23.176L32.0598 23.7084C31.4713 24.1193 30.7809 24.4991 30.0078 24.837C29.2788 25.1556 28.4728 25.4398 27.6121 25.6816L27.4374 25.7306L27.3936 25.9066C27.0112 27.4456 26.4844 28.8414 25.8278 30.055C25.5173 30.629 25.1769 31.1609 24.8159 31.6359L24.0996 32.5789L25.1875 32.1112C28.6838 30.608 31.362 27.6738 32.5351 24.0605L32.8223 23.176Z" fill="url(#paint21_linear_907_262)"/>
<path d="M27.3941 14.0935L27.4378 14.2695L27.6125 14.3185C28.4732 14.5602 29.2792 14.8444 30.0083 15.1631C30.7814 15.501 31.4717 15.8808 32.0603 16.2917L32.8227 16.824L32.5355 15.9396C31.3624 12.3263 28.6843 9.39205 25.188 7.88883L24.1001 7.42114L24.8164 8.36412C25.1774 8.83918 25.5177 9.3711 25.8283 9.94506C26.4848 11.1588 27.0116 12.5544 27.3941 14.0935V14.0935Z" fill="url(#paint22_linear_907_262)"/>
<path d="M28.212 15.8094L27.7266 15.6453L27.8037 16.1518C27.9935 17.3991 28.0898 18.6937 28.0898 20C28.0898 21.3063 27.9935 22.601 27.8037 23.8482L27.7266 24.3548L28.212 24.1906C31.3204 23.1395 33.1762 21.5729 33.1762 20C33.1762 18.4271 31.3204 16.8606 28.212 15.8094Z" fill="url(#paint23_linear_907_262)"/>
<path d="M21.0248 6.97575L20.624 6.85669V13.349L20.9271 13.3576C22.5309 13.4031 24.0885 13.5659 25.5565 13.8412L26.0616 13.9361L25.9125 13.4441C25.4078 11.7795 24.7087 10.3144 23.8907 9.20736C23.036 8.05042 22.045 7.27873 21.0248 6.97575V6.97575Z" fill="url(#paint24_linear_907_262)"/>
<path d="M20.624 25.4036L20.9452 25.3941C22.7939 25.3393 24.5548 25.1252 26.179 24.758L26.3776 24.7132L26.4164 24.5132C26.699 23.0575 26.8423 21.5391 26.8423 20.0001C26.8423 18.4612 26.699 16.9428 26.4164 15.487L26.3776 15.2871L26.179 15.2422C24.5548 14.875 22.7939 14.661 20.9452 14.6062L20.624 14.5967V25.4036Z" fill="url(#paint25_linear_907_262)"/>
<path d="M11.788 24.1906L12.2734 24.3548L12.1963 23.8482C12.0065 22.601 11.9102 21.3062 11.9102 20C11.9102 18.6938 12.0064 17.3991 12.1963 16.1518L12.2734 15.6453L11.788 15.8094C8.6795 16.8606 6.82373 18.4271 6.82373 20C6.82373 21.5729 8.6795 23.1395 11.788 24.1906Z" fill="url(#paint26_linear_907_262)"/>
<path d="M19.3761 6.85669L18.9753 6.97575C17.9551 7.27881 16.9641 8.05042 16.1094 9.20736C15.2914 10.3144 14.5923 11.7795 14.0876 13.4441L13.9385 13.9361L14.4436 13.8412C15.9116 13.5659 17.4692 13.4031 19.073 13.3576L19.376 13.349V6.85669H19.3761Z" fill="url(#paint27_linear_907_262)"/>
<path d="M18.9753 33.0244L19.376 33.1435V26.6512L19.073 26.6426C17.4691 26.5972 15.9116 26.4344 14.4436 26.159L13.9385 26.0642L14.0876 26.5561C14.5923 28.2208 15.2914 29.6859 16.1094 30.7929C16.964 31.9498 17.955 32.7215 18.9753 33.0244Z" fill="url(#paint28_linear_907_262)"/>
<path d="M19.376 14.5967L19.0548 14.6062C17.2061 14.661 15.4452 14.875 13.821 15.2422L13.6224 15.2871L13.5836 15.487C13.301 16.9427 13.1577 18.4612 13.1577 20.0001C13.1577 21.5391 13.301 23.0575 13.5836 24.5132L13.6224 24.7132L13.821 24.758C15.4452 25.1252 17.2061 25.3393 19.0548 25.3941L19.376 25.4036V14.5967Z" fill="url(#paint29_linear_907_262)"/>
<path d="M14.8125 32.1112L15.9004 32.5789L15.1841 31.6359C14.8232 31.1609 14.4828 30.629 14.1722 30.055C13.5156 28.8414 12.9888 27.4456 12.6064 25.9066L12.5626 25.7306L12.3879 25.6816C11.5272 25.4399 10.7212 25.1556 9.99217 24.837C9.21907 24.4991 8.52879 24.1193 7.94017 23.7084L7.17773 23.176L7.46487 24.0605C8.63805 27.6737 11.3162 30.608 14.8125 32.1112V32.1112Z" fill="url(#paint30_linear_907_262)"/>
<path d="M9.99209 15.1631C10.7211 14.8444 11.5271 14.5603 12.3879 14.3185L12.5625 14.2695L12.6063 14.0935C12.9887 12.5544 13.5155 11.1587 14.1721 9.94506C14.4827 9.3711 14.8231 8.83918 15.184 8.36412L15.9003 7.42114L14.8124 7.88883C11.3161 9.39205 8.63797 12.3263 7.46487 15.9396L7.17773 16.824L7.94017 16.2917C8.52864 15.8808 9.21899 15.501 9.99209 15.1631V15.1631Z" fill="url(#paint31_linear_907_262)"/>
<path d="M30.42 9.58016C27.6367 6.79695 23.9362 5.26416 20.0001 5.26416C16.0639 5.26416 12.3635 6.79695 9.58016 9.58024C6.79687 12.3635 5.26416 16.0639 5.26416 20.0001C5.26416 23.9362 6.79695 27.6367 9.58024 30.42C12.3635 33.2033 16.064 34.7361 20.0002 34.7361C23.9363 34.7361 27.6368 33.2033 30.4201 30.42C33.2034 27.6367 34.7362 23.9362 34.7362 20.0001C34.7362 16.0639 33.2032 12.3635 30.42 9.58016V9.58016ZM13.4699 20.0001C13.4699 18.4437 13.6192 16.9416 13.89 15.5465C15.4199 15.2006 17.1617 14.9744 19.0643 14.918V25.0823C17.1617 25.0259 15.4199 24.7996 13.89 24.4537C13.6192 23.0586 13.4699 21.5565 13.4699 20.0001ZM11.8879 23.8952C8.91428 22.8897 7.13569 21.3986 7.13569 20.0001C7.13569 18.6016 8.91428 17.1105 11.8879 16.1049C11.6971 17.3587 11.5983 18.6664 11.5983 20.0001C11.5983 21.3338 11.6971 22.6414 11.8879 23.8952ZM25.614 13.5347C24.1398 13.2581 22.5629 13.092 20.9358 13.0459V7.27475C22.9044 7.85953 24.6185 10.2511 25.614 13.5347ZM19.0643 7.27475V13.0458C17.4373 13.0919 15.8603 13.2581 14.3862 13.5346C15.3817 10.2511 17.0958 7.85953 19.0643 7.27475V7.27475ZM19.0643 26.9544V32.7254C17.0958 32.1406 15.3817 29.749 14.3862 26.4656C15.8603 26.742 17.4373 26.9082 19.0643 26.9544V26.9544ZM20.9358 32.7254V26.9544C22.5629 26.9082 24.1398 26.742 25.614 26.4656C24.6185 29.749 22.9044 32.1406 20.9358 32.7254V32.7254ZM20.9358 25.0822V14.918C22.8384 14.9744 24.5802 15.2006 26.1101 15.5465C26.3809 16.9416 26.5303 18.4438 26.5303 20.0001C26.5303 21.5564 26.3809 23.0586 26.1101 24.4536C24.5802 24.7996 22.8384 25.0259 20.9358 25.0822V25.0822ZM28.1122 16.1049C31.0859 17.1105 32.8645 18.6016 32.8645 20.0001C32.8645 21.3986 31.0859 22.8897 28.1122 23.8952C28.3031 22.6414 28.4019 21.3338 28.4019 20.0001C28.4019 18.6664 28.3031 17.3587 28.1122 16.1049ZM32.2386 16.0359C31.6376 15.6162 30.9344 15.2276 30.133 14.8773C29.3829 14.5495 28.566 14.2624 27.6966 14.0183C27.3121 12.4707 26.7763 11.0424 26.1024 9.79671C25.7798 9.20047 25.4326 8.65985 25.0646 8.17545C28.4507 9.63122 31.0906 12.5002 32.2386 16.0359V16.0359ZM14.9356 8.17538C14.5677 8.65977 14.2203 9.2004 13.8978 9.79663C13.2239 11.0422 12.6882 12.4706 12.3036 14.0182C11.4343 14.2624 10.6173 14.5494 9.86722 14.8773C9.06589 15.2275 8.36267 15.6162 7.76165 16.0358C8.90957 12.5002 11.5495 9.63122 14.9356 8.17538V8.17538ZM7.76157 23.9642C8.36259 24.384 9.06581 24.7726 9.86714 25.1228C10.6173 25.4507 11.4342 25.7377 12.3035 25.9819C12.6881 27.5295 13.2238 28.9578 13.8977 30.2035C14.2203 30.7997 14.5676 31.3403 14.9355 31.8247C11.5495 30.3689 8.90957 27.4999 7.76157 23.9642V23.9642ZM25.0646 31.8248C25.4325 31.3404 25.7798 30.7998 26.1024 30.2035C26.7762 28.958 27.312 27.5296 27.6966 25.982C28.5659 25.7378 29.3828 25.4507 30.1329 25.1229C30.9343 24.7726 31.6375 24.384 32.2385 23.9643C31.0906 27.4999 28.4507 30.3689 25.0646 31.8248V31.8248Z" fill="url(#paint32_linear_907_262)"/>
<path d="M30.4199 30.42C33.2032 27.6368 34.736 23.9362 34.736 20.0001C34.736 16.0639 33.2032 12.3635 30.4199 9.58016C27.6366 6.79687 23.9362 5.26416 20 5.26416V34.7361C23.9362 34.736 27.6366 33.2032 30.4199 30.42V30.42Z" fill="url(#paint33_linear_907_262)"/>
<path d="M30.4869 30.3515L15.7371 15.6018C15.5781 15.3126 15.2708 15.2942 14.8971 15.2995L9.23485 15.4435C8.49383 15.4542 8.30395 16.0267 8.70677 16.6489L9.32693 17.6067C7.69579 18.9104 6.18113 20.6677 5.50293 22.6599C6.03297 25.5834 7.43446 28.2744 9.58003 30.4201C12.3632 33.2034 16.0638 34.7362 19.9999 34.7362C23.9361 34.7362 27.6366 33.2034 30.4199 30.4201C30.4425 30.3974 30.4644 30.3743 30.4869 30.3515Z" fill="url(#paint34_linear_907_262)"/>
<path d="M9.26807 30.0881C9.02933 29.3448 8.67199 26.5767 8.69897 25.7492C8.76423 23.7477 9.68031 21.9555 11.0924 20.7188L11.7278 21.7001C12.1306 22.3222 13.0606 22.2577 13.3736 21.5859L15.7654 16.4529C16.0591 15.8226 15.5926 15.1021 14.8973 15.1122L9.23505 15.1937C8.49403 15.2044 8.0545 16.0266 8.45725 16.6487L9.07741 17.6066C6.6589 19.5397 5.04329 22.4689 4.95607 25.6847C4.94682 26.0243 5.00305 26.5495 5.09019 27.1359C5.38674 29.132 7.28791 30.4781 9.26807 30.0881V30.0881Z" fill="url(#paint35_linear_907_262)"/>
<path d="M30.7394 9.91064C30.737 9.91112 30.7346 9.91151 30.7321 9.91198C30.9709 10.6553 31.3282 13.4234 31.3012 14.2509C31.239 16.1579 30.4041 17.8746 29.1041 19.1021L28.233 18.2434C27.8119 17.6825 26.9298 17.7634 26.6266 18.4142L24.2349 23.5471C24.0347 23.9766 24.1877 24.4477 24.5254 24.7014L30.3309 30.5069C30.3604 30.4778 30.3906 30.4493 30.4199 30.42C33.2032 27.6368 34.736 23.9362 34.736 20.0001C34.7359 16.2175 33.3197 12.6531 30.7394 9.91064V9.91064Z" fill="url(#paint36_linear_907_262)"/>
<path d="M30.7322 9.91207C30.971 10.6554 31.3283 13.4234 31.3013 14.251C31.2361 16.2525 30.32 18.0447 28.9079 19.2814L28.2725 18.3001C27.8697 17.678 26.9397 17.7425 26.6267 18.4143L24.2349 23.5472C23.9412 24.1776 24.4077 24.898 25.103 24.888L30.7653 24.8064C31.5063 24.7958 31.9458 23.9736 31.5431 23.3514L30.9229 22.3936C33.3415 20.4605 34.957 17.5313 35.0443 14.3155C35.0535 13.9759 34.9973 13.4507 34.9102 12.8644C34.6136 10.8682 32.7124 9.52203 30.7322 9.91207V9.91207Z" fill="url(#paint37_linear_907_262)"/>
</g>
<defs>
<linearGradient id="paint0_linear_907_262" x1="9.56288" y1="35.7764" x2="14.7892" y2="41.0027" gradientUnits="userSpaceOnUse">
<stop stop-color="#EDF5FF"/>
<stop offset="1" stop-color="#B5DBFF"/>
</linearGradient>
<linearGradient id="paint1_linear_907_262" x1="3.0893" y1="37.8093" x2="4.56859" y2="39.2885" gradientUnits="userSpaceOnUse">
<stop stop-color="#B9DD39"/>
<stop offset="1" stop-color="#90CC1C"/>
</linearGradient>
<linearGradient id="paint2_linear_907_262" x1="25.0572" y1="32.1307" x2="31.9489" y2="39.0224" gradientUnits="userSpaceOnUse">
<stop stop-color="#EDF5FF"/>
<stop offset="1" stop-color="#B5DBFF"/>
</linearGradient>
<linearGradient id="paint3_linear_907_262" x1="35.8452" y1="37.8093" x2="37.3245" y2="39.2885" gradientUnits="userSpaceOnUse">
<stop stop-color="#B9DD39"/>
<stop offset="1" stop-color="#90CC1C"/>
</linearGradient>
<linearGradient id="paint4_linear_907_262" x1="19.2104" y1="35.9176" x2="20.7893" y2="35.9176" gradientUnits="userSpaceOnUse">
<stop stop-color="#EDF5FF"/>
<stop offset="1" stop-color="#B5DBFF"/>
</linearGradient>
<linearGradient id="paint5_linear_907_262" x1="9.56288" y1="4.22366" x2="14.7892" y2="-1.00261" gradientUnits="userSpaceOnUse">
<stop stop-color="#EDF5FF"/>
<stop offset="1" stop-color="#B5DBFF"/>
</linearGradient>
<linearGradient id="paint6_linear_907_262" x1="3.0893" y1="1.12494" x2="4.56859" y2="2.60424" gradientUnits="userSpaceOnUse">
<stop stop-color="#B9DD39"/>
<stop offset="1" stop-color="#90CC1C"/>
</linearGradient>
<linearGradient id="paint7_linear_907_262" x1="25.0572" y1="7.86931" x2="31.9489" y2="0.977622" gradientUnits="userSpaceOnUse">
<stop stop-color="#EDF5FF"/>
<stop offset="1" stop-color="#B5DBFF"/>
</linearGradient>
<linearGradient id="paint8_linear_907_262" x1="35.8452" y1="1.12494" x2="37.3245" y2="2.60424" gradientUnits="userSpaceOnUse">
<stop stop-color="#B9DD39"/>
<stop offset="1" stop-color="#90CC1C"/>
</linearGradient>
<linearGradient id="paint9_linear_907_262" x1="19.2104" y1="4.08243" x2="20.7893" y2="4.08243" gradientUnits="userSpaceOnUse">
<stop stop-color="#EDF5FF"/>
<stop offset="1" stop-color="#B5DBFF"/>
</linearGradient>
<linearGradient id="paint10_linear_907_262" x1="3.94298" y1="12.1806" x2="0.80369" y2="15.3199" gradientUnits="userSpaceOnUse">
<stop stop-color="#EDF5FF"/>
<stop offset="1" stop-color="#B5DBFF"/>
</linearGradient>
<linearGradient id="paint11_linear_907_262" x1="2.25617" y1="7.63202" x2="0.776881" y2="9.11132" gradientUnits="userSpaceOnUse">
<stop stop-color="#B9DD39"/>
<stop offset="1" stop-color="#90CC1C"/>
</linearGradient>
<linearGradient id="paint12_linear_907_262" x1="3.94298" y1="27.8196" x2="0.803689" y2="24.6803" gradientUnits="userSpaceOnUse">
<stop stop-color="#EDF5FF"/>
<stop offset="1" stop-color="#B5DBFF"/>
</linearGradient>
<linearGradient id="paint13_linear_907_262" x1="2.25618" y1="32.3682" x2="0.77688" y2="30.8889" gradientUnits="userSpaceOnUse">
<stop stop-color="#B9DD39"/>
<stop offset="1" stop-color="#90CC1C"/>
</linearGradient>
<linearGradient id="paint14_linear_907_262" x1="4.14786" y1="19.2107" x2="4.14786" y2="20.7895" gradientUnits="userSpaceOnUse">
<stop stop-color="#EDF5FF"/>
<stop offset="1" stop-color="#B5DBFF"/>
</linearGradient>
<linearGradient id="paint15_linear_907_262" x1="36.0571" y1="12.1806" x2="39.1964" y2="15.3199" gradientUnits="userSpaceOnUse">
<stop stop-color="#EDF5FF"/>
<stop offset="1" stop-color="#B5DBFF"/>
</linearGradient>
<linearGradient id="paint16_linear_907_262" x1="37.7436" y1="7.63202" x2="39.2229" y2="9.11132" gradientUnits="userSpaceOnUse">
<stop stop-color="#B9DD39"/>
<stop offset="1" stop-color="#90CC1C"/>
</linearGradient>
<linearGradient id="paint17_linear_907_262" x1="36.0571" y1="27.8196" x2="39.1964" y2="24.6803" gradientUnits="userSpaceOnUse">
<stop stop-color="#EDF5FF"/>
<stop offset="1" stop-color="#B5DBFF"/>
</linearGradient>
<linearGradient id="paint18_linear_907_262" x1="37.7436" y1="32.3682" x2="39.2229" y2="30.8889" gradientUnits="userSpaceOnUse">
<stop stop-color="#B9DD39"/>
<stop offset="1" stop-color="#90CC1C"/>
</linearGradient>
<linearGradient id="paint19_linear_907_262" x1="35.8519" y1="19.2107" x2="35.8519" y2="20.7895" gradientUnits="userSpaceOnUse">
<stop stop-color="#EDF5FF"/>
<stop offset="1" stop-color="#B5DBFF"/>
</linearGradient>
<linearGradient id="paint20_linear_907_262" x1="7.44936" y1="13.7102" x2="30.2348" y2="36.4956" gradientUnits="userSpaceOnUse">
<stop stop-color="#B5DBFF"/>
<stop offset="1" stop-color="#76E2F8"/>
</linearGradient>
<linearGradient id="paint21_linear_907_262" x1="11.9944" y1="11.4108" x2="28.9136" y2="28.3301" gradientUnits="userSpaceOnUse">
<stop stop-color="#EDF5FF"/>
<stop offset="1" stop-color="#D5E8FE"/>
</linearGradient>
<linearGradient id="paint22_linear_907_262" x1="19.6523" y1="3.75338" x2="36.5716" y2="20.6727" gradientUnits="userSpaceOnUse">
<stop stop-color="#EDF5FF"/>
<stop offset="1" stop-color="#D5E8FE"/>
</linearGradient>
<linearGradient id="paint23_linear_907_262" x1="14.9676" y1="6.19169" x2="37.753" y2="28.9771" gradientUnits="userSpaceOnUse">
<stop stop-color="#B5DBFF"/>
<stop offset="1" stop-color="#76E2F8"/>
</linearGradient>
<linearGradient id="paint24_linear_907_262" x1="16.1024" y1="5.05724" x2="38.8878" y2="27.8426" gradientUnits="userSpaceOnUse">
<stop stop-color="#B5DBFF"/>
<stop offset="1" stop-color="#76E2F8"/>
</linearGradient>
<linearGradient id="paint25_linear_907_262" x1="13.2805" y1="10.1251" x2="30.1998" y2="27.0444" gradientUnits="userSpaceOnUse">
<stop stop-color="#EDF5FF"/>
<stop offset="1" stop-color="#D5E8FE"/>
</linearGradient>
<linearGradient id="paint26_linear_907_262" x1="7.31471" y1="16.0906" x2="24.234" y2="33.0099" gradientUnits="userSpaceOnUse">
<stop stop-color="#EDF5FF"/>
<stop offset="1" stop-color="#D5E8FE"/>
</linearGradient>
<linearGradient id="paint27_linear_907_262" x1="14.8331" y1="8.57214" x2="31.7524" y2="25.4914" gradientUnits="userSpaceOnUse">
<stop stop-color="#EDF5FF"/>
<stop offset="1" stop-color="#D5E8FE"/>
</linearGradient>
<linearGradient id="paint28_linear_907_262" x1="6.17997" y1="17.2253" x2="23.0993" y2="34.1446" gradientUnits="userSpaceOnUse">
<stop stop-color="#EDF5FF"/>
<stop offset="1" stop-color="#D5E8FE"/>
</linearGradient>
<linearGradient id="paint29_linear_907_262" x1="9.00179" y1="12.1575" x2="31.7872" y2="34.943" gradientUnits="userSpaceOnUse">
<stop stop-color="#B5DBFF"/>
<stop offset="1" stop-color="#76E2F8"/>
</linearGradient>
<linearGradient id="paint30_linear_907_262" x1="2.63052" y1="18.529" x2="25.4159" y2="41.3144" gradientUnits="userSpaceOnUse">
<stop stop-color="#B5DBFF"/>
<stop offset="1" stop-color="#76E2F8"/>
</linearGradient>
<linearGradient id="paint31_linear_907_262" x1="10.288" y1="10.8716" x2="33.0734" y2="33.657" gradientUnits="userSpaceOnUse">
<stop stop-color="#B5DBFF"/>
<stop offset="1" stop-color="#76E2F8"/>
</linearGradient>
<linearGradient id="paint32_linear_907_262" x1="13.2792" y1="7.94636" x2="24.7583" y2="28.5338" gradientUnits="userSpaceOnUse">
<stop stop-color="#B5DBFF"/>
<stop offset="1" stop-color="#48B2E3"/>
</linearGradient>
<linearGradient id="paint33_linear_907_262" x1="26.283" y1="21.8713" x2="5.13404" y2="13.8235" gradientUnits="userSpaceOnUse">
<stop stop-color="#B5DBFF" stop-opacity="0"/>
<stop offset="0.1734" stop-color="#8FC5E9" stop-opacity="0.173"/>
<stop offset="0.4541" stop-color="#56A4C8" stop-opacity="0.454"/>
<stop offset="0.6955" stop-color="#2D8DB1" stop-opacity="0.696"/>
<stop offset="0.8853" stop-color="#147EA2" stop-opacity="0.885"/>
<stop offset="1" stop-color="#0B799D"/>
</linearGradient>
<linearGradient id="paint34_linear_907_262" x1="20.2709" y1="28.9122" x2="6.79548" y2="18.5561" gradientUnits="userSpaceOnUse">
<stop stop-color="#B5DBFF" stop-opacity="0"/>
<stop offset="0.1734" stop-color="#8FC5E9" stop-opacity="0.173"/>
<stop offset="0.4541" stop-color="#56A4C8" stop-opacity="0.454"/>
<stop offset="0.6955" stop-color="#2D8DB1" stop-opacity="0.696"/>
<stop offset="0.8853" stop-color="#147EA2" stop-opacity="0.885"/>
<stop offset="1" stop-color="#0B799D"/>
</linearGradient>
<linearGradient id="paint35_linear_907_262" x1="7.05576" y1="18.8791" x2="12.3586" y2="23.6205" gradientUnits="userSpaceOnUse">
<stop stop-color="#0B799D"/>
<stop offset="1" stop-color="#07485E"/>
</linearGradient>
<linearGradient id="paint36_linear_907_262" x1="35.4952" y1="25.1754" x2="29.4223" y2="19.1026" gradientUnits="userSpaceOnUse">
<stop stop-color="#B5DBFF" stop-opacity="0"/>
<stop offset="0.1734" stop-color="#8FC5E9" stop-opacity="0.173"/>
<stop offset="0.4541" stop-color="#56A4C8" stop-opacity="0.454"/>
<stop offset="0.6955" stop-color="#2D8DB1" stop-opacity="0.696"/>
<stop offset="0.8853" stop-color="#147EA2" stop-opacity="0.885"/>
<stop offset="1" stop-color="#0B799D"/>
</linearGradient>
<linearGradient id="paint37_linear_907_262" x1="28.2495" y1="16.9318" x2="32.5542" y2="20.7374" gradientUnits="userSpaceOnUse">
<stop stop-color="#0B799D"/>
<stop offset="1" stop-color="#07485E"/>
</linearGradient>
<clipPath id="clip0_907_262">
<rect width="40" height="40" fill="white"/>
</clipPath>
</defs>
</svg>
