<svg width="50" height="51" viewBox="0 0 50 51" fill="none" xmlns="http://www.w3.org/2000/svg">
<g clip-path="url(#clip0_919_102)">
<path d="M15.584 49.9437H5.16889C4.62389 49.9437 4.18213 49.5019 4.18213 48.9569C4.18213 48.4119 4.62399 47.9701 5.16889 47.9701H15.584C16.3923 47.9701 17.0501 47.3125 17.0501 46.5041V41.7788C17.0501 41.2338 17.4919 40.792 18.0368 40.792C18.5818 40.792 19.0236 41.2338 19.0236 41.7788V46.5041C19.0236 48.4006 17.4806 49.9437 15.584 49.9437Z" fill="url(#paint0_linear_919_102)"/>
<path d="M4.52782 50.998C5.6723 50.998 6.60008 50.0702 6.60008 48.9258C6.60008 47.7813 5.6723 46.8535 4.52782 46.8535C3.38335 46.8535 2.45557 47.7813 2.45557 48.9258C2.45557 50.0702 3.38335 50.998 4.52782 50.998Z" fill="url(#paint1_linear_919_102)"/>
<path d="M34.4162 49.9437H44.8313C45.3763 49.9437 45.818 49.5019 45.818 48.9569C45.818 48.4119 45.3762 47.9701 44.8313 47.9701H34.4162C33.6078 47.9701 32.9501 47.3125 32.9501 46.5041V41.7788C32.9501 41.2338 32.5082 40.792 31.9633 40.792C31.4184 40.792 30.9766 41.2338 30.9766 41.7788V46.5041C30.9766 48.4006 32.5196 49.9437 34.4162 49.9437Z" fill="url(#paint2_linear_919_102)"/>
<path d="M45.4722 50.998C46.6166 50.998 47.5444 50.0702 47.5444 48.9258C47.5444 47.7813 46.6166 46.8535 45.4722 46.8535C44.3277 46.8535 43.3999 47.7813 43.3999 48.9258C43.3999 50.0702 44.3277 50.998 45.4722 50.998Z" fill="url(#paint3_linear_919_102)"/>
<path d="M24.9999 50.998C24.4549 50.998 24.0132 50.5562 24.0132 50.0112V41.7788C24.0132 41.2338 24.4549 40.792 24.9999 40.792C25.5449 40.792 25.9867 41.2338 25.9867 41.7788V50.0112C25.9867 50.5562 25.5449 50.998 24.9999 50.998Z" fill="url(#paint4_linear_919_102)"/>
<path d="M15.584 2.05225H5.16889C4.62389 2.05225 4.18213 2.49401 4.18213 3.03901C4.18213 3.58401 4.62399 4.02578 5.16889 4.02578H15.584C16.3923 4.02578 17.0501 4.68342 17.0501 5.49185V10.2171C17.0501 10.7621 17.4919 11.2039 18.0368 11.2039C18.5818 11.2039 19.0236 10.7621 19.0236 10.2171V5.49195C19.0236 3.59529 17.4806 2.05225 15.584 2.05225Z" fill="url(#paint5_linear_919_102)"/>
<path d="M4.52782 5.14256C5.6723 5.14256 6.60008 4.21478 6.60008 3.0703C6.60008 1.92583 5.6723 0.998047 4.52782 0.998047C3.38335 0.998047 2.45557 1.92583 2.45557 3.0703C2.45557 4.21478 3.38335 5.14256 4.52782 5.14256Z" fill="url(#paint6_linear_919_102)"/>
<path d="M34.4162 2.05225H44.8313C45.3763 2.05225 45.818 2.49401 45.818 3.03901C45.818 3.58401 45.3762 4.02578 44.8313 4.02578H34.4162C33.6078 4.02578 32.9501 4.68342 32.9501 5.49185V10.2171C32.9501 10.7621 32.5082 11.2039 31.9633 11.2039C31.4184 11.2039 30.9766 10.7621 30.9766 10.2171V5.49195C30.9766 3.59529 32.5196 2.05225 34.4162 2.05225Z" fill="url(#paint7_linear_919_102)"/>
<path d="M45.4722 5.14256C46.6166 5.14256 47.5444 4.21478 47.5444 3.0703C47.5444 1.92583 46.6166 0.998047 45.4722 0.998047C44.3277 0.998047 43.3999 1.92583 43.3999 3.0703C43.3999 4.21478 44.3277 5.14256 45.4722 5.14256Z" fill="url(#paint8_linear_919_102)"/>
<path d="M24.9999 0.998047C24.4549 0.998047 24.0132 1.43981 24.0132 1.98481V10.2173C24.0132 10.7623 24.4549 11.204 24.9999 11.204C25.5449 11.204 25.9867 10.7623 25.9867 10.2173V1.98481C25.9867 1.43981 25.5449 0.998047 24.9999 0.998047V0.998047Z" fill="url(#paint9_linear_919_102)"/>
<path d="M1.13623 16.5819V11.8452C1.13623 11.3002 1.578 10.8584 2.123 10.8584C2.668 10.8584 3.10976 11.3003 3.10976 11.8452V16.5819C3.10976 17.3903 3.76741 18.048 4.57584 18.048H9.30113C9.84613 18.048 10.2879 18.4899 10.2879 19.0348C10.2879 19.5797 9.84613 20.0215 9.30113 20.0215H4.57584C2.67927 20.0215 1.13623 18.4785 1.13623 16.5819Z" fill="url(#paint10_linear_919_102)"/>
<path d="M2.15429 13.2763C3.29876 13.2763 4.22654 12.3486 4.22654 11.2041C4.22654 10.0596 3.29876 9.13184 2.15429 9.13184C1.00981 9.13184 0.0820312 10.0596 0.0820312 11.2041C0.0820312 12.3486 1.00981 13.2763 2.15429 13.2763Z" fill="url(#paint11_linear_919_102)"/>
<path d="M1.13623 35.414V40.1507C1.13623 40.6957 1.578 41.1375 2.123 41.1375C2.668 41.1375 3.10976 40.6956 3.10976 40.1507V35.414C3.10976 34.6056 3.76741 33.9479 4.57584 33.9479H9.30113C9.84613 33.9479 10.2879 33.506 10.2879 32.9611C10.2879 32.4162 9.84613 31.9744 9.30113 31.9744H4.57584C2.67927 31.9744 1.13623 33.5174 1.13623 35.414Z" fill="url(#paint12_linear_919_102)"/>
<path d="M2.15429 42.864C3.29876 42.864 4.22654 41.9362 4.22654 40.7917C4.22654 39.6473 3.29876 38.7195 2.15429 38.7195C1.00981 38.7195 0.0820312 39.6473 0.0820312 40.7917C0.0820312 41.9362 1.00981 42.864 2.15429 42.864Z" fill="url(#paint13_linear_919_102)"/>
<path d="M0.0820312 25.998C0.0820312 25.453 0.523796 25.0112 1.0688 25.0112H9.30125C9.84625 25.0112 10.288 25.453 10.288 25.998C10.288 26.543 9.84625 26.9848 9.30125 26.9848H1.06889C0.523894 26.9848 0.0820312 26.543 0.0820312 25.998Z" fill="url(#paint14_linear_919_102)"/>
<path d="M48.8641 16.5819V11.8452C48.8641 11.3002 48.4223 10.8584 47.8773 10.8584C47.3323 10.8584 46.8905 11.3003 46.8905 11.8452V16.5819C46.8905 17.3903 46.2329 18.048 45.4245 18.048H40.6992C40.1542 18.048 39.7124 18.4899 39.7124 19.0348C39.7124 19.5797 40.1542 20.0215 40.6992 20.0215H45.4245C47.321 20.0215 48.8641 18.4785 48.8641 16.5819Z" fill="url(#paint15_linear_919_102)"/>
<path d="M47.8462 13.2763C48.9907 13.2763 49.9184 12.3486 49.9184 11.2041C49.9184 10.0596 48.9907 9.13184 47.8462 9.13184C46.7017 9.13184 45.7739 10.0596 45.7739 11.2041C45.7739 12.3486 46.7017 13.2763 47.8462 13.2763Z" fill="url(#paint16_linear_919_102)"/>
<path d="M48.8641 35.414V40.1507C48.8641 40.6957 48.4223 41.1375 47.8773 41.1375C47.3323 41.1375 46.8905 40.6956 46.8905 40.1507V35.414C46.8905 34.6056 46.2329 33.9479 45.4245 33.9479H40.6992C40.1542 33.9479 39.7124 33.506 39.7124 32.9611C39.7124 32.4162 40.1542 31.9744 40.6992 31.9744H45.4245C47.321 31.9744 48.8641 33.5174 48.8641 35.414Z" fill="url(#paint17_linear_919_102)"/>
<path d="M47.8462 42.864C48.9907 42.864 49.9184 41.9362 49.9184 40.7917C49.9184 39.6473 48.9907 38.7195 47.8462 38.7195C46.7017 38.7195 45.7739 39.6473 45.7739 40.7917C45.7739 41.9362 46.7017 42.864 47.8462 42.864Z" fill="url(#paint18_linear_919_102)"/>
<path d="M49.9184 25.998C49.9184 25.453 49.4766 25.0112 48.9316 25.0112H40.6992C40.1542 25.0112 39.7124 25.453 39.7124 25.998C39.7124 26.543 40.1542 26.9848 40.6992 26.9848H48.9316C49.4765 26.9848 49.9184 26.543 49.9184 25.998Z" fill="url(#paint19_linear_919_102)"/>
<path d="M25.7798 42.4273L26.2808 42.2785C27.5561 41.8997 28.7948 40.9352 29.8632 39.489C30.8857 38.1052 31.7596 36.2738 32.3905 34.193L32.5768 33.5781L31.9455 33.6967C30.1105 34.0409 28.1634 34.2443 26.1587 34.3012L25.7799 34.3118V42.4273H25.7798Z" fill="url(#paint20_linear_919_102)"/>
<path d="M41.0283 29.9683L40.0753 30.6338C39.3396 31.1474 38.4767 31.6221 37.5103 32.0444C36.599 32.4428 35.5915 32.798 34.5156 33.1002L34.2973 33.1615L34.2425 33.3815C33.7645 35.3052 33.106 37.0499 32.2853 38.567C31.8972 39.2844 31.4716 39.9493 31.0204 40.5432L30.125 41.7219L31.4849 41.1373C35.8553 39.2583 39.2029 35.5904 40.6693 31.0739L41.0283 29.9683Z" fill="url(#paint21_linear_919_102)"/>
<path d="M34.2424 18.6148L34.2972 18.8348L34.5155 18.8961C35.5914 19.1982 36.5989 19.5535 37.5102 19.9519C38.4766 20.3742 39.3395 20.8489 40.0752 21.3626L41.0282 22.028L40.6693 20.9225C39.2028 16.4059 35.8553 12.738 31.4849 10.859L30.125 10.2744L31.0204 11.4531C31.4716 12.047 31.8971 12.7119 32.2853 13.4293C33.1059 14.9465 33.7644 16.691 34.2424 18.6148Z" fill="url(#paint22_linear_919_102)"/>
<path d="M35.2655 20.7599L34.6587 20.5547L34.7551 21.1878C34.9923 22.7469 35.1127 24.3653 35.1127 25.9981C35.1127 27.631 34.9924 29.2493 34.7551 30.8084L34.6587 31.4416L35.2655 31.2364C39.151 29.9224 41.4707 27.9642 41.4707 25.9981C41.4707 24.032 39.151 22.0738 35.2655 20.7599Z" fill="url(#paint23_linear_919_102)"/>
<path d="M26.2808 9.71767L25.7798 9.56885V17.6842L26.1586 17.695C28.1634 17.7519 30.1104 17.9553 31.9454 18.2995L32.5767 18.4181L32.3904 17.8032C31.7595 15.7224 30.8856 13.891 29.8631 12.5072C28.7948 11.061 27.5561 10.0964 26.2808 9.71767Z" fill="url(#paint24_linear_919_102)"/>
<path d="M25.7798 32.7523L26.1813 32.7404C28.4921 32.6719 30.6932 32.4043 32.7235 31.9453L32.9717 31.8892L33.0203 31.6393C33.3735 29.8197 33.5526 27.9217 33.5526 25.998C33.5526 24.0742 33.3735 22.1763 33.0203 20.3566L32.9717 20.1067L32.7235 20.0506C30.6932 19.5916 28.4921 19.324 26.1813 19.2555L25.7798 19.2437V32.7523Z" fill="url(#paint25_linear_919_102)"/>
<path d="M14.7351 31.2364L15.3418 31.4416L15.2455 30.8084C15.0082 29.2493 14.8878 27.6309 14.8878 25.9981C14.8878 24.3654 15.0081 22.7469 15.2455 21.1878L15.3418 20.5547L14.7351 20.7599C10.8495 22.0738 8.52979 24.032 8.52979 25.9981C8.52979 27.9642 10.8495 29.9224 14.7351 31.2364Z" fill="url(#paint26_linear_919_102)"/>
<path d="M24.2204 9.56885L23.7194 9.71767C22.4441 10.0965 21.2054 11.061 20.137 12.5072C19.1145 13.891 18.2406 15.7224 17.6097 17.8032L17.4233 18.4181L18.0547 18.2995C19.8897 17.9553 21.8368 17.7519 23.8415 17.695L24.2203 17.6842V9.56885H24.2204Z" fill="url(#paint27_linear_919_102)"/>
<path d="M23.7193 42.2784L24.2203 42.4272V34.3119L23.8415 34.3012C21.8367 34.2443 19.8897 34.0409 18.0547 33.6967L17.4233 33.5781L17.6097 34.193C18.2406 36.2738 19.1145 38.1052 20.137 39.489C21.2053 40.9351 22.444 41.8997 23.7193 42.2784Z" fill="url(#paint28_linear_919_102)"/>
<path d="M24.2206 19.2437L23.8191 19.2555C21.5082 19.324 19.3072 19.5916 17.2769 20.0506L17.0286 20.1067L16.9801 20.3566C16.6269 22.1762 16.4478 24.0742 16.4478 25.998C16.4478 27.9217 16.6269 29.8196 16.9801 31.6393L17.0286 31.8892L17.2769 31.9453C19.3072 32.4043 21.5082 32.6719 23.8191 32.7404L24.2206 32.7523V19.2437Z" fill="url(#paint29_linear_919_102)"/>
<path d="M18.5156 41.1373L19.8755 41.7219L18.9801 40.5432C18.529 39.9493 18.1034 39.2844 17.7152 38.567C16.8945 37.0499 16.236 35.3052 15.758 33.3815L15.7032 33.1615L15.4849 33.1002C14.409 32.7981 13.4015 32.4428 12.4902 32.0444C11.5238 31.6221 10.661 31.1474 9.92521 30.6338L8.97217 29.9683L9.33109 31.0739C10.7976 35.5903 14.1452 39.2583 18.5156 41.1373Z" fill="url(#paint30_linear_919_102)"/>
<path d="M12.4901 19.9519C13.4014 19.5535 14.4089 19.1983 15.4848 18.8961L15.7031 18.8348L15.7579 18.6148C16.2359 16.691 16.8944 14.9464 17.7151 13.4293C18.1033 12.7119 18.5289 12.047 18.98 11.4531L19.8754 10.2744L18.5155 10.859C14.1451 12.738 10.7975 16.4059 9.33109 20.9225L8.97217 22.028L9.92521 21.3626C10.6608 20.8489 11.5237 20.3742 12.4901 19.9519Z" fill="url(#paint31_linear_919_102)"/>
<path d="M38.0249 12.9731C34.5458 9.49411 29.9202 7.57812 25 7.57812C20.0798 7.57812 15.4542 9.49411 11.9751 12.9732C8.49596 16.4523 6.58008 21.0778 6.58008 25.998C6.58008 30.9182 8.49606 35.5438 11.9752 39.0229C15.4543 42.502 20.0799 44.418 25.0001 44.418C29.9203 44.418 34.5459 42.502 38.025 39.0229C41.5041 35.5438 43.4201 30.9182 43.4201 25.998C43.4201 21.0778 41.5039 16.4522 38.0249 12.9731ZM16.8372 25.998C16.8372 24.0525 17.0239 22.1749 17.3624 20.4311C19.2748 19.9986 21.452 19.7159 23.8303 19.6454V32.3508C21.452 32.2803 19.2748 31.9974 17.3624 31.5651C17.0239 29.8212 16.8372 27.9435 16.8372 25.998ZM14.8598 30.8669C11.1427 29.61 8.91949 27.7462 8.91949 25.998C8.91949 24.2499 11.1427 22.3861 14.8598 21.1291C14.6213 22.6964 14.4977 24.3309 14.4977 25.998C14.4977 27.6652 14.6213 29.2997 14.8598 30.8669ZM32.0173 17.9163C30.1747 17.5706 28.2035 17.3629 26.1697 17.3053V10.0914C28.6304 10.8223 30.773 13.8119 32.0173 17.9163ZM23.8303 10.0914V17.3052C21.7965 17.3628 19.8253 17.5706 17.9826 17.9162C19.2269 13.8119 21.3696 10.8223 23.8303 10.0914ZM23.8303 34.6909V41.9047C21.3696 41.1737 19.227 38.1842 17.9826 34.0799C19.8253 34.4255 21.7965 34.6332 23.8303 34.6909ZM26.1697 41.9047V34.6909C28.2035 34.6332 30.1747 34.4255 32.0173 34.0799C30.773 38.1842 28.6304 41.1737 26.1697 41.9047ZM26.1697 32.3507V19.6454C28.5479 19.7159 30.7252 19.9987 32.6375 20.4311C32.9761 22.1749 33.1627 24.0526 33.1627 25.998C33.1627 27.9434 32.9761 29.8212 32.6375 31.565C30.7252 31.9974 28.5479 32.2803 26.1697 32.3507ZM35.1402 21.1291C38.8572 22.3861 41.0805 24.2499 41.0805 25.998C41.0805 27.7462 38.8572 29.61 35.1402 30.8669C35.3787 29.2997 35.5022 27.6652 35.5022 25.998C35.5022 24.3309 35.3787 22.6964 35.1402 21.1291ZM40.2981 21.0428C39.5468 20.5181 38.6678 20.0324 37.6662 19.5946C36.7285 19.1848 35.7073 18.826 34.6207 18.5208C34.14 16.5863 33.4703 14.8009 32.6279 13.2438C32.2247 12.4985 31.7906 11.8227 31.3307 11.2172C35.5632 13.0369 38.8631 16.6232 40.2981 21.0428ZM18.6694 11.2171C18.2095 11.8226 17.7753 12.4984 17.3721 13.2437C16.5298 14.8007 15.8601 16.5862 15.3794 18.5207C14.2927 18.8259 13.2715 19.1847 12.3339 19.5945C11.3322 20.0323 10.4532 20.5181 9.70194 21.0427C11.1368 16.6232 14.4367 13.0369 18.6694 11.2171ZM9.70184 30.9532C10.4531 31.4779 11.3321 31.9636 12.3338 32.4015C13.2715 32.8113 14.2926 33.1701 15.3793 33.4753C15.86 35.4098 16.5297 37.1952 17.372 38.7522C17.7753 39.4975 18.2094 40.1733 18.6693 40.7788C14.4367 38.9591 11.1368 35.3728 9.70184 30.9532ZM31.3306 40.7789C31.7905 40.1734 32.2247 39.4976 32.6278 38.7523C33.4702 37.1954 34.1399 35.4099 34.6206 33.4754C35.7072 33.1702 36.7284 32.8114 37.6661 32.4016C38.6677 31.9637 39.5467 31.4779 40.298 30.9533C38.8631 35.3728 35.5632 38.9591 31.3306 40.7789Z" fill="url(#paint32_linear_919_102)"/>
<path d="M38.0249 39.0229C41.504 35.5439 43.42 30.9182 43.42 25.998C43.42 21.0778 41.504 16.4522 38.0249 12.9731C34.5458 9.49401 29.9202 7.57812 25 7.57812V44.418C29.9202 44.4179 34.5458 42.502 38.0249 39.0229Z" fill="url(#paint33_linear_919_102)"/>
<path d="M38.1088 38.9372L19.6717 20.5001C19.4729 20.1386 19.0887 20.1155 18.6217 20.1222L11.5438 20.3022C10.6175 20.3155 10.3802 21.0312 10.8837 21.8089L11.6589 23.0062C9.61998 24.6358 7.72665 26.8324 6.87891 29.3227C7.54146 32.9771 9.29332 36.3408 11.9753 39.0229C15.4543 42.502 20.08 44.418 25.0002 44.418C29.9204 44.418 34.546 42.502 38.0251 39.0229C38.0534 38.9946 38.0808 38.9656 38.1088 38.9372Z" fill="url(#paint34_linear_919_102)"/>
<path d="M11.5851 38.608C11.2867 37.6789 10.84 34.2188 10.8737 33.1843C10.9553 30.6825 12.1004 28.4422 13.8655 26.8963L14.6597 28.123C15.1632 28.9006 16.3258 28.8199 16.7171 27.9802L19.7068 21.564C20.0739 20.7761 19.4908 19.8755 18.6217 19.8881L11.5438 19.99C10.6175 20.0034 10.0681 21.0311 10.5716 21.8088L11.3468 23.0061C8.32362 25.4225 6.30411 29.0841 6.19509 33.1038C6.18352 33.5283 6.25382 34.1847 6.36274 34.9177C6.73342 37.4129 9.10989 39.0955 11.5851 38.608Z" fill="url(#paint35_linear_919_102)"/>
<path d="M38.4245 13.3865C38.4215 13.3871 38.4184 13.3876 38.4154 13.3881C38.7138 14.3173 39.1605 17.7774 39.1268 18.8118C39.049 21.1955 38.0054 23.3414 36.3804 24.8758L35.2915 23.8024C34.7651 23.1013 33.6625 23.2025 33.2835 24.0159L30.2938 30.4321C30.0436 30.9689 30.2349 31.5578 30.657 31.8749L37.9138 39.1318C37.9508 39.0954 37.9884 39.0598 38.0251 39.0231C41.5042 35.5441 43.4202 30.9184 43.4202 25.9982C43.4201 21.2701 41.6499 16.8145 38.4245 13.3865Z" fill="url(#paint36_linear_919_102)"/>
<path d="M38.2334 13.0842C38.5318 14.0133 38.9785 17.4734 38.9448 18.5078C38.8632 21.0097 37.7181 23.25 35.953 24.7958L35.1588 23.5692C34.6553 22.7915 33.4927 22.8722 33.1014 23.7119L30.1117 30.1281C29.7446 30.916 30.3277 31.8166 31.1968 31.8041L38.2747 31.7021C39.201 31.6888 39.7504 30.661 39.2469 29.8834L38.4717 28.686C41.495 26.2698 43.5144 22.6082 43.6235 18.5885C43.635 18.164 43.5648 17.5075 43.4559 16.7746C43.0851 14.2793 40.7086 12.5966 38.2334 13.0842Z" fill="url(#paint37_linear_919_102)"/>
</g>
<defs>
<linearGradient id="paint0_linear_919_102" x1="11.9536" y1="45.7185" x2="18.4864" y2="52.2513" gradientUnits="userSpaceOnUse">
<stop stop-color="#EDF5FF"/>
<stop offset="1" stop-color="#B5DBFF"/>
</linearGradient>
<linearGradient id="paint1_linear_919_102" x1="3.86174" y1="48.2597" x2="5.71086" y2="50.1087" gradientUnits="userSpaceOnUse">
<stop stop-color="#B9DD39"/>
<stop offset="1" stop-color="#90CC1C"/>
</linearGradient>
<linearGradient id="paint2_linear_919_102" x1="31.3215" y1="41.1614" x2="39.9361" y2="49.776" gradientUnits="userSpaceOnUse">
<stop stop-color="#EDF5FF"/>
<stop offset="1" stop-color="#B5DBFF"/>
</linearGradient>
<linearGradient id="paint3_linear_919_102" x1="44.8061" y1="48.2597" x2="46.6552" y2="50.1087" gradientUnits="userSpaceOnUse">
<stop stop-color="#B9DD39"/>
<stop offset="1" stop-color="#90CC1C"/>
</linearGradient>
<linearGradient id="paint4_linear_919_102" x1="24.0132" y1="45.8949" x2="25.9867" y2="45.8949" gradientUnits="userSpaceOnUse">
<stop stop-color="#EDF5FF"/>
<stop offset="1" stop-color="#B5DBFF"/>
</linearGradient>
<linearGradient id="paint5_linear_919_102" x1="11.9536" y1="6.27744" x2="18.4864" y2="-0.255401" gradientUnits="userSpaceOnUse">
<stop stop-color="#EDF5FF"/>
<stop offset="1" stop-color="#B5DBFF"/>
</linearGradient>
<linearGradient id="paint6_linear_919_102" x1="3.86174" y1="2.40422" x2="5.71086" y2="4.25334" gradientUnits="userSpaceOnUse">
<stop stop-color="#B9DD39"/>
<stop offset="1" stop-color="#90CC1C"/>
</linearGradient>
<linearGradient id="paint7_linear_919_102" x1="31.3215" y1="10.8345" x2="39.9361" y2="2.21989" gradientUnits="userSpaceOnUse">
<stop stop-color="#EDF5FF"/>
<stop offset="1" stop-color="#B5DBFF"/>
</linearGradient>
<linearGradient id="paint8_linear_919_102" x1="44.8061" y1="2.40422" x2="46.6552" y2="4.25334" gradientUnits="userSpaceOnUse">
<stop stop-color="#B9DD39"/>
<stop offset="1" stop-color="#90CC1C"/>
</linearGradient>
<linearGradient id="paint9_linear_919_102" x1="24.0132" y1="6.10109" x2="25.9867" y2="6.10109" gradientUnits="userSpaceOnUse">
<stop stop-color="#EDF5FF"/>
<stop offset="1" stop-color="#B5DBFF"/>
</linearGradient>
<linearGradient id="paint10_linear_919_102" x1="4.92849" y1="16.2236" x2="1.00437" y2="20.1477" gradientUnits="userSpaceOnUse">
<stop stop-color="#EDF5FF"/>
<stop offset="1" stop-color="#B5DBFF"/>
</linearGradient>
<linearGradient id="paint11_linear_919_102" x1="2.82046" y1="10.538" x2="0.971345" y2="12.3871" gradientUnits="userSpaceOnUse">
<stop stop-color="#B9DD39"/>
<stop offset="1" stop-color="#90CC1C"/>
</linearGradient>
<linearGradient id="paint12_linear_919_102" x1="4.92849" y1="35.7723" x2="1.00437" y2="31.8482" gradientUnits="userSpaceOnUse">
<stop stop-color="#EDF5FF"/>
<stop offset="1" stop-color="#B5DBFF"/>
</linearGradient>
<linearGradient id="paint13_linear_919_102" x1="2.82046" y1="41.4578" x2="0.971344" y2="39.6088" gradientUnits="userSpaceOnUse">
<stop stop-color="#B9DD39"/>
<stop offset="1" stop-color="#90CC1C"/>
</linearGradient>
<linearGradient id="paint14_linear_919_102" x1="5.18507" y1="25.0112" x2="5.18507" y2="26.9848" gradientUnits="userSpaceOnUse">
<stop stop-color="#EDF5FF"/>
<stop offset="1" stop-color="#B5DBFF"/>
</linearGradient>
<linearGradient id="paint15_linear_919_102" x1="45.0719" y1="16.2236" x2="48.996" y2="20.1477" gradientUnits="userSpaceOnUse">
<stop stop-color="#EDF5FF"/>
<stop offset="1" stop-color="#B5DBFF"/>
</linearGradient>
<linearGradient id="paint16_linear_919_102" x1="47.1801" y1="10.538" x2="49.0292" y2="12.3871" gradientUnits="userSpaceOnUse">
<stop stop-color="#B9DD39"/>
<stop offset="1" stop-color="#90CC1C"/>
</linearGradient>
<linearGradient id="paint17_linear_919_102" x1="45.0719" y1="35.7723" x2="48.996" y2="31.8482" gradientUnits="userSpaceOnUse">
<stop stop-color="#EDF5FF"/>
<stop offset="1" stop-color="#B5DBFF"/>
</linearGradient>
<linearGradient id="paint18_linear_919_102" x1="47.1801" y1="41.4578" x2="49.0292" y2="39.6088" gradientUnits="userSpaceOnUse">
<stop stop-color="#B9DD39"/>
<stop offset="1" stop-color="#90CC1C"/>
</linearGradient>
<linearGradient id="paint19_linear_919_102" x1="44.8153" y1="25.0112" x2="44.8153" y2="26.9848" gradientUnits="userSpaceOnUse">
<stop stop-color="#EDF5FF"/>
<stop offset="1" stop-color="#B5DBFF"/>
</linearGradient>
<linearGradient id="paint20_linear_919_102" x1="9.31145" y1="18.1359" x2="37.7932" y2="46.6176" gradientUnits="userSpaceOnUse">
<stop stop-color="#B5DBFF"/>
<stop offset="1" stop-color="#76E2F8"/>
</linearGradient>
<linearGradient id="paint21_linear_919_102" x1="14.9934" y1="15.2618" x2="36.1425" y2="36.4108" gradientUnits="userSpaceOnUse">
<stop stop-color="#EDF5FF"/>
<stop offset="1" stop-color="#D5E8FE"/>
</linearGradient>
<linearGradient id="paint22_linear_919_102" x1="24.5652" y1="5.68971" x2="45.7143" y2="26.8388" gradientUnits="userSpaceOnUse">
<stop stop-color="#EDF5FF"/>
<stop offset="1" stop-color="#D5E8FE"/>
</linearGradient>
<linearGradient id="paint23_linear_919_102" x1="18.71" y1="8.73773" x2="47.1917" y2="37.2195" gradientUnits="userSpaceOnUse">
<stop stop-color="#B5DBFF"/>
<stop offset="1" stop-color="#76E2F8"/>
</linearGradient>
<linearGradient id="paint24_linear_919_102" x1="20.1277" y1="7.31953" x2="48.6095" y2="35.8013" gradientUnits="userSpaceOnUse">
<stop stop-color="#B5DBFF"/>
<stop offset="1" stop-color="#76E2F8"/>
</linearGradient>
<linearGradient id="paint25_linear_919_102" x1="16.6004" y1="13.6541" x2="37.7495" y2="34.8033" gradientUnits="userSpaceOnUse">
<stop stop-color="#EDF5FF"/>
<stop offset="1" stop-color="#D5E8FE"/>
</linearGradient>
<linearGradient id="paint26_linear_919_102" x1="9.14351" y1="21.1114" x2="30.2926" y2="42.2605" gradientUnits="userSpaceOnUse">
<stop stop-color="#EDF5FF"/>
<stop offset="1" stop-color="#D5E8FE"/>
</linearGradient>
<linearGradient id="paint27_linear_919_102" x1="18.5417" y1="11.7132" x2="39.6907" y2="32.8623" gradientUnits="userSpaceOnUse">
<stop stop-color="#EDF5FF"/>
<stop offset="1" stop-color="#D5E8FE"/>
</linearGradient>
<linearGradient id="paint28_linear_919_102" x1="7.7252" y1="22.5295" x2="28.8743" y2="43.6786" gradientUnits="userSpaceOnUse">
<stop stop-color="#EDF5FF"/>
<stop offset="1" stop-color="#D5E8FE"/>
</linearGradient>
<linearGradient id="paint29_linear_919_102" x1="11.2529" y1="16.1947" x2="39.7346" y2="44.6765" gradientUnits="userSpaceOnUse">
<stop stop-color="#B5DBFF"/>
<stop offset="1" stop-color="#76E2F8"/>
</linearGradient>
<linearGradient id="paint30_linear_919_102" x1="3.28815" y1="24.1594" x2="31.7699" y2="52.6412" gradientUnits="userSpaceOnUse">
<stop stop-color="#B5DBFF"/>
<stop offset="1" stop-color="#76E2F8"/>
</linearGradient>
<linearGradient id="paint31_linear_919_102" x1="12.86" y1="14.5875" x2="41.3418" y2="43.0692" gradientUnits="userSpaceOnUse">
<stop stop-color="#B5DBFF"/>
<stop offset="1" stop-color="#76E2F8"/>
</linearGradient>
<linearGradient id="paint32_linear_919_102" x1="16.5989" y1="10.9309" x2="30.9477" y2="36.6652" gradientUnits="userSpaceOnUse">
<stop stop-color="#B5DBFF"/>
<stop offset="1" stop-color="#48B2E3"/>
</linearGradient>
<linearGradient id="paint33_linear_919_102" x1="32.8537" y1="28.337" x2="6.41755" y2="18.2772" gradientUnits="userSpaceOnUse">
<stop stop-color="#B5DBFF" stop-opacity="0"/>
<stop offset="0.1734" stop-color="#8FC5E9" stop-opacity="0.173"/>
<stop offset="0.4541" stop-color="#56A4C8" stop-opacity="0.454"/>
<stop offset="0.6955" stop-color="#2D8DB1" stop-opacity="0.696"/>
<stop offset="0.8853" stop-color="#147EA2" stop-opacity="0.885"/>
<stop offset="1" stop-color="#0B799D"/>
</linearGradient>
<linearGradient id="paint34_linear_919_102" x1="25.3388" y1="37.1381" x2="8.49459" y2="24.1929" gradientUnits="userSpaceOnUse">
<stop stop-color="#B5DBFF" stop-opacity="0"/>
<stop offset="0.1734" stop-color="#8FC5E9" stop-opacity="0.173"/>
<stop offset="0.4541" stop-color="#56A4C8" stop-opacity="0.454"/>
<stop offset="0.6955" stop-color="#2D8DB1" stop-opacity="0.696"/>
<stop offset="0.8853" stop-color="#147EA2" stop-opacity="0.885"/>
<stop offset="1" stop-color="#0B799D"/>
</linearGradient>
<linearGradient id="paint35_linear_919_102" x1="8.8197" y1="24.5968" x2="15.4482" y2="30.5235" gradientUnits="userSpaceOnUse">
<stop stop-color="#0B799D"/>
<stop offset="1" stop-color="#07485E"/>
</linearGradient>
<linearGradient id="paint36_linear_919_102" x1="44.3692" y1="32.4675" x2="36.7781" y2="24.8764" gradientUnits="userSpaceOnUse">
<stop stop-color="#B5DBFF" stop-opacity="0"/>
<stop offset="0.1734" stop-color="#8FC5E9" stop-opacity="0.173"/>
<stop offset="0.4541" stop-color="#56A4C8" stop-opacity="0.454"/>
<stop offset="0.6955" stop-color="#2D8DB1" stop-opacity="0.696"/>
<stop offset="0.8853" stop-color="#147EA2" stop-opacity="0.885"/>
<stop offset="1" stop-color="#0B799D"/>
</linearGradient>
<linearGradient id="paint37_linear_919_102" x1="35.13" y1="21.8589" x2="40.5109" y2="26.6158" gradientUnits="userSpaceOnUse">
<stop stop-color="#0B799D"/>
<stop offset="1" stop-color="#07485E"/>
</linearGradient>
<clipPath id="clip0_919_102">
<rect width="50" height="50" fill="white" transform="translate(0 0.998047)"/>
</clipPath>
</defs>
</svg>
