<svg width="80" height="80" viewBox="0 0 80 80" fill="none" xmlns="http://www.w3.org/2000/svg">
<g clip-path="url(#clip0_828_2)">
<path d="M76.4638 53.0444C70.9277 44.9041 58.9349 40.9775 56.8256 30.7232C55.2114 22.875 57.7269 13.8352 52.9746 6.78363C47.2606 -1.69496 38.0277 -0.0660546 32.0125 7.22316C24.6011 16.2044 17.6358 3.52098 8.87424 3.52098C4.34518 3.52098 0.575176 6.97348 0.0454888 10.7414C-0.209199 12.553 0.64377 13.6214 1.65127 14.6929C13.0803 26.8479 4.78205 44.2064 11.0041 57.2961C18.1728 72.3774 34.4763 57.1913 45.7311 59.2483C56.6856 61.2504 60.52 80.6685 72.1611 78.8099C82.0657 77.2283 81.4896 60.4346 76.4638 53.0444Z" fill="url(#paint0_linear_828_2)"/>
<path d="M69.3141 44.0374L64.0609 40.1703C64.2937 38.8156 64.4234 37.4234 64.4234 36.0031C64.4234 34.5906 64.2937 33.2 64.0609 31.8453L69.3156 27.9765C70.0891 27.4062 70.3922 26.3968 70.0766 25.489C68.7516 21.6875 66.7219 18.2156 64.1437 15.2234C63.5172 14.4968 62.4922 14.2562 61.6125 14.6406L55.6344 17.2531C53.5125 15.4781 51.0781 14.05 48.4266 13.0796L47.7016 6.60776C47.5953 5.65464 46.875 4.88433 45.9312 4.7062C44.0094 4.3437 42.0266 4.15308 40 4.15308C37.9719 4.15308 35.9937 4.3437 34.075 4.7062C33.1312 4.88433 32.4109 5.65464 32.3047 6.60776L31.5797 13.0796C28.9281 14.05 26.4937 15.4703 24.3641 17.2531L18.3984 14.6406C17.5203 14.2562 16.4953 14.4953 15.8672 15.2203C13.2844 18.2093 11.2547 21.6812 9.92499 25.4828C9.60624 26.389 9.91093 27.4 10.6844 27.9703L15.9375 31.8453C15.7062 33.2 15.5828 34.5843 15.5828 36.0031C15.5828 37.4234 15.7062 38.8156 15.9375 40.1703L10.6844 44.0437C9.91093 44.614 9.60624 45.625 9.92499 46.5328C11.2547 50.3328 13.2828 53.8031 15.8547 56.7906C16.4812 57.5187 17.5078 57.7578 18.3875 57.3734L24.3641 54.7625C26.4937 56.5375 28.9281 57.9578 31.5797 58.9359L32.3047 65.4125C32.4109 66.3671 33.1328 67.1375 34.0766 67.3156C35.9969 67.6765 37.9781 67.8625 40 67.8625C42.0266 67.8625 44.0094 67.6718 45.9312 67.3078C46.875 67.1296 47.5953 66.3609 47.7016 65.4062L48.4266 58.9359C51.0781 57.9578 53.5047 56.5375 55.6344 54.7625L61.6062 57.3734C62.4844 57.7578 63.5109 57.5187 64.1375 56.7921C66.7156 53.8046 68.7453 50.3312 70.075 46.5265C70.3922 45.6187 70.0875 44.6078 69.3141 44.0374ZM40 53.8359C30.1516 53.8359 22.1766 45.85 22.1766 36.0015C22.1766 26.1656 30.1516 18.1781 40 18.1781C49.8469 18.1781 57.8234 26.1656 57.8234 36.0015C57.8234 45.85 49.8469 53.8359 40 53.8359Z" fill="#9393FF"/>
<path d="M39.9999 16.8938C29.4421 16.8938 20.8921 25.4563 20.8921 36.0016C20.8921 46.5594 29.4421 55.1204 39.9999 55.1204C50.5562 55.1204 59.1077 46.5594 59.1077 36.0016C59.1077 25.4563 50.5562 16.8938 39.9999 16.8938ZM39.9999 50.7594C31.8515 50.7594 25.2515 44.1516 25.2515 36.0032C25.2515 27.8641 31.8515 21.2547 39.9999 21.2547C48.1468 21.2547 54.7468 27.8641 54.7468 36.0032C54.7468 44.1516 48.1468 50.7594 39.9999 50.7594Z" fill="#6C6CFF"/>
<path d="M37.2131 11.0544C37.6446 11.0544 37.9944 10.7047 37.9944 10.2732C37.9944 9.84172 37.6446 9.49194 37.2131 9.49194C36.7817 9.49194 36.4319 9.84172 36.4319 10.2732C36.4319 10.7047 36.7817 11.0544 37.2131 11.0544Z" fill="#D8D8FF"/>
<path d="M40 11.0544C40.4315 11.0544 40.7812 10.7047 40.7812 10.2732C40.7812 9.84172 40.4315 9.49194 40 9.49194C39.5685 9.49194 39.2188 9.84172 39.2188 10.2732C39.2188 10.7047 39.5685 11.0544 40 11.0544Z" fill="#D8D8FF"/>
<path d="M42.7869 11.0544C43.2183 11.0544 43.5681 10.7047 43.5681 10.2732C43.5681 9.84172 43.2183 9.49194 42.7869 9.49194C42.3554 9.49194 42.0056 9.84172 42.0056 10.2732C42.0056 10.7047 42.3554 11.0544 42.7869 11.0544Z" fill="#D8D8FF"/>
<path d="M37.2131 62.5225C37.6446 62.5225 37.9944 62.1727 37.9944 61.7412C37.9944 61.3097 37.6446 60.96 37.2131 60.96C36.7817 60.96 36.4319 61.3097 36.4319 61.7412C36.4319 62.1727 36.7817 62.5225 37.2131 62.5225Z" fill="#D8D8FF"/>
<path d="M40 62.5225C40.4315 62.5225 40.7812 62.1727 40.7812 61.7412C40.7812 61.3097 40.4315 60.96 40 60.96C39.5685 60.96 39.2188 61.3097 39.2188 61.7412C39.2188 62.1727 39.5685 62.5225 40 62.5225Z" fill="#D8D8FF"/>
<path d="M42.7869 62.5225C43.2183 62.5225 43.5681 62.1727 43.5681 61.7412C43.5681 61.3097 43.2183 60.96 42.7869 60.96C42.3554 60.96 42.0056 61.3097 42.0056 61.7412C42.0056 62.1727 42.3554 62.5225 42.7869 62.5225Z" fill="#D8D8FF"/>
<path d="M16.3201 26.335C16.7515 26.335 17.1013 25.9852 17.1013 25.5537C17.1013 25.1222 16.7515 24.7725 16.3201 24.7725C15.8886 24.7725 15.5388 25.1222 15.5388 25.5537C15.5388 25.9852 15.8886 26.335 16.3201 26.335Z" fill="#D8D8FF"/>
<path d="M17.7136 23.9214C18.1451 23.9214 18.4949 23.5716 18.4949 23.1401C18.4949 22.7087 18.1451 22.3589 17.7136 22.3589C17.2822 22.3589 16.9324 22.7087 16.9324 23.1401C16.9324 23.5716 17.2822 23.9214 17.7136 23.9214Z" fill="#D8D8FF"/>
<path d="M19.1072 21.5078C19.5387 21.5078 19.8884 21.158 19.8884 20.7266C19.8884 20.2951 19.5387 19.9453 19.1072 19.9453C18.6757 19.9453 18.3259 20.2951 18.3259 20.7266C18.3259 21.158 18.6757 21.5078 19.1072 21.5078Z" fill="#D8D8FF"/>
<path d="M60.8928 52.0691C61.3243 52.0691 61.6741 51.7193 61.6741 51.2878C61.6741 50.8564 61.3243 50.5066 60.8928 50.5066C60.4613 50.5066 60.1116 50.8564 60.1116 51.2878C60.1116 51.7193 60.4613 52.0691 60.8928 52.0691Z" fill="#D8D8FF"/>
<path d="M62.2864 49.6555C62.7178 49.6555 63.0676 49.3057 63.0676 48.8743C63.0676 48.4428 62.7178 48.093 62.2864 48.093C61.8549 48.093 61.5051 48.4428 61.5051 48.8743C61.5051 49.3057 61.8549 49.6555 62.2864 49.6555Z" fill="#D8D8FF"/>
<path d="M63.6799 47.2419C64.1114 47.2419 64.4612 46.8922 64.4612 46.4607C64.4612 46.0292 64.1114 45.6794 63.6799 45.6794C63.2485 45.6794 62.8987 46.0292 62.8987 46.4607C62.8987 46.8922 63.2485 47.2419 63.6799 47.2419Z" fill="#D8D8FF"/>
<path d="M19.1072 52.0691C19.5387 52.0691 19.8884 51.7193 19.8884 51.2878C19.8884 50.8564 19.5387 50.5066 19.1072 50.5066C18.6757 50.5066 18.3259 50.8564 18.3259 51.2878C18.3259 51.7193 18.6757 52.0691 19.1072 52.0691Z" fill="#D8D8FF"/>
<path d="M17.7136 49.6555C18.1451 49.6555 18.4949 49.3057 18.4949 48.8743C18.4949 48.4428 18.1451 48.093 17.7136 48.093C17.2822 48.093 16.9324 48.4428 16.9324 48.8743C16.9324 49.3057 17.2822 49.6555 17.7136 49.6555Z" fill="#D8D8FF"/>
<path d="M16.3201 47.2419C16.7515 47.2419 17.1013 46.8922 17.1013 46.4607C17.1013 46.0292 16.7515 45.6794 16.3201 45.6794C15.8886 45.6794 15.5388 46.0292 15.5388 46.4607C15.5388 46.8922 15.8886 47.2419 16.3201 47.2419Z" fill="#D8D8FF"/>
<path d="M63.6799 26.335C64.1114 26.335 64.4612 25.9852 64.4612 25.5537C64.4612 25.1222 64.1114 24.7725 63.6799 24.7725C63.2485 24.7725 62.8987 25.1222 62.8987 25.5537C62.8987 25.9852 63.2485 26.335 63.6799 26.335Z" fill="#D8D8FF"/>
<path d="M62.2864 23.9214C62.7178 23.9214 63.0676 23.5716 63.0676 23.1401C63.0676 22.7087 62.7178 22.3589 62.2864 22.3589C61.8549 22.3589 61.5051 22.7087 61.5051 23.1401C61.5051 23.5716 61.8549 23.9214 62.2864 23.9214Z" fill="#D8D8FF"/>
<path d="M60.8928 21.5078C61.3243 21.5078 61.6741 21.158 61.6741 20.7266C61.6741 20.2951 61.3243 19.9453 60.8928 19.9453C60.4613 19.9453 60.1116 20.2951 60.1116 20.7266C60.1116 21.158 60.4613 21.5078 60.8928 21.5078Z" fill="#D8D8FF"/>
<path d="M44.1098 33.1818C43.91 33.1818 43.7098 33.1056 43.5575 32.9529C43.2523 32.6479 43.2523 32.1532 43.5575 31.8482L45.647 29.7585L43.5575 27.669C43.2523 27.364 43.2523 26.8693 43.5575 26.5643C43.8623 26.2592 44.3573 26.2592 44.6622 26.5643L47.3042 29.2062C47.4508 29.3528 47.5331 29.5513 47.5331 29.7585C47.5331 29.9657 47.4509 30.1645 47.3042 30.3109L44.6622 32.9529C44.5097 33.1056 44.3097 33.1818 44.1098 33.1818Z" fill="#FF8A00"/>
<path d="M35.8901 33.1818C35.6901 33.1818 35.4902 33.1055 35.3376 32.9529L32.6955 30.3108C32.549 30.1643 32.4668 29.9657 32.4668 29.7585C32.4668 29.5513 32.5491 29.3525 32.6955 29.2061L35.3376 26.5643C35.6429 26.2591 36.1374 26.2593 36.4424 26.5643C36.7476 26.8693 36.7476 27.3639 36.4424 27.6689L34.3529 29.7585L36.4424 31.8482C36.7476 32.1532 36.7476 32.6479 36.4424 32.9529C36.2899 33.1055 36.0901 33.1818 35.8901 33.1818Z" fill="#FF8A00"/>
<path d="M38.8206 33.1821C38.7165 33.1821 38.6111 33.1613 38.5095 33.1172C38.1139 32.9452 37.9325 32.4851 38.1045 32.0893L40.4009 26.8054C40.5731 26.4101 41.0331 26.2285 41.4289 26.4002C41.8245 26.5722 42.0059 27.0324 41.834 27.4282L39.5375 32.7121C39.4095 33.0065 39.1222 33.1821 38.8206 33.1821Z" fill="#FF8A00"/>
<path d="M59.4688 42.2249V70.8545C59.4688 71.6108 58.8547 72.2233 58.1 72.2233H54.9656L54.1844 71.442H25.8156L25.0344 72.2233H21.9C21.1453 72.2233 20.5312 71.6108 20.5312 70.8545V42.2249L21.3616 41.4436H58.6272L59.4688 42.2249Z" fill="white"/>
<path d="M54.9657 57.114V72.2234H25.0344V57.114C25.0344 56.6828 25.3844 56.3328 25.8157 56.3328H54.1844C54.6157 56.3328 54.9657 56.6828 54.9657 57.114Z" fill="#D8D8FF"/>
<path d="M54.8088 53.9039H35.1213V44.8645H54.8088C55.2402 44.8645 55.5901 45.2143 55.5901 45.6458V53.1226C55.5901 53.554 55.2402 53.9039 54.8088 53.9039Z" fill="#B2B2FF"/>
<path d="M35.1213 53.9039H25.1912C24.7598 53.9039 24.4099 53.554 24.4099 53.1226V45.6458C24.4099 45.2143 24.7598 44.8645 25.1912 44.8645H35.1213C35.5527 44.8645 35.9026 45.2143 35.9026 45.6458V53.1226C35.9026 53.554 35.5527 53.9039 35.1213 53.9039Z" fill="#8282FF"/>
<path d="M33.1221 51.2602L31.8787 50.0168C32.3974 49.0266 32.2413 47.7724 31.4102 46.9413C30.3868 45.918 28.7218 45.918 27.6984 46.9413C26.6751 47.9646 26.6751 49.6299 27.6984 50.6532C28.2101 51.1647 28.8821 51.4207 29.5543 51.4207C29.9738 51.4207 30.3932 51.321 30.7738 51.1216L32.0173 52.365C32.1699 52.5175 32.3698 52.5938 32.5698 52.5938C32.7698 52.5938 32.9696 52.5175 33.1223 52.365C33.4271 52.06 33.4271 51.5654 33.1221 51.2602ZM28.8034 49.5485C28.3893 49.1344 28.3893 48.4605 28.8034 48.0464C29.0104 47.8394 29.2824 47.7358 29.5545 47.7358C29.8265 47.7358 30.0984 47.8394 30.3056 48.0464C30.7196 48.4605 30.7196 49.1344 30.3056 49.5485C29.8915 49.9625 29.2174 49.9625 28.8034 49.5485Z" fill="white"/>
<path d="M40.347 52.239H38.5664C38.3075 52.239 38.0977 52.0292 38.0977 51.7703V46.9978C38.0977 46.7389 38.3075 46.5291 38.5664 46.5291H40.347C40.6059 46.5291 40.8158 46.7389 40.8158 46.9978V51.7703C40.8158 52.0292 40.6058 52.239 40.347 52.239Z" fill="#FF6C6C"/>
<path d="M59.4678 42.2255V37.6566C59.4678 36.9007 58.855 36.2878 58.0991 36.2878H21.9005C21.1445 36.2878 20.5317 36.9007 20.5317 37.6566V42.2255H59.4678Z" fill="#FFAA66"/>
<path d="M24.9255 40.344C25.357 40.344 25.7068 39.9942 25.7068 39.5627C25.7068 39.1313 25.357 38.7815 24.9255 38.7815C24.4941 38.7815 24.1443 39.1313 24.1443 39.5627C24.1443 39.9942 24.4941 40.344 24.9255 40.344Z" fill="white"/>
<path d="M27.3999 40.344C27.8314 40.344 28.1812 39.9942 28.1812 39.5627C28.1812 39.1313 27.8314 38.7815 27.3999 38.7815C26.9684 38.7815 26.6187 39.1313 26.6187 39.5627C26.6187 39.9942 26.9684 40.344 27.3999 40.344Z" fill="white"/>
<path d="M29.8745 40.344C30.306 40.344 30.6558 39.9942 30.6558 39.5627C30.6558 39.1313 30.306 38.7815 29.8745 38.7815C29.443 38.7815 29.0933 39.1313 29.0933 39.5627C29.0933 39.9942 29.443 40.344 29.8745 40.344Z" fill="white"/>
<path d="M44.0572 58.595H33.4766C33.0686 58.595 32.7041 58.8933 32.6653 59.2993C32.6208 59.7653 32.9861 60.1575 33.4428 60.1575H44.057C44.4884 60.1575 44.8383 59.8076 44.8383 59.3762C44.8384 58.9448 44.4886 58.595 44.0572 58.595Z" fill="#9393FF"/>
<path d="M29.6929 60.1575C30.1243 60.1575 30.4741 59.8077 30.4741 59.3762C30.4741 58.9447 30.1243 58.595 29.6929 58.595C29.2614 58.595 28.9116 58.9447 28.9116 59.3762C28.9116 59.8077 29.2614 60.1575 29.6929 60.1575Z" fill="#FFAA66"/>
<path d="M29.6929 62.9204C30.1243 62.9204 30.4741 62.5706 30.4741 62.1392C30.4741 61.7077 30.1243 61.3579 29.6929 61.3579C29.2614 61.3579 28.9116 61.7077 28.9116 62.1392C28.9116 62.5706 29.2614 62.9204 29.6929 62.9204Z" fill="#FFAA66"/>
<path d="M47.1823 61.3579H33.4431C33.0117 61.3579 32.6619 61.7078 32.6619 62.1392C32.6619 62.5706 33.0117 62.9204 33.4431 62.9204H47.1823C47.6137 62.9204 47.9636 62.5706 47.9636 62.1392C47.9636 61.7078 47.6137 61.3579 47.1823 61.3579Z" fill="#9393FF"/>
<path d="M40.9322 64.6353H33.4766C33.0686 64.6353 32.7041 64.9335 32.6653 65.3396C32.6208 65.8056 32.9861 66.1978 33.4428 66.1978H40.932C41.3634 66.1978 41.7133 65.8479 41.7133 65.4165C41.7134 64.9849 41.3636 64.6353 40.9322 64.6353Z" fill="#9393FF"/>
<path d="M29.6929 66.1978C30.1243 66.1978 30.4741 65.848 30.4741 65.4165C30.4741 64.985 30.1243 64.6353 29.6929 64.6353C29.2614 64.6353 28.9116 64.985 28.9116 65.4165C28.9116 65.848 29.2614 66.1978 29.6929 66.1978Z" fill="#FFAA66"/>
<path d="M29.6929 68.9607C30.1243 68.9607 30.4741 68.6109 30.4741 68.1794C30.4741 67.748 30.1243 67.3982 29.6929 67.3982C29.2614 67.3982 28.9116 67.748 28.9116 68.1794C28.9116 68.6109 29.2614 68.9607 29.6929 68.9607Z" fill="#FFAA66"/>
<path d="M50.3072 67.3982H33.4429C33.0115 67.3982 32.6616 67.748 32.6616 68.1794C32.6616 68.6108 33.0115 68.9607 33.4429 68.9607H50.3071C50.7385 68.9607 51.0883 68.6108 51.0883 68.1794C51.0883 67.748 50.7387 67.3982 50.3072 67.3982Z" fill="#9393FF"/>
<path d="M70.2002 11.9138C69.7686 11.9138 69.4189 11.5641 69.4189 11.1326C69.4189 10.6588 69.0333 10.2732 68.5596 10.2732C68.128 10.2732 67.7783 9.92351 67.7783 9.49194C67.7783 9.06038 68.128 8.71069 68.5596 8.71069C69.0333 8.71069 69.4189 8.32507 69.4189 7.85132C69.4189 7.41976 69.7686 7.07007 70.2002 7.07007C70.6318 7.07007 70.9814 7.41976 70.9814 7.85132C70.9814 8.32507 71.3671 8.71069 71.8408 8.71069C72.2724 8.71069 72.6221 9.06038 72.6221 9.49194C72.6221 9.92351 72.2724 10.2732 71.8408 10.2732C71.3671 10.2732 70.9814 10.6588 70.9814 11.1326C70.9814 11.5641 70.6318 11.9138 70.2002 11.9138Z" fill="#6C6CFF"/>
<path d="M59.4688 9.47754C59.0372 9.47754 58.6875 9.12785 58.6875 8.69629C58.6875 8.22254 58.3019 7.83691 57.8281 7.83691C57.3966 7.83691 57.0469 7.48723 57.0469 7.05566C57.0469 6.6241 57.3966 6.27441 57.8281 6.27441C58.3019 6.27441 58.6875 5.88879 58.6875 5.41504C58.6875 4.98348 59.0372 4.63379 59.4688 4.63379C59.9003 4.63379 60.25 4.98348 60.25 5.41504C60.25 5.88879 60.6356 6.27441 61.1094 6.27441C61.5409 6.27441 61.8906 6.6241 61.8906 7.05566C61.8906 7.48723 61.5409 7.83691 61.1094 7.83691C60.6356 7.83691 60.25 8.22254 60.25 8.69629C60.25 9.12785 59.9002 9.47754 59.4688 9.47754Z" fill="#FF9C33"/>
<path d="M6.9126 40.5962C6.48119 40.5962 6.13135 40.2465 6.13135 39.8149C6.13135 39.3412 5.74588 38.9556 5.27197 38.9556C4.84057 38.9556 4.49072 38.6059 4.49072 38.1743C4.49072 37.7428 4.84057 37.3931 5.27197 37.3931C5.74588 37.3931 6.13135 37.0074 6.13135 36.5337C6.13135 36.1021 6.48119 35.7524 6.9126 35.7524C7.344 35.7524 7.69385 36.1021 7.69385 36.5337C7.69385 37.0074 8.07932 37.3931 8.55322 37.3931C8.98463 37.3931 9.33447 37.7428 9.33447 38.1743C9.33447 38.6059 8.98463 38.9556 8.55322 38.9556C8.07932 38.9556 7.69385 39.3412 7.69385 39.8149C7.69385 40.2465 7.344 40.5962 6.9126 40.5962Z" fill="#FF6C6C"/>
<path d="M68.5596 65.9675C68.128 65.9675 67.7783 65.6178 67.7783 65.1863C67.7783 64.7125 67.3927 64.3269 66.9189 64.3269C66.4874 64.3269 66.1377 63.9772 66.1377 63.5457C66.1377 63.1141 66.4874 62.7644 66.9189 62.7644C67.3927 62.7644 67.7783 62.3788 67.7783 61.905C67.7783 61.4735 68.128 61.1238 68.5596 61.1238C68.9911 61.1238 69.3408 61.4735 69.3408 61.905C69.3408 62.3788 69.7264 62.7644 70.2002 62.7644C70.6318 62.7644 70.9814 63.1141 70.9814 63.5457C70.9814 63.9772 70.6318 64.3269 70.2002 64.3269C69.7264 64.3269 69.3408 64.7125 69.3408 65.1863C69.3408 65.6178 68.9911 65.9675 68.5596 65.9675Z" fill="#FF6C6C"/>
<path d="M13.5133 67.5752C13.3133 67.5752 13.1135 67.4989 12.9608 67.3463L11.3202 65.7056C11.015 65.4006 11.015 64.9059 11.3202 64.6009L12.9608 62.9603C13.266 62.6552 13.7605 62.6552 14.0656 62.9603L15.7063 64.6009C16.0114 64.9059 16.0114 65.4006 15.7063 65.7056L14.0656 67.3463C13.9131 67.4989 13.7133 67.5752 13.5133 67.5752ZM12.9775 65.1533L13.5133 65.6891L14.0491 65.1533L13.5133 64.6175L12.9775 65.1533Z" fill="#6C6CFF"/>
<path d="M69.3139 44.0375L64.0616 40.1699C64.2934 38.8149 64.4237 37.4238 64.4237 36.0038C64.4237 34.591 64.2933 33.1997 64.0616 31.8449L69.315 27.9764C70.0889 27.4066 70.3931 26.3969 70.0766 25.4894C68.7509 21.6883 66.722 18.2161 64.1442 15.2238C63.5176 14.4964 62.4917 14.2568 61.612 14.6411L55.6351 17.2529C53.5122 15.4777 51.0778 14.0504 48.4259 13.0796L47.7017 6.60895C47.5948 5.65457 46.8748 4.88535 45.9311 4.70691C44.0097 4.34363 42.0267 4.15332 39.9994 4.15332C37.9723 4.15332 35.9939 4.34363 34.0747 4.70676C33.1311 4.88535 32.4112 5.65441 32.3044 6.60879L31.5801 13.0796C28.9283 14.0504 26.4939 15.4705 24.3637 17.2529L18.3991 14.6414C17.5203 14.2568 16.495 14.495 15.8676 15.2208C13.2848 18.2088 11.2545 21.6808 9.92421 25.4824C9.60671 26.3897 9.91015 27.4 10.6837 27.9707L15.9372 31.845C15.7053 33.1999 15.5822 34.5838 15.5822 36.004C15.5822 37.424 15.7055 38.815 15.9372 40.17L10.6837 44.0444C9.91015 44.615 9.60671 45.6252 9.92421 46.5327C11.2539 50.3329 13.2822 53.8038 15.8547 56.7911C16.4812 57.5186 17.5072 57.7583 18.3869 57.374L20.5311 56.4371V70.855C20.5311 71.6113 21.1451 72.2238 21.8998 72.2238H58.0998C58.8545 72.2238 59.4686 71.6113 59.4686 70.855V56.4393L61.6055 57.374C62.4848 57.7585 63.5105 57.5194 64.1373 56.7929C66.7153 53.8047 68.7448 50.3322 70.0748 46.5265C70.3922 45.6183 70.0881 44.6079 69.3139 44.0375ZM39.9994 21.2555C48.1475 21.2555 54.747 27.8636 54.747 36.0032C54.747 36.0983 54.7453 36.193 54.7434 36.2877H25.2553C25.2536 36.193 25.2517 36.0983 25.2517 36.0032C25.2517 27.8635 31.8512 21.2555 39.9994 21.2555Z" fill="url(#paint1_linear_828_2)"/>
</g>
<defs>
<linearGradient id="paint0_linear_828_2" x1="16.6675" y1="64.2225" x2="63.7572" y2="17.133" gradientUnits="userSpaceOnUse">
<stop stop-color="white" stop-opacity="0"/>
<stop offset="0.2617" stop-color="#EDEDFF" stop-opacity="0.416"/>
<stop offset="0.629" stop-color="#D8D8FF"/>
</linearGradient>
<linearGradient id="paint1_linear_828_2" x1="40" y1="72.2235" x2="40" y2="4.15285" gradientUnits="userSpaceOnUse">
<stop stop-color="#FF4D4D" stop-opacity="0.4"/>
<stop offset="0.1463" stop-color="#FF4D4D" stop-opacity="0.342"/>
<stop offset="1" stop-color="#FF4D4D" stop-opacity="0"/>
</linearGradient>
<clipPath id="clip0_828_2">
<rect width="80" height="80" fill="white"/>
</clipPath>
</defs>
</svg>
