<svg width="70" height="70" viewBox="0 0 70 70" fill="none" xmlns="http://www.w3.org/2000/svg">
<path d="M56.2122 21.2122C52.1119 21.2122 48.7879 17.8883 48.7879 13.7879C48.7879 6.17299 42.6148 0 35 0C27.3852 0 21.2122 6.17299 21.2122 13.7878C21.2122 17.8881 17.8883 21.2121 13.7879 21.2121C6.17299 21.2122 0 27.3852 0 35C0 42.6148 6.17299 48.7878 13.7878 48.7878C17.8881 48.7878 21.2121 52.1117 21.2121 56.2121C21.2122 63.827 27.3852 70 35 70C42.6148 70 48.7878 63.827 48.7878 56.2122C48.7878 52.1119 52.1117 48.7879 56.2121 48.7879C63.827 48.7878 70 42.6148 70 35C70 27.3852 63.827 21.2122 56.2122 21.2122Z" fill="url(#paint0_linear_824_156)"/>
<g opacity="0.1">
<path opacity="0.1" d="M34.9998 57.3356C42.3527 57.3356 48.3133 51.3749 48.3133 44.022C48.3133 36.6692 42.3527 30.7085 34.9998 30.7085C27.647 30.7085 21.6863 36.6692 21.6863 44.022C21.6863 51.3749 27.647 57.3356 34.9998 57.3356Z" fill="#2626BC"/>
<path opacity="0.1" d="M61.754 38.5076H61.2642V37.2608C61.2642 35.2096 59.6012 33.5467 57.5501 33.5467H57.1916C57.4166 32.2605 57.5313 30.9503 57.5313 29.6368C57.5313 24.2702 55.6303 19.1133 52.1643 15.0413C51.9306 14.7668 51.5158 14.7394 51.2481 14.981L50.7986 15.3868C50.7722 15.3376 50.7416 15.29 50.7021 15.2471C46.6765 10.8563 40.9532 8.33826 34.9999 8.33826C29.0298 8.33826 23.2957 10.8684 19.2677 15.2796C19.2391 15.3109 19.2151 15.3448 19.1935 15.3794L18.7517 14.9807C18.4842 14.7392 18.0692 14.7665 17.8356 15.041C14.3698 19.1131 12.4685 24.27 12.4685 29.6366C12.4685 30.9499 12.5834 32.2602 12.8083 33.5465H12.4498C10.3986 33.5465 8.73571 35.2094 8.73571 37.2606V38.5073H8.24585C7.86837 38.5073 7.56226 38.8134 7.56226 39.1909V43.338C7.56226 43.7155 7.86837 44.0216 8.24585 44.0216H8.73571V52.3464C8.73571 54.3977 10.3986 56.0605 12.4498 56.0605H17.0758C17.8309 56.0605 18.443 55.4484 18.443 54.6933V34.9139C18.443 34.1588 17.8309 33.5467 17.0758 33.5467H16.7126C16.4408 32.2685 16.3015 30.9551 16.3015 29.6368C16.3015 25.2077 17.8617 20.9508 20.7076 17.5806C20.9303 17.3169 20.9055 16.9249 20.6492 16.6937L20.1897 16.279C20.2202 16.2554 20.2503 16.231 20.2772 16.2016C24.047 12.0733 29.4132 9.70544 34.9999 9.70544C40.5711 9.70544 45.927 12.0619 49.6943 16.1707C49.7312 16.2109 49.7725 16.2442 49.8159 16.2735L49.3505 16.6935C49.0943 16.9247 49.0694 17.3167 49.2921 17.5804C52.138 20.9507 53.6983 25.2076 53.6983 29.6367C53.6983 30.955 53.559 32.2684 53.2872 33.5466H52.9239C52.1688 33.5466 51.5567 34.1587 51.5567 34.9138V54.6936C51.5567 55.4487 52.1688 56.0608 52.9239 56.0608H54.1432V57.7957C54.1432 60.3547 52.0613 62.4364 49.5025 62.4364H43.4308C43.3872 62.4364 43.3448 62.4414 43.3034 62.4492C43.0602 61.8791 42.4947 61.4793 41.8357 61.4793H36.6165C35.7356 61.4793 35.0214 62.1934 35.0214 63.0744C35.0214 63.9554 35.7355 64.6695 36.6165 64.6695H41.8359C42.4629 64.6695 43.0037 64.3069 43.2645 63.7808C43.318 63.7944 43.3731 63.8037 43.431 63.8037H49.5027C52.8153 63.8037 55.5105 61.1085 55.5105 57.7958V56.0609H57.5501C59.6012 56.0609 61.2642 54.398 61.2642 52.3468V44.022H61.754C62.1315 44.022 62.4376 43.7159 62.4376 43.3384V39.1913C62.4376 38.8137 62.1315 38.5076 61.754 38.5076Z" fill="#2626BC"/>
</g>
<path d="M30.8342 15.6367H30.4241V15.2266C30.4241 14.8489 30.118 14.543 29.7405 14.543C29.363 14.543 29.0569 14.8489 29.0569 15.2266V15.6367H28.6467C28.2692 15.6367 27.9631 15.9427 27.9631 16.3203C27.9631 16.6979 28.2692 17.0039 28.6467 17.0039H29.0569V17.4141C29.0569 17.7917 29.363 18.0977 29.7405 18.0977C30.118 18.0977 30.4241 17.7917 30.4241 17.4141V17.0039H30.8342C31.2117 17.0039 31.5178 16.6979 31.5178 16.3203C31.5178 15.9427 31.2117 15.6367 30.8342 15.6367Z" fill="#8383FF"/>
<path d="M60.8125 15.0898H60.4023V14.6797C60.4023 14.3021 60.0962 13.9961 59.7188 13.9961C59.3413 13.9961 59.0352 14.3021 59.0352 14.6797V15.0898H58.625C58.2475 15.0898 57.9414 15.3958 57.9414 15.7734C57.9414 16.1511 58.2475 16.457 58.625 16.457H59.0352V16.8672C59.0352 17.2448 59.3413 17.5508 59.7188 17.5508C60.0962 17.5508 60.4023 17.2448 60.4023 16.8672V16.457H60.8125C61.19 16.457 61.4961 16.1511 61.4961 15.7734C61.4961 15.3958 61.19 15.0898 60.8125 15.0898Z" fill="#FF9D33"/>
<path d="M37.1579 20.1661C36.9829 20.1661 36.8081 20.0994 36.6745 19.9658L36.0642 19.3555L35.4539 19.9658C35.1869 20.2328 34.7541 20.2328 34.4871 19.9658C34.2201 19.6989 34.2201 19.2661 34.4871 18.9992L35.5809 17.9055C35.8479 17.6384 36.2806 17.6384 36.5476 17.9055L37.6414 18.9992C37.9084 19.2661 37.9084 19.6989 37.6414 19.9658C37.5078 20.0994 37.3329 20.1661 37.1579 20.1661Z" fill="#FF6C6C"/>
<path d="M57.5556 9.02182C57.3806 9.02182 57.2058 8.9551 57.0722 8.82152L56.4619 8.21121L55.8516 8.82152C55.5846 9.08854 55.1518 9.08854 54.8848 8.82152C54.6178 8.55465 54.6178 8.1218 54.8848 7.85492L55.9786 6.76117C56.2456 6.49416 56.6783 6.49416 56.9453 6.76117L58.0391 7.85492C58.3061 8.1218 58.3061 8.55465 58.0391 8.82152C57.9055 8.9551 57.7306 9.02182 57.5556 9.02182Z" fill="#FF6C6C"/>
<path d="M18.8515 60.6136C18.6765 60.6136 18.5017 60.5469 18.3681 60.4133L17.7578 59.803L17.1475 60.4133C16.8805 60.6803 16.4477 60.6803 16.1807 60.4133C15.9137 60.1464 15.9137 59.7136 16.1807 59.4467L17.2745 58.353C17.5415 58.086 17.9742 58.086 18.2412 58.353L19.335 59.4467C19.602 59.7136 19.602 60.1464 19.335 60.4133C19.2014 60.5468 19.0265 60.6136 18.8515 60.6136Z" fill="#FF9D33"/>
<path d="M34.9998 53.6439C42.3527 53.6439 48.3133 47.6832 48.3133 40.3304C48.3133 32.9775 42.3527 27.0168 34.9998 27.0168C27.647 27.0168 21.6863 32.9775 21.6863 40.3304C21.6863 47.6832 27.647 53.6439 34.9998 53.6439Z" fill="#FFC599"/>
<path d="M34.9999 50.8056C40.7852 50.8056 45.4752 46.1157 45.4752 40.3304C45.4752 34.545 40.7852 29.8551 34.9999 29.8551C29.2146 29.8551 24.5247 34.545 24.5247 40.3304C24.5247 46.1157 29.2146 50.8056 34.9999 50.8056Z" fill="#FF7300"/>
<path d="M34.9999 47.3567C31.1255 47.3567 27.9736 44.2047 27.9736 40.3303C27.9736 36.456 31.1255 33.3041 34.9999 33.3041C38.8742 33.3041 42.0261 36.456 42.0261 40.3303C42.0261 44.2047 38.8742 47.3567 34.9999 47.3567ZM34.9999 34.6714C31.8794 34.6714 29.3408 37.21 29.3408 40.3305C29.3408 43.4509 31.8794 45.9897 34.9999 45.9897C38.1204 45.9897 40.6589 43.4511 40.6589 40.3305C40.6589 37.21 38.1204 34.6714 34.9999 34.6714Z" fill="white"/>
<path d="M35 47.3567C32.7533 47.3567 31.541 43.7365 31.541 40.3303C31.541 36.9243 32.7533 33.3041 35 33.3041C37.2467 33.3041 38.459 36.9243 38.459 40.3303C38.459 43.7365 37.2467 47.3567 35 47.3567ZM35 34.6714C34.1471 34.6714 32.9082 36.8759 32.9082 40.3305C32.9082 41.9325 33.1766 43.4278 33.6637 44.5414C34.0546 45.4347 34.5666 45.9897 35 45.9897C35.8529 45.9897 37.0918 43.7851 37.0918 40.3305C37.0918 38.7285 36.8234 37.2331 36.3363 36.1197C35.9454 35.2262 35.4334 34.6714 35 34.6714Z" fill="white"/>
<path d="M34.9998 39.0135C32.7628 39.0135 30.6578 38.515 29.3686 37.6799C29.0517 37.4747 28.9614 37.0514 29.1666 36.7345C29.3718 36.4179 29.7952 36.3275 30.112 36.5324C31.1886 37.2298 33.0159 37.6461 34.9998 37.6461C36.9822 37.6461 38.8691 37.2103 39.924 36.5085C40.2382 36.2995 40.6626 36.3848 40.8719 36.6991C41.0809 37.0135 40.9956 37.4378 40.6813 37.647C39.3949 38.5027 37.271 39.0135 34.9998 39.0135Z" fill="white"/>
<path d="M29.6821 44.2771C29.4621 44.2771 29.246 44.171 29.114 43.9746C28.9035 43.6612 28.9869 43.2366 29.3002 43.026C30.5854 42.1628 32.7162 41.6472 34.9999 41.6472C37.2366 41.6472 39.3417 42.1457 40.631 42.9808C40.9479 43.186 41.0384 43.6093 40.8332 43.926C40.6279 44.2428 40.2048 44.3339 39.8877 44.1283C38.8108 43.4309 36.9836 43.0145 34.9999 43.0145C33.0072 43.0145 31.1153 43.4538 30.0626 44.1611C29.9457 44.2395 29.8131 44.2771 29.6821 44.2771Z" fill="white"/>
<path d="M17.0757 52.3692H12.4497C10.3985 52.3692 8.7356 50.7063 8.7356 48.6551V33.5693C8.7356 31.5181 10.3985 29.8552 12.4497 29.8552H17.0757C17.8308 29.8552 18.4429 30.4673 18.4429 31.2224V51.0022C18.4429 51.7572 17.8308 52.3692 17.0757 52.3692Z" fill="#8383FF"/>
<path d="M17.0759 29.8552H15.1731V52.3694H17.0759C17.831 52.3694 18.4431 51.7573 18.4431 51.0022V31.2224C18.4431 30.4673 17.831 29.8552 17.0759 29.8552Z" fill="#B3B3FF"/>
<path d="M15.1729 49.3938C16.0759 49.3938 16.8079 48.6618 16.8079 47.7588C16.8079 46.8558 16.0759 46.1238 15.1729 46.1238C14.2699 46.1238 13.5378 46.8558 13.5378 47.7588C13.5378 48.6618 14.2699 49.3938 15.1729 49.3938Z" fill="#FFC599"/>
<path d="M10.0232 40.3303H8.24585C7.86837 40.3303 7.56226 40.0242 7.56226 39.6467V35.4996C7.56226 35.1222 7.86837 34.816 8.24585 34.816H10.0232C10.4007 34.816 10.7068 35.1222 10.7068 35.4996V39.6467C10.7068 40.0243 10.4008 40.3303 10.0232 40.3303Z" fill="#FF6C6C"/>
<path d="M52.9241 52.3692H57.5501C59.6013 52.3692 61.2642 50.7063 61.2642 48.6551V33.5693C61.2642 31.5181 59.6013 29.8552 57.5501 29.8552H52.9241C52.169 29.8552 51.5569 30.4673 51.5569 31.2224V51.0022C51.5569 51.7572 52.169 52.3692 52.9241 52.3692Z" fill="#8383FF"/>
<path d="M52.9241 29.8552H54.8269V52.3694H52.9241C52.169 52.3694 51.5569 51.7573 51.5569 51.0022V31.2224C51.5569 30.4673 52.169 29.8552 52.9241 29.8552Z" fill="#B3B3FF"/>
<path d="M54.8269 49.3938C55.7299 49.3938 56.4619 48.6618 56.4619 47.7588C56.4619 46.8558 55.7299 46.1238 54.8269 46.1238C53.9239 46.1238 53.1919 46.8558 53.1919 47.7588C53.1919 48.6618 53.9239 49.3938 54.8269 49.3938Z" fill="#FFC599"/>
<path d="M59.9768 40.3303H61.7542C62.1316 40.3303 62.4377 40.0242 62.4377 39.6467V35.4996C62.4377 35.1222 62.1316 34.816 61.7542 34.816H59.9768C59.5993 34.816 59.2932 35.1222 59.2932 35.4996V39.6467C59.2932 40.0243 59.5992 40.3303 59.9768 40.3303Z" fill="#FF6C6C"/>
<path d="M53.2873 29.8553H57.1916C57.4167 28.569 57.5314 27.2587 57.5314 25.9454C57.5314 20.5788 55.6303 15.4219 52.1643 11.3498C51.9307 11.0753 51.5159 11.048 51.2482 11.2895L49.3505 13.0022C49.0943 13.2335 49.0694 13.6254 49.2921 13.8891C52.1381 17.2594 53.6983 21.5162 53.6983 25.9454C53.6985 27.2636 53.559 28.5771 53.2873 29.8553Z" fill="#FF6C6C"/>
<path d="M16.7127 29.8553C16.441 28.5771 16.3016 27.2636 16.3016 25.9454C16.3016 21.5162 17.8618 17.2592 20.7077 13.8891C20.9304 13.6254 20.9056 13.2334 20.6493 13.0022L18.7517 11.2895C18.484 11.048 18.0692 11.0753 17.8355 11.3498C14.3697 15.4219 12.4685 20.5788 12.4685 25.9454C12.4685 27.2587 12.5833 28.569 12.8083 29.8553H16.7127Z" fill="#FF6C6C"/>
<path d="M36.6166 60.9783H41.8358C42.7167 60.9783 43.4309 60.2642 43.4309 59.3832C43.4309 58.5023 42.7168 57.7881 41.8358 57.7881H36.6166C35.7357 57.7881 35.0215 58.5022 35.0215 59.3832C35.0216 60.2641 35.7357 60.9783 36.6166 60.9783Z" fill="#8383FF"/>
<path d="M48.9969 40.3305C48.9969 32.6125 42.7179 26.3334 34.9998 26.3334C27.2818 26.3334 21.0027 32.6125 21.0027 40.3305C21.0027 48.0486 27.2818 54.3278 34.9998 54.3278C42.7179 54.3278 48.9969 48.0486 48.9969 40.3305ZM22.3699 40.3305C22.3699 33.3663 28.0356 27.7006 34.9998 27.7006C41.964 27.7006 47.6298 33.3663 47.6298 40.3305C47.6298 47.2947 41.964 52.9606 34.9998 52.9606C28.0356 52.9606 22.3699 47.2948 22.3699 40.3305Z" fill="#2626BC"/>
<path d="M61.9477 34.148V33.5696C61.9477 31.2918 60.2072 29.4133 57.9863 29.1935C58.1373 28.1174 58.2149 27.0284 58.2149 25.9454C58.2149 20.4375 56.2509 15.0965 52.6849 10.9068C52.4511 10.6321 52.1238 10.4678 51.7638 10.4441C51.4033 10.4197 51.058 10.5404 50.7903 10.7821L50.3491 11.1804C46.3455 7.02207 40.7814 4.64685 34.9999 4.64685C29.2166 4.64685 23.6546 7.02111 19.6507 11.18L19.2097 10.782C18.9419 10.5402 18.5959 10.4201 18.2362 10.444C17.876 10.4677 17.5489 10.632 17.315 10.9067C13.7489 15.0965 11.785 20.4373 11.785 25.9453C11.785 27.0281 11.8626 28.1172 12.0135 29.1933C9.79269 29.4132 8.05212 31.2917 8.05212 33.5694V34.1479C7.38999 34.2425 6.87866 34.8118 6.87866 35.4998V39.6468C6.87866 40.3347 7.38985 40.9041 8.05212 40.9987V48.6554C8.05212 51.0802 10.025 53.0531 12.4498 53.0531H17.0758C18.2066 53.0531 19.1266 52.1331 19.1266 51.0023V39.9631C19.1266 39.5855 18.8205 39.2795 18.443 39.2795C18.0655 39.2795 17.7594 39.5855 17.7594 39.9631V51.0023C17.7594 51.3792 17.4528 51.6859 17.0758 51.6859H12.4498C10.7787 51.6859 9.41931 50.3265 9.41931 48.6554V41.014H10.0232C10.7771 41.014 11.3904 40.4007 11.3904 39.6468V35.4998C11.3904 34.7459 10.7771 34.1326 10.0232 34.1326H9.41931V33.5694C9.41931 31.8983 10.7788 30.5388 12.4498 30.5388H12.8068C12.8073 30.5388 12.8077 30.5389 12.8083 30.5389H16.7126C16.7134 30.5389 16.7142 30.5388 16.7149 30.5388H17.0758C17.4528 30.5388 17.7594 30.8454 17.7594 31.2224V35.7792C17.7594 36.1568 18.0655 36.4628 18.443 36.4628C18.8205 36.4628 19.1266 36.1568 19.1266 35.7792V31.2224C19.1266 30.1595 18.3138 29.2834 17.2774 29.1818C17.0838 28.1146 16.985 27.0285 16.985 25.9454C16.985 21.6969 18.4925 17.5718 21.2299 14.3304C21.6935 13.7813 21.6396 12.9752 21.1073 12.4948L20.6663 12.0968C24.4113 8.22451 29.6025 6.01404 34.9999 6.01404C40.3957 6.01404 45.5895 8.22451 49.3338 12.0965L48.8926 12.4948C48.3602 12.9752 48.3064 13.7813 48.7698 14.3302C51.5072 17.5718 53.0148 21.6969 53.0148 25.9454C53.0148 27.0285 52.9161 28.1146 52.7225 29.1818C51.6859 29.2834 50.8733 30.1595 50.8733 31.2224V35.7792C50.8733 36.1568 51.1794 36.4628 51.5568 36.4628C51.9343 36.4628 52.2404 36.1568 52.2404 35.7792V31.2224C52.2404 30.8454 52.5471 30.5388 52.924 30.5388H53.285C53.2858 30.5388 53.2866 30.5389 53.2873 30.5389H57.1916C57.1921 30.5389 57.1925 30.5388 57.1931 30.5388H57.55C59.2212 30.5388 60.5807 31.8983 60.5807 33.5694V34.1326H59.9768C59.2229 34.1326 58.6096 34.7459 58.6096 35.4998V39.6468C58.6096 40.4007 59.2229 41.014 59.9768 41.014H60.5807V48.6554C60.5807 50.3265 59.2212 51.6859 57.55 51.6859H54.8283C54.8278 51.6859 54.8274 51.6858 54.8269 51.6858C54.8263 51.6858 54.8261 51.6859 54.8255 51.6859H52.9239C52.547 51.6859 52.2403 51.3792 52.2403 51.0023V39.9631C52.2403 39.5855 51.9342 39.2795 51.5567 39.2795C51.1792 39.2795 50.8731 39.5855 50.8731 39.9631V51.0023C50.8731 52.1331 51.7931 53.0531 52.9239 53.0531H54.1432V54.1043C54.1432 56.6633 52.0613 58.7449 49.5025 58.7449H44.0217C43.7449 57.7983 42.8706 57.1043 41.8357 57.1043H36.6165C35.36 57.1043 34.3378 58.1266 34.3378 59.383C34.3378 60.6395 35.36 61.6617 36.6165 61.6617H41.8359C42.8371 61.6617 43.6877 61.0117 43.9927 60.1121H49.5026C52.8153 60.1121 55.5105 57.417 55.5105 54.1043V53.0531H57.5499C59.9749 53.0531 61.9477 51.0802 61.9477 48.6554V40.9987C62.6099 40.9041 63.1212 40.3348 63.1212 39.6468V35.4998C63.1212 34.8119 62.6099 34.2426 61.9477 34.148ZM10.0242 39.6468H8.24585V35.4998H10.0232L10.0242 39.6468ZM15.6179 25.9453C15.6179 27.0242 15.7082 28.106 15.8869 29.1716H13.3903C13.2321 28.1038 13.1521 27.0211 13.1521 25.9453C13.1521 20.7765 14.9895 15.7645 18.3271 11.8269L20.1586 13.48C17.2302 16.9632 15.6179 21.3882 15.6179 25.9453ZM49.8413 13.4801L51.6728 11.827C55.0104 15.7648 56.8477 20.7767 56.8477 25.9454C56.8477 27.0213 56.7676 28.1038 56.6096 29.1717H54.1129C54.2916 28.1061 54.382 27.0244 54.382 25.9454C54.382 21.3882 52.7698 16.9632 49.8413 13.4801ZM41.8359 60.2947H36.6166C36.1141 60.2947 35.7051 59.8857 35.7051 59.3832C35.7051 58.8806 36.1141 58.4716 36.6166 58.4716H41.8359C42.3384 58.4716 42.7474 58.8806 42.7474 59.3832C42.7474 59.8857 42.3384 60.2947 41.8359 60.2947ZM59.9767 35.4998H61.754V39.6468H59.9767V35.4998Z" fill="#2626BC"/>
<defs>
<linearGradient id="paint0_linear_824_156" x1="59.7577" y1="10.2423" x2="-0.546875" y2="70.5469" gradientUnits="userSpaceOnUse">
<stop stop-color="#104CBA" stop-opacity="0"/>
<stop offset="0.9981" stop-color="#104CBA"/>
</linearGradient>
</defs>
</svg>
