<svg width="74" height="75" viewBox="0 0 74 75" fill="none" xmlns="http://www.w3.org/2000/svg">
<g clip-path="url(#clip0_939_387)" filter="url(#filter0_f_939_387)">
<path d="M35.6189 40.9347C45.4051 43.557 54.3672 41.8431 55.6363 37.1068C56.9053 32.3705 50.0008 26.4053 40.2146 23.7831C30.4284 21.1609 21.4663 22.8747 20.1972 27.611C18.9281 32.3473 25.8326 38.3125 35.6189 40.9347Z" fill="url(#paint0_linear_939_387)"/>
<path d="M35.619 40.9349C44.6346 43.3506 53.2387 40.4736 54.837 34.509C56.4352 28.5443 50.4222 21.7507 41.4067 19.335C32.3911 16.9193 23.7869 19.7962 22.1887 25.7609C20.5905 31.7256 26.6034 38.5192 35.619 40.9349Z" fill="url(#paint1_linear_939_387)"/>
<path d="M36.2122 37.8478C30.3604 36.2798 26.8877 30.265 28.4557 24.4132L30.5706 16.5203C32.1386 10.6686 38.1534 7.19588 44.0052 8.76387C49.8569 10.3318 53.3296 16.3468 51.7617 22.1985L49.6467 30.0914C48.0788 35.9431 42.064 39.4158 36.2122 37.8478Z" fill="url(#paint2_linear_939_387)"/>
<path d="M38.6379 31.202L37.434 30.8795C36.4692 30.621 35.9418 29.5827 36.3021 28.6513L38.4993 22.9691L41.6706 23.8188L40.7323 29.8384C40.5785 30.8251 39.6027 31.4606 38.6379 31.202Z" fill="url(#paint3_linear_939_387)"/>
<path d="M54.6573 36.408C54.6529 36.4337 54.6494 36.4594 54.6446 36.4849C57.9195 22.909 53.4873 10.1715 44.5068 7.76517C35.5264 5.35886 25.3192 14.1738 21.3674 27.5683C21.3759 27.5438 21.3859 27.5198 21.3949 27.4954C21.3464 27.6274 21.303 27.7615 21.2663 27.8983C19.9972 32.6347 26.4231 38.4716 35.6188 40.9356C44.8146 43.3996 53.298 41.5576 54.5671 36.8213C54.6038 36.6844 54.6333 36.5467 54.6573 36.408Z" fill="url(#paint4_linear_939_387)"/>
<path d="M7.5326 54.0854L7.1292 55.5909C6.94255 56.2875 7.07704 57.031 7.49583 57.6181L8.94749 59.6533C9.34589 60.2119 9.92631 60.6144 10.5891 60.792L47.3673 70.6467C48.03 70.8243 48.734 70.7658 49.3583 70.4813L51.6331 69.4447C52.2893 69.1456 52.7776 68.5689 52.9642 67.8723L53.3676 66.3668C53.6616 65.2695 53.0105 64.1418 51.9132 63.8477L10.0517 52.631C8.95439 52.337 7.82661 52.9881 7.5326 54.0854Z" fill="url(#paint5_linear_939_387)"/>
<path d="M7.07715 55.8359C6.97804 56.4586 7.12561 57.0992 7.49564 57.6178L8.9473 59.653C9.34571 60.2116 9.92613 60.6141 10.5889 60.7917L47.3671 70.6464C48.0299 70.824 48.7338 70.7655 49.3581 70.481L51.6329 69.4443C52.2125 69.1802 52.6608 68.6991 52.8862 68.1104L7.07715 55.8359Z" fill="url(#paint6_linear_939_387)"/>
<path d="M49.14 66.4635L11.145 56.2828C9.67488 55.8889 8.80247 54.3778 9.1964 52.9077L14.6974 32.3777C15.0913 30.9075 16.6024 30.0351 18.0725 30.4291L56.0676 40.6098C57.5377 41.0037 58.4101 42.5148 58.0162 43.9849L52.5152 64.5149C52.1212 65.9849 50.6101 66.8575 49.14 66.4635Z" fill="url(#paint7_linear_939_387)"/>
<path d="M32.5203 52.4981C34.7584 53.0978 37.0588 51.7697 37.6585 49.5316C38.2582 47.2936 36.93 44.9931 34.692 44.3934C32.4539 43.7938 30.1535 45.1219 29.5538 47.36C28.9541 49.598 30.2823 51.8984 32.5203 52.4981Z" fill="url(#paint8_linear_939_387)"/>
<path d="M11.0269 46.0771L9.17365 52.9934C8.79239 54.4163 9.71457 55.8997 11.2335 56.3067L49.0518 66.4401C50.5707 66.8471 52.1111 66.0236 52.4924 64.6006L54.3456 57.6844L11.0269 46.0771Z" fill="url(#paint9_linear_939_387)"/>
<path d="M19.7526 59.8852L16.6071 59.0424C16.0363 58.8895 15.6976 58.3027 15.8505 57.7319L15.9589 57.3275C16.1119 56.7567 16.6986 56.4179 17.2694 56.5709L20.4149 57.4137C20.9857 57.5667 21.3244 58.1534 21.1715 58.7242L21.0631 59.1286C20.9102 59.6994 20.3235 60.0382 19.7526 59.8852Z" fill="url(#paint10_linear_939_387)"/>
<path d="M43.0295 66.1225L39.884 65.2797C39.3132 65.1268 38.9744 64.54 39.1274 63.9692L39.2358 63.5648C39.3887 62.994 39.9754 62.6552 40.5462 62.8082L43.6917 63.651C44.2626 63.804 44.6013 64.3907 44.4483 64.9615L44.34 65.3659C44.187 65.9367 43.6004 66.2755 43.0295 66.1225Z" fill="url(#paint11_linear_939_387)"/>
<path d="M55.7128 36.7711C56.5781 32.0921 49.7705 26.3443 40.2145 23.7837C30.6585 21.2232 21.8891 22.7972 20.299 27.282C24.2724 13.8932 34.9496 5.20424 44.5067 7.76506C54.0638 10.3259 58.966 23.1893 55.7128 36.7711Z" fill="url(#paint12_linear_939_387)"/>
</g>
<defs>
<filter id="filter0_f_939_387" x="-4" y="-4" width="81.4849" height="81.4844" filterUnits="userSpaceOnUse" color-interpolation-filters="sRGB">
<feFlood flood-opacity="0" result="BackgroundImageFix"/>
<feBlend mode="normal" in="SourceGraphic" in2="BackgroundImageFix" result="shape"/>
<feGaussianBlur stdDeviation="2" result="effect1_foregroundBlur_939_387"/>
</filter>
<linearGradient id="paint0_linear_939_387" x1="36.2642" y1="38.5263" x2="43.4442" y2="11.73" gradientUnits="userSpaceOnUse">
<stop stop-color="#0B799D"/>
<stop offset="1" stop-color="#07485E"/>
</linearGradient>
<linearGradient id="paint1_linear_939_387" x1="37.4167" y1="34.2256" x2="40.1211" y2="24.1327" gradientUnits="userSpaceOnUse">
<stop stop-color="#07485E" stop-opacity="0"/>
<stop offset="1" stop-color="#03232E"/>
</linearGradient>
<linearGradient id="paint2_linear_939_387" x1="37.5824" y1="32.7342" x2="40.5595" y2="21.6234" gradientUnits="userSpaceOnUse">
<stop stop-color="#FFDECF"/>
<stop offset="1" stop-color="#FAA68E"/>
</linearGradient>
<linearGradient id="paint3_linear_939_387" x1="39.7334" y1="24.7058" x2="35.7983" y2="39.3916" gradientUnits="userSpaceOnUse">
<stop stop-color="#FAA68E" stop-opacity="0"/>
<stop offset="1" stop-color="#C9766E"/>
</linearGradient>
<linearGradient id="paint4_linear_939_387" x1="41.1947" y1="20.1263" x2="36.1702" y2="38.8779" gradientUnits="userSpaceOnUse">
<stop stop-color="#07485E" stop-opacity="0"/>
<stop offset="0.1225" stop-color="#0D5066" stop-opacity="0.123"/>
<stop offset="0.3102" stop-color="#1C657B" stop-opacity="0.31"/>
<stop offset="0.5394" stop-color="#35889E" stop-opacity="0.539"/>
<stop offset="0.799" stop-color="#58B8CE" stop-opacity="0.799"/>
<stop offset="1" stop-color="#76E2F8"/>
</linearGradient>
<linearGradient id="paint5_linear_939_387" x1="30.7903" y1="58.9565" x2="28.3103" y2="68.212" gradientUnits="userSpaceOnUse">
<stop stop-color="#B5DBFF"/>
<stop offset="1" stop-color="#48B2E3"/>
</linearGradient>
<linearGradient id="paint6_linear_939_387" x1="29.9867" y1="60.1348" x2="29.8554" y2="73.4644" gradientUnits="userSpaceOnUse">
<stop stop-color="#B5DBFF" stop-opacity="0"/>
<stop offset="0.1734" stop-color="#8FC5E9" stop-opacity="0.173"/>
<stop offset="0.4541" stop-color="#56A4C8" stop-opacity="0.454"/>
<stop offset="0.6955" stop-color="#2D8DB1" stop-opacity="0.696"/>
<stop offset="0.8853" stop-color="#147EA2" stop-opacity="0.885"/>
<stop offset="1" stop-color="#0B799D"/>
</linearGradient>
<linearGradient id="paint7_linear_939_387" x1="27.5401" y1="37.9394" x2="47.3742" y2="72.293" gradientUnits="userSpaceOnUse">
<stop stop-color="#B5DBFF"/>
<stop offset="1" stop-color="#48B2E3"/>
</linearGradient>
<linearGradient id="paint8_linear_939_387" x1="32.8225" y1="47.0886" x2="35.8703" y2="52.3675" gradientUnits="userSpaceOnUse">
<stop stop-color="#EDF5FF"/>
<stop offset="1" stop-color="#D5E8FE"/>
</linearGradient>
<linearGradient id="paint9_linear_939_387" x1="31.7092" y1="55.527" x2="29.7586" y2="62.8066" gradientUnits="userSpaceOnUse">
<stop stop-color="#B5DBFF" stop-opacity="0"/>
<stop offset="0.1734" stop-color="#8FC5E9" stop-opacity="0.173"/>
<stop offset="0.4541" stop-color="#56A4C8" stop-opacity="0.454"/>
<stop offset="0.6955" stop-color="#2D8DB1" stop-opacity="0.696"/>
<stop offset="0.8853" stop-color="#147EA2" stop-opacity="0.885"/>
<stop offset="1" stop-color="#0B799D"/>
</linearGradient>
<linearGradient id="paint10_linear_939_387" x1="18.5878" y1="57.9416" x2="18.0799" y2="59.837" gradientUnits="userSpaceOnUse">
<stop stop-color="#B5DBFF"/>
<stop offset="1" stop-color="#48B2E3"/>
</linearGradient>
<linearGradient id="paint11_linear_939_387" x1="41.8646" y1="64.1789" x2="41.3568" y2="66.0743" gradientUnits="userSpaceOnUse">
<stop stop-color="#B5DBFF"/>
<stop offset="1" stop-color="#48B2E3"/>
</linearGradient>
<linearGradient id="paint12_linear_939_387" x1="35.2659" y1="18.3815" x2="49.5498" y2="43.122" gradientUnits="userSpaceOnUse">
<stop stop-color="#0B799D"/>
<stop offset="1" stop-color="#07485E"/>
</linearGradient>
<clipPath id="clip0_939_387">
<rect width="60" height="60" fill="white" transform="translate(15.5293) rotate(15)"/>
</clipPath>
</defs>
</svg>
