<svg width="70" height="70" viewBox="0 0 70 70" fill="none" xmlns="http://www.w3.org/2000/svg">
<g clip-path="url(#clip0_824_204)">
<path d="M69.1938 30.0977C66.4445 23.5015 58.2184 22.9394 52.4505 19.8685C50.1479 18.6427 50.8915 16.519 51.9463 14.6094C55.7456 7.73145 47.9893 0.885259 40.9342 0.290806C18.7871 -1.57527 25.445 17.3281 15.7983 21.3104C11.0085 23.2876 4.6281 24.2583 1.8106 28.8004C-2.79832 36.2303 1.83904 47.103 10.667 50.0511C19.6719 53.0584 28.4515 46.2007 28.3313 53.5505C28.2636 57.6861 21.2013 61.3091 24.1185 65.4041C27.408 70.0219 48.1997 73.1921 47.7017 63.5666C47.4078 57.883 39.0271 56.0961 45.1298 50.5906C48.2877 47.7416 53.0294 48.9016 56.9547 48.3827C65.0983 47.3066 72.4979 38.0249 69.1938 30.0977Z" fill="url(#paint0_linear_824_204)"/>
<path d="M55.6447 53.6582H31.0977C30.3426 53.6582 29.7305 53.0461 29.7305 52.291V9.59155C29.7305 8.83646 30.3426 8.22437 31.0977 8.22437H55.6446C56.3997 8.22437 57.0117 8.83646 57.0117 9.59155V52.291C57.0119 53.0461 56.3997 53.6582 55.6447 53.6582Z" fill="#FFC498"/>
<path d="M38.2898 11.2729C38.3372 10.8598 38.6879 10.549 39.1035 10.549H54.0045C54.3818 10.549 54.6881 10.8538 54.6881 11.2325V44.2843C54.6881 44.6999 54.3771 45.0506 53.9642 45.0981C51.0757 45.4297 48.7843 47.722 48.4528 50.6095C48.4053 51.0225 48.0546 51.3334 47.639 51.3334H32.738C32.3606 51.3334 32.0544 51.0273 32.0544 50.6498V17.5967C32.0544 17.1809 32.3655 16.8302 32.7785 16.7829C35.6667 16.4515 37.9581 14.1602 38.2898 11.2729Z" fill="white"/>
<path d="M51.7671 13.9458C52.1446 13.9458 52.4507 13.6397 52.4507 13.2622C52.4507 12.8847 52.1446 12.5786 51.7671 12.5786C51.3896 12.5786 51.0835 12.8847 51.0835 13.2622C51.0835 13.6397 51.3896 13.9458 51.7671 13.9458Z" fill="#8282FF"/>
<path d="M51.0835 19.5429V15.7772C51.0835 15.3996 51.3896 15.0936 51.7671 15.0936C52.1446 15.0936 52.4507 15.3996 52.4507 15.7772V19.5429C52.4507 19.9205 52.1446 20.2265 51.7671 20.2265C51.3896 20.2265 51.0835 19.9205 51.0835 19.5429Z" fill="#8282FF"/>
<path d="M49.8835 13.2493V16.9636C49.8835 17.3411 49.5774 17.6472 49.1999 17.6472H48.3345C47.957 17.6472 47.6509 17.3411 47.6509 16.9636V13.2493C47.6509 12.8718 47.957 12.5657 48.3345 12.5657H49.1999C49.5774 12.5657 49.8835 12.8718 49.8835 13.2493Z" fill="#FF6C6C"/>
<path d="M44.3278 49.9199H19.7808C19.0257 49.9199 18.4136 49.3078 18.4136 48.5527V5.85315C18.4136 5.09805 19.0257 4.48596 19.7808 4.48596H44.3277C45.0828 4.48596 45.6948 5.09805 45.6948 5.85315V48.5526C45.695 49.3077 45.0828 49.9199 44.3278 49.9199Z" fill="#FFC498"/>
<path d="M26.9729 7.5346C27.0203 7.12157 27.371 6.81067 27.7866 6.81067H42.6876C43.065 6.81067 43.3712 7.11555 43.3712 7.49426V40.546C43.3712 40.9616 43.0602 41.3123 42.6473 41.3598C39.7588 41.6914 37.4674 43.9837 37.1359 46.8712C37.0884 47.2842 36.7377 47.5951 36.3221 47.5951H21.4211C21.0437 47.5951 20.7375 47.289 20.7375 46.9115V13.8584C20.7375 13.4426 21.0486 13.0919 21.4616 13.0446C24.3498 12.7131 26.6412 10.422 26.9729 7.5346Z" fill="white"/>
<path d="M32.0542 33.7727C36.5224 33.7727 40.1445 30.8313 40.1445 27.2028C40.1445 23.5744 36.5224 20.6329 32.0542 20.6329C27.586 20.6329 23.9639 23.5744 23.9639 27.2028C23.9639 30.8313 27.586 33.7727 32.0542 33.7727Z" fill="#FFC498"/>
<path d="M32.0542 32.4055C35.7673 32.4055 38.7773 30.0762 38.7773 27.2028C38.7773 24.3294 35.7673 22.0001 32.0542 22.0001C28.3411 22.0001 25.3311 24.3294 25.3311 27.2028C25.3311 30.0762 28.3411 32.4055 32.0542 32.4055Z" fill="#FFAA66"/>
<path d="M23.6584 45.5656C24.036 45.5656 24.342 45.2595 24.342 44.882C24.342 44.5044 24.036 44.1984 23.6584 44.1984C23.2809 44.1984 22.9749 44.5044 22.9749 44.882C22.9749 45.2595 23.2809 45.5656 23.6584 45.5656Z" fill="#8282FF"/>
<path d="M24.342 38.6013V42.367C24.342 42.7446 24.0359 43.0506 23.6584 43.0506C23.281 43.0506 22.9749 42.7446 22.9749 42.367V38.6013C22.9749 38.2237 23.281 37.9177 23.6584 37.9177C24.0359 37.9177 24.342 38.2238 24.342 38.6013Z" fill="#8282FF"/>
<path d="M40.4502 10.2074C40.8277 10.2074 41.1338 9.90134 41.1338 9.5238C41.1338 9.14627 40.8277 8.84021 40.4502 8.84021C40.0727 8.84021 39.7666 9.14627 39.7666 9.5238C39.7666 9.90134 40.0727 10.2074 40.4502 10.2074Z" fill="#8282FF"/>
<path d="M39.7666 15.8047V12.0391C39.7666 11.6614 40.0727 11.3555 40.4502 11.3555C40.8277 11.3555 41.1338 11.6614 41.1338 12.0391V15.8047C41.1338 16.1823 40.8277 16.4883 40.4502 16.4883C40.0727 16.4883 39.7666 16.1822 39.7666 15.8047Z" fill="#8282FF"/>
<path d="M41.4085 47.5953C42.4925 47.5953 43.3713 46.7165 43.3713 45.6325C43.3713 44.5485 42.4925 43.6698 41.4085 43.6698C40.3245 43.6698 39.4458 44.5485 39.4458 45.6325C39.4458 46.7165 40.3245 47.5953 41.4085 47.5953Z" fill="white"/>
<path d="M22.7 10.736C23.784 10.736 24.6628 9.85727 24.6628 8.77328C24.6628 7.68929 23.784 6.81055 22.7 6.81055C21.6161 6.81055 20.7373 7.68929 20.7373 8.77328C20.7373 9.85727 21.6161 10.736 22.7 10.736Z" fill="white"/>
<path d="M32.3643 41.3044C33.8744 41.3044 35.0986 40.0802 35.0986 38.5701C35.0986 37.0599 33.8744 35.8357 32.3643 35.8357C30.8541 35.8357 29.6299 37.0599 29.6299 38.5701C29.6299 40.0802 30.8541 41.3044 32.3643 41.3044Z" fill="#FFAA66"/>
<path d="M32.3643 18.5702C33.8744 18.5702 35.0986 17.346 35.0986 15.8358C35.0986 14.3257 33.8744 13.1014 32.3643 13.1014C30.8541 13.1014 29.6299 14.3257 29.6299 15.8358C29.6299 17.346 30.8541 18.5702 32.3643 18.5702Z" fill="#FFAA66"/>
<path d="M27.7746 41.1805V44.8949C27.7746 45.2724 27.4685 45.5785 27.091 45.5785H26.2256C25.8481 45.5785 25.542 45.2724 25.542 44.8949V41.1805C25.542 40.8031 25.8481 40.4969 26.2256 40.4969H27.091C27.4686 40.4969 27.7746 40.8029 27.7746 41.1805Z" fill="#FF6C6C"/>
<path d="M38.5666 9.51111V13.2255C38.5666 13.603 38.2605 13.9091 37.883 13.9091H37.0176C36.6401 13.9091 36.334 13.603 36.334 13.2255V9.51111C36.334 9.13363 36.6401 8.82751 37.0176 8.82751H37.883C38.2605 8.82751 38.5666 9.13349 38.5666 9.51111Z" fill="#FF6C6C"/>
<path opacity="0.1" d="M60.771 39.1528H60.6721V27.7498C60.6721 26.2404 59.4471 25.0154 57.9377 25.0154H17.4881C15.9787 25.0154 14.7537 26.2404 14.7537 27.7498V51.0309C10.0104 51.2173 6.22168 55.1196 6.22168 59.9086C6.22168 64.8165 10.2003 68.7953 15.1084 68.7953C17.9102 68.7953 20.4075 67.4975 22.0363 65.4717C23.3 66.1623 24.7495 66.555 26.291 66.555C29.3293 66.555 32.0103 65.0294 33.6129 62.7033H57.9377C59.4471 62.7033 60.6721 61.4796 60.6721 59.9689V48.5667H60.771C61.526 48.5667 62.1381 47.9546 62.1381 47.1995V40.52C62.1381 39.7649 61.526 39.1528 60.771 39.1528Z" fill="#0000CB"/>
<path d="M35.178 57.6678C35.178 58.268 35.1178 58.8546 35.0043 59.4219H17.5782C17.4647 58.8546 17.4045 58.268 17.4045 57.6678C17.4045 52.7596 21.3831 48.7811 26.2913 48.7811C31.1995 48.7811 35.178 52.7598 35.178 57.6678Z" fill="#FF8A00"/>
<path d="M60.6718 26.6561V56.6878C60.6718 58.1985 59.4468 59.4221 57.9374 59.4221H17.4878C15.9784 59.4221 14.7534 58.1985 14.7534 56.6878V26.6561C14.7534 25.1468 15.9784 23.9218 17.4878 23.9218H57.9374C59.4469 23.9218 60.6718 25.1468 60.6718 26.6561Z" fill="#FF9C33"/>
<path d="M60.6717 40.2458V49.6603H51.4814C50.7254 49.6603 50.1143 49.0478 50.1143 48.2931V41.613C50.1143 40.8583 50.7254 40.2458 51.4814 40.2458H60.6717Z" fill="#FF8A00"/>
<path d="M57.1171 28.8436V54.5003C57.1171 55.2554 56.505 55.8675 55.7499 55.8675H19.6753C18.9202 55.8675 18.3081 55.2554 18.3081 54.5003V28.8436C18.3081 28.0885 18.9202 27.4764 19.6753 27.4764H55.7499C56.505 27.4764 57.1171 28.0885 57.1171 28.8436Z" fill="#FFAA66"/>
<path d="M51.0833 52.0292C51.4608 52.0292 51.7668 51.7231 51.7668 51.3456C51.7668 50.968 51.4608 50.662 51.0833 50.662C50.7057 50.662 50.3997 50.968 50.3997 51.3456C50.3997 51.7231 50.7057 52.0292 51.0833 52.0292Z" fill="#FFE7DB"/>
<path d="M51.0833 54.1855C51.4608 54.1855 51.7668 53.8795 51.7668 53.502C51.7668 53.1244 51.4608 52.8184 51.0833 52.8184C50.7057 52.8184 50.3997 53.1244 50.3997 53.502C50.3997 53.8795 50.7057 54.1855 51.0833 54.1855Z" fill="#FFE7DB"/>
<path d="M48.9326 52.0292C49.3102 52.0292 49.6162 51.7231 49.6162 51.3456C49.6162 50.968 49.3102 50.662 48.9326 50.662C48.5551 50.662 48.249 50.968 48.249 51.3456C48.249 51.7231 48.5551 52.0292 48.9326 52.0292Z" fill="#FFE7DB"/>
<path d="M48.9326 54.1855C49.3102 54.1855 49.6162 53.8795 49.6162 53.502C49.6162 53.1244 49.3102 52.8184 48.9326 52.8184C48.5551 52.8184 48.249 53.1244 48.249 53.502C48.249 53.8795 48.5551 54.1855 48.9326 54.1855Z" fill="#FFE7DB"/>
<path d="M53.2341 52.0292C53.6117 52.0292 53.9177 51.7231 53.9177 51.3456C53.9177 50.968 53.6117 50.662 53.2341 50.662C52.8566 50.662 52.5505 50.968 52.5505 51.3456C52.5505 51.7231 52.8566 52.0292 53.2341 52.0292Z" fill="#FFE7DB"/>
<path d="M53.2341 54.1855C53.6117 54.1855 53.9177 53.8795 53.9177 53.502C53.9177 53.1244 53.6117 52.8184 53.2341 52.8184C52.8566 52.8184 52.5505 53.1244 52.5505 53.502C52.5505 53.8795 52.8566 54.1855 53.2341 54.1855Z" fill="#FFE7DB"/>
<path d="M22.0583 34.0321V31.6249C22.0583 31.2474 22.3645 30.9413 22.7419 30.9413H33.5639C33.9414 30.9413 34.2475 31.2474 34.2475 31.6249V34.0321C34.2475 34.4096 33.9414 34.7157 33.5639 34.7157H22.7419C22.3643 34.7157 22.0583 34.4096 22.0583 34.0321Z" fill="#FFE7DB"/>
<path d="M57.117 40.246V49.6604H51.4814C50.7254 49.6604 50.1143 49.0479 50.1143 48.2932V41.6132C50.1143 40.8585 50.7254 40.246 51.4814 40.246H57.117Z" fill="#FF9C33"/>
<path d="M60.7707 46.3794H51.4812C50.7261 46.3794 50.114 45.7673 50.114 45.0122V38.3326C50.114 37.5775 50.7261 37.2389 51.4812 37.2389H60.7707C61.5258 37.2389 62.1379 37.5775 62.1379 38.3326V45.0122C62.1379 45.7671 61.5258 46.3794 60.7707 46.3794Z" fill="#FFC498"/>
<path d="M54.3147 43.723C55.4473 43.723 56.3655 42.8049 56.3655 41.6722C56.3655 40.5396 55.4473 39.6215 54.3147 39.6215C53.1821 39.6215 52.2639 40.5396 52.2639 41.6722C52.2639 42.8049 53.1821 43.723 54.3147 43.723Z" fill="#8282FF"/>
<path d="M53.9858 42.2999C54.514 42.2999 54.9423 41.8717 54.9423 41.3434C54.9423 40.8152 54.514 40.387 53.9858 40.387C53.4575 40.387 53.0293 40.8152 53.0293 41.3434C53.0293 41.8717 53.4575 42.2999 53.9858 42.2999Z" fill="#B2B2FF"/>
<path d="M26.2908 63.2739C31.1988 63.2739 35.1775 59.2952 35.1775 54.3872C35.1775 49.4792 31.1988 45.5005 26.2908 45.5005C21.3828 45.5005 17.4041 49.4792 17.4041 54.3872C17.4041 59.2952 21.3828 63.2739 26.2908 63.2739Z" fill="#6C6CFF"/>
<path d="M17.8962 51.4707C17.5788 52.3845 17.4041 53.3652 17.4041 54.3872C17.4041 58.3209 19.961 61.6554 23.5027 62.8252C23.8201 61.9114 23.9949 60.9307 23.9949 59.9087C23.9949 55.9749 21.4379 52.6405 17.8962 51.4707Z" fill="#4D4DFF"/>
<path d="M33.244 48.8559C32.825 48.3301 32.3482 47.8533 31.8225 47.4345L27.2963 51.9607V45.5588C26.9661 45.5217 26.6311 45.5007 26.2911 45.5007C25.9511 45.5007 25.616 45.5217 25.286 45.5588V51.9607L20.7598 47.4345C20.2339 47.8534 19.7571 48.3303 19.3383 48.8559L23.8645 53.3822H17.4626C17.4255 53.7123 17.4045 54.0473 17.4045 54.3873C17.4045 54.7273 17.4255 55.0624 17.4626 55.3925H23.8645L19.3383 59.9187C19.7572 60.4445 20.2341 60.9214 20.7598 61.3401L25.286 56.8139V63.2158C25.616 63.253 25.9511 63.2739 26.2911 63.2739C26.6311 63.2739 26.9662 63.253 27.2963 63.2158V56.8139L31.8225 61.3401C32.3483 60.9212 32.8252 60.4444 33.2441 59.9187L28.7179 55.3925H35.1197C35.1569 55.0624 35.1778 54.7273 35.1778 54.3873C35.1778 54.0473 35.1569 53.7122 35.1197 53.3822H28.7179L33.244 48.8559Z" fill="#B2B2FF"/>
<path d="M26.2908 61.0777C29.9859 61.0777 32.9813 58.0823 32.9813 54.3872C32.9813 50.6922 29.9859 47.6968 26.2908 47.6968C22.5958 47.6968 19.6003 50.6922 19.6003 54.3872C19.6003 58.0823 22.5958 61.0777 26.2908 61.0777Z" fill="white"/>
<path d="M19.8937 52.4238C19.7034 53.0448 19.6003 53.7039 19.6003 54.3872C19.6003 57.2635 21.4157 59.7155 23.963 60.661C23.9841 60.4131 23.9949 60.1622 23.9949 59.9088C23.9949 56.7636 22.3593 54.0027 19.8937 52.4238Z" fill="#D8D8FF"/>
<path d="M26.2908 59.2407C28.9713 59.2407 31.1443 57.0677 31.1443 54.3872C31.1443 51.7067 28.9713 49.5337 26.2908 49.5337C23.6102 49.5337 21.4373 51.7067 21.4373 54.3872C21.4373 57.0677 23.6102 59.2407 26.2908 59.2407Z" fill="#B2B2FF"/>
<path d="M26.2908 58.0103C28.2917 58.0103 29.9138 56.3882 29.9138 54.3872C29.9138 52.3863 28.2917 50.7642 26.2908 50.7642C24.2898 50.7642 22.6677 52.3863 22.6677 54.3872C22.6677 56.3882 24.2898 58.0103 26.2908 58.0103Z" fill="#6C6CFF"/>
<path d="M15.1082 65.5142C20.0162 65.5142 23.9949 61.5354 23.9949 56.6274C23.9949 51.7194 20.0162 47.7407 15.1082 47.7407C10.2002 47.7407 6.22144 51.7194 6.22144 56.6274C6.22144 61.5354 10.2002 65.5142 15.1082 65.5142Z" fill="#FF6C6C"/>
<path d="M22.0611 51.0961C21.6422 50.5702 21.1653 50.0934 20.6396 49.6746L16.1134 54.2008V47.7989C15.7832 47.7618 15.4483 47.7408 15.1083 47.7408C14.7682 47.7408 14.4331 47.7618 14.1031 47.7989V54.2008L9.57689 49.6746C9.05107 50.0935 8.5742 50.5704 8.15543 51.0961L12.6816 55.6223H6.27979C6.2426 55.9524 6.22168 56.2874 6.22168 56.6274C6.22168 56.9674 6.2426 57.3025 6.27979 57.6326H12.6816L8.15543 62.1587C8.57434 62.6845 9.05121 63.1614 9.57689 63.5801L14.1031 59.0539V65.4558C14.4331 65.493 14.7682 65.5139 15.1083 65.5139C15.4483 65.5139 15.7834 65.493 16.1134 65.4558V59.0539L20.6396 63.5801C21.1654 63.1612 21.6423 62.6843 22.0612 62.1587L17.535 57.6324H23.9369C23.9741 57.3024 23.995 56.9673 23.995 56.6273C23.995 56.2873 23.9741 55.9522 23.9369 55.6221H17.535L22.0611 51.0961Z" fill="#FFB2B2"/>
<path d="M15.1082 63.318C18.8032 63.318 21.7987 60.3225 21.7987 56.6275C21.7987 52.9324 18.8032 49.937 15.1082 49.937C11.4131 49.937 8.41772 52.9324 8.41772 56.6275C8.41772 60.3225 11.4131 63.318 15.1082 63.318Z" fill="white"/>
<path d="M15.1082 61.481C17.7887 61.481 19.9617 59.308 19.9617 56.6274C19.9617 53.9469 17.7887 51.7739 15.1082 51.7739C12.4276 51.7739 10.2546 53.9469 10.2546 56.6274C10.2546 59.308 12.4276 61.481 15.1082 61.481Z" fill="#FFB2B2"/>
<path d="M15.1082 60.2505C17.1091 60.2505 18.7312 58.6284 18.7312 56.6274C18.7312 54.6265 17.1091 53.0044 15.1082 53.0044C13.1072 53.0044 11.4851 54.6265 11.4851 56.6274C11.4851 58.6284 13.1072 60.2505 15.1082 60.2505Z" fill="#FF6C6C"/>
<path d="M61.3553 36.6162V26.6561C61.3553 24.7715 59.822 23.2382 57.9374 23.2382H57.6955V9.59157C57.6955 8.46077 56.7755 7.54079 55.6447 7.54079H46.3786V5.85327C46.3786 4.72247 45.4586 3.80249 44.3278 3.80249H19.7809C18.6501 3.80249 17.7301 4.72247 17.7301 5.85327V23.2382H17.4891C15.6044 23.2382 14.0711 24.7715 14.0711 26.6561V47.1143C9.28024 47.633 5.53784 51.701 5.53784 56.6275C5.53784 61.9045 9.83108 66.1978 15.1082 66.1978C17.9198 66.1978 20.4518 64.9787 22.2044 63.0416C23.4751 63.6417 24.8766 63.9572 26.2911 63.9572C31.5681 63.9572 35.8614 59.664 35.8614 54.3869C35.8614 49.1099 31.5681 44.8166 26.2911 44.8166C23.5608 44.8166 21.0029 45.9605 19.1899 47.9736C18.045 47.4314 16.7761 47.1113 15.4383 47.0656V26.6561C15.4383 25.5253 16.3583 24.6053 17.4891 24.6053H57.9374C59.0682 24.6053 59.9881 25.5253 59.9881 26.6561V36.5551H51.4814C50.2547 36.5551 49.4306 37.2695 49.4306 38.3325V45.012C49.4306 46.1428 50.3506 47.0628 51.4814 47.0628H59.9881V56.6876C59.9881 57.8184 59.0682 58.7384 57.9374 58.7384H37.8643C37.4867 58.7384 37.1807 59.0444 37.1807 59.422C37.1807 59.7996 37.4867 60.1056 37.8643 60.1056H57.9374C59.822 60.1056 61.3553 58.5723 61.3553 56.6876V46.9768C62.2022 46.7244 62.8218 45.9398 62.8218 45.012V38.3325C62.8216 37.4491 62.2514 36.8082 61.3553 36.6162ZM15.1082 64.8305C10.585 64.8305 6.90503 61.1505 6.90503 56.6273C6.90503 52.1041 10.585 48.4242 15.1082 48.4242C19.6314 48.4242 23.3113 52.1041 23.3113 56.6273C23.3113 61.1505 19.6314 64.8305 15.1082 64.8305ZM26.2911 46.1837C30.8143 46.1837 34.4942 49.8636 34.4942 54.3868C34.4942 58.91 30.8143 62.5899 26.2911 62.5899C25.1816 62.5899 24.0818 62.3638 23.0691 61.9319C24.0848 60.4125 24.6785 58.5882 24.6785 56.6275C24.6785 53.3123 22.9836 50.3863 20.4153 48.6683C21.9538 47.0818 24.0539 46.1837 26.2911 46.1837ZM19.0973 5.85327C19.0973 5.47634 19.404 5.16968 19.7809 5.16968H44.3278C44.7048 5.16968 45.0114 5.47634 45.0114 5.85327V19.9047C45.0114 20.2823 45.3174 20.5883 45.695 20.5883C46.0726 20.5883 46.3786 20.2823 46.3786 19.9047V8.90798H55.6447C56.0217 8.90798 56.3283 9.21464 56.3283 9.59157V23.238H19.0973V5.85327ZM61.4544 45.012C61.4544 45.3889 61.1478 45.6956 60.7708 45.6956H51.4814C51.1044 45.6956 50.7978 45.3889 50.7978 45.012V38.3325C50.7978 38.231 50.7978 37.9223 51.4814 37.9223H60.7708C61.4544 37.9223 61.4544 38.231 61.4544 38.3325V45.012Z" fill="#0000CB"/>
<path d="M59.4272 7.39624C59.0496 7.39624 58.7437 7.09026 58.7437 6.71265C58.7437 6.29812 58.4062 5.96069 57.9917 5.96069C57.6141 5.96069 57.3081 5.65472 57.3081 5.2771C57.3081 4.89948 57.6141 4.59351 57.9917 4.59351C58.4062 4.59351 58.7437 4.25608 58.7437 3.84155C58.7437 3.46394 59.0496 3.15796 59.4272 3.15796C59.8049 3.15796 60.1108 3.46394 60.1108 3.84155C60.1108 4.25608 60.4483 4.59351 60.8628 4.59351C61.2404 4.59351 61.5464 4.89948 61.5464 5.2771C61.5464 5.65472 61.2404 5.96069 60.8628 5.96069C60.4483 5.96069 60.1108 6.29812 60.1108 6.71265C60.1108 7.09013 59.8049 7.39624 59.4272 7.39624Z" fill="#FF9C33"/>
<path d="M7.88989 36.3267C7.51228 36.3267 7.2063 36.0207 7.2063 35.6431C7.2063 35.2285 6.86888 34.8911 6.45435 34.8911C6.07673 34.8911 5.77075 34.5851 5.77075 34.2075C5.77075 33.8299 6.07673 33.5239 6.45435 33.5239C6.86888 33.5239 7.2063 33.1865 7.2063 32.772C7.2063 32.3944 7.51228 32.0884 7.88989 32.0884C8.26751 32.0884 8.57349 32.3944 8.57349 32.772C8.57349 33.1865 8.91091 33.5239 9.32544 33.5239C9.70306 33.5239 10.009 33.8299 10.009 34.2075C10.009 34.5851 9.70306 34.8911 9.32544 34.8911C8.91091 34.8911 8.57349 35.2285 8.57349 35.6431C8.57349 36.0207 8.26751 36.3267 7.88989 36.3267Z" fill="#FF9C33"/>
<path d="M65.009 50.9004C64.6314 50.9004 64.3254 50.5944 64.3254 50.2168C64.3254 49.8023 63.988 49.4648 63.5735 49.4648C63.1959 49.4648 62.8899 49.1589 62.8899 48.7812C62.8899 48.4036 63.1959 48.0977 63.5735 48.0977C63.988 48.0977 64.3254 47.7602 64.3254 47.3457C64.3254 46.9681 64.6314 46.6621 65.009 46.6621C65.3867 46.6621 65.6926 46.9681 65.6926 47.3457C65.6926 47.7602 66.03 48.0977 66.4446 48.0977C66.8222 48.0977 67.1282 48.4036 67.1282 48.7812C67.1282 49.1589 66.8222 49.4648 66.4446 49.4648C66.03 49.4648 65.6926 49.8023 65.6926 50.2168C65.6926 50.5944 65.3867 50.9004 65.009 50.9004Z" fill="#FF6C6C"/>
<path d="M8.46442 44.4018C8.32346 44.4018 8.1825 44.3584 8.06274 44.2713C7.82307 44.0974 7.72285 43.7888 7.81446 43.507L8.01598 42.8867L7.48838 42.5032C7.24871 42.3292 7.1485 42.0206 7.2401 41.739C7.33157 41.4572 7.59407 41.2666 7.8902 41.2666H8.54248L8.74414 40.6464C8.83561 40.3647 9.09811 40.1741 9.39424 40.1741C9.69037 40.1741 9.95287 40.3648 10.0443 40.6464L10.246 41.2666H10.8983C11.1944 41.2666 11.4569 41.4573 11.5484 41.739C11.64 42.0206 11.5398 42.329 11.3002 42.5032L10.7726 42.8867L10.9742 43.507C11.0658 43.7886 10.9655 44.0971 10.7259 44.2713C10.4864 44.4453 10.1619 44.4453 9.92239 44.2713L9.39465 43.8879L8.86719 44.2713C8.74647 44.3582 8.60537 44.4018 8.46442 44.4018Z" fill="#FF6C6C"/>
<path d="M37.6371 66.4718C37.4962 66.4718 37.3552 66.4283 37.2353 66.3412C36.9958 66.1672 36.8956 65.8586 36.9872 65.577L37.1887 64.9567L36.6611 64.5733C36.4216 64.3993 36.3214 64.0907 36.413 63.809C36.5044 63.5273 36.7669 63.3367 37.063 63.3367H37.7153L37.917 62.7164C38.0085 62.4346 38.271 62.244 38.5671 62.244C38.8632 62.244 39.1257 62.4347 39.2172 62.7164L39.4189 63.3367H40.0711C40.3673 63.3367 40.6298 63.5274 40.7212 63.809C40.8128 64.0907 40.7126 64.3991 40.473 64.5733L39.9454 64.9568L40.1469 65.577C40.2385 65.8586 40.1383 66.167 39.8986 66.3412C39.6591 66.5153 39.3348 66.5153 39.095 66.3412L38.5675 65.9578L38.0398 66.3412C37.9192 66.4283 37.7781 66.4718 37.6371 66.4718Z" fill="#6C6CFF"/>
</g>
<defs>
<linearGradient id="paint0_linear_824_204" x1="15.1881" y1="56.8125" x2="58.7246" y2="13.2761" gradientUnits="userSpaceOnUse">
<stop stop-color="#104CBA" stop-opacity="0"/>
<stop offset="0.2938" stop-color="#104CBA" stop-opacity="0.3"/>
<stop offset="0.7874" stop-color="#104CBA"/>
</linearGradient>
<clipPath id="clip0_824_204">
<rect width="70" height="70" fill="white"/>
</clipPath>
</defs>
</svg>
