<svg width="54" height="54" viewBox="0 0 54 54" fill="none" xmlns="http://www.w3.org/2000/svg">
<path d="M45 24.7477H49.5C49.5 13.2052 40.7858 4.5 29.2275 4.5V9C38.367 9 45 15.6217 45 24.7477Z" fill="white"/>
<path d="M29.2499 18C33.9817 18 35.9999 20.0183 35.9999 24.75H40.4999C40.4999 17.4938 36.5062 13.5 29.2499 13.5V18ZM36.9494 30.2468C36.5171 29.8538 35.9489 29.6443 35.365 29.6623C34.781 29.6804 34.2269 29.9246 33.8197 30.3435L28.4354 35.8808C27.1394 35.6333 24.5339 34.821 21.8519 32.1458C19.1699 29.4615 18.3577 26.8493 18.1169 25.5623L23.6497 20.1758C24.0691 19.7688 24.3137 19.2146 24.3318 18.6305C24.3498 18.0464 24.1399 17.4781 23.7464 17.046L15.4327 7.9043C15.039 7.47085 14.4919 7.20793 13.9075 7.17138C13.3231 7.13483 12.7475 7.32753 12.3029 7.70855L7.4204 11.8958C7.0314 12.2862 6.79922 12.8058 6.7679 13.356C6.73415 13.9185 6.09065 27.243 16.4227 37.5795C25.4362 46.5908 36.7267 47.25 39.8362 47.25C40.2907 47.25 40.5697 47.2365 40.6439 47.232C41.1941 47.2012 41.7134 46.968 42.1019 46.5773L46.2869 41.6925C46.6682 41.2482 46.8613 40.6728 46.8252 40.0884C46.789 39.504 46.5265 38.9568 46.0934 38.5628L36.9494 30.2468Z" fill="white"/>
</svg>
