<svg width="68" height="68" viewBox="0 0 68 68" fill="none" xmlns="http://www.w3.org/2000/svg">
<g filter="url(#filter0_f_939_431)">
<path d="M61.7162 47.2948H6.28376C5.02247 47.2948 4 46.2724 4 45.0111V6.28376C4 5.02247 5.02247 4 6.28376 4H61.7162C62.9775 4 64 5.02247 64 6.28376V45.0111C64 46.2724 62.9775 47.2948 61.7162 47.2948Z" fill="url(#paint0_linear_939_431)"/>
<path d="M64 13.244H4V6.28376C4 5.02247 5.02247 4 6.28376 4H61.7162C62.9775 4 64 5.02247 64 6.28376V13.244Z" fill="url(#paint1_linear_939_431)"/>
<path d="M8.8062 10.4736H7.60279C6.91256 10.4736 6.35303 9.91404 6.35303 9.2238V8.02027C6.35303 7.33004 6.91256 6.77051 7.60279 6.77051H8.8062C9.49644 6.77051 10.056 7.33004 10.056 8.02027V9.22368C10.056 9.91404 9.49644 10.4736 8.8062 10.4736Z" fill="url(#paint2_linear_939_431)"/>
<path d="M13.5275 10.4736H12.324C11.6337 10.4736 11.0742 9.91404 11.0742 9.2238V8.02027C11.0742 7.33004 11.6337 6.77051 12.324 6.77051H13.5274C14.2176 6.77051 14.7772 7.33004 14.7772 8.02027V9.22368C14.7773 9.91404 14.2177 10.4736 13.5275 10.4736Z" fill="url(#paint3_linear_939_431)"/>
<path d="M18.2486 10.4736H17.0452C16.3549 10.4736 15.7954 9.91404 15.7954 9.2238V8.02027C15.7954 7.33004 16.3549 6.77051 17.0452 6.77051H18.2486C18.9388 6.77051 19.4984 7.33004 19.4984 8.02027V9.22368C19.4984 9.91404 18.9388 10.4736 18.2486 10.4736Z" fill="url(#paint4_linear_939_431)"/>
<path d="M4 36.7637V45.0106C4 46.2719 5.02247 47.2944 6.28376 47.2944H61.7162C62.9775 47.2944 64 46.2719 64 45.0106V36.7637H4Z" fill="url(#paint5_linear_939_431)"/>
<path d="M23.5426 37.5741H11.2606C10.4075 37.5741 9.71582 36.8825 9.71582 36.0293V21.1815C9.71582 20.3284 10.4075 19.6367 11.2606 19.6367H23.5426C24.3958 19.6367 25.0875 20.3284 25.0875 21.1815V36.0293C25.0876 36.8825 24.3959 37.5741 23.5426 37.5741Z" fill="#B5DBFF"/>
<path d="M37.7074 24.1073H29.2842C28.6669 24.1073 28.1665 23.607 28.1665 22.9897V20.7544C28.1665 20.1371 28.6669 19.6367 29.2842 19.6367H37.7074C38.3247 19.6367 38.8251 20.1371 38.8251 20.7544V22.9897C38.8251 23.607 38.3247 24.1073 37.7074 24.1073Z" fill="#B5DBFF"/>
<path d="M57.1663 24.1073H42.4604C41.8431 24.1073 41.3428 23.607 41.3428 22.9897V20.7544C41.3428 20.1371 41.8431 19.6367 42.4604 19.6367H57.1663C57.7836 19.6367 58.284 20.1371 58.284 20.7544V22.9897C58.284 23.607 57.7836 24.1073 57.1663 24.1073Z" fill="#B5DBFF"/>
<path d="M48.7431 30.8407H57.1664C57.7837 30.8407 58.2841 30.3404 58.2841 29.7231V27.4878C58.2841 26.8705 57.7837 26.3701 57.1664 26.3701H48.7431C48.1258 26.3701 47.6255 26.8705 47.6255 27.4878V29.7231C47.6255 30.3404 48.1258 30.8407 48.7431 30.8407Z" fill="#B5DBFF"/>
<path d="M29.2842 30.8407H43.99C44.6073 30.8407 45.1077 30.3404 45.1077 29.7231V27.4878C45.1077 26.8705 44.6073 26.3701 43.99 26.3701H29.2842C28.6669 26.3701 28.1665 26.8705 28.1665 27.4878V29.7231C28.1665 30.3404 28.6669 30.8407 29.2842 30.8407Z" fill="#B5DBFF"/>
<path d="M37.7074 37.5741H29.2842C28.6669 37.5741 28.1665 37.0738 28.1665 36.4565V34.2212C28.1665 33.6039 28.6669 33.1035 29.2842 33.1035H37.7074C38.3247 33.1035 38.8251 33.6039 38.8251 34.2212V36.4565C38.8251 37.0738 38.3247 37.5741 37.7074 37.5741Z" fill="#B5DBFF"/>
<path d="M57.1663 37.5741H42.4604C41.8431 37.5741 41.3428 37.0738 41.3428 36.4565V34.2212C41.3428 33.6039 41.8431 33.1035 42.4604 33.1035H57.1663C57.7836 33.1035 58.284 33.6039 58.284 34.2212V36.4565C58.284 37.0738 57.7836 37.5741 57.1663 37.5741Z" fill="#B5DBFF"/>
<path d="M63.9999 45.0115V35.4477L53.6603 25.1081C53.1366 24.3895 52.289 24.1577 51.3316 24.1577C46.2382 24.1577 41.3003 22.4028 37.3492 19.1884C35.3984 17.6013 32.6015 17.6013 30.6506 19.1884C26.6996 22.4028 21.7617 24.1577 16.6683 24.1577C15.0778 24.1577 14.0239 25.2116 14.0239 26.8021V34.5203C14.0239 38.9631 14.9225 43.2995 16.6065 47.2953H61.7162C62.9775 47.2953 63.9999 46.2728 63.9999 45.0115Z" fill="url(#paint6_linear_939_431)"/>
<path d="M51.3318 23.9214C46.2383 23.9214 41.3005 22.1664 37.3494 18.9521C35.3986 17.365 32.6016 17.3649 30.6508 18.9521C26.6998 22.1664 21.7619 23.9214 16.6685 23.9214C15.078 23.9214 13.7886 25.2106 13.7886 26.8012V34.5195C13.7886 44.4209 18.2472 53.7959 25.9278 60.0446L28.2983 61.9732C31.6194 64.6751 36.3808 64.6751 39.7019 61.9732L42.0725 60.0446C49.753 53.7959 54.2116 44.4205 54.2116 34.5191C54.2116 31.5558 54.2116 28.7712 54.2116 26.8005C54.2115 25.2099 52.9222 23.9214 51.3318 23.9214Z" fill="url(#paint7_linear_939_431)"/>
<path d="M34.0001 61.4582C33.4448 61.4582 32.9019 61.2653 32.4711 60.9148L27.9371 57.2261C24.6254 54.5318 21.9058 51.0698 20.0722 47.2144C18.2387 43.3589 17.2695 39.0645 17.2695 34.7952V28.6701C17.2695 27.9292 17.8753 27.2991 18.6153 27.2599C23.6613 26.9931 28.5395 25.1219 32.4711 21.9233C32.9019 21.5728 33.4448 21.3799 34.0001 21.3799C34.5554 21.3799 35.0984 21.5728 35.5291 21.9233C39.4607 25.122 44.3391 26.9932 49.3852 27.2599C50.1249 27.2991 50.7307 27.9289 50.7307 28.6699V34.7947C50.7307 39.064 49.7615 43.3585 47.928 47.2141C46.0945 51.0697 43.3748 54.5318 40.0632 57.2261L35.5292 60.9148C35.0984 61.2653 34.5554 61.4582 34.0001 61.4582Z" fill="url(#paint8_linear_939_431)"/>
<path d="M34 59.7675C33.4916 59.7675 32.9943 59.5908 32.6 59.27L28.4486 55.8926C25.4163 53.4256 22.9262 50.2558 21.2474 46.7256C19.5686 43.1955 18.6812 39.2634 18.6812 35.3545V29.7463C18.6812 29.0679 19.2359 28.4911 19.9134 28.4552C24.5336 28.2108 29.0002 26.4976 32.6 23.5689C32.9944 23.248 33.4916 23.0713 34 23.0713C34.5084 23.0713 35.0056 23.248 35.4 23.5688C38.9999 26.4975 43.4666 28.2108 48.0868 28.4552C48.7642 28.4909 49.3188 29.0678 49.3188 29.7461V35.3541C49.3188 39.2632 48.4314 43.1953 46.7526 46.7254C45.0737 50.2556 42.5836 53.4255 39.5514 55.8925L35.4 59.27C35.0056 59.5908 34.5084 59.7675 34 59.7675Z" fill="url(#paint9_linear_939_431)"/>
<path d="M54.2115 26.8005C54.2115 25.2101 52.9221 23.9214 51.3316 23.9214C46.2382 23.9214 41.3004 22.1664 37.3493 18.9521C36.3739 18.1585 35.1869 17.7617 34 17.7617V63.9996C36.0206 63.9996 38.0413 63.3241 39.7018 61.9731L42.0724 60.0445C49.7529 53.7958 54.2115 44.4204 54.2115 34.519C54.2115 31.5558 54.2115 28.7711 54.2115 26.8005Z" fill="url(#paint10_linear_939_431)"/>
<path d="M49.0888 31.2166C48.183 30.3109 46.7145 30.4965 45.8087 31.4022L34.5077 42.7032C34.3976 42.8133 34.0862 43.0221 34.0002 43.0221C33.9142 43.0221 33.7886 42.9989 33.6783 42.8887L29.3464 38.5568C28.4406 37.6511 27.0649 37.6511 26.1592 38.5568C25.2534 39.4626 25.1606 40.7455 26.0663 41.6513L43.3572 58.9421C49.806 53.1205 53.691 44.9802 54.1627 36.3078L49.0888 31.2166Z" fill="url(#paint11_linear_939_431)"/>
<path d="M42.0726 60.0447C47.5547 55.5845 51.3947 49.5314 53.1442 42.8311L42.6922 32.3791C40.5108 30.0751 37.4235 28.8232 34.0004 28.8232C27.4781 28.8232 22.2178 34.0836 22.2178 40.6058C22.2178 44.029 23.4697 47.1162 25.7737 49.2976L38.3357 61.8596C38.7194 62.2434 39.3314 62.2748 39.7525 61.9322L42.0726 60.0447Z" fill="url(#paint12_linear_939_431)"/>
<path d="M34.0003 52.5739C40.6102 52.5739 45.9685 47.2156 45.9685 40.6058C45.9685 33.996 40.6102 28.6377 34.0003 28.6377C27.3905 28.6377 22.0322 33.996 22.0322 40.6058C22.0322 47.2156 27.3905 52.5739 34.0003 52.5739Z" fill="url(#paint13_linear_939_431)"/>
<path d="M43.6648 33.5469L34.5077 42.7039C34.3976 42.8141 34.0862 43.0229 34.0002 43.0229C33.9142 43.0229 33.7886 42.9997 33.6783 42.8895L29.3464 38.5576C28.4406 37.6518 27.0649 37.6518 26.1592 38.5576C25.2534 39.4633 25.1606 40.7463 26.0663 41.6521L36.6856 52.2713C42.0023 51.0524 45.9683 46.2924 45.9683 40.6059C45.9683 37.9659 45.1128 35.5259 43.6648 33.5469Z" fill="url(#paint14_linear_939_431)"/>
<path d="M33.9999 47.476C32.6392 47.476 31.36 46.9461 30.3979 45.9838L26.066 41.6521C25.1603 40.7463 25.1603 39.2777 26.066 38.372C26.9718 37.4662 28.4404 37.4662 29.3462 38.372L33.678 42.7038C33.7883 42.8141 33.9139 42.8372 33.9999 42.8372C34.0859 42.8372 34.2116 42.8141 34.3217 42.704L45.8084 31.2174C46.7142 30.3116 48.1828 30.3117 49.0885 31.2174C49.9943 32.1231 49.9943 33.5917 49.0885 34.4975L37.6019 45.9841C36.6398 46.9461 35.3606 47.476 33.9999 47.476Z" fill="url(#paint15_linear_939_431)"/>
</g>
<defs>
<filter id="filter0_f_939_431" x="0" y="0" width="68" height="68" filterUnits="userSpaceOnUse" color-interpolation-filters="sRGB">
<feFlood flood-opacity="0" result="BackgroundImageFix"/>
<feBlend mode="normal" in="SourceGraphic" in2="BackgroundImageFix" result="shape"/>
<feGaussianBlur stdDeviation="2" result="effect1_foregroundBlur_939_431"/>
</filter>
<linearGradient id="paint0_linear_939_431" x1="17.8714" y1="9.51882" x2="51.6133" y2="43.2607" gradientUnits="userSpaceOnUse">
<stop stop-color="#EDF5FF"/>
<stop offset="1" stop-color="#D5E8FE"/>
</linearGradient>
<linearGradient id="paint1_linear_939_431" x1="33.5814" y1="3.32729" x2="34.5038" y2="17.4267" gradientUnits="userSpaceOnUse">
<stop stop-color="#B5DBFF"/>
<stop offset="1" stop-color="#48B2E3"/>
</linearGradient>
<linearGradient id="paint2_linear_939_431" x1="7.79303" y1="8.30863" x2="9.48491" y2="9.59757" gradientUnits="userSpaceOnUse">
<stop stop-color="#FF637B"/>
<stop offset="1" stop-color="#E63950"/>
</linearGradient>
<linearGradient id="paint3_linear_939_431" x1="12.5143" y1="8.30863" x2="14.2062" y2="9.59757" gradientUnits="userSpaceOnUse">
<stop stop-color="#FFDA2D"/>
<stop offset="1" stop-color="#FDBF00"/>
</linearGradient>
<linearGradient id="paint4_linear_939_431" x1="16.7478" y1="7.72298" x2="20.7575" y2="11.7327" gradientUnits="userSpaceOnUse">
<stop stop-color="#B9DD39"/>
<stop offset="1" stop-color="#0B799D"/>
</linearGradient>
<linearGradient id="paint5_linear_939_431" x1="34" y1="41.7854" x2="34" y2="53.4319" gradientUnits="userSpaceOnUse">
<stop stop-color="#B5DBFF" stop-opacity="0"/>
<stop offset="0.2428" stop-color="#93CEF6" stop-opacity="0.243"/>
<stop offset="0.5763" stop-color="#6ABFEC" stop-opacity="0.576"/>
<stop offset="0.8403" stop-color="#51B5E5" stop-opacity="0.84"/>
<stop offset="1" stop-color="#48B2E3"/>
</linearGradient>
<linearGradient id="paint6_linear_939_431" x1="58.9349" y1="47.5617" x2="43.4017" y2="40.0589" gradientUnits="userSpaceOnUse">
<stop stop-color="#B5DBFF" stop-opacity="0"/>
<stop offset="0.1734" stop-color="#8FC5E9" stop-opacity="0.173"/>
<stop offset="0.4541" stop-color="#56A4C8" stop-opacity="0.454"/>
<stop offset="0.6955" stop-color="#2D8DB1" stop-opacity="0.696"/>
<stop offset="0.8853" stop-color="#147EA2" stop-opacity="0.885"/>
<stop offset="1" stop-color="#0B799D"/>
</linearGradient>
<linearGradient id="paint7_linear_939_431" x1="17.0659" y1="19.9445" x2="51.9226" y2="54.8012" gradientUnits="userSpaceOnUse">
<stop stop-color="#76E2F8"/>
<stop offset="1" stop-color="#48B2E3"/>
</linearGradient>
<linearGradient id="paint8_linear_939_431" x1="56.7447" y1="60.1778" x2="25.9038" y2="29.3368" gradientUnits="userSpaceOnUse">
<stop stop-color="#B5DBFF" stop-opacity="0"/>
<stop offset="0.2428" stop-color="#93CEF6" stop-opacity="0.243"/>
<stop offset="0.5763" stop-color="#6ABFEC" stop-opacity="0.576"/>
<stop offset="0.8403" stop-color="#51B5E5" stop-opacity="0.84"/>
<stop offset="1" stop-color="#48B2E3"/>
</linearGradient>
<linearGradient id="paint9_linear_939_431" x1="28.037" y1="31.8069" x2="41.5848" y2="45.3547" gradientUnits="userSpaceOnUse">
<stop stop-color="#EDF5FF"/>
<stop offset="1" stop-color="#D5E8FE"/>
</linearGradient>
<linearGradient id="paint10_linear_939_431" x1="38.2008" y1="41.6595" x2="10.3681" y2="28.2998" gradientUnits="userSpaceOnUse">
<stop stop-color="#B5DBFF" stop-opacity="0"/>
<stop offset="0.1734" stop-color="#8FC5E9" stop-opacity="0.173"/>
<stop offset="0.4541" stop-color="#56A4C8" stop-opacity="0.454"/>
<stop offset="0.6955" stop-color="#2D8DB1" stop-opacity="0.696"/>
<stop offset="0.8853" stop-color="#147EA2" stop-opacity="0.885"/>
<stop offset="1" stop-color="#0B799D"/>
</linearGradient>
<linearGradient id="paint11_linear_939_431" x1="48.8482" y1="47.0619" x2="39.3232" y2="39.8254" gradientUnits="userSpaceOnUse">
<stop stop-color="#B5DBFF" stop-opacity="0"/>
<stop offset="0.1734" stop-color="#8FC5E9" stop-opacity="0.173"/>
<stop offset="0.4541" stop-color="#56A4C8" stop-opacity="0.454"/>
<stop offset="0.6955" stop-color="#2D8DB1" stop-opacity="0.696"/>
<stop offset="0.8853" stop-color="#147EA2" stop-opacity="0.885"/>
<stop offset="1" stop-color="#0B799D"/>
</linearGradient>
<linearGradient id="paint12_linear_939_431" x1="47.2448" y1="53.8503" x2="31.3699" y2="37.9754" gradientUnits="userSpaceOnUse">
<stop stop-color="#B5DBFF" stop-opacity="0"/>
<stop offset="0.1734" stop-color="#8FC5E9" stop-opacity="0.173"/>
<stop offset="0.4541" stop-color="#56A4C8" stop-opacity="0.454"/>
<stop offset="0.6955" stop-color="#2D8DB1" stop-opacity="0.696"/>
<stop offset="0.8853" stop-color="#147EA2" stop-opacity="0.885"/>
<stop offset="1" stop-color="#0B799D"/>
</linearGradient>
<linearGradient id="paint13_linear_939_431" x1="28.4338" y1="35.0392" x2="39.9694" y2="46.5749" gradientUnits="userSpaceOnUse">
<stop stop-color="#B9DD39"/>
<stop offset="1" stop-color="#90CC1C"/>
</linearGradient>
<linearGradient id="paint14_linear_939_431" x1="44.8785" y1="47.6125" x2="40.5889" y2="43.3229" gradientUnits="userSpaceOnUse">
<stop stop-color="#66BB00" stop-opacity="0"/>
<stop offset="1" stop-color="#66BB00"/>
</linearGradient>
<linearGradient id="paint15_linear_939_431" x1="32.9466" y1="31.804" x2="44.8944" y2="43.7517" gradientUnits="userSpaceOnUse">
<stop stop-color="#0B799D"/>
<stop offset="1" stop-color="#07485E"/>
</linearGradient>
</defs>
</svg>
