<svg width="50" height="51" viewBox="0 0 50 51" fill="none" xmlns="http://www.w3.org/2000/svg">
<path d="M48.3517 19.3799H1.64833C0.738144 19.3799 0 18.6418 0 17.7316V9.87294C0 8.96237 0.738144 8.22461 1.64833 8.22461H48.3517C49.2619 8.22461 50 8.96275 50 9.87294V17.7316C50 18.6418 49.2619 19.3799 48.3517 19.3799Z" fill="url(#paint0_linear_919_160)"/>
<path d="M0 13.5081V17.7317C0 18.6419 0.738144 19.38 1.64833 19.38H48.3517C49.2619 19.38 50 18.6419 50 17.7317V13.5081H0Z" fill="url(#paint1_linear_919_160)"/>
<path d="M5.75179 13.3447C5.75179 14.4098 4.88852 15.273 3.82346 15.273C2.75877 15.273 1.89551 14.4098 1.89551 13.3447C1.89551 12.28 2.75877 11.4167 3.82346 11.4167C4.88852 11.4167 5.75179 12.28 5.75179 13.3447Z" fill="url(#paint2_linear_919_160)"/>
<path d="M4.68806 12.5264C4.47101 12.2971 4.16431 12.1533 3.82365 12.1533C3.16562 12.1533 2.63232 12.6866 2.63232 13.3447C2.63232 13.6857 2.77614 13.992 3.0054 14.2094L5.3152 16.5189C5.53226 16.7481 5.83896 16.8923 6.17961 16.8923C6.83765 16.8923 7.37132 16.3586 7.37132 15.7006C7.37132 15.36 7.22751 15.0533 6.99786 14.8362L4.68806 12.5264Z" fill="url(#paint3_linear_919_160)"/>
<path d="M5.01537 13.3447C5.01537 14.0027 4.48169 14.5364 3.82365 14.5364C3.16562 14.5364 2.63232 14.0027 2.63232 13.3447C2.63232 12.6866 3.16562 12.1533 3.82365 12.1533C4.48169 12.1533 5.01537 12.6866 5.01537 13.3447Z" fill="url(#paint4_linear_919_160)"/>
<path d="M10.2288 13.3447C10.2288 14.4098 9.36557 15.273 8.30089 15.273C7.23582 15.273 6.37256 14.4098 6.37256 13.3447C6.37256 12.28 7.23582 11.4167 8.30089 11.4167C9.36557 11.4167 10.2288 12.28 10.2288 13.3447Z" fill="url(#paint5_linear_919_160)"/>
<path d="M9.16501 12.5264C8.94795 12.2971 8.64125 12.1533 8.3006 12.1533C7.64256 12.1533 7.10889 12.6866 7.10889 13.3447C7.10889 13.6857 7.2527 13.992 7.48235 14.2094L9.79176 16.5189C10.0092 16.7481 10.3155 16.8923 10.6566 16.8923C11.3146 16.8923 11.8479 16.3586 11.8479 15.7006C11.8479 15.36 11.7041 15.0533 11.4748 14.8362L9.16501 12.5264Z" fill="url(#paint6_linear_919_160)"/>
<path d="M9.49193 13.3447C9.49193 14.0027 8.95863 14.5364 8.3006 14.5364C7.64256 14.5364 7.10889 14.0027 7.10889 13.3447C7.10889 12.6866 7.64256 12.1533 8.3006 12.1533C8.95863 12.1533 9.49193 12.6866 9.49193 13.3447Z" fill="url(#paint7_linear_919_160)"/>
<path d="M14.7059 13.3447C14.7059 14.4098 13.8426 15.273 12.7776 15.273C11.7129 15.273 10.8496 14.4098 10.8496 13.3447C10.8496 12.28 11.7129 11.4167 12.7776 11.4167C13.8426 11.4167 14.7059 12.28 14.7059 13.3447Z" fill="url(#paint8_linear_919_160)"/>
<path d="M13.6425 12.5264C13.4251 12.2971 13.1188 12.1533 12.7778 12.1533C12.1197 12.1533 11.5864 12.6866 11.5864 13.3447C11.5864 13.6857 11.7302 13.992 11.9595 14.2094L14.2693 16.5189C14.4864 16.7481 14.7931 16.8923 15.1337 16.8923C15.7917 16.8923 16.3254 16.3586 16.3254 15.7006C16.3254 15.36 16.1816 15.0533 15.952 14.8362L13.6425 12.5264Z" fill="url(#paint9_linear_919_160)"/>
<path d="M13.9694 13.3447C13.9694 14.0027 13.4357 14.5364 12.7776 14.5364C12.1196 14.5364 11.5859 14.0027 11.5859 13.3447C11.5859 12.6866 12.1196 12.1533 12.7776 12.1533C13.4357 12.1533 13.9694 12.6866 13.9694 13.3447Z" fill="url(#paint10_linear_919_160)"/>
<path d="M48.3517 31.5854H1.64833C0.738144 31.5854 0 30.8472 0 29.9367V22.078C0 21.1678 0.738144 20.4297 1.64833 20.4297H48.3517C49.2619 20.4297 50 21.1678 50 22.078V29.9367C50 30.8472 49.2619 31.5854 48.3517 31.5854Z" fill="url(#paint11_linear_919_160)"/>
<path d="M0 25.7134V29.9366C0 30.8472 0.738144 31.585 1.64833 31.585H48.3517C49.2619 31.585 50 30.8472 50 29.9366V25.7134H0Z" fill="url(#paint12_linear_919_160)"/>
<path d="M5.75179 25.5498C5.75179 26.6148 4.88852 27.4781 3.82346 27.4781C2.75877 27.4781 1.89551 26.6148 1.89551 25.5498C1.89551 24.4851 2.75877 23.6218 3.82346 23.6218C4.88852 23.6218 5.75179 24.4851 5.75179 25.5498Z" fill="url(#paint13_linear_919_160)"/>
<path d="M4.68806 24.7315C4.47101 24.5022 4.16431 24.3584 3.82365 24.3584C3.16562 24.3584 2.63232 24.8917 2.63232 25.5497C2.63232 25.8908 2.77614 26.1971 3.0054 26.4145L5.3152 28.7239C5.53226 28.9536 5.83896 29.0974 6.17961 29.0974C6.83765 29.0974 7.37132 28.5641 7.37132 27.9057C7.37132 27.565 7.22751 27.2583 6.99786 27.0413L4.68806 24.7315Z" fill="url(#paint14_linear_919_160)"/>
<path d="M5.01537 25.5497C5.01537 26.2081 4.48169 26.7414 3.82365 26.7414C3.16562 26.7414 2.63232 26.2081 2.63232 25.5497C2.63232 24.8917 3.16562 24.3584 3.82365 24.3584C4.48169 24.3584 5.01537 24.8917 5.01537 25.5497Z" fill="url(#paint15_linear_919_160)"/>
<path d="M10.2288 25.5498C10.2288 26.6148 9.36557 27.4781 8.30089 27.4781C7.23582 27.4781 6.37256 26.6148 6.37256 25.5498C6.37256 24.4851 7.23582 23.6218 8.30089 23.6218C9.36557 23.6218 10.2288 24.4851 10.2288 25.5498Z" fill="url(#paint16_linear_919_160)"/>
<path d="M9.16501 24.7315C8.94795 24.5022 8.64125 24.3584 8.3006 24.3584C7.64256 24.3584 7.10889 24.8917 7.10889 25.5497C7.10889 25.8908 7.2527 26.1971 7.48235 26.4145L9.79176 28.7239C10.0092 28.9536 10.3155 29.0974 10.6566 29.0974C11.3146 29.0974 11.8479 28.5641 11.8479 27.9057C11.8479 27.565 11.7041 27.2583 11.4748 27.0413L9.16501 24.7315Z" fill="url(#paint17_linear_919_160)"/>
<path d="M9.49193 25.5497C9.49193 26.2081 8.95863 26.7414 8.3006 26.7414C7.64256 26.7414 7.10889 26.2081 7.10889 25.5497C7.10889 24.8917 7.64256 24.3584 8.3006 24.3584C8.95863 24.3584 9.49193 24.8917 9.49193 25.5497Z" fill="url(#paint18_linear_919_160)"/>
<path d="M14.7059 25.5498C14.7059 26.6148 13.8426 27.4781 12.7776 27.4781C11.7129 27.4781 10.8496 26.6148 10.8496 25.5498C10.8496 24.4851 11.7129 23.6218 12.7776 23.6218C13.8426 23.6218 14.7059 24.4851 14.7059 25.5498Z" fill="url(#paint19_linear_919_160)"/>
<path d="M13.6425 24.7315C13.4251 24.5022 13.1188 24.3584 12.7778 24.3584C12.1197 24.3584 11.5864 24.8917 11.5864 25.5497C11.5864 25.8908 11.7302 26.1971 11.9595 26.4145L14.2693 28.7239C14.4864 28.9536 14.7931 29.0974 15.1337 29.0974C15.7917 29.0974 16.3254 28.5641 16.3254 27.9057C16.3254 27.565 16.1816 27.2583 15.952 27.0413L13.6425 24.7315Z" fill="url(#paint20_linear_919_160)"/>
<path d="M13.9694 25.5497C13.9694 26.2081 13.4357 26.7414 12.7776 26.7414C12.1196 26.7414 11.5859 26.2081 11.5859 25.5497C11.5859 24.8917 12.1196 24.3584 12.7776 24.3584C13.4357 24.3584 13.9694 24.8917 13.9694 25.5497Z" fill="url(#paint21_linear_919_160)"/>
<path d="M48.3517 43.7906H1.64833C0.738144 43.7906 0 43.0524 0 42.1422V34.2836C0 33.373 0.738144 32.6353 1.64833 32.6353H48.3517C49.2619 32.6353 50 33.3734 50 34.2836V42.1422C50 43.0524 49.2619 43.7906 48.3517 43.7906Z" fill="url(#paint22_linear_919_160)"/>
<path d="M0 37.9187V42.1423C0 43.0525 0.738144 43.7907 1.64833 43.7907H48.3517C49.2619 43.7907 50 43.0525 50 42.1423V37.9187H0Z" fill="url(#paint23_linear_919_160)"/>
<path d="M5.75179 37.7552C5.75179 38.8199 4.88852 39.6832 3.82346 39.6832C2.75877 39.6832 1.89551 38.8199 1.89551 37.7552C1.89551 36.6902 2.75877 35.8269 3.82346 35.8269C4.88852 35.8269 5.75179 36.6902 5.75179 37.7552Z" fill="url(#paint24_linear_919_160)"/>
<path d="M4.68806 36.9372C4.47101 36.7079 4.16431 36.5637 3.82365 36.5637C3.16562 36.5637 2.63232 37.0974 2.63232 37.7554C2.63232 38.0961 2.77614 38.4028 3.0054 38.6198L5.3152 40.9296C5.53226 41.1589 5.83896 41.3027 6.17961 41.3027C6.83765 41.3027 7.37132 40.7694 7.37132 40.1114C7.37132 39.7704 7.22751 39.464 6.99786 39.2466L4.68806 36.9372Z" fill="url(#paint25_linear_919_160)"/>
<path d="M5.01537 37.7554C5.01537 38.4135 4.48169 38.9471 3.82365 38.9471C3.16562 38.9471 2.63232 38.4135 2.63232 37.7554C2.63232 37.0974 3.16562 36.5637 3.82365 36.5637C4.48169 36.5637 5.01537 37.0974 5.01537 37.7554Z" fill="url(#paint26_linear_919_160)"/>
<path d="M10.2288 37.7552C10.2288 38.8199 9.36557 39.6832 8.30089 39.6832C7.23582 39.6832 6.37256 38.8199 6.37256 37.7552C6.37256 36.6902 7.23582 35.8269 8.30089 35.8269C9.36557 35.8269 10.2288 36.6902 10.2288 37.7552Z" fill="url(#paint27_linear_919_160)"/>
<path d="M9.16501 36.9372C8.94795 36.7079 8.64125 36.5637 8.3006 36.5637C7.64256 36.5637 7.10889 37.0974 7.10889 37.7554C7.10889 38.0961 7.2527 38.4028 7.48235 38.6198L9.79176 40.9296C10.0092 41.1589 10.3155 41.3027 10.6566 41.3027C11.3146 41.3027 11.8479 40.7694 11.8479 40.1114C11.8479 39.7704 11.7041 39.464 11.4748 39.2466L9.16501 36.9372Z" fill="url(#paint28_linear_919_160)"/>
<path d="M9.49193 37.7554C9.49193 38.4135 8.95863 38.9471 8.3006 38.9471C7.64256 38.9471 7.10889 38.4135 7.10889 37.7554C7.10889 37.0974 7.64256 36.5637 8.3006 36.5637C8.95863 36.5637 9.49193 37.0974 9.49193 37.7554Z" fill="url(#paint29_linear_919_160)"/>
<path d="M14.7059 37.7552C14.7059 38.8199 13.8426 39.6832 12.7776 39.6832C11.7129 39.6832 10.8496 38.8199 10.8496 37.7552C10.8496 36.6902 11.7129 35.8269 12.7776 35.8269C13.8426 35.8269 14.7059 36.6902 14.7059 37.7552Z" fill="url(#paint30_linear_919_160)"/>
<path d="M13.6425 36.9372C13.4251 36.7079 13.1188 36.5637 12.7778 36.5637C12.1197 36.5637 11.5864 37.0974 11.5864 37.7554C11.5864 38.0961 11.7302 38.4028 11.9595 38.6198L14.2693 40.9296C14.4864 41.1589 14.7931 41.3027 15.1337 41.3027C15.7917 41.3027 16.3254 40.7694 16.3254 40.1114C16.3254 39.7704 16.1816 39.464 15.952 39.2466L13.6425 36.9372Z" fill="url(#paint31_linear_919_160)"/>
<path d="M13.9694 37.7554C13.9694 38.4135 13.4357 38.9471 12.7776 38.9471C12.1196 38.9471 11.5859 38.4135 11.5859 37.7554C11.5859 37.0974 12.1196 36.5637 12.7776 36.5637C13.4357 36.5637 13.9694 37.0974 13.9694 37.7554Z" fill="url(#paint32_linear_919_160)"/>
<path d="M50.0001 34.2831V42.1418C50.0001 43.0527 49.2619 43.7908 48.3521 43.7908H39.0355L27.8794 32.6348H48.3521C49.2619 32.6348 50.0001 33.3733 50.0001 34.2831Z" fill="url(#paint33_linear_919_160)"/>
<path d="M49.9999 22.0781V29.9372C49.9999 30.847 49.2618 31.5851 48.352 31.5851H26.8295L25.1991 29.9547C24.604 29.3585 24.3057 28.5784 24.3057 27.7979C24.3057 27.0174 24.604 26.2369 25.1991 25.6411C26.39 24.4497 28.3214 24.4497 29.5127 25.6411L31.9949 28.1233C32.2696 28.3979 32.7136 28.3979 32.9883 28.1233L40.6814 20.4302H48.352C49.2618 20.4302 49.9999 21.1683 49.9999 22.0781Z" fill="url(#paint34_linear_919_160)"/>
<path d="M49.0984 19.2018C48.8737 19.3154 48.6208 19.3799 48.3522 19.3799H41.7314L43.3523 17.7594C44.5433 16.5685 46.4746 16.5685 47.666 17.7594L49.0984 19.2018Z" fill="url(#paint35_linear_919_160)"/>
<path d="M31.9955 28.1232L29.5125 25.6406C28.3216 24.4493 26.3902 24.4493 25.1989 25.6406C24.0079 26.832 24.0079 28.7633 25.1989 29.9543L28.9102 33.6656C30.8885 35.6439 34.0955 35.6439 36.0734 33.6656L47.6663 22.0731C48.8572 20.8818 48.8572 18.9504 47.6663 17.7595C46.475 16.5681 44.5436 16.5681 43.3523 17.7595L32.9885 28.1232C32.7142 28.3975 32.2698 28.3975 31.9955 28.1232Z" fill="url(#paint36_linear_919_160)"/>
<defs>
<linearGradient id="paint0_linear_919_160" x1="24.7173" y1="9.84489" x2="25.4036" y2="19.4527" gradientUnits="userSpaceOnUse">
<stop stop-color="#F9F7FC"/>
<stop offset="1" stop-color="#F0DDFC"/>
</linearGradient>
<linearGradient id="paint1_linear_919_160" x1="25" y1="16.09" x2="25" y2="20.9482" gradientUnits="userSpaceOnUse">
<stop stop-color="#F0DDFC" stop-opacity="0"/>
<stop offset="0.2889" stop-color="#C8B7E0" stop-opacity="0.290196"/>
<stop offset="0.5915" stop-color="#A595C8" stop-opacity="0.592157"/>
<stop offset="0.8395" stop-color="#8F81B8" stop-opacity="0.839216"/>
<stop offset="1" stop-color="#8779B3"/>
</linearGradient>
<linearGradient id="paint2_linear_919_160" x1="5.26143" y1="14.7827" x2="2.48846" y2="12.0097" gradientUnits="userSpaceOnUse">
<stop stop-color="#F9F7FC"/>
<stop offset="1" stop-color="#F0DDFC"/>
</linearGradient>
<linearGradient id="paint3_linear_919_160" x1="6.0296" y1="15.5506" x2="2.03932" y2="11.5603" gradientUnits="userSpaceOnUse">
<stop stop-color="#F0DDFC" stop-opacity="0"/>
<stop offset="0.2889" stop-color="#C8B7E0" stop-opacity="0.290196"/>
<stop offset="0.5915" stop-color="#A595C8" stop-opacity="0.592157"/>
<stop offset="0.8395" stop-color="#8F81B8" stop-opacity="0.839216"/>
<stop offset="1" stop-color="#8779B3"/>
</linearGradient>
<linearGradient id="paint4_linear_919_160" x1="3.24365" y1="12.7647" x2="5.05307" y2="14.5741" gradientUnits="userSpaceOnUse">
<stop stop-color="#FFC738"/>
<stop offset="1" stop-color="#E97264"/>
</linearGradient>
<linearGradient id="paint5_linear_919_160" x1="9.73867" y1="14.7827" x2="6.96571" y2="12.0097" gradientUnits="userSpaceOnUse">
<stop stop-color="#F9F7FC"/>
<stop offset="1" stop-color="#F0DDFC"/>
</linearGradient>
<linearGradient id="paint6_linear_919_160" x1="10.5064" y1="15.5506" x2="6.51608" y2="11.5603" gradientUnits="userSpaceOnUse">
<stop stop-color="#F0DDFC" stop-opacity="0"/>
<stop offset="0.2889" stop-color="#C8B7E0" stop-opacity="0.290196"/>
<stop offset="0.5915" stop-color="#A595C8" stop-opacity="0.592157"/>
<stop offset="0.8395" stop-color="#8F81B8" stop-opacity="0.839216"/>
<stop offset="1" stop-color="#8779B3"/>
</linearGradient>
<linearGradient id="paint7_linear_919_160" x1="7.72041" y1="12.7647" x2="9.52982" y2="14.5741" gradientUnits="userSpaceOnUse">
<stop stop-color="#FFB5B0"/>
<stop offset="1" stop-color="#FF70AC"/>
</linearGradient>
<linearGradient id="paint8_linear_919_160" x1="14.2155" y1="14.7827" x2="11.4426" y2="12.0097" gradientUnits="userSpaceOnUse">
<stop stop-color="#F9F7FC"/>
<stop offset="1" stop-color="#F0DDFC"/>
</linearGradient>
<linearGradient id="paint9_linear_919_160" x1="14.9837" y1="15.5506" x2="10.9934" y2="11.5603" gradientUnits="userSpaceOnUse">
<stop stop-color="#F0DDFC" stop-opacity="0"/>
<stop offset="0.2889" stop-color="#C8B7E0" stop-opacity="0.290196"/>
<stop offset="0.5915" stop-color="#A595C8" stop-opacity="0.592157"/>
<stop offset="0.8395" stop-color="#8F81B8" stop-opacity="0.839216"/>
<stop offset="1" stop-color="#8779B3"/>
</linearGradient>
<linearGradient id="paint10_linear_919_160" x1="12.1977" y1="12.7647" x2="14.0071" y2="14.5741" gradientUnits="userSpaceOnUse">
<stop stop-color="#AF9CE6"/>
<stop offset="0.1591" stop-color="#AB9CE7"/>
<stop offset="0.3136" stop-color="#9F9BE8"/>
<stop offset="0.4663" stop-color="#8C9BEB"/>
<stop offset="0.6178" stop-color="#709AEF"/>
<stop offset="0.7686" stop-color="#4D99F5"/>
<stop offset="0.9167" stop-color="#2297FB"/>
<stop offset="1" stop-color="#0796FF"/>
</linearGradient>
<linearGradient id="paint11_linear_919_160" x1="24.7173" y1="22.0501" x2="25.4036" y2="31.658" gradientUnits="userSpaceOnUse">
<stop stop-color="#F9F7FC"/>
<stop offset="1" stop-color="#F0DDFC"/>
</linearGradient>
<linearGradient id="paint12_linear_919_160" x1="25" y1="28.2951" x2="25" y2="33.1533" gradientUnits="userSpaceOnUse">
<stop stop-color="#F0DDFC" stop-opacity="0"/>
<stop offset="0.2889" stop-color="#C8B7E0" stop-opacity="0.290196"/>
<stop offset="0.5915" stop-color="#A595C8" stop-opacity="0.592157"/>
<stop offset="0.8395" stop-color="#8F81B8" stop-opacity="0.839216"/>
<stop offset="1" stop-color="#8779B3"/>
</linearGradient>
<linearGradient id="paint13_linear_919_160" x1="5.26143" y1="26.9879" x2="2.48846" y2="24.2149" gradientUnits="userSpaceOnUse">
<stop stop-color="#F9F7FC"/>
<stop offset="1" stop-color="#F0DDFC"/>
</linearGradient>
<linearGradient id="paint14_linear_919_160" x1="6.0296" y1="27.7558" x2="2.03932" y2="23.7656" gradientUnits="userSpaceOnUse">
<stop stop-color="#F0DDFC" stop-opacity="0"/>
<stop offset="0.2889" stop-color="#C8B7E0" stop-opacity="0.290196"/>
<stop offset="0.5915" stop-color="#A595C8" stop-opacity="0.592157"/>
<stop offset="0.8395" stop-color="#8F81B8" stop-opacity="0.839216"/>
<stop offset="1" stop-color="#8779B3"/>
</linearGradient>
<linearGradient id="paint15_linear_919_160" x1="3.24365" y1="24.9699" x2="5.05307" y2="26.7793" gradientUnits="userSpaceOnUse">
<stop stop-color="#FFC738"/>
<stop offset="1" stop-color="#E97264"/>
</linearGradient>
<linearGradient id="paint16_linear_919_160" x1="9.73867" y1="26.9879" x2="6.96571" y2="24.2149" gradientUnits="userSpaceOnUse">
<stop stop-color="#F9F7FC"/>
<stop offset="1" stop-color="#F0DDFC"/>
</linearGradient>
<linearGradient id="paint17_linear_919_160" x1="10.5064" y1="27.7558" x2="6.51608" y2="23.7656" gradientUnits="userSpaceOnUse">
<stop stop-color="#F0DDFC" stop-opacity="0"/>
<stop offset="0.2889" stop-color="#C8B7E0" stop-opacity="0.290196"/>
<stop offset="0.5915" stop-color="#A595C8" stop-opacity="0.592157"/>
<stop offset="0.8395" stop-color="#8F81B8" stop-opacity="0.839216"/>
<stop offset="1" stop-color="#8779B3"/>
</linearGradient>
<linearGradient id="paint18_linear_919_160" x1="7.72041" y1="24.9699" x2="9.52982" y2="26.7793" gradientUnits="userSpaceOnUse">
<stop stop-color="#FFB5B0"/>
<stop offset="1" stop-color="#FF70AC"/>
</linearGradient>
<linearGradient id="paint19_linear_919_160" x1="14.2155" y1="26.9879" x2="11.4426" y2="24.2149" gradientUnits="userSpaceOnUse">
<stop stop-color="#F9F7FC"/>
<stop offset="1" stop-color="#F0DDFC"/>
</linearGradient>
<linearGradient id="paint20_linear_919_160" x1="14.9837" y1="27.7558" x2="10.9934" y2="23.7656" gradientUnits="userSpaceOnUse">
<stop stop-color="#F0DDFC" stop-opacity="0"/>
<stop offset="0.2889" stop-color="#C8B7E0" stop-opacity="0.290196"/>
<stop offset="0.5915" stop-color="#A595C8" stop-opacity="0.592157"/>
<stop offset="0.8395" stop-color="#8F81B8" stop-opacity="0.839216"/>
<stop offset="1" stop-color="#8779B3"/>
</linearGradient>
<linearGradient id="paint21_linear_919_160" x1="12.1977" y1="24.9699" x2="14.0071" y2="26.7793" gradientUnits="userSpaceOnUse">
<stop stop-color="#AF9CE6"/>
<stop offset="0.1591" stop-color="#AB9CE7"/>
<stop offset="0.3136" stop-color="#9F9BE8"/>
<stop offset="0.4663" stop-color="#8C9BEB"/>
<stop offset="0.6178" stop-color="#709AEF"/>
<stop offset="0.7686" stop-color="#4D99F5"/>
<stop offset="0.9167" stop-color="#2297FB"/>
<stop offset="1" stop-color="#0796FF"/>
</linearGradient>
<linearGradient id="paint22_linear_919_160" x1="24.7173" y1="34.2555" x2="25.4036" y2="43.8633" gradientUnits="userSpaceOnUse">
<stop stop-color="#F9F7FC"/>
<stop offset="1" stop-color="#F0DDFC"/>
</linearGradient>
<linearGradient id="paint23_linear_919_160" x1="25" y1="40.5005" x2="25" y2="45.3587" gradientUnits="userSpaceOnUse">
<stop stop-color="#F0DDFC" stop-opacity="0"/>
<stop offset="0.2889" stop-color="#C8B7E0" stop-opacity="0.290196"/>
<stop offset="0.5915" stop-color="#A595C8" stop-opacity="0.592157"/>
<stop offset="0.8395" stop-color="#8F81B8" stop-opacity="0.839216"/>
<stop offset="1" stop-color="#8779B3"/>
</linearGradient>
<linearGradient id="paint24_linear_919_160" x1="5.26143" y1="39.1932" x2="2.48846" y2="36.4202" gradientUnits="userSpaceOnUse">
<stop stop-color="#F9F7FC"/>
<stop offset="1" stop-color="#F0DDFC"/>
</linearGradient>
<linearGradient id="paint25_linear_919_160" x1="6.0296" y1="39.9613" x2="2.03932" y2="35.971" gradientUnits="userSpaceOnUse">
<stop stop-color="#F0DDFC" stop-opacity="0"/>
<stop offset="0.2889" stop-color="#C8B7E0" stop-opacity="0.290196"/>
<stop offset="0.5915" stop-color="#A595C8" stop-opacity="0.592157"/>
<stop offset="0.8395" stop-color="#8F81B8" stop-opacity="0.839216"/>
<stop offset="1" stop-color="#8779B3"/>
</linearGradient>
<linearGradient id="paint26_linear_919_160" x1="3.24365" y1="37.1754" x2="5.05307" y2="38.9848" gradientUnits="userSpaceOnUse">
<stop stop-color="#FFC738"/>
<stop offset="1" stop-color="#E97264"/>
</linearGradient>
<linearGradient id="paint27_linear_919_160" x1="9.73867" y1="39.1932" x2="6.96571" y2="36.4202" gradientUnits="userSpaceOnUse">
<stop stop-color="#F9F7FC"/>
<stop offset="1" stop-color="#F0DDFC"/>
</linearGradient>
<linearGradient id="paint28_linear_919_160" x1="10.5064" y1="39.9613" x2="6.51608" y2="35.971" gradientUnits="userSpaceOnUse">
<stop stop-color="#F0DDFC" stop-opacity="0"/>
<stop offset="0.2889" stop-color="#C8B7E0" stop-opacity="0.290196"/>
<stop offset="0.5915" stop-color="#A595C8" stop-opacity="0.592157"/>
<stop offset="0.8395" stop-color="#8F81B8" stop-opacity="0.839216"/>
<stop offset="1" stop-color="#8779B3"/>
</linearGradient>
<linearGradient id="paint29_linear_919_160" x1="7.72041" y1="37.1754" x2="9.52982" y2="38.9848" gradientUnits="userSpaceOnUse">
<stop stop-color="#FFB5B0"/>
<stop offset="1" stop-color="#FF70AC"/>
</linearGradient>
<linearGradient id="paint30_linear_919_160" x1="14.2155" y1="39.1932" x2="11.4426" y2="36.4202" gradientUnits="userSpaceOnUse">
<stop stop-color="#F9F7FC"/>
<stop offset="1" stop-color="#F0DDFC"/>
</linearGradient>
<linearGradient id="paint31_linear_919_160" x1="14.9837" y1="39.9613" x2="10.9934" y2="35.971" gradientUnits="userSpaceOnUse">
<stop stop-color="#F0DDFC" stop-opacity="0"/>
<stop offset="0.2889" stop-color="#C8B7E0" stop-opacity="0.290196"/>
<stop offset="0.5915" stop-color="#A595C8" stop-opacity="0.592157"/>
<stop offset="0.8395" stop-color="#8F81B8" stop-opacity="0.839216"/>
<stop offset="1" stop-color="#8779B3"/>
</linearGradient>
<linearGradient id="paint32_linear_919_160" x1="12.1977" y1="37.1754" x2="14.0071" y2="38.9848" gradientUnits="userSpaceOnUse">
<stop stop-color="#AF9CE6"/>
<stop offset="0.1591" stop-color="#AB9CE7"/>
<stop offset="0.3136" stop-color="#9F9BE8"/>
<stop offset="0.4663" stop-color="#8C9BEB"/>
<stop offset="0.6178" stop-color="#709AEF"/>
<stop offset="0.7686" stop-color="#4D99F5"/>
<stop offset="0.9167" stop-color="#2297FB"/>
<stop offset="1" stop-color="#0796FF"/>
</linearGradient>
<linearGradient id="paint33_linear_919_160" x1="44.8165" y1="39.9869" x2="30.7642" y2="23.647" gradientUnits="userSpaceOnUse">
<stop stop-color="#F0DDFC" stop-opacity="0"/>
<stop offset="0.2889" stop-color="#C8B7E0" stop-opacity="0.290196"/>
<stop offset="0.5915" stop-color="#A595C8" stop-opacity="0.592157"/>
<stop offset="0.8395" stop-color="#8F81B8" stop-opacity="0.839216"/>
<stop offset="1" stop-color="#8779B3"/>
</linearGradient>
<linearGradient id="paint34_linear_919_160" x1="46.6359" y1="33.9651" x2="34.0215" y2="22.4618" gradientUnits="userSpaceOnUse">
<stop stop-color="#F0DDFC" stop-opacity="0"/>
<stop offset="0.2889" stop-color="#C8B7E0" stop-opacity="0.290196"/>
<stop offset="0.5915" stop-color="#A595C8" stop-opacity="0.592157"/>
<stop offset="0.8395" stop-color="#8F81B8" stop-opacity="0.839216"/>
<stop offset="1" stop-color="#8779B3"/>
</linearGradient>
<linearGradient id="paint35_linear_919_160" x1="50.5798" y1="24.2027" x2="44.3706" y2="18.255" gradientUnits="userSpaceOnUse">
<stop stop-color="#F0DDFC" stop-opacity="0"/>
<stop offset="0.2889" stop-color="#C8B7E0" stop-opacity="0.290196"/>
<stop offset="0.5915" stop-color="#A595C8" stop-opacity="0.592157"/>
<stop offset="0.8395" stop-color="#8F81B8" stop-opacity="0.839216"/>
<stop offset="1" stop-color="#8779B3"/>
</linearGradient>
<linearGradient id="paint36_linear_919_160" x1="33.5525" y1="17.8289" x2="41.9839" y2="35.476" gradientUnits="userSpaceOnUse">
<stop stop-color="#00E7B2"/>
<stop offset="0.158" stop-color="#02E3B0"/>
<stop offset="0.318" stop-color="#08D7AB"/>
<stop offset="0.479" stop-color="#12C2A3"/>
<stop offset="0.6406" stop-color="#21A698"/>
<stop offset="0.8029" stop-color="#338189"/>
<stop offset="0.9635" stop-color="#495577"/>
<stop offset="1" stop-color="#4F4A72"/>
</linearGradient>
</defs>
</svg>
