<svg width="80" height="80" viewBox="0 0 80 80" fill="none" xmlns="http://www.w3.org/2000/svg">
<g clip-path="url(#clip0_828_242)">
<path d="M78.6776 67.1136C79.3159 64.5575 79.9228 60.8825 75.4846 56.842C61.5949 44.1967 86.9021 41.5187 68.5182 20.3353C57.3106 7.42062 23.9943 -11.4136 15.8312 9.06437C10.8679 21.5153 0.331036 20.5445 0.90088 30.4628C1.26572 36.8142 11.1742 37.5736 6.92525 48.5336C2.58713 59.7236 25.6792 66.9855 31.2521 56.613C32.7106 53.8984 35.3563 45.9536 38.7751 48.3039C47.0118 53.9662 41.907 68.8388 47.456 75.8014C53.6379 83.5575 75.3313 80.5145 78.6776 67.1136Z" fill="url(#paint0_linear_828_242)"/>
<path d="M70.1515 14.2981V65.7012C70.1515 66.5653 69.4515 67.2637 68.589 67.2637H18.1421C17.2796 67.2637 16.5796 66.5653 16.5796 65.7012V14.2981C16.5796 13.434 17.2796 12.7356 18.1421 12.7356H68.589C69.4515 12.7356 70.1515 13.434 70.1515 14.2981Z" fill="white"/>
<path d="M34.2171 63.7906C33.8952 65.0406 33.4983 66.1969 33.0483 67.2641H18.1421C17.2796 67.2641 16.5796 66.5656 16.5796 65.7016V51.8969C18.2093 51.6172 20.0202 51.1922 21.7452 50.5469L22.1499 50.3953C22.4187 50.2953 22.714 50.2953 22.9827 50.3953L23.389 50.5469C26.8827 51.8563 30.739 52.2578 32.7249 52.3812L33.7608 52.4453C34.364 52.4828 34.8437 52.9687 34.8733 53.5734L34.9218 54.6094C35.039 57.0906 35.0124 60.6984 34.2171 63.7906Z" fill="#D9D9FF"/>
<path d="M25.0126 28.4414H24.1412C23.0973 28.4414 22.248 29.2906 22.248 30.3344V33.0239C22.248 34.0678 23.0973 34.917 24.1412 34.917H25.0126C26.0563 34.917 26.9055 34.0677 26.9055 33.0239V30.3344C26.9055 29.2906 26.0563 28.4414 25.0126 28.4414ZM25.343 33.0241C25.343 33.2064 25.1948 33.3547 25.0126 33.3547H24.1412C23.9588 33.3547 23.8105 33.2064 23.8105 33.0241V30.3345C23.8105 30.1523 23.9588 30.0041 24.1412 30.0041H25.0126C25.1949 30.0041 25.343 30.1523 25.343 30.3345V33.0241Z" fill="#FF4D4D"/>
<path d="M39.2124 28.4414H38.341C37.2972 28.4414 36.448 29.2906 36.448 30.3344V33.0239C36.448 34.0678 37.2972 34.917 38.341 34.917H39.2124C40.2563 34.917 41.1055 34.0677 41.1055 33.0239V30.3344C41.1055 29.2906 40.2563 28.4414 39.2124 28.4414ZM39.543 33.0241C39.543 33.2064 39.3947 33.3547 39.2124 33.3547H38.341C38.1586 33.3547 38.0105 33.2064 38.0105 33.0241V30.3345C38.0105 30.1523 38.1588 30.0041 38.341 30.0041H39.2124C39.3947 30.0041 39.543 30.1523 39.543 30.3345V33.0241Z" fill="#FF4D4D"/>
<path d="M45.344 28.4414H44.4726C43.4288 28.4414 42.5796 29.2906 42.5796 30.3344V33.0239C42.5796 34.0678 43.4288 34.917 44.4726 34.917H45.344C46.3877 34.917 47.2369 34.0677 47.2369 33.0239V30.3344C47.2369 29.2906 46.3877 28.4414 45.344 28.4414ZM45.6744 33.0241C45.6744 33.2064 45.5262 33.3547 45.344 33.3547H44.4726C44.2902 33.3547 44.1421 33.2064 44.1421 33.0241V30.3345C44.1421 30.1523 44.2904 30.0041 44.4726 30.0041H45.344C45.5263 30.0041 45.6744 30.1523 45.6744 30.3345V33.0241Z" fill="#FF4D4D"/>
<path d="M28.8323 30.0039H28.9409V34.1358C28.9409 34.5673 29.2907 34.917 29.7221 34.917C30.1535 34.917 30.5034 34.5673 30.5034 34.1358V29.2227C30.5034 28.7911 30.1535 28.4414 29.7221 28.4414H28.8323C28.4009 28.4414 28.051 28.7911 28.051 29.2227C28.051 29.6542 28.4009 30.0039 28.8323 30.0039Z" fill="#FF4D4D"/>
<path d="M33.0127 30.0039H33.1213V34.1358C33.1213 34.5673 33.4711 34.917 33.9025 34.917C34.3339 34.917 34.6838 34.5673 34.6838 34.1358V29.2227C34.6838 28.7911 34.3339 28.4414 33.9025 28.4414H33.0127C32.5813 28.4414 32.2314 28.7911 32.2314 29.2227C32.2314 29.6542 32.5813 30.0039 33.0127 30.0039Z" fill="#FF4D4D"/>
<path d="M54.9259 34.9173H55.7973C56.8412 34.9173 57.6905 34.0679 57.6905 33.0242V30.3346C57.6905 29.2907 56.8412 28.4417 55.7973 28.4417H54.9259C53.8822 28.4417 53.033 29.2909 53.033 30.3346V33.0242C53.033 34.0679 53.8822 34.9173 54.9259 34.9173ZM54.5955 30.3346C54.5955 30.1524 54.7437 30.0042 54.9259 30.0042H55.7973C55.9797 30.0042 56.128 30.1524 56.128 30.3346V33.0242C56.128 33.2065 55.9797 33.3548 55.7973 33.3548H54.9259C54.7436 33.3548 54.5955 33.2065 54.5955 33.0242V30.3346Z" fill="#FF4D4D"/>
<path d="M61.9289 28.4414H61.0575C60.0138 28.4414 59.1646 29.2906 59.1646 30.3344V33.0239C59.1646 34.0678 60.0138 34.917 61.0575 34.917H61.9289C62.9728 34.917 63.822 34.0677 63.822 33.0239V30.3344C63.8219 29.2906 62.9727 28.4414 61.9289 28.4414ZM62.2594 33.0241C62.2594 33.2064 62.1111 33.3547 61.9288 33.3547H61.0574C60.875 33.3547 60.7269 33.2064 60.7269 33.0241V30.3345C60.7269 30.1523 60.8752 30.0041 61.0574 30.0041H61.9288C62.1111 30.0041 62.2594 30.1523 62.2594 30.3345V33.0241Z" fill="#FF4D4D"/>
<path d="M49.5977 30.0039H49.7063V34.1358C49.7063 34.5673 50.0561 34.917 50.4875 34.917C50.9189 34.917 51.2688 34.5673 51.2688 34.1358V29.2227C51.2688 28.7911 50.9189 28.4414 50.4875 28.4414H49.5977C49.1663 28.4414 48.8164 28.7911 48.8164 29.2227C48.8164 29.6542 49.1663 30.0039 49.5977 30.0039Z" fill="#FF4D4D"/>
<path d="M25.0126 36.7803H24.1412C23.0973 36.7803 22.248 37.6296 22.248 38.6734V41.3629C22.248 42.4068 23.0973 43.2561 24.1412 43.2561H25.0126C26.0563 43.2561 26.9055 42.4067 26.9055 41.3629V38.6734C26.9055 37.6295 26.0563 36.7803 25.0126 36.7803ZM25.343 41.3629C25.343 41.5453 25.1948 41.6936 25.0126 41.6936H24.1412C23.9588 41.6936 23.8105 41.5453 23.8105 41.3629V38.6734C23.8105 38.4911 23.9588 38.3428 24.1412 38.3428H25.0126C25.1949 38.3428 25.343 38.4911 25.343 38.6734V41.3629Z" fill="#FF4D4D"/>
<path d="M39.2124 36.7803H38.341C37.2972 36.7803 36.448 37.6296 36.448 38.6734V41.3629C36.448 42.4068 37.2972 43.2561 38.341 43.2561H39.2124C40.2563 43.2561 41.1055 42.4067 41.1055 41.3629V38.6734C41.1055 37.6295 40.2563 36.7803 39.2124 36.7803ZM39.543 41.3629C39.543 41.5453 39.3947 41.6936 39.2124 41.6936H38.341C38.1586 41.6936 38.0105 41.5453 38.0105 41.3629V38.6734C38.0105 38.4911 38.1588 38.3428 38.341 38.3428H39.2124C39.3947 38.3428 39.543 38.4911 39.543 38.6734V41.3629Z" fill="#FF4D4D"/>
<path d="M45.344 36.7803H44.4726C43.4288 36.7803 42.5796 37.6296 42.5796 38.6734V41.3629C42.5796 42.4068 43.4288 43.2561 44.4726 43.2561H45.344C46.3877 43.2561 47.2369 42.4067 47.2369 41.3629V38.6734C47.2369 37.6295 46.3877 36.7803 45.344 36.7803ZM45.6744 41.3629C45.6744 41.5453 45.5262 41.6936 45.344 41.6936H44.4726C44.2902 41.6936 44.1421 41.5453 44.1421 41.3629V38.6734C44.1421 38.4911 44.2904 38.3428 44.4726 38.3428H45.344C45.5263 38.3428 45.6744 38.4911 45.6744 38.6734V41.3629Z" fill="#FF4D4D"/>
<path d="M28.8323 38.3428H28.9409V42.4748C28.9409 42.9064 29.2907 43.2561 29.7221 43.2561C30.1535 43.2561 30.5034 42.9064 30.5034 42.4748V37.5615C30.5034 37.13 30.1535 36.7803 29.7221 36.7803H28.8323C28.4009 36.7803 28.051 37.13 28.051 37.5615C28.051 37.9931 28.4009 38.3428 28.8323 38.3428Z" fill="#FF4D4D"/>
<path d="M33.0127 38.3428H33.1213V42.4748C33.1213 42.9064 33.4711 43.2561 33.9025 43.2561C34.3339 43.2561 34.6838 42.9064 34.6838 42.4748V37.5615C34.6838 37.13 34.3339 36.7803 33.9025 36.7803H33.0127C32.5813 36.7803 32.2314 37.13 32.2314 37.5615C32.2314 37.9931 32.5813 38.3428 33.0127 38.3428Z" fill="#FF4D4D"/>
<path d="M54.948 38.6734V41.3629C54.948 42.4068 55.7972 43.2561 56.8411 43.2561H57.7125C58.7563 43.2561 59.6055 42.4067 59.6055 41.3629V38.6734C59.6055 37.6295 58.7563 36.7803 57.7125 36.7803H56.8411C55.7974 36.7803 54.948 37.6295 54.948 38.6734ZM58.043 38.6734V41.3629C58.043 41.5453 57.8947 41.6936 57.7125 41.6936H56.8411C56.6588 41.6936 56.5105 41.5453 56.5105 41.3629V38.6734C56.5105 38.4911 56.6588 38.3428 56.8411 38.3428H57.7125C57.8947 38.3428 58.043 38.4911 58.043 38.6734Z" fill="#FF4D4D"/>
<path d="M50.7095 43.2561H51.5809C52.6247 43.2561 53.4739 42.4067 53.4739 41.3629V38.6734C53.4739 37.6295 52.6247 36.7803 51.5809 36.7803H50.7095C49.6656 36.7803 48.8164 37.6296 48.8164 38.6734V41.3629C48.8164 42.4067 49.6656 43.2561 50.7095 43.2561ZM50.3789 38.6734C50.3789 38.4911 50.5272 38.3428 50.7095 38.3428H51.5809C51.7633 38.3428 51.9114 38.4911 51.9114 38.6734V41.3629C51.9114 41.5453 51.7631 41.6936 51.5809 41.6936H50.7095C50.5272 41.6936 50.3789 41.5453 50.3789 41.3629V38.6734Z" fill="#FF4D4D"/>
<path d="M63.0405 36.7803H62.1506C61.7192 36.7803 61.3694 37.13 61.3694 37.5615C61.3694 37.9931 61.7192 38.3428 62.1506 38.3428H62.2592V42.4748C62.2592 42.9064 62.6091 43.2561 63.0405 43.2561C63.4719 43.2561 63.8217 42.9064 63.8217 42.4748V37.5615C63.8217 37.13 63.472 36.7803 63.0405 36.7803Z" fill="#FF4D4D"/>
<path d="M25.0126 45.1191H24.1412C23.0973 45.1191 22.248 45.9685 22.248 47.0123V49.7018C22.248 50.7457 23.0973 51.5948 24.1412 51.5948H25.0126C26.0563 51.5948 26.9055 50.7455 26.9055 49.7018V47.0123C26.9055 45.9684 26.0563 45.1191 25.0126 45.1191ZM25.343 49.7018C25.343 49.884 25.1948 50.0323 25.0126 50.0323H24.1412C23.9588 50.0323 23.8105 49.884 23.8105 49.7018V47.0123C23.8105 46.8299 23.9588 46.6816 24.1412 46.6816H25.0126C25.1949 46.6816 25.343 46.8299 25.343 47.0123V49.7018Z" fill="#FF4D4D"/>
<path d="M45.344 45.1191H44.4726C43.4288 45.1191 42.5796 45.9685 42.5796 47.0123V49.7018C42.5796 50.7457 43.4288 51.5948 44.4726 51.5948H45.344C46.3877 51.5948 47.2369 50.7455 47.2369 49.7018V47.0123C47.2369 45.9684 46.3877 45.1191 45.344 45.1191ZM45.6744 49.7018C45.6744 49.884 45.5262 50.0323 45.344 50.0323H44.4726C44.2902 50.0323 44.1421 49.884 44.1421 49.7018V47.0123C44.1421 46.8299 44.2904 46.6816 44.4726 46.6816H45.344C45.5263 46.6816 45.6744 46.8299 45.6744 47.0123V49.7018Z" fill="#FF4D4D"/>
<path d="M30.3471 45.1191H29.4573C29.0259 45.1191 28.676 45.4688 28.676 45.9004C28.676 46.332 29.0259 46.6816 29.4573 46.6816H29.5659V50.8135C29.5659 51.2451 29.9157 51.5948 30.3471 51.5948C30.7785 51.5948 31.1284 51.2451 31.1284 50.8135V45.9004C31.1284 45.4688 30.7785 45.1191 30.3471 45.1191Z" fill="#FF4D4D"/>
<path d="M34.84 45.1191H33.9502C33.5188 45.1191 33.1689 45.4688 33.1689 45.9004C33.1689 46.332 33.5188 46.6816 33.9502 46.6816H34.0588V50.8135C34.0588 51.2451 34.4086 51.5948 34.84 51.5948C35.2714 51.5948 35.6213 51.2451 35.6213 50.8135V45.9004C35.6213 45.4688 35.2714 45.1191 34.84 45.1191Z" fill="#FF4D4D"/>
<path d="M39.382 51.5948C39.8134 51.5948 40.1633 51.2451 40.1633 50.8135V45.9004C40.1633 45.4688 39.8134 45.1191 39.382 45.1191H38.4922C38.0608 45.1191 37.7109 45.4688 37.7109 45.9004C37.7109 46.332 38.0608 46.6816 38.4922 46.6816H38.6008V50.8135C38.6008 51.2451 38.9506 51.5948 39.382 51.5948Z" fill="#FF4D4D"/>
<path d="M57.6902 49.7018V47.0123C57.6902 45.9684 56.841 45.1191 55.7971 45.1191H54.9257C53.8819 45.1191 53.0327 45.9685 53.0327 47.0123V49.7018C53.0327 50.7457 53.8819 51.5948 54.9257 51.5948H55.7971C56.841 51.5948 57.6902 50.7455 57.6902 49.7018ZM54.5954 49.7018V47.0123C54.5954 46.8299 54.7437 46.6816 54.9258 46.6816H55.7972C55.9796 46.6816 56.1279 46.8299 56.1279 47.0123V49.7018C56.1279 49.884 55.9796 50.0323 55.7972 50.0323H54.9258C54.7435 50.0323 54.5954 49.884 54.5954 49.7018Z" fill="#FF4D4D"/>
<path d="M61.9289 45.1191H61.0575C60.0138 45.1191 59.1646 45.9685 59.1646 47.0123V49.7018C59.1646 50.7457 60.0138 51.5948 61.0575 51.5948H61.9289C62.9728 51.5948 63.822 50.7455 63.822 49.7018V47.0123C63.8219 45.9684 62.9727 45.1191 61.9289 45.1191ZM62.2594 49.7018C62.2594 49.884 62.1111 50.0323 61.9288 50.0323H61.0574C60.875 50.0323 60.7269 49.884 60.7269 49.7018V47.0123C60.7269 46.8299 60.8752 46.6816 61.0574 46.6816H61.9288C62.1111 46.6816 62.2594 46.8299 62.2594 47.0123V49.7018Z" fill="#FF4D4D"/>
<path d="M49.5977 46.6816H49.7063V50.8135C49.7063 51.2451 50.0561 51.5948 50.4875 51.5948C50.9189 51.5948 51.2688 51.2451 51.2688 50.8135V45.9004C51.2688 45.4688 50.9189 45.1191 50.4875 45.1191H49.5977C49.1663 45.1191 48.8164 45.4688 48.8164 45.9004C48.8164 46.332 49.1663 46.6816 49.5977 46.6816Z" fill="#FF4D4D"/>
<path d="M25.0126 53.458H24.1412C23.0973 53.458 22.248 54.3072 22.248 55.351V58.0407C22.248 59.0846 23.0973 59.9336 24.1412 59.9336H25.0126C26.0563 59.9336 26.9055 59.0844 26.9055 58.0407V55.351C26.9055 54.3071 26.0563 53.458 25.0126 53.458ZM25.343 58.0407C25.343 58.2229 25.1948 58.3711 25.0126 58.3711H24.1412C23.9588 58.3711 23.8105 58.2229 23.8105 58.0407V55.351C23.8105 55.1688 23.9588 55.0205 24.1412 55.0205H25.0126C25.1949 55.0205 25.343 55.1688 25.343 55.351V58.0407Z" fill="#FF4D4D"/>
<path d="M39.2124 53.458H38.341C37.2972 53.458 36.448 54.3072 36.448 55.351V58.0407C36.448 59.0846 37.2972 59.9336 38.341 59.9336H39.2124C40.2563 59.9336 41.1055 59.0844 41.1055 58.0407V55.351C41.1055 54.3071 40.2563 53.458 39.2124 53.458ZM39.543 58.0407C39.543 58.2229 39.3947 58.3711 39.2124 58.3711H38.341C38.1586 58.3711 38.0105 58.2229 38.0105 58.0407V55.351C38.0105 55.1688 38.1588 55.0205 38.341 55.0205H39.2124C39.3947 55.0205 39.543 55.1688 39.543 55.351V58.0407Z" fill="#FF4D4D"/>
<path d="M45.344 53.458H44.4726C43.4288 53.458 42.5796 54.3072 42.5796 55.351V58.0407C42.5796 59.0846 43.4288 59.9336 44.4726 59.9336H45.344C46.3877 59.9336 47.2369 59.0844 47.2369 58.0407V55.351C47.2369 54.3071 46.3877 53.458 45.344 53.458ZM45.6744 58.0407C45.6744 58.2229 45.5262 58.3711 45.344 58.3711H44.4726C44.2902 58.3711 44.1421 58.2229 44.1421 58.0407V55.351C44.1421 55.1688 44.2904 55.0205 44.4726 55.0205H45.344C45.5263 55.0205 45.6744 55.1688 45.6744 55.351V58.0407Z" fill="#FF4D4D"/>
<path d="M29.7221 53.458H28.8323C28.4009 53.458 28.051 53.8077 28.051 54.2393C28.051 54.6708 28.4009 55.0205 28.8323 55.0205H28.9409V59.1524C28.9409 59.5839 29.2907 59.9336 29.7221 59.9336C30.1535 59.9336 30.5034 59.5839 30.5034 59.1524V54.2393C30.5034 53.8077 30.1535 53.458 29.7221 53.458Z" fill="#FF4D4D"/>
<path d="M33.9025 53.458H33.0127C32.5813 53.458 32.2314 53.8077 32.2314 54.2393C32.2314 54.6708 32.5813 55.0205 33.0127 55.0205H33.1213V59.1524C33.1213 59.5839 33.4711 59.9336 33.9025 59.9336C34.3339 59.9336 34.6838 59.5839 34.6838 59.1524V54.2393C34.6838 53.8077 34.3339 53.458 33.9025 53.458Z" fill="#FF4D4D"/>
<path d="M57.7125 53.458H56.8411C55.7972 53.458 54.948 54.3072 54.948 55.351V58.0407C54.948 59.0846 55.7972 59.9336 56.8411 59.9336H57.7125C58.7563 59.9336 59.6055 59.0844 59.6055 58.0407V55.351C59.6055 54.3071 58.7563 53.458 57.7125 53.458ZM58.043 58.0407C58.043 58.2229 57.8947 58.3711 57.7125 58.3711H56.8411C56.6588 58.3711 56.5105 58.2229 56.5105 58.0407V55.351C56.5105 55.1688 56.6588 55.0205 56.8411 55.0205H57.7125C57.8949 55.0205 58.043 55.1688 58.043 55.351V58.0407Z" fill="#FF4D4D"/>
<path d="M51.5809 53.458H50.7095C49.6656 53.458 48.8164 54.3072 48.8164 55.351V58.0407C48.8164 59.0846 49.6656 59.9336 50.7095 59.9336H51.5809C52.6247 59.9336 53.4739 59.0844 53.4739 58.0407V55.351C53.4739 54.3071 52.6247 53.458 51.5809 53.458ZM51.9114 58.0407C51.9114 58.2229 51.7631 58.3711 51.5809 58.3711H50.7095C50.5272 58.3711 50.3789 58.2229 50.3789 58.0407V55.351C50.3789 55.1688 50.5272 55.0205 50.7095 55.0205H51.5809C51.7633 55.0205 51.9114 55.1688 51.9114 55.351V58.0407Z" fill="#FF4D4D"/>
<path d="M63.0405 53.458H62.1506C61.7192 53.458 61.3694 53.8077 61.3694 54.2393C61.3694 54.6708 61.7192 55.0205 62.1506 55.0205H62.2592V59.1524C62.2592 59.5839 62.6091 59.9336 63.0405 59.9336C63.4719 59.9336 63.8217 59.5839 63.8217 59.1524V54.2393C63.8217 53.8077 63.472 53.458 63.0405 53.458Z" fill="#FF4D4D"/>
<path d="M70.1512 21.3364V14.2979C70.1512 13.4349 69.4517 12.7354 68.5887 12.7354H18.1431C17.2801 12.7354 16.5806 13.4349 16.5806 14.2979V21.3364H70.1512Z" fill="#9494FF"/>
<path d="M65.3234 21.3364H52.4124L52.7814 19.5348C52.9303 18.8078 53.57 18.2859 54.3122 18.2859H63.4236C64.1656 18.2859 64.8053 18.8078 64.9542 19.5348L65.3234 21.3364Z" fill="#B3B3FF"/>
<path d="M27.3306 18.2859C27.762 18.2859 28.1118 17.9361 28.1118 17.5046C28.1118 17.0732 27.762 16.7234 27.3306 16.7234C26.8991 16.7234 26.5493 17.0732 26.5493 17.5046C26.5493 17.9361 26.8991 18.2859 27.3306 18.2859Z" fill="white"/>
<path d="M24.5647 18.2859C24.9962 18.2859 25.3459 17.9361 25.3459 17.5046C25.3459 17.0732 24.9962 16.7234 24.5647 16.7234C24.1332 16.7234 23.7834 17.0732 23.7834 17.5046C23.7834 17.9361 24.1332 18.2859 24.5647 18.2859Z" fill="white"/>
<path d="M21.7986 18.2859C22.2301 18.2859 22.5798 17.9361 22.5798 17.5046C22.5798 17.0732 22.2301 16.7234 21.7986 16.7234C21.3671 16.7234 21.0173 17.0732 21.0173 17.5046C21.0173 17.9361 21.3671 18.2859 21.7986 18.2859Z" fill="white"/>
<path d="M52.8904 21.3359L52.5214 19.5348C52.3725 18.8078 51.7328 18.2859 50.9906 18.2859H41.8792C41.1372 18.2859 40.4975 18.8078 40.3486 19.5348L39.9795 21.3359H16.5811V24.3359H70.1514V21.3359H52.8904Z" fill="#4D4DFF"/>
<path d="M70.1515 14.2981V65.7012C70.1515 66.5653 69.4515 67.2637 68.589 67.2637H18.1421C17.2796 67.2637 16.5796 66.5653 16.5796 65.7012V14.2981C16.5796 13.434 17.2796 12.7356 18.1421 12.7356H68.589C69.4515 12.7356 70.1515 13.434 70.1515 14.2981Z" fill="url(#paint1_linear_828_242)"/>
<path d="M21.3998 74.272C18.9942 72.8911 13.157 68.7397 10.9167 60.0397C10.1204 56.9476 10.0937 53.3408 10.2115 50.8594L10.2607 49.8237C10.2895 49.219 10.7687 48.7328 11.3729 48.6953L12.4078 48.6312C14.3949 48.5081 18.2504 48.1062 21.7443 46.7973L22.1501 46.6453C22.4185 46.5447 22.7145 46.5447 22.9829 46.6453L23.3887 46.7973C26.8828 48.1064 30.7382 48.5083 32.7253 48.6314L33.7601 48.6954C34.3643 48.7329 34.8435 49.219 34.8723 49.8239L34.9214 50.8595C35.0392 53.3409 35.0124 56.9479 34.2162 60.0398C31.976 68.7398 26.1389 72.8912 23.7332 74.2722L23.1573 74.6028C22.7914 74.8128 22.3414 74.8128 21.9754 74.6028L21.3998 74.272Z" fill="#9494FF"/>
<path d="M22.5667 72.2395C20.5165 71.0627 15.2176 67.3431 13.1865 59.4553C12.434 56.5331 12.4576 52.9763 12.5528 50.9706C14.9092 50.8247 18.8793 50.3736 22.5667 48.9922C26.254 50.3736 30.2242 50.8247 32.5806 50.9706C32.6757 52.9763 32.6993 56.533 31.9468 59.4553C29.9157 67.343 24.6167 71.0627 22.5667 72.2395Z" fill="#6C6CFF"/>
<path d="M25.9325 69.7258C24.5811 70.9866 23.342 71.7946 22.5667 72.2393C21.7914 71.7947 20.5525 70.9866 19.2009 69.7258C20.0028 68.7596 21.2125 68.1438 22.5667 68.1438C23.9209 68.144 25.1305 68.7596 25.9325 69.7258Z" fill="#4D4DFF"/>
<path d="M20.5552 58.3808V55.5327C20.5552 54.4236 21.4575 53.5212 22.5666 53.5212C23.6757 53.5212 24.578 54.4236 24.578 55.5327V58.3808H26.4196V55.5327C26.4196 53.4081 24.6911 51.6797 22.5666 51.6797C20.4421 51.6797 18.7136 53.4081 18.7136 55.5327V58.3808H20.5552Z" fill="#FFE8DC"/>
<path d="M26.2798 65.8455H18.8534C18.3231 65.8455 17.8931 65.4155 17.8931 64.8852V58.7582C17.8931 58.2277 18.3231 57.7979 18.8534 57.7979H26.2798C26.8101 57.7979 27.2401 58.2279 27.2401 58.7582V64.8852C27.2401 65.4155 26.8103 65.8455 26.2798 65.8455Z" fill="#FFAB66"/>
<path d="M25.649 65.8454H19.4839V62.87C19.4839 62.4257 19.844 62.0654 20.2884 62.0654H24.8447C25.2889 62.0654 25.6492 62.4256 25.6492 62.87V65.8454H25.649Z" fill="#FFC599"/>
<path d="M23.7742 61.5912C23.7742 60.8987 23.1912 60.3423 22.4894 60.3862C21.9003 60.4229 21.4161 60.8937 21.3642 61.4817C21.32 61.9837 21.5833 62.429 21.9867 62.6504V63.7739C21.9867 64.0942 22.2464 64.3539 22.5667 64.3539C22.887 64.3539 23.1467 64.0942 23.1467 63.7739V62.6504C23.5206 62.4451 23.7742 62.0478 23.7742 61.5912Z" fill="#FF4D4D"/>
<path d="M19.5877 59.8137C19.8228 59.8137 20.0134 59.6231 20.0134 59.388C20.0134 59.153 19.8228 58.9624 19.5877 58.9624C19.3527 58.9624 19.1621 59.153 19.1621 59.388C19.1621 59.6231 19.3527 59.8137 19.5877 59.8137Z" fill="#FF8B00"/>
<path d="M25.5455 59.8137C25.7806 59.8137 25.9711 59.6231 25.9711 59.388C25.9711 59.153 25.7806 58.9624 25.5455 58.9624C25.3104 58.9624 25.1199 59.153 25.1199 59.388C25.1199 59.6231 25.3104 59.8137 25.5455 59.8137Z" fill="#FF8B00"/>
<path d="M7.23022 45.678C6.79882 45.678 6.44897 45.3283 6.44897 44.8967C6.44897 44.423 6.06351 44.0374 5.5896 44.0374C5.15819 44.0374 4.80835 43.6877 4.80835 43.2561C4.80835 42.8245 5.15819 42.4749 5.5896 42.4749C6.06351 42.4749 6.44897 42.0892 6.44897 41.6155C6.44897 41.1839 6.79882 40.8342 7.23022 40.8342C7.66163 40.8342 8.01147 41.1839 8.01147 41.6155C8.01147 42.0892 8.39694 42.4749 8.87085 42.4749C9.30226 42.4749 9.6521 42.8245 9.6521 43.2561C9.6521 43.6877 9.30226 44.0374 8.87085 44.0374C8.39694 44.0374 8.01147 44.423 8.01147 44.8967C8.01147 45.3283 7.66163 45.678 7.23022 45.678Z" fill="#FF6C6C"/>
<path d="M73.1194 12.5012C72.688 12.5012 72.3381 12.1515 72.3381 11.72C72.3381 11.2462 71.9527 10.8606 71.4788 10.8606C71.0474 10.8606 70.6975 10.5109 70.6975 10.0793C70.6975 9.64778 71.0474 9.2981 71.4788 9.2981C71.9527 9.2981 72.3381 8.91247 72.3381 8.43872C72.3381 8.00716 72.688 7.65747 73.1194 7.65747C73.5508 7.65747 73.9006 8.00716 73.9006 8.43872C73.9006 8.91247 74.2861 9.2981 74.76 9.2981C75.1914 9.2981 75.5413 9.64778 75.5413 10.0793C75.5413 10.5109 75.1914 10.8606 74.76 10.8606C74.2861 10.8606 73.9006 11.2462 73.9006 11.72C73.9006 12.1515 73.5509 12.5012 73.1194 12.5012Z" fill="#FF6C6C"/>
<path d="M10.1602 36.4131C9.72875 36.4131 9.37891 36.0634 9.37891 35.6318C9.37891 35.1581 8.99344 34.7725 8.51953 34.7725C8.08813 34.7725 7.73828 34.4228 7.73828 33.9912C7.73828 33.5596 8.08813 33.21 8.51953 33.21C8.99344 33.21 9.37891 32.8243 9.37891 32.3506C9.37891 31.919 9.72875 31.5693 10.1602 31.5693C10.5916 31.5693 10.9414 31.919 10.9414 32.3506C10.9414 32.8243 11.3269 33.21 11.8008 33.21C12.2322 33.21 12.582 33.5596 12.582 33.9912C12.582 34.4228 12.2322 34.7725 11.8008 34.7725C11.3269 34.7725 10.9414 35.1581 10.9414 35.6318C10.9414 36.0634 10.5917 36.4131 10.1602 36.4131Z" fill="#6C6CFF"/>
<path d="M65.9852 8.36056C65.7852 8.36056 65.5854 8.28431 65.4327 8.13165C65.1276 7.82665 65.1276 7.33196 65.4327 7.02696L66.9952 5.46446C67.3004 5.15931 67.7949 5.15931 68.1001 5.46446C68.4052 5.76946 68.4052 6.26415 68.1001 6.56915L66.5376 8.13165C66.3851 8.28431 66.1851 8.36056 65.9852 8.36056Z" fill="#FF9D33"/>
<path d="M35.3451 75.7736C35.1451 75.7736 34.9452 75.6974 34.7926 75.5447C34.4874 75.2397 34.4874 74.745 34.7926 74.44L36.3551 72.8775C36.6602 72.5724 37.1548 72.5724 37.4599 72.8775C37.7651 73.1825 37.7651 73.6772 37.4599 73.9822L35.8974 75.5447C35.7449 75.6974 35.5451 75.7736 35.3451 75.7736Z" fill="#FF9D33"/>
</g>
<defs>
<linearGradient id="paint0_linear_828_242" x1="18.9379" y1="66.9061" x2="67.0812" y2="18.7628" gradientUnits="userSpaceOnUse">
<stop stop-color="white" stop-opacity="0"/>
<stop offset="0.2532" stop-color="#EEEEFF" stop-opacity="0.403"/>
<stop offset="0.629" stop-color="#D9D9FF"/>
</linearGradient>
<linearGradient id="paint1_linear_828_242" x1="43.3655" y1="67.2637" x2="43.3655" y2="12.7356" gradientUnits="userSpaceOnUse">
<stop stop-color="#FF4D4D" stop-opacity="0.4"/>
<stop offset="0.1463" stop-color="#FF4D4D" stop-opacity="0.342"/>
<stop offset="1" stop-color="#FF4D4D" stop-opacity="0"/>
</linearGradient>
<clipPath id="clip0_828_242">
<rect width="80" height="80" fill="white"/>
</clipPath>
</defs>
</svg>
