<svg width="50" height="51" viewBox="0 0 50 51" fill="none" xmlns="http://www.w3.org/2000/svg">
<g clip-path="url(#clip0_919_198)">
<path d="M35.4828 46.9062C31.9662 45.7696 29.5836 42.4953 29.5836 38.7998V35.6875H20.4168V38.7998C20.4168 42.4954 18.0341 45.7697 14.5176 46.9062H35.4828Z" fill="url(#paint0_linear_919_198)"/>
<path d="M35.4824 46.9062C31.9659 45.7696 29.5831 42.4953 29.5831 38.7998V35.6875H20.4164V38.7998C20.4164 39.9838 20.1707 41.124 19.7227 42.1651L19.7231 42.166L24.4633 46.9062H35.4824Z" fill="url(#paint1_linear_919_198)"/>
<path d="M46.8257 42.166H3.17431C1.42118 42.166 0 40.7448 0 38.9916V9.85547C0 8.10233 1.42118 6.68115 3.17431 6.68115H46.8257C48.5788 6.68115 50 8.10233 50 9.85547V38.9916C50 40.7448 48.5788 42.166 46.8257 42.166Z" fill="url(#paint2_linear_919_198)"/>
<path d="M45.1036 39.8253H4.89609C3.50236 39.8253 2.37256 38.6955 2.37256 37.3017V11.5453C2.37256 10.1515 3.50236 9.02173 4.89609 9.02173H45.1036C46.4974 9.02173 47.6272 10.1515 47.6272 11.5453V37.3017C47.6271 38.6955 46.4973 39.8253 45.1036 39.8253Z" fill="url(#paint3_linear_919_198)"/>
<path d="M50.0001 9.85591V38.9912C50.0001 40.7451 48.5785 42.1657 46.8256 42.1657H27.3226L17.1991 32.0412C12.2893 27.303 9.48145 20.749 9.48145 13.8647V7.93826C9.48145 7.47159 9.62654 7.03826 9.87458 6.6814H46.8256C48.5785 6.6814 50.0001 8.10198 50.0001 9.85591Z" fill="url(#paint4_linear_919_198)"/>
<path d="M43.8643 38.3041H6.13571C4.85562 38.3041 3.81787 37.2663 3.81787 35.9862V12.8608C3.81787 11.5807 4.85562 10.543 6.13571 10.543H43.8642C45.1443 10.543 46.1821 11.5807 46.1821 12.8608V35.9862C46.1822 37.2663 45.1444 38.3041 43.8643 38.3041Z" fill="url(#paint5_linear_919_198)"/>
<path d="M25 9.99141C25.5355 9.99141 25.9697 9.55726 25.9697 9.02171C25.9697 8.48615 25.5355 8.052 25 8.052C24.4644 8.052 24.0303 8.48615 24.0303 9.02171C24.0303 9.55726 24.4644 9.99141 25 9.99141Z" fill="url(#paint6_linear_919_198)"/>
<path d="M25.0002 9.63034C25.3364 9.63034 25.6089 9.35785 25.6089 9.02171C25.6089 8.68558 25.3364 8.41309 25.0002 8.41309C24.6641 8.41309 24.3916 8.68558 24.3916 9.02171C24.3916 9.35785 24.6641 9.63034 25.0002 9.63034Z" fill="url(#paint7_linear_919_198)"/>
<path d="M39.5084 50.9979H10.4913C9.88123 50.9979 9.38672 50.5034 9.38672 49.8933C9.38672 47.935 10.9743 46.3474 12.9326 46.3474H37.0671C39.0254 46.3474 40.613 47.935 40.613 49.8933C40.613 50.5034 40.1185 50.9979 39.5084 50.9979Z" fill="url(#paint8_linear_919_198)"/>
<path d="M5.87156 41.4798H5.15126C4.73812 41.4798 4.40332 41.1449 4.40332 40.7319V40.0116C4.40332 39.5985 4.73822 39.2637 5.15126 39.2637H5.87156C6.28469 39.2637 6.6195 39.5986 6.6195 40.0116V40.7319C6.6195 41.1449 6.28469 41.4798 5.87156 41.4798Z" fill="url(#paint9_linear_919_198)"/>
<path d="M43.8645 10.543H9.67773V13.8647C9.67773 20.749 12.2894 27.303 17.1992 32.0412L23.4616 38.3041H43.8645C45.1446 38.3041 46.1823 37.2664 46.1823 35.9863V12.8608C46.1823 11.5807 45.1446 10.543 43.8645 10.543Z" fill="url(#paint10_linear_919_198)"/>
<path d="M38.3073 5.72751C34.3965 5.72751 30.6052 4.38006 27.5715 1.91202C26.0737 0.69339 23.9262 0.69339 22.4283 1.91202C19.3948 4.38016 15.6034 5.72751 11.6926 5.72751C10.4714 5.72751 9.48145 6.71751 9.48145 7.93868V13.8649C9.48145 21.4672 12.9048 28.6654 18.8019 33.4633L20.622 34.9441C23.1719 37.0186 26.8278 37.0186 29.3777 34.9441L31.1978 33.4633C37.0951 28.6655 40.5183 21.4669 40.5183 13.8646C40.5183 11.5894 40.5183 9.45123 40.5183 7.9382C40.5185 6.71702 39.5285 5.72751 38.3073 5.72751Z" fill="url(#paint11_linear_919_198)"/>
<path d="M25.0002 34.549C24.5738 34.549 24.1569 34.4008 23.8262 34.1317L20.345 31.2996C17.8022 29.2308 15.7141 26.5727 14.3063 23.6124C12.8984 20.6521 12.1543 17.3548 12.1543 14.0769V9.37406C12.1543 8.80514 12.6195 8.32132 13.1875 8.29132C17.0618 8.08642 20.8074 6.64975 23.8262 4.19387C24.1569 3.92475 24.5739 3.77661 25.0002 3.77661C25.4266 3.77661 25.8434 3.92475 26.1741 4.19387C29.1928 6.64985 32.9385 8.08651 36.8129 8.29142C37.381 8.32142 37.8461 8.80514 37.8461 9.37396V14.0766C37.8461 17.3546 37.1019 20.652 35.6941 23.6123C34.2863 26.5726 32.1981 29.2308 29.6555 31.2996L26.1742 34.1317C25.8434 34.4008 25.4266 34.549 25.0002 34.549Z" fill="url(#paint12_linear_919_198)"/>
<path d="M25.0001 32.6623C24.6098 32.6623 24.228 32.5266 23.9252 32.2802L20.7378 29.687C18.4097 27.7929 16.4977 25.359 15.2087 22.6486C14.63 21.4319 14.0211 19.8048 13.8468 19.4297C13.4452 17.8195 13.2383 16.16 13.2383 14.5059V10.2C13.2383 9.67917 13.6642 9.23623 14.1844 9.20868C17.7318 9.02103 21.1613 7.70564 23.9252 5.45701C24.2281 5.21064 24.6098 5.07495 25.0002 5.07495C25.3906 5.07495 25.7723 5.40672 26.0751 5.65299C28.8392 7.90172 31.5825 9.02113 35.1299 9.20868C35.65 9.23623 36.0759 9.67907 36.0759 10.1999V14.5057C36.0759 17.5071 35.3946 20.5262 34.1055 23.2367C32.8165 25.9472 30.9046 28.3811 28.5764 30.2752C28.5763 30.2752 25.3905 32.6623 25.0001 32.6623Z" fill="url(#paint13_linear_919_198)"/>
<path d="M26.075 32.8685L29.2625 30.2752C31.5906 28.3811 33.5025 25.9472 34.7916 23.2367C36.0806 20.5262 36.762 17.5071 36.762 14.5057V10.1999C36.762 9.67907 36.3361 9.23613 35.816 9.20868C32.2685 9.02113 28.8389 7.70564 26.0749 5.45691C25.7721 5.21054 25.3904 5.07495 25 5.07495V33.2505C25.3905 33.2505 25.7722 33.1149 26.075 32.8685Z" fill="url(#paint14_linear_919_198)"/>
<path d="M35.4658 19.4294C35.1393 20.7412 34.6844 22.0196 34.105 23.2373C32.8168 25.9471 30.904 28.3814 28.5766 30.2755L25.3883 32.8687C25.0864 33.1147 25.3903 33.251 25.0001 33.251C24.6099 33.251 24.2276 33.1147 23.9256 32.8687L20.7374 30.2755C18.4099 28.3814 16.4972 25.9471 15.2089 23.2373C14.6295 22.0206 14.1746 20.7412 13.8481 19.4294H35.4658Z" fill="url(#paint15_linear_919_198)"/>
<path d="M36.152 19.4294C35.8255 20.7412 35.3706 22.0196 34.7912 23.2373C33.5029 25.9471 31.5902 28.3814 29.2627 30.2755L26.0745 32.8687C25.7725 33.1147 25.3902 33.251 25 33.251V19.4294H36.152Z" fill="url(#paint16_linear_919_198)"/>
<path d="M40.5185 7.93815C40.5185 6.71697 39.5285 5.72756 38.3074 5.72756C34.3966 5.72756 30.6052 4.38011 27.5717 1.91207C26.8226 1.30275 25.9114 0.998047 25 0.998047V36.4999C26.5515 36.4999 28.1029 35.9813 29.3778 34.944L31.1979 33.4632C37.0952 28.6655 40.5184 21.4669 40.5184 13.8645C40.5185 11.5893 40.5185 9.45119 40.5185 7.93815Z" fill="url(#paint17_linear_919_198)"/>
</g>
<defs>
<linearGradient id="paint0_linear_919_198" x1="22.3349" y1="41.6509" x2="28.2037" y2="48.9593" gradientUnits="userSpaceOnUse">
<stop stop-color="#0B799D"/>
<stop offset="1" stop-color="#07485E"/>
</linearGradient>
<linearGradient id="paint1_linear_919_198" x1="29.4872" y1="49.1518" x2="23.6702" y2="34.9035" gradientUnits="userSpaceOnUse">
<stop stop-color="#07485E" stop-opacity="0"/>
<stop offset="1" stop-color="#03232E"/>
</linearGradient>
<linearGradient id="paint2_linear_919_198" x1="14.7424" y1="14.1659" x2="48.281" y2="47.7045" gradientUnits="userSpaceOnUse">
<stop stop-color="#0B799D"/>
<stop offset="1" stop-color="#07485E"/>
</linearGradient>
<linearGradient id="paint3_linear_919_198" x1="42.0748" y1="41.4986" x2="2.43227" y2="1.85594" gradientUnits="userSpaceOnUse">
<stop stop-color="#0B799D"/>
<stop offset="1" stop-color="#07485E"/>
</linearGradient>
<linearGradient id="paint4_linear_919_198" x1="41.6662" y1="28.2284" x2="25.8818" y2="13.0323" gradientUnits="userSpaceOnUse">
<stop stop-color="#07485E" stop-opacity="0"/>
<stop offset="1" stop-color="#03232E"/>
</linearGradient>
<linearGradient id="paint5_linear_919_198" x1="14.075" y1="13.4986" x2="35.9422" y2="35.3656" gradientUnits="userSpaceOnUse">
<stop stop-color="#EDF5FF"/>
<stop offset="1" stop-color="#D5E8FE"/>
</linearGradient>
<linearGradient id="paint6_linear_919_198" x1="26.4546" y1="10.4763" x2="23.1441" y2="7.16583" gradientUnits="userSpaceOnUse">
<stop stop-color="#0B799D"/>
<stop offset="1" stop-color="#07485E"/>
</linearGradient>
<linearGradient id="paint7_linear_919_198" x1="24.0873" y1="8.10887" x2="26.1649" y2="10.1865" gradientUnits="userSpaceOnUse">
<stop stop-color="#0B799D"/>
<stop offset="1" stop-color="#07485E"/>
</linearGradient>
<linearGradient id="paint8_linear_919_198" x1="24.0179" y1="46.9769" x2="27.6263" y2="56.9002" gradientUnits="userSpaceOnUse">
<stop stop-color="#0B799D"/>
<stop offset="1" stop-color="#07485E"/>
</linearGradient>
<linearGradient id="paint9_linear_919_198" x1="4.97332" y1="39.8336" x2="7.37313" y2="42.2334" gradientUnits="userSpaceOnUse">
<stop stop-color="#B9DD39"/>
<stop offset="1" stop-color="#0B799D"/>
</linearGradient>
<linearGradient id="paint10_linear_919_198" x1="42.4458" y1="32.2225" x2="23.8778" y2="14.8273" gradientUnits="userSpaceOnUse">
<stop stop-color="#B5DBFF" stop-opacity="0"/>
<stop offset="0.1734" stop-color="#8FC5E9" stop-opacity="0.173"/>
<stop offset="0.4541" stop-color="#56A4C8" stop-opacity="0.454"/>
<stop offset="0.6955" stop-color="#2D8DB1" stop-opacity="0.696"/>
<stop offset="0.8853" stop-color="#147EA2" stop-opacity="0.885"/>
<stop offset="1" stop-color="#0B799D"/>
</linearGradient>
<linearGradient id="paint11_linear_919_198" x1="11.9977" y1="2.67417" x2="38.761" y2="29.4374" gradientUnits="userSpaceOnUse">
<stop stop-color="#76E2F8"/>
<stop offset="1" stop-color="#48B2E3"/>
</linearGradient>
<linearGradient id="paint12_linear_919_198" x1="42.4636" y1="33.5658" x2="18.7837" y2="9.88592" gradientUnits="userSpaceOnUse">
<stop stop-color="#B5DBFF" stop-opacity="0"/>
<stop offset="0.2428" stop-color="#93CEF6" stop-opacity="0.243"/>
<stop offset="0.5763" stop-color="#6ABFEC" stop-opacity="0.576"/>
<stop offset="0.8403" stop-color="#51B5E5" stop-opacity="0.84"/>
<stop offset="1" stop-color="#48B2E3"/>
</linearGradient>
<linearGradient id="paint13_linear_919_198" x1="16.7375" y1="8.14691" x2="23.9769" y2="15.3862" gradientUnits="userSpaceOnUse">
<stop stop-color="#FF637B"/>
<stop offset="1" stop-color="#E63950"/>
</linearGradient>
<linearGradient id="paint14_linear_919_198" x1="23.3395" y1="13.9821" x2="28.9639" y2="19.6066" gradientUnits="userSpaceOnUse">
<stop stop-color="#B9DD39"/>
<stop offset="1" stop-color="#90CC1C"/>
</linearGradient>
<linearGradient id="paint15_linear_919_198" x1="21.9187" y1="18.7438" x2="27.8618" y2="24.6868" gradientUnits="userSpaceOnUse">
<stop stop-color="#48B2E3"/>
<stop offset="1" stop-color="#0095FF"/>
</linearGradient>
<linearGradient id="paint16_linear_919_198" x1="26.6782" y1="22.4425" x2="30.698" y2="26.4623" gradientUnits="userSpaceOnUse">
<stop stop-color="#FFDA2D"/>
<stop offset="1" stop-color="#FDBF00"/>
</linearGradient>
<linearGradient id="paint17_linear_919_198" x1="28.2254" y1="19.3471" x2="6.8551" y2="9.08932" gradientUnits="userSpaceOnUse">
<stop stop-color="#B5DBFF" stop-opacity="0"/>
<stop offset="0.1734" stop-color="#8FC5E9" stop-opacity="0.173"/>
<stop offset="0.4541" stop-color="#56A4C8" stop-opacity="0.454"/>
<stop offset="0.6955" stop-color="#2D8DB1" stop-opacity="0.696"/>
<stop offset="0.8853" stop-color="#147EA2" stop-opacity="0.885"/>
<stop offset="1" stop-color="#0B799D"/>
</linearGradient>
<clipPath id="clip0_919_198">
<rect width="50" height="50" fill="white" transform="translate(0 0.998047)"/>
</clipPath>
</defs>
</svg>
