<svg width="50" height="51" viewBox="0 0 50 51" fill="none" xmlns="http://www.w3.org/2000/svg">
<g clip-path="url(#clip0_919_74)">
<path d="M46.8838 31.6965H3.11618C1.3952 31.6965 0 30.3013 0 28.5802V21.2458C0 19.5247 1.3952 18.1296 3.11618 18.1296H46.8837C48.6048 18.1296 49.9999 19.5248 49.9999 21.2458V28.5802C50 30.3013 48.6048 31.6965 46.8838 31.6965Z" fill="url(#paint0_linear_919_74)"/>
<path d="M0 24.9131V28.5803C0 30.3014 1.3952 31.6965 3.11618 31.6965H46.8837C48.6048 31.6965 49.9999 30.3013 49.9999 28.5803V24.9131H0Z" fill="url(#paint1_linear_919_74)"/>
<path d="M46.8838 18.1296H25V31.6965H46.8838C48.6049 31.6965 50 30.3013 50 28.5803V21.2459C50 19.5248 48.6048 18.1296 46.8838 18.1296Z" fill="url(#paint2_linear_919_74)"/>
<path d="M5.96473 27.1551H4.50747C3.67169 27.1551 2.99414 26.4775 2.99414 25.6417V24.1845C2.99414 23.3487 3.67169 22.6711 4.50747 22.6711H5.96473C6.80051 22.6711 7.47806 23.3487 7.47806 24.1845V25.6417C7.47806 26.4775 6.80051 27.1551 5.96473 27.1551Z" fill="url(#paint3_linear_919_74)"/>
<path d="M17.3988 27.1551H15.9416C15.1058 27.1551 14.4282 26.4775 14.4282 25.6417V24.1845C14.4282 23.3487 15.1058 22.6711 15.9416 22.6711H17.3988C18.2346 22.6711 18.9121 23.3487 18.9121 24.1845V25.6417C18.9121 26.4775 18.2346 27.1551 17.3988 27.1551Z" fill="url(#paint4_linear_919_74)"/>
<path d="M11.6815 27.1551H10.2243C9.38849 27.1551 8.71094 26.4775 8.71094 25.6417V24.1845C8.71094 23.3487 9.38849 22.6711 10.2243 22.6711H11.6815C12.5173 22.6711 13.1949 23.3487 13.1949 24.1845V25.6417C13.1949 26.4775 12.5173 27.1551 11.6815 27.1551Z" fill="url(#paint5_linear_919_74)"/>
<path d="M45.1575 27.155H29.2735C28.3687 27.155 27.6353 26.4215 27.6353 25.5167V23.9871C27.6353 23.0823 28.3687 22.3489 29.2735 22.3489H45.1575C46.0623 22.3489 46.7957 23.0823 46.7957 23.9871V25.5167C46.7957 26.4214 46.0622 27.155 45.1575 27.155Z" fill="url(#paint6_linear_919_74)"/>
<path d="M46.8838 45.2634H3.11618C1.3952 45.2634 0 43.8682 0 42.1471V34.8127C0 33.0916 1.3952 31.6965 3.11618 31.6965H46.8837C48.6048 31.6965 49.9999 33.0917 49.9999 34.8127V42.1471C50 43.8682 48.6048 45.2634 46.8838 45.2634Z" fill="url(#paint7_linear_919_74)"/>
<path d="M0 38.48V42.1471C0 43.8682 1.3952 45.2633 3.11618 45.2633H46.8837C48.6048 45.2633 49.9999 43.8681 49.9999 42.1471V38.48H0Z" fill="url(#paint8_linear_919_74)"/>
<path d="M46.8838 31.6965H25V45.2634H46.8838C48.6049 45.2634 50 43.8682 50 42.1472V34.8127C50 33.0917 48.6048 31.6965 46.8838 31.6965Z" fill="url(#paint9_linear_919_74)"/>
<path d="M5.96473 40.7217H4.50747C3.67169 40.7217 2.99414 40.0442 2.99414 39.2084V37.7511C2.99414 36.9153 3.67169 36.2378 4.50747 36.2378H5.96473C6.80051 36.2378 7.47806 36.9153 7.47806 37.7511V39.2084C7.47806 40.0443 6.80051 40.7217 5.96473 40.7217Z" fill="url(#paint10_linear_919_74)"/>
<path d="M17.3988 40.7217H15.9416C15.1058 40.7217 14.4282 40.0442 14.4282 39.2084V37.7511C14.4282 36.9153 15.1058 36.2378 15.9416 36.2378H17.3988C18.2346 36.2378 18.9121 36.9153 18.9121 37.7511V39.2084C18.9121 40.0443 18.2346 40.7217 17.3988 40.7217Z" fill="url(#paint11_linear_919_74)"/>
<path d="M11.6815 40.7217H10.2243C9.38849 40.7217 8.71094 40.0442 8.71094 39.2084V37.7511C8.71094 36.9153 9.38849 36.2378 10.2243 36.2378H11.6815C12.5173 36.2378 13.1949 36.9153 13.1949 37.7511V39.2084C13.1949 40.0443 12.5173 40.7217 11.6815 40.7217Z" fill="url(#paint12_linear_919_74)"/>
<path d="M45.1575 40.7219H29.2735C28.3687 40.7219 27.6353 39.9884 27.6353 39.0836V37.554C27.6353 36.6492 28.3687 35.9158 29.2735 35.9158H45.1575C46.0623 35.9158 46.7957 36.6492 46.7957 37.554V39.0836C46.7957 39.9884 46.0622 40.7219 45.1575 40.7219Z" fill="url(#paint13_linear_919_74)"/>
<path d="M50 34.8122V42.1475C50 43.8681 48.6049 45.2632 46.8834 45.2632H16.6824L3.1167 31.6965H46.8834C48.6049 31.6965 50 33.0916 50 34.8122Z" fill="url(#paint14_linear_919_74)"/>
<path d="M49.9998 42.1472V34.8128C49.9998 33.0917 48.6046 31.6965 46.8837 31.6965C48.6047 31.6965 49.9998 30.3013 49.9998 28.5803V21.2459C49.9998 19.5248 48.6046 18.1296 46.8837 18.1296H13.5188C13.5187 18.284 13.5186 18.3905 13.5186 18.4102C13.5186 21.7945 14.7626 24.8416 17.0626 26.974L35.3511 45.2633H46.8836C48.6046 45.2635 49.9998 43.8683 49.9998 42.1472Z" fill="url(#paint15_linear_919_74)"/>
<path d="M24.9999 30.088C31.4493 30.088 36.6776 24.8597 36.6776 18.4103C36.6776 11.9609 31.4493 6.73267 24.9999 6.73267C18.5505 6.73267 13.3223 11.9609 13.3223 18.4103C13.3223 24.8597 18.5505 30.088 24.9999 30.088Z" fill="url(#paint16_linear_919_74)"/>
<path d="M36.4068 20.9174L26.3826 10.8932C26.068 10.5015 25.573 10.436 25.0106 10.436C24.0298 10.436 23.4585 10.9983 23.4585 11.8716C23.4585 12.3653 23.5077 12.8293 23.898 13.1397L35.075 24.3166C35.6864 23.2758 36.141 22.1321 36.4068 20.9174Z" fill="url(#paint17_linear_919_74)"/>
<path d="M26.7375 11.8718C26.7375 12.7451 25.97 13.5266 25.0105 13.5266C24.0298 13.5266 23.2622 12.7451 23.2622 11.8718C23.2622 10.9984 24.0298 10.24 25.0105 10.24C25.97 10.24 26.7375 10.9984 26.7375 11.8718Z" fill="url(#paint18_linear_919_74)"/>
<path d="M34.8911 24.6194L26.516 16.2443C26.2505 15.8719 25.6763 15.8372 25.0108 15.8372C24.0513 15.8372 23.5653 16.0776 23.5653 16.7211V25.4775C23.5653 25.7395 23.5244 26.0007 23.7888 26.2036L27.4212 29.836C30.5614 29.1738 33.2362 27.25 34.8911 24.6194Z" fill="url(#paint19_linear_919_74)"/>
<path d="M26.6738 16.7211V25.4774C26.6738 26.0291 25.9276 26.5806 25.0108 26.5806C24.0514 26.5806 23.3691 26.029 23.3691 25.4774V16.7211C23.3691 16.0775 24.0514 15.6409 25.0108 15.6409C25.9276 15.641 26.6738 16.0776 26.6738 16.7211Z" fill="url(#paint20_linear_919_74)"/>
</g>
<defs>
<linearGradient id="paint0_linear_919_74" x1="24.296" y1="18.8586" x2="25.3644" y2="28.0466" gradientUnits="userSpaceOnUse">
<stop stop-color="#0B799D"/>
<stop offset="1" stop-color="#07485E"/>
</linearGradient>
<linearGradient id="paint1_linear_919_74" x1="24.6873" y1="24.1485" x2="25.3876" y2="30.1709" gradientUnits="userSpaceOnUse">
<stop stop-color="#07485E" stop-opacity="0"/>
<stop offset="1" stop-color="#03232E"/>
</linearGradient>
<linearGradient id="paint2_linear_919_74" x1="30.0153" y1="21.951" x2="4.65784" y2="9.98464" gradientUnits="userSpaceOnUse">
<stop stop-color="#07485E" stop-opacity="0"/>
<stop offset="1" stop-color="#03232E"/>
</linearGradient>
<linearGradient id="paint3_linear_919_74" x1="4.73796" y1="24.5335" x2="6.78659" y2="26.0944" gradientUnits="userSpaceOnUse">
<stop stop-color="#B9DD39"/>
<stop offset="1" stop-color="#90CC1C"/>
</linearGradient>
<linearGradient id="paint4_linear_919_74" x1="15.5815" y1="23.8244" x2="20.4369" y2="28.6798" gradientUnits="userSpaceOnUse">
<stop stop-color="#B9DD39"/>
<stop offset="1" stop-color="#90CC1C"/>
</linearGradient>
<linearGradient id="paint5_linear_919_74" x1="9.86427" y1="23.8244" x2="14.7196" y2="28.6798" gradientUnits="userSpaceOnUse">
<stop stop-color="#B9DD39"/>
<stop offset="1" stop-color="#90CC1C"/>
</linearGradient>
<linearGradient id="paint6_linear_919_74" x1="37.2155" y1="27.9758" x2="37.2155" y2="19.8404" gradientUnits="userSpaceOnUse">
<stop stop-color="#07485E" stop-opacity="0"/>
<stop offset="1" stop-color="#03232E"/>
</linearGradient>
<linearGradient id="paint7_linear_919_74" x1="24.296" y1="32.4255" x2="25.3644" y2="41.6135" gradientUnits="userSpaceOnUse">
<stop stop-color="#0B799D"/>
<stop offset="1" stop-color="#07485E"/>
</linearGradient>
<linearGradient id="paint8_linear_919_74" x1="24.6873" y1="37.7154" x2="25.3875" y2="43.7377" gradientUnits="userSpaceOnUse">
<stop stop-color="#07485E" stop-opacity="0"/>
<stop offset="1" stop-color="#03232E"/>
</linearGradient>
<linearGradient id="paint9_linear_919_74" x1="30.0153" y1="35.5179" x2="4.65784" y2="23.5515" gradientUnits="userSpaceOnUse">
<stop stop-color="#07485E" stop-opacity="0"/>
<stop offset="1" stop-color="#03232E"/>
</linearGradient>
<linearGradient id="paint10_linear_919_74" x1="4.73796" y1="38.1002" x2="6.78659" y2="39.6611" gradientUnits="userSpaceOnUse">
<stop stop-color="#B9DD39"/>
<stop offset="1" stop-color="#90CC1C"/>
</linearGradient>
<linearGradient id="paint11_linear_919_74" x1="15.5815" y1="37.3911" x2="20.4369" y2="42.2464" gradientUnits="userSpaceOnUse">
<stop stop-color="#B9DD39"/>
<stop offset="1" stop-color="#90CC1C"/>
</linearGradient>
<linearGradient id="paint12_linear_919_74" x1="9.86427" y1="37.3911" x2="14.7196" y2="42.2464" gradientUnits="userSpaceOnUse">
<stop stop-color="#B9DD39"/>
<stop offset="1" stop-color="#90CC1C"/>
</linearGradient>
<linearGradient id="paint13_linear_919_74" x1="37.2155" y1="41.5428" x2="37.2155" y2="33.4074" gradientUnits="userSpaceOnUse">
<stop stop-color="#07485E" stop-opacity="0"/>
<stop offset="1" stop-color="#03232E"/>
</linearGradient>
<linearGradient id="paint14_linear_919_74" x1="26.5584" y1="40.1465" x2="26.5584" y2="23.1857" gradientUnits="userSpaceOnUse">
<stop stop-color="#07485E" stop-opacity="0"/>
<stop offset="1" stop-color="#03232E"/>
</linearGradient>
<linearGradient id="paint15_linear_919_74" x1="43.6359" y1="36.0962" x2="29.5837" y2="18.776" gradientUnits="userSpaceOnUse">
<stop stop-color="#07485E" stop-opacity="0"/>
<stop offset="1" stop-color="#03232E"/>
</linearGradient>
<linearGradient id="paint16_linear_919_74" x1="19.5684" y1="12.9788" x2="30.8241" y2="24.2344" gradientUnits="userSpaceOnUse">
<stop stop-color="#76E2F8"/>
<stop offset="1" stop-color="#48B2E3"/>
</linearGradient>
<linearGradient id="paint17_linear_919_74" x1="31.288" y1="18.1647" x2="23.3029" y2="10.1796" gradientUnits="userSpaceOnUse">
<stop stop-color="#48B2E3" stop-opacity="0"/>
<stop offset="0.4112" stop-color="#2995BF" stop-opacity="0.411"/>
<stop offset="0.7781" stop-color="#1381A6" stop-opacity="0.778"/>
<stop offset="1" stop-color="#0B799D"/>
</linearGradient>
<linearGradient id="paint18_linear_919_74" x1="23.2622" y1="11.8833" x2="26.7375" y2="11.8833" gradientUnits="userSpaceOnUse">
<stop stop-color="#EDF5FF"/>
<stop offset="1" stop-color="#D5E8FE"/>
</linearGradient>
<linearGradient id="paint19_linear_919_74" x1="30.8235" y1="24.7698" x2="22.4454" y2="20.8955" gradientUnits="userSpaceOnUse">
<stop stop-color="#48B2E3" stop-opacity="0"/>
<stop offset="0.4112" stop-color="#2995BF" stop-opacity="0.411"/>
<stop offset="0.7781" stop-color="#1381A6" stop-opacity="0.778"/>
<stop offset="1" stop-color="#0B799D"/>
</linearGradient>
<linearGradient id="paint20_linear_919_74" x1="23.3691" y1="21.1109" x2="26.6738" y2="21.1109" gradientUnits="userSpaceOnUse">
<stop stop-color="#EDF5FF"/>
<stop offset="1" stop-color="#D5E8FE"/>
</linearGradient>
<clipPath id="clip0_919_74">
<rect width="50" height="50" fill="white" transform="translate(0 0.998047)"/>
</clipPath>
</defs>
</svg>
