<svg width="40" height="40" viewBox="0 0 40 40" fill="none" xmlns="http://www.w3.org/2000/svg">
<g clip-path="url(#clip0_907_236)">
<path d="M28.3859 36.7267C25.5727 35.8174 23.6666 33.198 23.6666 30.2415V27.7517H16.3331V30.2415C16.3331 33.1981 14.427 35.8174 11.6138 36.7267H28.3859Z" fill="url(#paint0_linear_907_236)"/>
<path d="M28.3861 36.7267C25.5729 35.8174 23.6667 33.198 23.6667 30.2415V27.7517H16.3333V30.2415C16.3333 31.1887 16.1368 32.1009 15.7783 32.9338L15.7787 32.9345L19.5709 36.7267H28.3861Z" fill="url(#paint1_linear_907_236)"/>
<path d="M37.4606 32.9345H2.53945C1.13694 32.9345 0 31.7975 0 30.395V7.08608C0 5.68357 1.13694 4.54663 2.53945 4.54663H37.4606C38.8631 4.54663 40 5.68357 40 7.08608V30.395C40 31.7975 38.8631 32.9345 37.4606 32.9345Z" fill="url(#paint2_linear_907_236)"/>
<path d="M36.0833 31.062H3.91726C2.80228 31.062 1.89844 30.1582 1.89844 29.0432V8.43801C1.89844 7.32303 2.80228 6.41919 3.91726 6.41919H36.0833C37.1983 6.41919 38.1021 7.32303 38.1021 8.43801V29.0432C38.102 30.1582 37.1982 31.062 36.0833 31.062Z" fill="url(#paint3_linear_907_236)"/>
<path d="M39.9999 7.08648V30.3947C39.9999 31.7979 38.8626 32.9343 37.4603 32.9343H21.8579L13.7591 24.8347C9.83123 21.0441 7.58496 15.801 7.58496 10.2935V5.55237C7.58496 5.17903 7.70104 4.83237 7.89947 4.54688H37.4603C38.8626 4.54688 39.9999 5.68335 39.9999 7.08648V7.08648Z" fill="url(#paint4_linear_907_236)"/>
<path d="M35.0914 29.8451H4.90847C3.8844 29.8451 3.0542 29.0149 3.0542 27.9908V9.49051C3.0542 8.46643 3.8844 7.63623 4.90847 7.63623H35.0913C36.1154 7.63623 36.9456 8.46643 36.9456 9.49051V27.9908C36.9456 29.0149 36.1155 29.8451 35.0914 29.8451Z" fill="url(#paint5_linear_907_236)"/>
<path d="M19.9999 7.19484C20.4283 7.19484 20.7757 6.84752 20.7757 6.41908C20.7757 5.99063 20.4283 5.64331 19.9999 5.64331C19.5714 5.64331 19.2241 5.99063 19.2241 6.41908C19.2241 6.84752 19.5714 7.19484 19.9999 7.19484Z" fill="url(#paint6_linear_907_236)"/>
<path d="M20.0001 6.90593C20.269 6.90593 20.487 6.68794 20.487 6.41903C20.487 6.15012 20.269 5.93213 20.0001 5.93213C19.7312 5.93213 19.5132 6.15012 19.5132 6.41903C19.5132 6.68794 19.7312 6.90593 20.0001 6.90593Z" fill="url(#paint7_linear_907_236)"/>
<path d="M31.6066 40.0002H8.39296C7.90489 40.0002 7.50928 39.6046 7.50928 39.1165C7.50928 37.5498 8.77932 36.2798 10.346 36.2798H29.6536C31.2203 36.2798 32.4903 37.5498 32.4903 39.1165C32.4903 39.6046 32.0947 40.0002 31.6066 40.0002Z" fill="url(#paint8_linear_907_236)"/>
<path d="M4.69705 32.3857H4.12081C3.7903 32.3857 3.52246 32.1178 3.52246 31.7874V31.2111C3.52246 30.8806 3.79038 30.6128 4.12081 30.6128H4.69705C5.02756 30.6128 5.2954 30.8807 5.2954 31.2111V31.7874C5.2954 32.1178 5.02756 32.3857 4.69705 32.3857Z" fill="url(#paint9_linear_907_236)"/>
<path d="M35.0916 7.63599H7.74219V10.2934C7.74219 15.8009 9.83152 21.044 13.7594 24.8346L18.7692 29.8449H35.0916C36.1157 29.8449 36.9459 29.0147 36.9459 27.9907V9.49026C36.9459 8.46618 36.1157 7.63599 35.0916 7.63599V7.63599Z" fill="url(#paint10_linear_907_236)"/>
<path d="M30.6457 3.78357C27.517 3.78357 24.4839 2.70561 22.057 0.731176C20.8588 -0.243725 19.1408 -0.243725 17.9425 0.731176C15.5156 2.70569 12.4825 3.78357 9.3539 3.78357C8.37696 3.78357 7.58496 4.57557 7.58496 5.55251V10.2935C7.58496 16.3753 10.3236 22.1339 15.0414 25.9722L16.4974 27.1568C18.5374 28.8164 21.4621 28.8164 23.502 27.1568L24.9581 25.9722C29.6759 22.134 32.4145 16.3751 32.4145 10.2932C32.4145 8.47306 32.4145 6.76255 32.4145 5.55212C32.4146 4.57518 31.6226 3.78357 30.6457 3.78357V3.78357Z" fill="url(#paint11_linear_907_236)"/>
<path d="M19.9999 26.8408C19.6588 26.8408 19.3253 26.7223 19.0606 26.507L16.2757 24.2413C14.2415 22.5863 12.571 20.4598 11.4447 18.0915C10.3184 15.7233 9.72314 13.0855 9.72314 10.4631V6.70086C9.72314 6.24572 10.0953 5.85867 10.5497 5.83467C13.6492 5.67074 16.6457 4.52141 19.0606 2.5567C19.3253 2.34141 19.6588 2.2229 19.9999 2.2229C20.3409 2.2229 20.6744 2.34141 20.939 2.5567C23.354 4.52149 26.3505 5.67082 29.45 5.83474C29.9045 5.85874 30.2766 6.24572 30.2766 6.70078V10.4629C30.2766 13.0853 29.6813 15.7232 28.555 18.0914C27.4287 20.4597 25.7582 22.5863 23.7241 24.2413L20.9391 26.507C20.6744 26.7223 20.3409 26.8408 19.9999 26.8408V26.8408Z" fill="url(#paint12_linear_907_236)"/>
<path d="M19.9998 25.3316C19.6875 25.3316 19.3821 25.2231 19.1399 25.026L16.5899 22.9514C14.7274 21.4361 13.1979 19.4889 12.1666 17.3206C11.7037 16.3473 11.2166 15.0456 11.0772 14.7455C10.7559 13.4573 10.5903 12.1297 10.5903 10.8065V7.3618C10.5903 6.94509 10.931 6.59074 11.3472 6.5687C14.1852 6.41858 16.9288 5.36627 19.1399 3.56737C19.3822 3.37027 19.6876 3.26172 19.9999 3.26172C20.3122 3.26172 20.6175 3.52713 20.8598 3.72415C23.071 5.52313 25.2657 6.41866 28.1037 6.5687C28.5197 6.59074 28.8605 6.94501 28.8605 7.36164V10.8063C28.8605 13.2074 28.3154 15.6227 27.2841 17.7911C26.2529 19.9595 24.7234 21.9067 22.8608 23.422C22.8608 23.422 20.3121 25.3316 19.9998 25.3316Z" fill="url(#paint13_linear_907_236)"/>
<path d="M20.8595 25.4965L23.4095 23.422C25.272 21.9067 26.8016 19.9595 27.8328 17.7911C28.864 15.6227 29.4091 13.2074 29.4091 10.8063V7.36164C29.4091 6.94501 29.0684 6.59066 28.6523 6.5687C25.8143 6.41866 23.0707 5.36627 20.8594 3.56729C20.6172 3.37019 20.3118 3.26172 19.9995 3.26172V25.8022C20.3119 25.8022 20.6172 25.6936 20.8595 25.4965Z" fill="url(#paint14_linear_907_236)"/>
<path d="M28.3722 14.7454C28.1111 15.7948 27.7471 16.8175 27.2836 17.7916C26.253 19.9595 24.7228 21.9069 22.8609 23.4222L20.3103 25.4967C20.0687 25.6936 20.3118 25.8026 19.9997 25.8026C19.6875 25.8026 19.3817 25.6936 19.1401 25.4967L16.5895 23.4222C14.7275 21.9069 13.1973 19.9595 12.1668 17.7916C11.7032 16.8183 11.3393 15.7948 11.0781 14.7454H28.3722Z" fill="url(#paint15_linear_907_236)"/>
<path d="M28.9216 14.7454C28.6604 15.7948 28.2965 16.8175 27.8329 17.7916C26.8024 19.9595 25.2722 21.9069 23.4102 23.4222L20.8596 25.4967C20.618 25.6936 20.3122 25.8026 20 25.8026V14.7454H28.9216Z" fill="url(#paint16_linear_907_236)"/>
<path d="M32.4148 5.55208C32.4148 4.57514 31.6228 3.78361 30.6459 3.78361C27.5173 3.78361 24.4842 2.70565 22.0573 0.731216C21.4581 0.243765 20.7291 0 20 0V28.4015C21.2412 28.4015 22.4824 27.9866 23.5023 27.1568L24.9584 25.9722C29.6762 22.134 32.4147 16.3751 32.4147 10.2932C32.4148 8.47302 32.4148 6.76251 32.4148 5.55208V5.55208Z" fill="url(#paint17_linear_907_236)"/>
</g>
<defs>
<linearGradient id="paint0_linear_907_236" x1="17.8677" y1="32.5225" x2="22.5626" y2="38.3691" gradientUnits="userSpaceOnUse">
<stop stop-color="#0B799D"/>
<stop offset="1" stop-color="#07485E"/>
</linearGradient>
<linearGradient id="paint1_linear_907_236" x1="23.5899" y1="38.5232" x2="18.9364" y2="27.1245" gradientUnits="userSpaceOnUse">
<stop stop-color="#07485E" stop-opacity="0"/>
<stop offset="1" stop-color="#03232E"/>
</linearGradient>
<linearGradient id="paint2_linear_907_236" x1="11.7939" y1="10.5344" x2="38.6248" y2="37.3653" gradientUnits="userSpaceOnUse">
<stop stop-color="#0B799D"/>
<stop offset="1" stop-color="#07485E"/>
</linearGradient>
<linearGradient id="paint3_linear_907_236" x1="33.6602" y1="32.4007" x2="1.94621" y2="0.686558" gradientUnits="userSpaceOnUse">
<stop stop-color="#0B799D"/>
<stop offset="1" stop-color="#07485E"/>
</linearGradient>
<linearGradient id="paint4_linear_907_236" x1="33.3327" y1="21.7844" x2="20.7053" y2="9.62758" gradientUnits="userSpaceOnUse">
<stop stop-color="#07485E" stop-opacity="0"/>
<stop offset="1" stop-color="#03232E"/>
</linearGradient>
<linearGradient id="paint5_linear_907_236" x1="11.2599" y1="10.0007" x2="28.7537" y2="27.4943" gradientUnits="userSpaceOnUse">
<stop stop-color="#EDF5FF"/>
<stop offset="1" stop-color="#D5E8FE"/>
</linearGradient>
<linearGradient id="paint6_linear_907_236" x1="21.1636" y1="7.58276" x2="18.5152" y2="4.93437" gradientUnits="userSpaceOnUse">
<stop stop-color="#0B799D"/>
<stop offset="1" stop-color="#07485E"/>
</linearGradient>
<linearGradient id="paint7_linear_907_236" x1="19.2697" y1="5.68876" x2="20.9319" y2="7.35087" gradientUnits="userSpaceOnUse">
<stop stop-color="#0B799D"/>
<stop offset="1" stop-color="#07485E"/>
</linearGradient>
<linearGradient id="paint8_linear_907_236" x1="19.2142" y1="36.7834" x2="22.101" y2="44.722" gradientUnits="userSpaceOnUse">
<stop stop-color="#0B799D"/>
<stop offset="1" stop-color="#07485E"/>
</linearGradient>
<linearGradient id="paint9_linear_907_236" x1="3.97846" y1="31.0687" x2="5.8983" y2="32.9886" gradientUnits="userSpaceOnUse">
<stop stop-color="#B9DD39"/>
<stop offset="1" stop-color="#0B799D"/>
</linearGradient>
<linearGradient id="paint10_linear_907_236" x1="33.9566" y1="24.9796" x2="19.1023" y2="11.0634" gradientUnits="userSpaceOnUse">
<stop stop-color="#B5DBFF" stop-opacity="0"/>
<stop offset="0.1734" stop-color="#8FC5E9" stop-opacity="0.173"/>
<stop offset="0.4541" stop-color="#56A4C8" stop-opacity="0.454"/>
<stop offset="0.6955" stop-color="#2D8DB1" stop-opacity="0.696"/>
<stop offset="0.8853" stop-color="#147EA2" stop-opacity="0.885"/>
<stop offset="1" stop-color="#0B799D"/>
</linearGradient>
<linearGradient id="paint11_linear_907_236" x1="9.59798" y1="1.3409" x2="31.0086" y2="22.7515" gradientUnits="userSpaceOnUse">
<stop stop-color="#76E2F8"/>
<stop offset="1" stop-color="#48B2E3"/>
</linearGradient>
<linearGradient id="paint12_linear_907_236" x1="33.9706" y1="26.0543" x2="15.0267" y2="7.11035" gradientUnits="userSpaceOnUse">
<stop stop-color="#B5DBFF" stop-opacity="0"/>
<stop offset="0.2428" stop-color="#93CEF6" stop-opacity="0.243"/>
<stop offset="0.5763" stop-color="#6ABFEC" stop-opacity="0.576"/>
<stop offset="0.8403" stop-color="#51B5E5" stop-opacity="0.84"/>
<stop offset="1" stop-color="#48B2E3"/>
</linearGradient>
<linearGradient id="paint13_linear_907_236" x1="13.3897" y1="5.71929" x2="19.1812" y2="11.5107" gradientUnits="userSpaceOnUse">
<stop stop-color="#FF637B"/>
<stop offset="1" stop-color="#E63950"/>
</linearGradient>
<linearGradient id="paint14_linear_907_236" x1="18.6711" y1="10.3874" x2="23.1706" y2="14.8871" gradientUnits="userSpaceOnUse">
<stop stop-color="#B9DD39"/>
<stop offset="1" stop-color="#90CC1C"/>
</linearGradient>
<linearGradient id="paint15_linear_907_236" x1="17.5346" y1="14.1968" x2="22.289" y2="18.9512" gradientUnits="userSpaceOnUse">
<stop stop-color="#48B2E3"/>
<stop offset="1" stop-color="#0095FF"/>
</linearGradient>
<linearGradient id="paint16_linear_907_236" x1="21.3426" y1="17.1558" x2="24.5584" y2="20.3716" gradientUnits="userSpaceOnUse">
<stop stop-color="#FFDA2D"/>
<stop offset="1" stop-color="#FDBF00"/>
</linearGradient>
<linearGradient id="paint17_linear_907_236" x1="22.5803" y1="14.6792" x2="5.48408" y2="6.47302" gradientUnits="userSpaceOnUse">
<stop stop-color="#B5DBFF" stop-opacity="0"/>
<stop offset="0.1734" stop-color="#8FC5E9" stop-opacity="0.173"/>
<stop offset="0.4541" stop-color="#56A4C8" stop-opacity="0.454"/>
<stop offset="0.6955" stop-color="#2D8DB1" stop-opacity="0.696"/>
<stop offset="0.8853" stop-color="#147EA2" stop-opacity="0.885"/>
<stop offset="1" stop-color="#0B799D"/>
</linearGradient>
<clipPath id="clip0_907_236">
<rect width="40" height="40" fill="white"/>
</clipPath>
</defs>
</svg>
