<svg width="70" height="70" viewBox="0 0 70 70" fill="none" xmlns="http://www.w3.org/2000/svg">
<g clip-path="url(#clip0_824_116)">
<path d="M2.78041 17.8191C-0.496324 23.2055 -0.841675 32.5318 1.55856 38.3619C3.66088 43.4685 7.84297 48.2617 13.3328 48.862C15.3516 49.0828 17.4149 48.722 19.4129 49.086C26.284 50.3372 28.84 58.8053 34.1799 63.3066C37.8962 66.4393 43.0527 67.5478 47.8756 66.9443C52.6985 66.3408 57.2138 64.1603 61.1887 61.3629C64.3274 59.1539 67.264 56.438 68.8127 52.9264C72.059 45.5656 68.2399 36.7251 62.3067 31.2922C60.4588 29.6 58.3991 28.1074 56.855 26.1342C55.311 24.1608 54.3284 21.5274 55.0641 19.1322C55.6511 17.2213 57.231 15.74 57.8295 13.8326C58.6441 11.2372 57.4146 8.32545 55.3957 6.50231C53.3767 4.67917 50.7051 3.7626 48.0585 3.13356C36.9702 0.497487 12.6726 1.55788 2.78041 17.8191Z" fill="url(#paint0_linear_824_116)"/>
<path opacity="0.1" d="M47.8833 67.9712H22.1167C19.8514 67.9712 18.0151 66.135 18.0151 63.8697V11.8239C18.0151 9.55856 19.8514 7.72229 22.1167 7.72229H47.8833C50.1485 7.72229 51.9848 9.55856 51.9848 11.8239V63.8697C51.9848 66.1348 50.1485 67.9712 47.8833 67.9712Z" fill="#2626BC"/>
<path d="M47.8833 64.69H22.1167C19.8514 64.69 18.0151 62.8537 18.0151 60.5884V8.5426C18.0151 6.27731 19.8514 4.44104 22.1167 4.44104H47.8833C50.1485 4.44104 51.9848 6.27731 51.9848 8.5426V60.5884C51.9848 62.8536 50.1485 64.69 47.8833 64.69Z" fill="#6583FE"/>
<path d="M18.0154 10.3075H51.9845V58.8235H18.0154V10.3075Z" fill="white"/>
<path d="M47.8833 65.3736H22.1167C19.4782 65.3736 17.3315 63.227 17.3315 60.5884V8.5426C17.3315 5.90407 19.4782 3.75745 22.1167 3.75745H47.8834C50.5219 3.75745 52.6686 5.90407 52.6686 8.5426V60.5884C52.6684 63.227 50.5218 65.3736 47.8833 65.3736ZM22.1167 5.12463C20.232 5.12463 18.6987 6.65793 18.6987 8.5426V60.5884C18.6987 62.4731 20.232 64.0064 22.1167 64.0064H47.8834C49.7681 64.0064 51.3014 62.4731 51.3014 60.5884V8.5426C51.3014 6.65793 49.7681 5.12463 47.8834 5.12463H22.1167Z" fill="#2626BC"/>
<path d="M37.3901 8.18298H32.6096C32.2321 8.18298 31.926 7.87687 31.926 7.49939C31.926 7.12191 32.2321 6.8158 32.6096 6.8158H37.3901C37.7676 6.8158 38.0737 7.12191 38.0737 7.49939C38.0737 7.87687 37.7676 8.18298 37.3901 8.18298Z" fill="#B7C5FF"/>
<path d="M40.5799 8.18304C40.9576 8.18304 41.2637 7.87686 41.2637 7.49918C41.2637 7.12149 40.9576 6.81531 40.5799 6.81531C40.2022 6.81531 39.896 7.12149 39.896 7.49918C39.896 7.87686 40.2022 8.18304 40.5799 8.18304Z" fill="#B7C5FF"/>
<path d="M48.0498 14.9368V26.5442C48.0498 27.2989 47.4373 27.9114 46.6826 27.9114H23.3174C22.5627 27.9114 21.9502 27.2989 21.9502 26.5442V14.9368C21.9502 14.1821 22.5627 13.5696 23.3174 13.5696H46.6826C47.4373 13.5696 48.0498 14.1821 48.0498 14.9368Z" fill="#9FB0FE"/>
<path d="M48.0499 17.54V26.5443C48.0499 27.2989 47.4374 27.9114 46.6827 27.9114H30.0194C29.9688 27.4822 29.9429 27.0447 29.9429 26.6017C29.9429 20.3495 35.011 15.2814 41.2646 15.2814C43.8089 15.2814 46.1591 16.1222 48.0499 17.54Z" fill="#8399FE"/>
<path d="M48.0498 53.3972V58.8236H21.9502V53.3972C21.9502 52.6425 22.5627 52.03 23.3174 52.03H46.6826C47.4373 52.03 48.0498 52.6425 48.0498 53.3972Z" fill="#02FFB3"/>
<path d="M32.684 55.4275C32.684 56.6498 32.3914 57.8037 31.8732 58.8236H21.9502V53.3972C21.9502 52.6425 22.5627 52.03 23.3174 52.03H31.8732C32.3914 53.0513 32.684 54.2052 32.684 55.4275Z" fill="#97FFD2"/>
<path d="M33.3995 37.9441H22.634C22.2566 37.9441 21.9504 37.6379 21.9504 37.2605V31.8274C21.9504 31.4499 22.2566 31.1438 22.634 31.1438H33.3995C33.777 31.1438 34.0831 31.4499 34.0831 31.8274V37.2605C34.0831 37.6381 33.777 37.9441 33.3995 37.9441Z" fill="#FF7EB8"/>
<path d="M47.3661 37.9441H36.6006C36.2231 37.9441 35.917 37.6379 35.917 37.2605V31.8274C35.917 31.4499 36.2231 31.1438 36.6006 31.1438H47.3661C47.7436 31.1438 48.0497 31.4499 48.0497 31.8274V37.2605C48.0497 37.6381 47.7436 37.9441 47.3661 37.9441Z" fill="#02FFB3"/>
<path d="M33.3995 46.3366H22.634C22.2566 46.3366 21.9504 46.0305 21.9504 45.653V40.22C21.9504 39.8425 22.2566 39.5364 22.634 39.5364H33.3995C33.777 39.5364 34.0831 39.8425 34.0831 40.22V45.653C34.0831 46.0305 33.777 46.3366 33.3995 46.3366Z" fill="#8399FE"/>
<path d="M47.3661 46.3366H36.6006C36.2231 46.3366 35.917 46.0305 35.917 45.653V40.22C35.917 39.8425 36.2231 39.5364 36.6006 39.5364H47.3661C47.7436 39.5364 48.0497 39.8425 48.0497 40.22V45.653C48.0497 46.0305 47.7436 46.3366 47.3661 46.3366Z" fill="#FFC4DF"/>
<path d="M34.4078 21.599H25.428C25.0505 21.599 24.7444 21.9051 24.7444 22.2826C24.7444 22.6601 25.0505 22.9662 25.428 22.9662H34.4078C34.7853 22.9662 35.0914 22.6601 35.0914 22.2826C35.0914 21.9051 34.7854 21.599 34.4078 21.599Z" fill="white"/>
<path d="M34.4078 18.9427H25.428C25.0505 18.9427 24.7444 19.2489 24.7444 19.6263C24.7444 20.0038 25.0505 20.3099 25.428 20.3099H34.4078C34.7853 20.3099 35.0914 20.0038 35.0914 19.6263C35.0914 19.2489 34.7854 18.9427 34.4078 18.9427Z" fill="white"/>
<path d="M27.025 15.7511H25.428C25.0505 15.7511 24.7444 16.0572 24.7444 16.4347C24.7444 16.8122 25.0505 17.1183 25.428 17.1183H27.025C27.4025 17.1183 27.7086 16.8122 27.7086 16.4347C27.7086 16.0572 27.4026 15.7511 27.025 15.7511Z" fill="#FFC4DF"/>
<path d="M28.3324 49.2362H22.6338C22.2563 49.2362 21.9502 49.5423 21.9502 49.9198C21.9502 50.2973 22.2563 50.6034 22.6338 50.6034H28.3324C28.7098 50.6034 29.016 50.2973 29.016 49.9198C29.016 49.5423 28.7098 49.2362 28.3324 49.2362Z" fill="#8399FE"/>
<path d="M48.0499 53.3972V56.7591C45.459 56.7591 43.3577 54.6591 43.3577 52.0683V52.03H46.6827C47.4374 52.03 48.0499 52.6425 48.0499 53.3972Z" fill="#913BFF"/>
<path d="M57.655 22.8893C56.5777 22.8893 55.7012 22.0128 55.7012 20.9353C55.7012 19.8578 56.5777 18.9813 57.655 18.9813C58.7325 18.9813 59.609 19.8578 59.609 20.9353C59.609 22.0128 58.7325 22.8893 57.655 22.8893ZM57.655 20.3486C57.3315 20.3486 57.0684 20.6118 57.0684 20.9354C57.0684 21.2591 57.3315 21.5222 57.655 21.5222C57.9785 21.5222 58.2418 21.2591 58.2418 20.9354C58.2418 20.6118 57.9785 20.3486 57.655 20.3486Z" fill="#FF5BA8"/>
<path d="M58.9254 28.7371C57.8479 28.7371 56.9714 27.8606 56.9714 26.7831C56.9714 25.7056 57.8479 24.8291 58.9254 24.8291C60.0028 24.8291 60.8793 25.7056 60.8793 26.7831C60.8793 27.8606 60.0028 28.7371 58.9254 28.7371ZM58.9254 26.1964C58.6019 26.1964 58.3386 26.4596 58.3386 26.7832C58.3386 27.1068 58.6019 27.37 58.9254 27.37C59.2489 27.37 59.5121 27.1068 59.5121 26.7832C59.5121 26.4596 59.2489 26.1964 58.9254 26.1964Z" fill="#6583FE"/>
<path d="M11.3486 16.8558C10.971 16.8558 10.665 16.5497 10.665 16.1722C10.665 15.7198 10.2971 15.3519 9.84473 15.3519C9.46711 15.3519 9.16113 15.0458 9.16113 14.6683C9.16113 14.2909 9.46711 13.9847 9.84473 13.9847C10.2971 13.9847 10.665 13.6168 10.665 13.1644C10.665 12.7869 10.971 12.4808 11.3486 12.4808C11.7262 12.4808 12.0322 12.7869 12.0322 13.1644C12.0322 13.6168 12.4001 13.9847 12.8525 13.9847C13.2302 13.9847 13.5361 14.2909 13.5361 14.6683C13.5361 15.0458 13.2302 15.3519 12.8525 15.3519C12.4001 15.3519 12.0322 15.7198 12.0322 16.1722C12.0322 16.5497 11.7262 16.8558 11.3486 16.8558Z" fill="#913BFF"/>
<path d="M11.998 57.083C11.6204 57.083 11.3145 56.7769 11.3145 56.3994C11.3145 55.947 10.9465 55.5791 10.4941 55.5791C10.1165 55.5791 9.81055 55.273 9.81055 54.8955C9.81055 54.518 10.1165 54.2119 10.4941 54.2119C10.9465 54.2119 11.3145 53.844 11.3145 53.3916C11.3145 53.0141 11.6204 52.708 11.998 52.708C12.3757 52.708 12.6816 53.0141 12.6816 53.3916C12.6816 53.844 13.0496 54.2119 13.502 54.2119C13.8796 54.2119 14.1855 54.518 14.1855 54.8955C14.1855 55.273 13.8796 55.5791 13.502 55.5791C13.0496 55.5791 12.6816 55.947 12.6816 56.3994C12.6816 56.7769 12.3757 57.083 11.998 57.083Z" fill="#913BFF"/>
<path d="M9.84473 50.5265C9.46711 50.5265 9.16113 50.2204 9.16113 49.8429C9.16113 49.3905 8.79322 49.0226 8.34082 49.0226C7.9632 49.0226 7.65723 48.7165 7.65723 48.339C7.65723 47.9615 7.9632 47.6554 8.34082 47.6554C8.79322 47.6554 9.16113 47.2873 9.16113 46.8351C9.16113 46.4576 9.46711 46.1515 9.84473 46.1515C10.2223 46.1515 10.5283 46.4576 10.5283 46.8351C10.5283 47.2875 10.8962 47.6554 11.3486 47.6554C11.7263 47.6554 12.0322 47.9615 12.0322 48.339C12.0322 48.7165 11.7263 49.0226 11.3486 49.0226C10.8962 49.0226 10.5283 49.3905 10.5283 49.8429C10.5283 50.2204 10.2223 50.5265 9.84473 50.5265Z" fill="#FF5BA8"/>
</g>
<defs>
<linearGradient id="paint0_linear_824_116" x1="-3.4585e-05" y1="34.5655" x2="70" y2="34.5655" gradientUnits="userSpaceOnUse">
<stop stop-color="#104CBA" stop-opacity="0"/>
<stop offset="1" stop-color="#104CBA"/>
</linearGradient>
<clipPath id="clip0_824_116">
<rect width="70" height="70" fill="white"/>
</clipPath>
</defs>
</svg>
