<svg width="80" height="80" viewBox="0 0 80 80" fill="none" xmlns="http://www.w3.org/2000/svg">
<g clip-path="url(#clip0_828_169)">
<path d="M70.3899 57.992C66.2755 44.0997 51.9164 30.0897 61.8113 14.9633C63.7041 12.0697 63.498 7.22798 61.9242 5.18174C52.035 -7.67655 30.1936 5.58158 30.3483 21.133C30.45 31.3588 22.891 37.76 16.2291 44.3791C-19.2123 74.7925 82.0684 99.6209 70.3899 57.992Z" fill="url(#paint0_linear_828_169)"/>
<path d="M38.6907 25.7883L28.3524 15.4498C28.0594 15.1569 27.6619 14.9922 27.2476 14.9922H10.9976C10.1346 14.9922 9.43506 15.6917 9.43506 16.5547V61.648C9.43506 62.5109 10.1346 63.2105 10.9976 63.2105H68.8132C69.6762 63.2105 70.3757 62.5109 70.3757 61.648V27.3508C70.3757 26.4878 69.6762 25.7883 68.8132 25.7883H38.6907Z" fill="#FFAB66"/>
<path d="M57.4578 25.7884H46.5734C47.1703 26.8649 47.5093 28.1024 47.5093 29.4212C47.5093 33.5681 44.1468 36.929 39.9984 36.929C35.8531 36.929 32.4906 33.5681 32.4906 29.4212C32.4906 26.7524 33.8828 24.4087 35.9781 23.0759L28.3515 15.4493C28.2375 15.3337 28.1078 15.2399 27.9656 15.1665L25.3468 17.7837C24.8046 18.3274 24.7359 19.1853 25.1875 19.8071L27.2953 22.7118C26.8812 23.4946 26.5375 24.3196 26.2718 25.1806L22.7281 25.7446C21.9703 25.8649 21.4109 26.5181 21.4109 27.2868V31.554C21.4109 32.3212 21.9703 32.9759 22.7281 33.0962L26.2718 33.6587C26.5359 34.5196 26.8812 35.3462 27.2953 36.129L25.1875 39.0337C24.7359 39.6556 24.8046 40.5134 25.3468 41.0556L28.364 44.0728C28.9078 44.6165 29.7656 44.6837 30.3875 44.2321L33.2906 42.1243C34.075 42.5384 34.9 42.8837 35.7609 43.1493L36.3234 46.6915C36.4437 47.4509 37.0984 48.0087 37.8671 48.0087H42.1328C42.9015 48.0087 43.5562 47.4509 43.6765 46.6915L44.239 43.1493C45.1 42.8837 45.925 42.5384 46.7093 42.1243L49.6125 44.2321C50.2343 44.6837 51.0921 44.6165 51.6359 44.0728L54.6531 41.0556C55.1953 40.5134 55.264 39.6556 54.8125 39.0337L52.7046 36.129C53.1187 35.3462 53.464 34.5196 53.7296 33.6587L57.2718 33.0962C58.0296 32.9759 58.589 32.3212 58.589 31.554V27.2868C58.589 26.5821 58.1203 25.9759 57.4578 25.7884Z" fill="#FF9D33"/>
<path d="M54.9871 62.6458H25.0127C24.5813 62.6458 24.2314 62.2959 24.2314 61.8645C24.2314 61.4331 24.5813 61.0833 25.0127 61.0833H54.9871C55.4185 61.0833 55.7683 61.4331 55.7683 61.8645C55.7683 62.2959 55.4185 62.6458 54.9871 62.6458Z" fill="#FF9D33"/>
<path d="M57.2714 21.9939L53.7287 21.4311C53.4633 20.5704 53.1186 19.7447 52.7042 18.9614L54.8123 16.057C55.2636 15.4353 55.1959 14.5776 54.6526 14.0344L51.6359 11.0176C51.0926 10.4744 50.235 10.4067 49.6133 10.8579L46.7089 12.9661C45.9256 12.5515 45.1 12.2069 44.2392 11.9415L43.6764 8.39889C43.5559 7.64014 42.9015 7.08154 42.1333 7.08154H37.867C37.0987 7.08154 36.4443 7.64014 36.3239 8.39889L35.7611 11.9412C34.9003 12.2067 34.0745 12.5514 33.2912 12.9659L30.387 10.8579C29.7653 10.4067 28.9076 10.4744 28.3643 11.0176L25.3476 14.0344C24.8043 14.5776 24.7367 15.4353 25.1879 16.057L27.2961 18.9615C26.8817 19.7447 26.537 20.5704 26.2715 21.4311L22.7287 21.9939C21.97 22.1144 21.4114 22.7687 21.4114 23.537V27.8033C21.4114 28.5715 21.97 29.2259 22.7287 29.3464L26.2712 29.9092C26.5367 30.7698 26.8814 31.5956 27.2958 32.3789L25.1876 35.2833C24.7364 35.905 24.804 36.7626 25.3473 37.3059L28.364 40.3226C28.9073 40.8659 29.765 40.9336 30.3867 40.4823L33.2911 38.3742C34.0743 38.7887 34.9001 39.1334 35.7608 39.3987L36.3236 42.9414C36.444 43.7001 37.0984 44.2587 37.8667 44.2587H42.1329C42.9012 44.2587 43.5556 43.7001 43.6761 42.9414L44.2389 39.3986C45.0995 39.1331 45.9251 38.7884 46.7084 38.374L49.6129 40.4822C50.2347 40.9334 51.0923 40.8658 51.6356 40.3225L54.6523 37.3058C55.1956 36.7625 55.2633 35.9048 54.812 35.2831L52.704 32.3789C53.1186 31.5956 53.4633 30.7698 53.7287 29.909L57.2712 29.3462C58.03 29.2258 58.5886 28.5714 58.5886 27.8031V23.5369C58.5887 22.7687 58.0301 22.1145 57.2714 21.9939ZM47.5095 25.6711C47.5095 29.8175 44.1473 33.1795 39.9992 33.1795C35.8528 33.1795 32.4908 29.8173 32.4908 25.6711C32.4908 21.5228 35.8529 18.1608 39.9992 18.1608C44.1473 18.1606 47.5095 21.5228 47.5095 25.6711Z" fill="#9494FF"/>
<path d="M39.6007 40.6651L38.9749 36.7263C39.3122 36.7574 39.6538 36.7732 39.9989 36.7732C40.3446 36.7732 40.6869 36.7572 41.0246 36.7263L40.3988 40.6651H39.6007ZM47.0886 34.2096C47.6154 33.7716 48.1013 33.2857 48.5393 32.7591L50.885 35.991L50.3207 36.5554L47.0886 34.2096ZM29.1146 35.9908L31.4602 32.7591C31.8982 33.2857 32.3841 33.7716 32.9107 34.2096L29.6789 36.5552L29.1146 35.9908ZM25.0049 26.0693V25.271L28.9436 24.6452C28.9125 24.9829 28.8968 25.3252 28.8968 25.6708C28.8968 26.016 28.9127 26.3577 28.9436 26.6949L25.0049 26.0693ZM51.0563 26.6949C51.0874 26.3575 51.1032 26.0161 51.1032 25.671C51.1032 25.3254 51.0872 24.9832 51.0561 24.6454L54.9949 25.271V26.0691L51.0563 26.6949ZM48.5391 18.5815C48.1011 18.0547 47.6152 17.569 47.0885 17.1308L50.3207 14.7849L50.885 15.3493L48.5391 18.5815ZM29.1146 15.3493L29.6791 14.7847L32.911 17.1305C32.3844 17.5685 31.8985 18.0546 31.4605 18.5813L29.1146 15.3493ZM41.0247 14.6138C40.6871 14.5827 40.3447 14.5668 39.9991 14.5668C39.6539 14.5668 39.3124 14.5825 38.9752 14.6136L39.6008 10.675H40.3989L41.0247 14.6138Z" fill="#B3B3FF"/>
<path d="M54.9871 58.896H25.0127C24.5813 58.896 24.2314 58.5462 24.2314 58.1147C24.2314 57.6833 24.5813 57.3335 25.0127 57.3335H54.9871C55.4185 57.3335 55.7683 57.6833 55.7683 58.1147C55.7683 58.5462 55.4185 58.896 54.9871 58.896Z" fill="#FF2C2C"/>
<path d="M73.6627 71.6682H56.5496C55.6866 71.6682 54.9871 70.9687 54.9871 70.1057V46.1235C54.9871 45.2606 55.6866 44.561 56.5496 44.561H73.6627C74.5257 44.561 75.2252 45.2606 75.2252 46.1235V70.1057C75.2252 70.9687 74.5257 71.6682 73.6627 71.6682Z" fill="white"/>
<path d="M63.4329 50.8882H60.5293C60.0979 50.8882 59.748 50.5383 59.748 50.1069C59.748 49.6755 60.0979 49.3257 60.5293 49.3257H63.4329C63.8643 49.3257 64.2141 49.6755 64.2141 50.1069C64.2141 50.5383 63.8645 50.8882 63.4329 50.8882Z" fill="#FF6C6C"/>
<path d="M69.6829 54.0728H60.5293C60.0979 54.0728 59.748 53.7229 59.748 53.2915C59.748 52.8601 60.0979 52.5103 60.5293 52.5103H69.6829C70.1143 52.5103 70.4641 52.8601 70.4641 53.2915C70.4641 53.7229 70.1145 54.0728 69.6829 54.0728Z" fill="#FFAB66"/>
<path d="M69.6829 57.2573H60.5293C60.0979 57.2573 59.748 56.9075 59.748 56.4761C59.748 56.0447 60.0979 55.6948 60.5293 55.6948H69.6829C70.1143 55.6948 70.4641 56.0447 70.4641 56.4761C70.4641 56.9075 70.1145 57.2573 69.6829 57.2573Z" fill="#FFAB66"/>
<path d="M69.6829 63.6902H63.3418C62.9104 63.6902 62.5605 63.3403 62.5605 62.9089C62.5605 62.4775 62.9104 62.1277 63.3418 62.1277H69.6829C70.1143 62.1277 70.4641 62.4775 70.4641 62.9089C70.4641 63.3403 70.1145 63.6902 69.6829 63.6902Z" fill="#FFAB66"/>
<path d="M60.5293 63.6902C60.9608 63.6902 61.3105 63.3404 61.3105 62.9089C61.3105 62.4775 60.9608 62.1277 60.5293 62.1277C60.0978 62.1277 59.748 62.4775 59.748 62.9089C59.748 63.3404 60.0978 63.6902 60.5293 63.6902Z" fill="#FF6C6C"/>
<path d="M60.5293 66.8748C60.9608 66.8748 61.3105 66.525 61.3105 66.0935C61.3105 65.662 60.9608 65.3123 60.5293 65.3123C60.0978 65.3123 59.748 65.662 59.748 66.0935C59.748 66.525 60.0978 66.8748 60.5293 66.8748Z" fill="#FF6C6C"/>
<path d="M69.6829 66.875H63.3418C62.9104 66.875 62.5605 66.5252 62.5605 66.0938C62.5605 65.6623 62.9104 65.3125 63.3418 65.3125H69.6829C70.1143 65.3125 70.4641 65.6623 70.4641 66.0938C70.4641 66.5252 70.1145 66.875 69.6829 66.875Z" fill="#FFAB66"/>
<path d="M23.4503 71.6682H6.33716C5.47419 71.6682 4.77466 70.9687 4.77466 70.1057V46.1235C4.77466 45.2606 5.47419 44.561 6.33716 44.561H23.4503C24.3133 44.561 25.0128 45.2606 25.0128 46.1235V70.1057C25.0128 70.9687 24.3133 71.6682 23.4503 71.6682Z" fill="white"/>
<path d="M13.2205 50.8882H10.3169C9.88549 50.8882 9.53564 50.5383 9.53564 50.1069C9.53564 49.6755 9.88549 49.3257 10.3169 49.3257H13.2205C13.6519 49.3257 14.0017 49.6755 14.0017 50.1069C14.0017 50.5383 13.6519 50.8882 13.2205 50.8882Z" fill="#FF6C6C"/>
<path d="M19.4705 54.0728H10.3169C9.88549 54.0728 9.53564 53.7229 9.53564 53.2915C9.53564 52.8601 9.88549 52.5103 10.3169 52.5103H19.4705C19.9019 52.5103 20.2517 52.8601 20.2517 53.2915C20.2517 53.7229 19.9019 54.0728 19.4705 54.0728Z" fill="#FFAB66"/>
<path d="M19.4705 57.2573H10.3169C9.88549 57.2573 9.53564 56.9075 9.53564 56.4761C9.53564 56.0447 9.88549 55.6948 10.3169 55.6948H19.4705C19.9019 55.6948 20.2517 56.0447 20.2517 56.4761C20.2517 56.9075 19.9019 57.2573 19.4705 57.2573Z" fill="#FFAB66"/>
<path d="M19.4705 63.6902H13.1294C12.698 63.6902 12.3481 63.3403 12.3481 62.9089C12.3481 62.4775 12.698 62.1277 13.1294 62.1277H19.4705C19.9019 62.1277 20.2517 62.4775 20.2517 62.9089C20.2517 63.3403 19.9019 63.6902 19.4705 63.6902Z" fill="#FFAB66"/>
<path d="M10.3169 63.6902C10.7484 63.6902 11.0981 63.3404 11.0981 62.9089C11.0981 62.4775 10.7484 62.1277 10.3169 62.1277C9.88542 62.1277 9.53564 62.4775 9.53564 62.9089C9.53564 63.3404 9.88542 63.6902 10.3169 63.6902Z" fill="#FF6C6C"/>
<path d="M10.3169 66.8748C10.7484 66.8748 11.0981 66.525 11.0981 66.0935C11.0981 65.662 10.7484 65.3123 10.3169 65.3123C9.88542 65.3123 9.53564 65.662 9.53564 66.0935C9.53564 66.525 9.88542 66.8748 10.3169 66.8748Z" fill="#FF6C6C"/>
<path d="M19.4705 66.875H13.1294C12.698 66.875 12.3481 66.5252 12.3481 66.0938C12.3481 65.6623 12.698 65.3125 13.1294 65.3125H19.4705C19.9019 65.3125 20.2517 65.6623 20.2517 66.0938C20.2517 66.5252 19.9019 66.875 19.4705 66.875Z" fill="#FFAB66"/>
<path d="M67.563 20.7129C67.1316 20.7129 66.7818 20.3631 66.7818 19.9317C66.7818 19.3861 66.3379 18.9422 65.7922 18.9422C65.3608 18.9422 65.011 18.5923 65.011 18.1609C65.011 17.7295 65.3608 17.3797 65.7922 17.3797C66.3379 17.3797 66.7818 16.9358 66.7818 16.3901C66.7818 15.9587 67.1316 15.6089 67.563 15.6089C67.9944 15.6089 68.3443 15.9587 68.3443 16.3901C68.3443 16.9358 68.7882 17.3797 69.3338 17.3797C69.7652 17.3797 70.115 17.7295 70.115 18.1609C70.115 18.5923 69.7652 18.9422 69.3338 18.9422C68.7882 18.9422 68.3443 19.3861 68.3443 19.9317C68.3443 20.3631 67.9946 20.7129 67.563 20.7129Z" fill="#FFAB66"/>
<path d="M31.0127 76.0176C30.5813 76.0176 30.2315 75.6678 30.2315 75.2364C30.2315 74.6908 29.7876 74.2469 29.2419 74.2469C28.8105 74.2469 28.4607 73.897 28.4607 73.4656C28.4607 73.0342 28.8105 72.6844 29.2419 72.6844C29.7876 72.6844 30.2315 72.2404 30.2315 71.6948C30.2315 71.2634 30.5813 70.9136 31.0127 70.9136C31.4441 70.9136 31.794 71.2634 31.794 71.6948C31.794 72.2404 32.2379 72.6844 32.7835 72.6844C33.2149 72.6844 33.5648 73.0342 33.5648 73.4656C33.5648 73.897 33.2149 74.2469 32.7835 74.2469C32.2379 74.2469 31.794 74.6908 31.794 75.2364C31.794 75.6678 31.4443 76.0176 31.0127 76.0176Z" fill="#FF6C6C"/>
<path d="M15.9705 10.8572C15.5391 10.8572 15.1892 10.5074 15.1892 10.076C15.1892 9.53036 14.7453 9.08645 14.1997 9.08645C13.7683 9.08645 13.4185 8.73661 13.4185 8.3052C13.4185 7.8738 13.7683 7.52395 14.1997 7.52395C14.7453 7.52395 15.1892 7.08005 15.1892 6.53442C15.1892 6.10302 15.5391 5.75317 15.9705 5.75317C16.4019 5.75317 16.7517 6.10302 16.7517 6.53442C16.7517 7.08005 17.1956 7.52395 17.7413 7.52395C18.1727 7.52395 18.5225 7.8738 18.5225 8.3052C18.5225 8.73661 18.1727 9.08645 17.7413 9.08645C17.1956 9.08645 16.7517 9.53036 16.7517 10.076C16.7517 10.5075 16.4019 10.8572 15.9705 10.8572Z" fill="#FF6C6C"/>
<path d="M28.3808 8.08822C28.1808 8.08822 27.981 8.01197 27.8283 7.85947L26.9746 7.00572L26.1208 7.85947C25.8157 8.16447 25.3211 8.16447 25.016 7.85947C24.7108 7.55432 24.7108 7.05963 25.016 6.75463L26.4222 5.34838C26.7274 5.04338 27.2219 5.04338 27.5271 5.34838L28.9333 6.75463C29.2385 7.05979 29.2385 7.55447 28.9333 7.85947C28.7807 8.01197 28.5808 8.08822 28.3808 8.08822Z" fill="#8383FF"/>
<path d="M38.2663 70.4588C38.0663 70.4588 37.8665 70.3826 37.7138 70.2301L36.8601 69.3763L36.0063 70.2301C35.7012 70.5351 35.2066 70.5351 34.9015 70.2301C34.5963 69.9249 34.5963 69.4302 34.9015 69.1252L36.3077 67.719C36.6129 67.414 37.1074 67.414 37.4126 67.719L38.8188 69.1252C39.124 69.4304 39.124 69.9251 38.8188 70.2301C38.6662 70.3826 38.4663 70.4588 38.2663 70.4588Z" fill="#FFAB66"/>
<path d="M65.5046 32.8838C65.9361 32.8838 66.2859 32.534 66.2859 32.1025C66.2859 31.6711 65.9361 31.3213 65.5046 31.3213C65.0732 31.3213 64.7234 31.6711 64.7234 32.1025C64.7234 32.534 65.0732 32.8838 65.5046 32.8838Z" fill="#FF7300"/>
<path d="M65.5046 35.95C65.9361 35.95 66.2859 35.6002 66.2859 35.1687C66.2859 34.7372 65.9361 34.3875 65.5046 34.3875C65.0732 34.3875 64.7234 34.7372 64.7234 35.1687C64.7234 35.6002 65.0732 35.95 65.5046 35.95Z" fill="#FF7300"/>
<path d="M65.5046 39.0159C65.9361 39.0159 66.2859 38.6661 66.2859 38.2346C66.2859 37.8031 65.9361 37.4534 65.5046 37.4534C65.0732 37.4534 64.7234 37.8031 64.7234 38.2346C64.7234 38.6661 65.0732 39.0159 65.5046 39.0159Z" fill="#FF7300"/>
<path d="M14.4954 32.8838C14.9268 32.8838 15.2766 32.534 15.2766 32.1025C15.2766 31.6711 14.9268 31.3213 14.4954 31.3213C14.0639 31.3213 13.7141 31.6711 13.7141 32.1025C13.7141 32.534 14.0639 32.8838 14.4954 32.8838Z" fill="#FF7300"/>
<path d="M14.4954 35.95C14.9268 35.95 15.2766 35.6002 15.2766 35.1687C15.2766 34.7372 14.9268 34.3875 14.4954 34.3875C14.0639 34.3875 13.7141 34.7372 13.7141 35.1687C13.7141 35.6002 14.0639 35.95 14.4954 35.95Z" fill="#FF7300"/>
<path d="M14.4954 39.0159C14.9268 39.0159 15.2766 38.6661 15.2766 38.2346C15.2766 37.8031 14.9268 37.4534 14.4954 37.4534C14.0639 37.4534 13.7141 37.8031 13.7141 38.2346C13.7141 38.6661 14.0639 39.0159 14.4954 39.0159Z" fill="#FF7300"/>
<path d="M73.6628 44.5612H70.3756V27.351C70.3756 26.488 69.6761 25.7885 68.8131 25.7885H58.5886V23.5373C58.5886 22.769 58.03 22.1146 57.2712 21.9941L53.7286 21.4313C53.4631 20.5707 53.1184 19.7449 52.704 18.9616L54.8122 16.0573C55.2634 15.4355 55.1958 14.5779 54.6525 14.0346L51.6357 11.0179C51.0925 10.4746 50.2348 10.4069 49.6131 10.8582L46.7087 12.9663C45.9254 12.5518 45.0998 12.2071 44.239 11.9418L43.6762 8.39913C43.5558 7.64038 42.9014 7.08179 42.1331 7.08179H37.8668C37.0986 7.08179 36.4442 7.64038 36.3237 8.39913L35.7609 11.9415C34.9001 12.2069 34.0743 12.5516 33.2911 12.9662L30.3868 10.8582C29.7651 10.4069 28.9075 10.4746 28.3642 11.0179L25.3475 14.0346C25.0818 14.3002 24.9308 14.6408 24.8976 14.9924H10.9976C10.1347 14.9924 9.43513 15.6919 9.43513 16.5549V44.5612H6.33716C5.47419 44.5612 4.77466 45.2607 4.77466 46.1237V70.1059C4.77466 70.9688 5.47419 71.6684 6.33716 71.6684H23.4503C24.3133 71.6684 25.0128 70.9688 25.0128 70.1059V63.2107H54.9872V70.1059C54.9872 70.9688 55.6867 71.6684 56.5497 71.6684H73.6628C74.5257 71.6684 75.2253 70.9688 75.2253 70.1059V46.1237C75.2253 45.2607 74.5257 44.5612 73.6628 44.5612ZM39.9992 18.1608C44.1475 18.1608 47.5095 21.523 47.5095 25.6712C47.5095 25.7105 47.5072 25.7491 47.5065 25.7883H38.6906L34.0251 21.1229C35.397 19.3232 37.5622 18.1608 39.9992 18.1608Z" fill="url(#paint1_linear_828_169)"/>
</g>
<defs>
<linearGradient id="paint0_linear_828_169" x1="22.6656" y1="75.465" x2="73.7136" y2="14.6285" gradientUnits="userSpaceOnUse">
<stop stop-color="#FFF3EE" stop-opacity="0"/>
<stop offset="0.2938" stop-color="#FFEADE" stop-opacity="0.373"/>
<stop offset="0.7874" stop-color="#FFD6BB"/>
</linearGradient>
<linearGradient id="paint1_linear_828_169" x1="40" y1="71.6684" x2="40" y2="7.08179" gradientUnits="userSpaceOnUse">
<stop stop-color="#FF4D4D" stop-opacity="0.4"/>
<stop offset="0.1463" stop-color="#FF4D4D" stop-opacity="0.342"/>
<stop offset="1" stop-color="#FF4D4D" stop-opacity="0"/>
</linearGradient>
<clipPath id="clip0_828_169">
<rect width="80" height="80" fill="white"/>
</clipPath>
</defs>
</svg>
