<svg width="22" height="30" viewBox="0 0 22 30" fill="none" xmlns="http://www.w3.org/2000/svg">
<path d="M13.8281 1.62L10.6987 0L7.56937 1.62L4.08562 2.14875L2.50688 5.29875L0 7.77375L0.57375 11.25L0 14.7262L2.50688 17.2013L4.08562 20.3512L7.56937 20.88L10.6987 22.5L13.8281 20.88L17.3119 20.3512L18.8906 17.2013L21.3975 14.7262L20.8237 11.25L21.3975 7.77375L18.8906 5.29875L17.3119 2.14875L13.8281 1.62ZM16.0706 3.85687L17.3531 6.41625L19.3894 8.42625L18.9244 11.25L19.3894 14.0738L17.3531 16.0837L16.0706 18.6431L13.2394 19.0725L10.6987 20.3888L8.15812 19.0725L5.32687 18.6431L4.04437 16.0837L2.00812 14.0738L2.475 11.25L2.00625 8.42625L4.04437 6.41625L5.32687 3.85687L8.15812 3.4275L10.6987 2.11125L13.2412 3.4275L16.0706 3.85687Z" fill="#104CBA"/>
<path d="M3.19873 22.1137V30L10.6987 28.125L18.1987 30V22.1137L14.415 22.6875L10.6987 24.6112L6.98248 22.6875L3.19873 22.1137Z" fill="#104CBA"/>
</svg>
