<svg width="40" height="40" viewBox="0 0 40 40" fill="none" xmlns="http://www.w3.org/2000/svg">
<g clip-path="url(#clip0_907_196)">
<path d="M38.4775 39.1262H1.52251C0.681647 39.1262 0 38.4445 0 37.6036V11.7854C0 10.9446 0.681647 10.2629 1.52251 10.2629H38.4775C39.3184 10.2629 40 10.9446 40 11.7854V37.6036C40 38.4445 39.3184 39.1262 38.4775 39.1262Z" fill="url(#paint0_linear_907_196)"/>
<path d="M40 16.4257H0V11.7854C0 10.9446 0.681647 10.2629 1.52251 10.2629H38.4775C39.3184 10.2629 40 10.9446 40 11.7854V16.4257Z" fill="url(#paint1_linear_907_196)"/>
<path d="M3.2043 14.5787H2.40202C1.94187 14.5787 1.56885 14.2057 1.56885 13.7456V12.9433C1.56885 12.4831 1.94187 12.1101 2.40202 12.1101H3.2043C3.66446 12.1101 4.03748 12.4831 4.03748 12.9433V13.7456C4.03748 14.2057 3.66446 14.5787 3.2043 14.5787Z" fill="url(#paint2_linear_907_196)"/>
<path d="M6.35184 14.5787H5.54948C5.08933 14.5787 4.71631 14.2057 4.71631 13.7456V12.9433C4.71631 12.4831 5.08933 12.1101 5.54948 12.1101H6.35176C6.81192 12.1101 7.18494 12.4831 7.18494 12.9433V13.7456C7.18501 14.2057 6.812 14.5787 6.35184 14.5787Z" fill="url(#paint3_linear_907_196)"/>
<path d="M9.49922 14.5787H8.69695C8.23679 14.5787 7.86377 14.2057 7.86377 13.7456V12.9433C7.86377 12.4831 8.23679 12.1101 8.69695 12.1101H9.49922C9.95938 12.1101 10.3324 12.4831 10.3324 12.9433V13.7456C10.3324 14.2057 9.95938 14.5787 9.49922 14.5787Z" fill="url(#paint4_linear_907_196)"/>
<path d="M0 32.1057V37.6037C0 38.4445 0.681647 39.1262 1.52251 39.1262H38.4775C39.3184 39.1262 40 38.4445 40 37.6037V32.1057H0Z" fill="url(#paint5_linear_907_196)"/>
<path d="M13.0284 32.6459H4.84043C4.27165 32.6459 3.81055 32.1848 3.81055 31.616V21.7174C3.81055 21.1486 4.27165 20.6875 4.84043 20.6875H13.0284C13.5972 20.6875 14.0583 21.1486 14.0583 21.7174V31.6159C14.0584 32.1848 13.5973 32.6459 13.0284 32.6459V32.6459Z" fill="#B5DBFF"/>
<path d="M22.4715 23.6679H16.8559C16.4444 23.6679 16.1108 23.3343 16.1108 22.9228V21.4326C16.1108 21.0211 16.4444 20.6875 16.8559 20.6875H22.4715C22.883 20.6875 23.2166 21.0211 23.2166 21.4326V22.9228C23.2166 23.3342 22.883 23.6679 22.4715 23.6679Z" fill="#B5DBFF"/>
<path d="M35.444 23.6679H25.6401C25.2286 23.6679 24.895 23.3343 24.895 22.9228V21.4326C24.895 21.0211 25.2286 20.6875 25.6401 20.6875H35.444C35.8556 20.6875 36.1891 21.0211 36.1891 21.4326V22.9228C36.1891 23.3342 35.8556 23.6679 35.444 23.6679Z" fill="#B5DBFF"/>
<path d="M29.8286 28.1569H35.4441C35.8557 28.1569 36.1892 27.8233 36.1892 27.4118V25.9216C36.1892 25.5101 35.8557 25.1765 35.4441 25.1765H29.8286C29.4171 25.1765 29.0835 25.5101 29.0835 25.9216V27.4118C29.0835 27.8233 29.4171 28.1569 29.8286 28.1569Z" fill="#B5DBFF"/>
<path d="M16.8559 28.1569H26.6599C27.0714 28.1569 27.405 27.8233 27.405 27.4118V25.9216C27.405 25.5101 27.0714 25.1765 26.6599 25.1765H16.8559C16.4444 25.1765 16.1108 25.5101 16.1108 25.9216V27.4118C16.1108 27.8233 16.4444 28.1569 16.8559 28.1569V28.1569Z" fill="#B5DBFF"/>
<path d="M22.4715 32.6459H16.8559C16.4444 32.6459 16.1108 32.3124 16.1108 31.9008V30.4106C16.1108 29.9991 16.4444 29.6655 16.8559 29.6655H22.4715C22.883 29.6655 23.2166 29.9991 23.2166 30.4106V31.9008C23.2166 32.3123 22.883 32.6459 22.4715 32.6459Z" fill="#B5DBFF"/>
<path d="M35.444 32.6459H25.6401C25.2286 32.6459 24.895 32.3124 24.895 31.9008V30.4106C24.895 29.9991 25.2286 29.6655 25.6401 29.6655H35.444C35.8556 29.6655 36.1891 29.9991 36.1891 30.4106V31.9008C36.1891 32.3123 35.8556 32.6459 35.444 32.6459Z" fill="#B5DBFF"/>
<path d="M38.4774 10.2629H10.8154C10.827 12.9513 11.8208 15.3706 13.6501 17.0665L35.7092 39.1262H38.4774C39.3183 39.1262 39.9999 38.4445 39.9999 37.6036V11.7854C39.9999 10.9446 39.3183 10.2629 38.4774 10.2629Z" fill="url(#paint6_linear_907_196)"/>
<path d="M19.9998 19.5578C25.1593 19.5578 29.342 15.3752 29.342 10.2157C29.342 5.05614 25.1593 0.873535 19.9998 0.873535C14.8403 0.873535 10.6577 5.05614 10.6577 10.2157C10.6577 15.3752 14.8403 19.5578 19.9998 19.5578Z" fill="url(#paint7_linear_907_196)"/>
<path d="M29.2949 11.1565L21.2541 3.11567C20.9869 2.75904 20.515 2.72241 19.9894 2.72241C19.1382 2.72241 18.6309 3.02218 18.6309 3.83182C18.6309 6.30226 18.9215 9.85237 18.9215 12.3228C18.9215 12.6457 18.9058 12.8745 19.1304 13.0223L24.5076 18.3996C27.1298 16.9521 28.9824 14.2814 29.2949 11.1565Z" fill="url(#paint8_linear_907_196)"/>
<path d="M24.4195 18.4478L21.172 15.2003C20.8804 14.8759 20.4636 14.7471 20.0103 14.7471C19.0968 14.7471 18.4902 15.3952 18.4902 16.2671C18.4902 16.732 18.6171 17.1648 18.9513 17.4629L20.9933 19.505C22.2222 19.3751 23.3799 19.0071 24.4195 18.4478V18.4478Z" fill="url(#paint9_linear_907_196)"/>
<path d="M21.588 16.2674C21.588 17.1186 20.8614 17.866 20.0102 17.866C19.0967 17.866 18.4116 17.1186 18.4116 16.2674C18.4116 15.3955 19.0967 14.6688 20.0102 14.6688C20.8614 14.6688 21.588 15.3955 21.588 16.2674ZM21.1936 12.3228C21.1936 12.9665 20.4877 13.2363 19.9894 13.2363C19.3251 13.2363 18.7646 12.9665 18.7646 12.3228C18.7646 9.85241 18.4739 6.30229 18.4739 3.83186C18.4739 3.02221 19.1382 2.56543 19.9894 2.56543C20.7991 2.56543 21.4842 3.02214 21.4842 3.83186C21.4842 6.30229 21.1936 9.85241 21.1936 12.3228V12.3228Z" fill="url(#paint10_linear_907_196)"/>
<path d="M8.29278 24.7771C8.29278 25.632 7.45592 26.3748 6.22297 26.7552C6.03003 26.8148 5.8269 26.8658 5.61513 26.9058C5.21592 26.9842 4.78768 27.0258 4.34219 27.0258C3.59552 27.0258 2.89748 26.9081 2.30219 26.7034C2.2316 26.6791 2.16258 26.654 2.09513 26.6273C1.06611 26.2211 0.391602 25.5442 0.391602 24.7771C0.391602 23.9858 1.11003 23.2901 2.19631 22.8893C2.34846 22.8336 2.50768 22.7834 2.67317 22.7395C3.17984 22.6046 3.74533 22.5293 4.34219 22.5293C5.00101 22.5293 5.62298 22.6211 6.16886 22.7842C6.53435 22.8924 6.8669 23.0328 7.15396 23.1991C7.85827 23.6038 8.29278 24.1615 8.29278 24.7771V24.7771Z" fill="url(#paint11_linear_907_196)"/>
<path d="M11.9227 20.4078C11.9227 21.4909 11.0451 22.3686 9.96191 22.3686H9.4325C8.56584 22.3686 7.77054 22.6807 7.15407 23.1992C6.3776 23.8502 5.88348 24.8274 5.88348 25.9176C5.88348 26.2784 5.78623 26.6156 5.61525 26.9058C5.21603 26.9843 4.7878 27.0258 4.34231 27.0258C3.59564 27.0258 2.8976 26.9082 2.30231 26.7035C2.23172 26.6792 2.1627 26.6541 2.09525 26.6274C2.00897 26.4078 1.96191 26.1678 1.96191 25.9176C1.96191 24.7819 2.21682 23.7043 2.67329 22.7396C3.86858 20.2047 6.44897 18.447 9.4325 18.447H9.96191C11.0451 18.447 11.9227 19.3247 11.9227 20.4078V20.4078Z" fill="url(#paint12_linear_907_196)"/>
<path d="M3.09424 21.9679C3.38812 22.5757 3.8024 23.1683 4.33502 23.701C4.85557 24.2215 5.43353 24.629 6.02679 24.9216C6.35165 23.8126 7.20404 22.9276 8.29306 22.5574C7.72287 22.2672 7.16843 21.8701 6.66718 21.3689C6.12977 20.8315 5.71275 20.233 5.41847 19.6196C4.48028 20.2196 3.68491 21.0235 3.09424 21.9679V21.9679Z" fill="url(#paint13_linear_907_196)"/>
<path d="M27.014 31.2353C27.014 31.8941 26.9223 32.516 26.7591 33.0619C26.3842 34.3247 25.6329 35.1858 24.7662 35.1858C23.9113 35.1858 23.1686 34.349 22.7882 33.116C22.6156 32.5568 22.5176 31.916 22.5176 31.2353C22.5176 30.4886 22.6352 29.7905 22.8399 29.1953C23.2337 28.0502 23.9489 27.2847 24.7662 27.2847C25.5576 27.2847 26.2533 28.0031 26.654 29.0894C26.8815 29.7074 27.014 30.4439 27.014 31.2353V31.2353Z" fill="url(#paint14_linear_907_196)"/>
<path d="M37.7419 21.8744C37.7419 22.9567 36.8642 23.8351 35.7811 23.8351H35.1905C33.7129 23.8351 32.5105 25.0367 32.5105 26.5151C32.5105 29.8673 29.9991 32.6438 26.7591 33.0618C26.4807 33.0979 26.1968 33.1167 25.909 33.1167H22.8086C22.8015 33.1167 22.7952 33.1167 22.7882 33.1159C22.6156 32.5567 22.5176 31.9159 22.5176 31.2351C22.5176 30.4885 22.6352 29.7904 22.8399 29.1951H25.909C26.1678 29.1951 26.4172 29.1583 26.654 29.0893C27.7709 28.7661 28.589 27.734 28.589 26.5151C28.589 22.8744 31.5505 19.9136 35.1905 19.9136H35.7811C36.8642 19.9136 37.7419 20.7912 37.7419 21.8744V21.8744Z" fill="url(#paint15_linear_907_196)"/>
<path d="M25.8156 31.2329C25.8156 31.8996 25.9137 32.5349 26.0901 33.1137C26.0297 33.116 25.9693 33.1168 25.909 33.1168H22.7929C22.6156 32.5372 22.5176 31.9004 22.5176 31.2329C22.5176 30.5051 22.6337 29.8156 22.8415 29.1953H25.909C25.9882 29.1953 26.0666 29.1921 26.1435 29.1851C25.9333 29.8078 25.8156 30.5011 25.8156 31.2329V31.2329Z" fill="url(#paint16_linear_907_196)"/>
<path d="M34.9982 23.8421C33.7849 23.9284 32.792 24.8257 32.5614 25.9943C31.8877 25.6288 31.2414 25.101 30.69 24.4265C30.2743 23.9174 29.9512 23.3723 29.7222 22.8202C30.3535 21.8884 31.2171 21.1253 32.2288 20.6155C32.4602 21.2076 32.799 21.7951 33.2445 22.3402C33.7637 22.9755 34.3669 23.4806 34.9982 23.8421V23.8421Z" fill="url(#paint17_linear_907_196)"/>
<path d="M32.2033 28.5082C31.8606 29.5889 31.2457 30.5505 30.4402 31.3121C29.8002 31.1662 29.1484 30.9042 28.5257 30.5238C27.8425 30.1058 27.2708 29.5921 26.8315 29.0313C27.8559 28.6548 28.5892 27.6689 28.5892 26.5152C28.5892 26.4336 28.5908 26.3521 28.5947 26.2705C29.0268 26.8109 29.5837 27.3058 30.2457 27.7105C30.8825 28.0995 31.5492 28.3638 32.2033 28.5082V28.5082Z" fill="url(#paint18_linear_907_196)"/>
</g>
<defs>
<linearGradient id="paint0_linear_907_196" x1="9.24761" y1="13.9422" x2="31.7422" y2="36.4367" gradientUnits="userSpaceOnUse">
<stop stop-color="#EDF5FF"/>
<stop offset="1" stop-color="#D5E8FE"/>
</linearGradient>
<linearGradient id="paint1_linear_907_196" x1="19.7209" y1="9.81455" x2="20.3358" y2="19.2141" gradientUnits="userSpaceOnUse">
<stop stop-color="#B5DBFF"/>
<stop offset="1" stop-color="#48B2E3"/>
</linearGradient>
<linearGradient id="paint2_linear_907_196" x1="2.52885" y1="13.1354" x2="3.65677" y2="13.9948" gradientUnits="userSpaceOnUse">
<stop stop-color="#FF637B"/>
<stop offset="1" stop-color="#E63950"/>
</linearGradient>
<linearGradient id="paint3_linear_907_196" x1="5.67639" y1="13.1354" x2="6.80431" y2="13.9948" gradientUnits="userSpaceOnUse">
<stop stop-color="#FFDA2D"/>
<stop offset="1" stop-color="#FDBF00"/>
</linearGradient>
<linearGradient id="paint4_linear_907_196" x1="8.49867" y1="12.745" x2="11.1718" y2="15.4182" gradientUnits="userSpaceOnUse">
<stop stop-color="#B9DD39"/>
<stop offset="1" stop-color="#0B799D"/>
</linearGradient>
<linearGradient id="paint5_linear_907_196" x1="20" y1="35.4535" x2="20" y2="43.2178" gradientUnits="userSpaceOnUse">
<stop stop-color="#B5DBFF" stop-opacity="0"/>
<stop offset="0.2428" stop-color="#93CEF6" stop-opacity="0.243"/>
<stop offset="0.5763" stop-color="#6ABFEC" stop-opacity="0.576"/>
<stop offset="0.8403" stop-color="#51B5E5" stop-opacity="0.84"/>
<stop offset="1" stop-color="#48B2E3"/>
</linearGradient>
<linearGradient id="paint6_linear_907_196" x1="30.1371" y1="23.0156" x2="23.2351" y2="6.78027" gradientUnits="userSpaceOnUse">
<stop stop-color="#07485E" stop-opacity="0"/>
<stop offset="0.3332" stop-color="#063F52" stop-opacity="0.333"/>
<stop offset="0.9358" stop-color="#032632" stop-opacity="0.936"/>
<stop offset="1" stop-color="#03232E"/>
</linearGradient>
<linearGradient id="paint7_linear_907_196" x1="15.6547" y1="5.87048" x2="24.6592" y2="14.875" gradientUnits="userSpaceOnUse">
<stop stop-color="#FF9100"/>
<stop offset="1" stop-color="#E63950"/>
</linearGradient>
<linearGradient id="paint8_linear_907_196" x1="25.8381" y1="12.7096" x2="16.1933" y2="6.25379" gradientUnits="userSpaceOnUse">
<stop stop-color="#E63950" stop-opacity="0"/>
<stop offset="0.0467" stop-color="#E4354B" stop-opacity="0.047"/>
<stop offset="0.4669" stop-color="#D31822" stop-opacity="0.467"/>
<stop offset="0.7991" stop-color="#C90709" stop-opacity="0.799"/>
<stop offset="1" stop-color="#C50000"/>
</linearGradient>
<linearGradient id="paint9_linear_907_196" x1="23.6119" y1="19.0781" x2="18.7148" y2="15.6969" gradientUnits="userSpaceOnUse">
<stop stop-color="#E63950" stop-opacity="0"/>
<stop offset="0.0467" stop-color="#E4354B" stop-opacity="0.047"/>
<stop offset="0.4669" stop-color="#D31822" stop-opacity="0.467"/>
<stop offset="0.7991" stop-color="#C90709" stop-opacity="0.799"/>
<stop offset="1" stop-color="#C50000"/>
</linearGradient>
<linearGradient id="paint10_linear_907_196" x1="18.4117" y1="10.2157" x2="21.588" y2="10.2157" gradientUnits="userSpaceOnUse">
<stop stop-color="#EDF5FF"/>
<stop offset="1" stop-color="#D5E8FE"/>
</linearGradient>
<linearGradient id="paint11_linear_907_196" x1="4.40901" y1="24.1856" x2="3.94682" y2="28.2793" gradientUnits="userSpaceOnUse">
<stop stop-color="#07485E" stop-opacity="0"/>
<stop offset="0.3332" stop-color="#063F52" stop-opacity="0.333"/>
<stop offset="0.9358" stop-color="#032632" stop-opacity="0.936"/>
<stop offset="1" stop-color="#03232E"/>
</linearGradient>
<linearGradient id="paint12_linear_907_196" x1="4.72027" y1="20.8228" x2="9.74944" y2="25.8519" gradientUnits="userSpaceOnUse">
<stop stop-color="#FF637B"/>
<stop offset="1" stop-color="#E63950"/>
</linearGradient>
<linearGradient id="paint13_linear_907_196" x1="4.28083" y1="21.0645" x2="7.98859" y2="24.7723" gradientUnits="userSpaceOnUse">
<stop stop-color="#FF9100"/>
<stop offset="1" stop-color="#E63950"/>
</linearGradient>
<linearGradient id="paint14_linear_907_196" x1="25.042" y1="31.2353" x2="20.9638" y2="31.2353" gradientUnits="userSpaceOnUse">
<stop stop-color="#07485E" stop-opacity="0"/>
<stop offset="0.3332" stop-color="#063F52" stop-opacity="0.333"/>
<stop offset="0.9358" stop-color="#032632" stop-opacity="0.936"/>
<stop offset="1" stop-color="#03232E"/>
</linearGradient>
<linearGradient id="paint15_linear_907_196" x1="26.7868" y1="23.6107" x2="32.8799" y2="29.7038" gradientUnits="userSpaceOnUse">
<stop stop-color="#FF637B"/>
<stop offset="1" stop-color="#E63950"/>
</linearGradient>
<linearGradient id="paint16_linear_907_196" x1="22.9999" y1="29.6827" x2="27.3153" y2="33.9981" gradientUnits="userSpaceOnUse">
<stop stop-color="#FF9100"/>
<stop offset="1" stop-color="#E63950"/>
</linearGradient>
<linearGradient id="paint17_linear_907_196" x1="30.9353" y1="22.0209" x2="34.8291" y2="25.9147" gradientUnits="userSpaceOnUse">
<stop stop-color="#FF9100"/>
<stop offset="1" stop-color="#E63950"/>
</linearGradient>
<linearGradient id="paint18_linear_907_196" x1="28.1017" y1="27.3844" x2="32.2508" y2="31.5334" gradientUnits="userSpaceOnUse">
<stop stop-color="#FF9100"/>
<stop offset="1" stop-color="#E63950"/>
</linearGradient>
<clipPath id="clip0_907_196">
<rect width="40" height="40" fill="white"/>
</clipPath>
</defs>
</svg>
