<svg width="74" height="74" viewBox="0 0 74 74" fill="none" xmlns="http://www.w3.org/2000/svg">
<g clip-path="url(#clip0_939_408)">
<path d="M50.5158 64.1105L24.6821 71.0326C22.2887 71.6739 19.8286 70.2536 19.1873 67.8602L5.98052 18.5719C5.33923 16.1785 6.7596 13.7184 9.15293 13.0771L34.9867 6.15497C37.38 5.51367 39.8402 6.93404 40.4815 9.32738L53.6882 58.6157C54.3295 61.0091 52.9092 63.4692 50.5158 64.1105Z" fill="url(#paint0_linear_939_408)"/>
<path d="M48.1004 56.2901L22.8638 63.0522C21.6459 63.3785 20.3942 62.6558 20.0679 61.438L8.66994 18.9004C8.34361 17.6825 9.06639 16.4308 10.2841 16.1045L35.5209 9.34229C36.7388 9.01597 37.9905 9.73875 38.3168 10.9565L49.7147 53.4941C50.041 54.7119 49.3183 55.9637 48.1004 56.2901Z" fill="url(#paint1_linear_939_408)"/>
<path d="M23.1692 13.7189C23.7189 13.5717 24.0451 13.0067 23.8978 12.457C23.7505 11.9074 23.1855 11.5812 22.6359 11.7284C22.0862 11.8757 21.76 12.4407 21.9073 12.9904C22.0546 13.54 22.6196 13.8662 23.1692 13.7189Z" fill="url(#paint2_linear_939_408)"/>
<path d="M23.0701 13.3484C23.415 13.2559 23.6197 12.9014 23.5273 12.5565C23.4349 12.2115 23.0803 12.0068 22.7354 12.0993C22.3905 12.1917 22.1858 12.5462 22.2782 12.8912C22.3706 13.2361 22.7252 13.4408 23.0701 13.3484Z" fill="url(#paint3_linear_939_408)"/>
<path d="M46.2857 54.9018L23.7411 60.9426C22.6323 61.2397 21.4924 60.5816 21.1953 59.4727L10.6293 20.0401C10.3322 18.9312 10.9903 17.7913 12.0992 17.4942L34.6439 11.4534C35.7528 11.1563 36.8927 11.8144 37.1898 12.9232L47.7557 52.3559C48.0527 53.4648 47.3947 54.6046 46.2857 54.9018V54.9018Z" fill="url(#paint4_linear_939_408)"/>
<path d="M37.229 66.1895C38.7262 65.7883 39.6146 64.2494 39.2135 62.7522C38.8123 61.2551 37.2734 60.3666 35.7763 60.7678C34.2791 61.1689 33.3906 62.7078 33.7918 64.205C34.193 65.7021 35.7319 66.5906 37.229 66.1895Z" fill="url(#paint5_linear_939_408)"/>
<path d="M36.0733 31.0391C34.9324 26.781 30.5557 24.2542 26.2977 25.3951C22.0397 26.536 19.5128 30.9127 20.6537 35.1707C21.4614 38.1851 23.8913 40.3299 26.7523 40.9219L27.7029 44.4697C28.2146 46.3793 30.1773 47.5125 32.0869 47.0008C33.9965 46.4891 35.1297 44.5264 34.618 42.6168L33.6674 39.069C35.849 37.1258 36.881 34.0534 36.0733 31.0391V31.0391Z" fill="url(#paint6_linear_939_408)"/>
<path d="M45.5419 28.2137L28.2915 32.8359L30.2359 40.0925L52.1086 52.7207L45.5419 28.2137Z" fill="url(#paint7_linear_939_408)"/>
<path d="M31.5499 44.996C30.7487 45.2107 29.922 44.7334 29.7073 43.9322L28.4256 39.1487L27.1729 38.8894C24.9694 38.4333 23.2394 36.8024 22.6581 34.6331C21.8152 31.4871 23.6888 28.242 26.8347 27.399C29.9807 26.556 33.2258 28.4296 34.0688 31.5756C34.6501 33.7449 33.9673 36.0223 32.2871 37.519L31.3318 38.37L32.6135 43.1534C32.8283 43.9547 32.3512 44.7813 31.5499 44.996V44.996Z" fill="url(#paint8_linear_939_408)"/>
<path d="M34.0691 31.5763C34.6504 33.7457 33.967 36.0225 32.2865 37.519L31.3319 38.3704L32.0785 41.1568L30.2357 40.0928L26.8345 27.3994C29.98 26.5566 33.226 28.4297 34.0691 31.5763V31.5763Z" fill="url(#paint9_linear_939_408)"/>
<path d="M39.4236 29.2796L41.5112 37.0706L36.0668 38.5295C35.877 38.5803 35.6836 38.5493 35.5254 38.459C35.3727 38.3698 35.2517 38.2239 35.1983 38.0418C35.0854 37.6573 34.7064 37.4178 34.3193 37.5215L32.2409 38.0784C32.0511 38.1293 31.8991 38.2528 31.8073 38.4102C31.7169 38.5684 31.6859 38.7618 31.7368 38.9516C31.8388 39.3323 31.6122 39.7231 31.2327 39.8248L30.236 40.0918L28.1484 32.3008L39.4236 29.2796Z" fill="url(#paint10_linear_939_408)"/>
<path d="M28.8594 34.9551L40.1346 31.9339L40.8005 34.4192L29.5253 37.4403L28.8594 34.9551Z" fill="url(#paint11_linear_939_408)"/>
<path d="M60.2589 27.8733C58.5954 21.6651 52.2139 17.9807 46.0058 19.6442C39.7976 21.3077 36.1132 27.6892 37.7767 33.8974C39.4402 40.1055 45.8217 43.7899 52.0298 42.1264C58.238 40.4629 61.9224 34.0816 60.2589 27.8733ZM50.1003 30.5952C49.6287 28.8352 50.6723 27.0258 52.4336 26.5539C54.1936 26.0823 56.0021 27.1275 56.4737 28.8875C56.9453 30.6475 55.9017 32.4569 54.1417 32.9285C52.3804 33.4005 50.5719 32.3553 50.1003 30.5952Z" fill="url(#paint12_linear_939_408)"/>
<path d="M58.2938 28.3998C56.921 23.2765 51.6553 20.2364 46.532 21.6092C41.4088 22.982 38.3686 28.2476 39.7414 33.3709C41.1142 38.4942 46.3799 41.5343 51.5031 40.1615C56.6264 38.7888 59.6666 33.5232 58.2938 28.3998ZM50.1001 30.5953C49.6285 28.8353 50.6721 27.0259 52.4334 26.5539C54.1934 26.0823 56.0019 27.1275 56.4735 28.8876C56.9451 30.6476 55.9015 32.457 54.1415 32.9286C52.3802 33.4005 50.5717 32.3553 50.1001 30.5953Z" fill="url(#paint13_linear_939_408)"/>
<path d="M41.6033 53.0612L45.6715 51.9712C46.2677 51.8114 46.6215 51.1986 46.4618 50.6023L45.8832 48.4432C45.7235 47.8469 45.1107 47.4931 44.5144 47.6529L40.4463 48.743C39.85 48.9027 39.4962 49.5155 39.656 50.1118L40.2345 52.2709C40.3943 52.8672 41.0071 53.221 41.6033 53.0612Z" fill="#B5DBFF"/>
<path d="M22.8074 58.0973L37.0122 54.2912C37.6085 54.1314 37.9623 53.5186 37.8025 52.9224L37.224 50.7632C37.0642 50.167 36.4514 49.8132 35.8552 49.9729L21.6504 53.7791C21.0541 53.9389 20.7003 54.5517 20.8601 55.1479L21.4386 57.3071C21.5984 57.9033 22.2112 58.2571 22.8074 58.0973V58.0973Z" fill="#B5DBFF"/>
</g>
<defs>
<linearGradient id="paint0_linear_939_408" x1="12.0461" y1="28.3238" x2="55.6235" y2="53.4831" gradientUnits="userSpaceOnUse">
<stop stop-color="#0B799D"/>
<stop offset="1" stop-color="#07485E"/>
</linearGradient>
<linearGradient id="paint1_linear_939_408" x1="30.7378" y1="41.9648" x2="15.011" y2="-16.7284" gradientUnits="userSpaceOnUse">
<stop stop-color="#0B799D"/>
<stop offset="1" stop-color="#07485E"/>
</linearGradient>
<linearGradient id="paint2_linear_939_408" x1="24.7953" y1="13.8165" x2="20.4875" y2="11.3295" gradientUnits="userSpaceOnUse">
<stop stop-color="#0B799D"/>
<stop offset="1" stop-color="#07485E"/>
</linearGradient>
<linearGradient id="paint3_linear_939_408" x1="21.7148" y1="12.038" x2="24.4183" y2="13.5989" gradientUnits="userSpaceOnUse">
<stop stop-color="#0B799D"/>
<stop offset="1" stop-color="#07485E"/>
</linearGradient>
<linearGradient id="paint4_linear_939_408" x1="14.0789" y1="27.4722" x2="33.3167" y2="38.5791" gradientUnits="userSpaceOnUse">
<stop stop-color="#EDF5FF"/>
<stop offset="1" stop-color="#D5E8FE"/>
</linearGradient>
<linearGradient id="paint5_linear_939_408" x1="40.2295" y1="65.6303" x2="32.2643" y2="61.0316" gradientUnits="userSpaceOnUse">
<stop stop-color="#0B799D"/>
<stop offset="1" stop-color="#07485E"/>
</linearGradient>
<linearGradient id="paint6_linear_939_408" x1="43.7528" y1="43.8601" x2="25.2063" y2="33.1521" gradientUnits="userSpaceOnUse">
<stop stop-color="#EDF5FF"/>
<stop offset="1" stop-color="#D5E8FE"/>
</linearGradient>
<linearGradient id="paint7_linear_939_408" x1="48.1333" y1="40.0677" x2="33.6893" y2="31.7286" gradientUnits="userSpaceOnUse">
<stop stop-color="#B5DBFF" stop-opacity="0"/>
<stop offset="0.2428" stop-color="#93CEF6" stop-opacity="0.243"/>
<stop offset="0.5763" stop-color="#6ABFEC" stop-opacity="0.576"/>
<stop offset="0.8403" stop-color="#51B5E5" stop-opacity="0.84"/>
<stop offset="1" stop-color="#48B2E3"/>
</linearGradient>
<linearGradient id="paint8_linear_939_408" x1="36.6999" y1="39.7887" x2="19.031" y2="29.5877" gradientUnits="userSpaceOnUse">
<stop stop-color="#0B799D"/>
<stop offset="1" stop-color="#07485E"/>
</linearGradient>
<linearGradient id="paint9_linear_939_408" x1="33.3166" y1="33.2438" x2="28.0875" y2="34.6449" gradientUnits="userSpaceOnUse">
<stop stop-color="#07485E" stop-opacity="0"/>
<stop offset="1" stop-color="#03232E"/>
</linearGradient>
<linearGradient id="paint10_linear_939_408" x1="33.9158" y1="31.2744" x2="35.5841" y2="37.5006" gradientUnits="userSpaceOnUse">
<stop stop-color="#FFDA2D"/>
<stop offset="1" stop-color="#FDBF00"/>
</linearGradient>
<linearGradient id="paint11_linear_939_408" x1="35.5239" y1="37.2772" x2="34.4682" y2="33.3372" gradientUnits="userSpaceOnUse">
<stop stop-color="#FFDA2D"/>
<stop offset="1" stop-color="#FDBF00"/>
</linearGradient>
<linearGradient id="paint12_linear_939_408" x1="52.7178" y1="24.4767" x2="36.0743" y2="53.3041" gradientUnits="userSpaceOnUse">
<stop stop-color="#FFDA2D"/>
<stop offset="1" stop-color="#FDBF00"/>
</linearGradient>
<linearGradient id="paint13_linear_939_408" x1="45.7543" y1="36.5375" x2="61.5041" y2="9.2581" gradientUnits="userSpaceOnUse">
<stop stop-color="#FFDA2D"/>
<stop offset="1" stop-color="#FDBF00"/>
</linearGradient>
<clipPath id="clip0_939_408">
<rect width="60" height="60" fill="white" transform="translate(0 15.5293) rotate(-15)"/>
</clipPath>
</defs>
</svg>
