<svg width="27" height="30" viewBox="0 0 27 30" fill="none" xmlns="http://www.w3.org/2000/svg">
<path fill-rule="evenodd" clip-rule="evenodd" d="M18.4762 15.2737C18.5635 15.3608 18.6328 15.4643 18.68 15.5782C18.7273 15.6921 18.7516 15.8142 18.7516 15.9375C18.7516 16.0608 18.7273 16.1829 18.68 16.2968C18.6328 16.4107 18.5635 16.5141 18.4762 16.6012L12.8512 22.2262C12.7641 22.3135 12.6607 22.3828 12.5468 22.4301C12.4329 22.4773 12.3108 22.5016 12.1875 22.5016C12.0642 22.5016 11.942 22.4773 11.8282 22.4301C11.7143 22.3828 11.6108 22.3135 11.5237 22.2262L8.71121 19.4137C8.62405 19.3266 8.55491 19.2231 8.50773 19.1092C8.46056 18.9953 8.43628 18.8732 8.43628 18.75C8.43628 18.6267 8.46056 18.5046 8.50773 18.3907C8.55491 18.2769 8.62405 18.1734 8.71121 18.0862C8.88725 17.9102 9.12601 17.8113 9.37496 17.8113C9.49823 17.8113 9.6203 17.8356 9.73418 17.8827C9.84807 17.9299 9.95155 17.9991 10.0387 18.0862L12.1875 20.2368L17.1487 15.2737C17.2358 15.1864 17.3393 15.1171 17.4532 15.0699C17.567 15.0226 17.6891 14.9983 17.8125 14.9983C17.9358 14.9983 18.0579 15.0226 18.1718 15.0699C18.2857 15.1171 18.3891 15.1864 18.4762 15.2737Z" fill="#913BFF"/>
<path d="M13.125 1.875C14.3682 1.875 15.5605 2.36886 16.4396 3.24794C17.3186 4.12701 17.8125 5.3193 17.8125 6.5625V7.5H8.4375V6.5625C8.4375 5.3193 8.93136 4.12701 9.81044 3.24794C10.6895 2.36886 11.8818 1.875 13.125 1.875ZM19.6875 7.5V6.5625C19.6875 4.82202 18.9961 3.15282 17.7654 1.92211C16.5347 0.691404 14.8655 0 13.125 0C11.3845 0 9.71532 0.691404 8.48461 1.92211C7.2539 3.15282 6.5625 4.82202 6.5625 6.5625V7.5H0V26.25C0 27.2446 0.395088 28.1984 1.09835 28.9016C1.80161 29.6049 2.75544 30 3.75 30H22.5C23.4946 30 24.4484 29.6049 25.1516 28.9016C25.8549 28.1984 26.25 27.2446 26.25 26.25V7.5H19.6875ZM1.875 9.375H24.375V26.25C24.375 26.7473 24.1775 27.2242 23.8258 27.5758C23.4742 27.9275 22.9973 28.125 22.5 28.125H3.75C3.25272 28.125 2.77581 27.9275 2.42417 27.5758C2.07254 27.2242 1.875 26.7473 1.875 26.25V9.375Z" fill="#913BFF"/>
</svg>
