<svg width="53" height="40" viewBox="0 0 53 40" fill="none" xmlns="http://www.w3.org/2000/svg">
<path d="M48.3238 4.63959C46.7779 2.94673 44.9343 1.69295 42.7941 0.877699C41.2483 0.31355 39.6427 0 38.0371 0C33.2209 0 28.8206 2.50755 26.2044 6.58303C25.7879 5.89337 25.3126 5.26622 24.7178 4.63961C23.172 2.94675 21.3283 1.69297 19.1882 0.877722C17.6423 0.313572 16.0367 2.22077e-05 14.4312 2.22077e-05C8.30665 2.22077e-05 2.83622 4.07494 0.814544 10.1564C-0.434353 13.9808 -0.255545 18.1187 1.40933 21.7549C3.07424 25.3912 5.98794 28.1498 9.61508 29.5291C10.3285 29.7797 11.0423 30.0307 11.815 30.1562C10.6852 32.0996 9.31767 33.9181 7.65286 35.5479C7.05808 36.1121 6.70138 36.9272 6.76111 37.7425C6.82042 38.4947 7.17754 39.1843 7.7719 39.5604C8.18833 39.811 8.60433 39.9995 9.1394 39.9995C9.4961 39.9995 9.79349 39.9369 10.1502 39.8114C14.0149 38.244 17.7019 35.6109 20.8532 32.1627C22.2207 30.6579 24.0046 28.5889 25.4912 26.0813C25.8479 25.5172 26.1453 24.89 26.4426 24.2634C28.1668 26.7085 30.4858 28.5264 33.2212 29.5296C33.9346 29.7802 34.6484 30.0312 35.4212 30.1568C34.2913 32.1002 32.9238 33.9187 31.259 35.5485C30.6642 36.1126 30.3075 36.9278 30.3673 37.743C30.4266 38.4952 30.7837 39.1849 31.378 39.5609C31.7945 39.8115 32.2105 40 32.7455 40C33.1022 40 33.3996 39.9375 33.7563 39.812C37.6211 38.2446 41.308 35.6114 44.4593 32.1632C45.8268 30.6585 47.6108 28.5894 49.0973 26.0819C50.2272 24.2009 51.0595 22.2575 51.5947 20.1885C53.1998 14.6078 51.951 8.65159 48.3238 4.63914L48.3238 4.63959ZM48.2645 19.122C47.7888 20.8774 47.0754 22.5073 46.1239 24.1377C44.8158 26.3322 43.2699 28.1501 41.902 29.592C40.5938 31.0338 39.1665 32.3506 37.6208 33.4163C38.4532 32.0995 39.1666 30.7832 39.7614 29.3414C39.999 28.7773 39.9397 28.0876 39.6423 27.5235C39.3449 27.0219 38.7506 26.7083 38.1558 26.7083C36.8476 26.7083 35.5992 26.5203 34.4096 26.0812C31.6742 25.078 29.4743 23.0091 28.2259 20.2509C28.1666 20.1253 28.1666 20.0628 28.1068 19.9373C26.977 17.2417 26.8579 14.295 27.7501 11.4733C27.8094 11.2227 27.9285 11.0343 27.9878 10.7837C29.7128 6.52067 33.6369 3.762 38.0373 3.762C39.2862 3.762 40.4753 4.01259 41.6644 4.38913C43.27 4.95327 44.6375 5.95649 45.8266 7.21026C48.5022 10.2195 49.4537 14.7961 48.2646 19.1222L48.2645 19.122ZM22.5178 24.0746C21.2097 26.2692 19.6638 28.0871 18.2959 29.5289C16.9877 30.9708 15.5604 32.2876 14.0147 33.3533C14.8471 32.0365 15.5605 30.7201 16.1553 29.2784C16.3929 28.7142 16.3336 28.0246 16.0362 27.4605C15.7388 26.9589 15.1445 26.6453 14.5497 26.6453C13.2415 26.6453 11.9931 26.4573 10.8035 26.0182C8.0681 25.015 5.86825 22.9461 4.61977 20.1878C3.37088 17.4292 3.1926 14.2944 4.14403 11.4108C5.68992 6.83425 9.79274 3.76211 14.4307 3.76211C15.6796 3.76211 16.8687 4.0127 18.0578 4.38924C19.6634 4.95339 21.0309 5.9566 22.22 7.21037C23.1118 8.21359 23.8256 9.4049 24.3606 10.7212C23.4689 13.7933 23.4689 16.9906 24.4199 19.9998C23.8853 21.4417 23.2909 22.7585 22.5178 24.0747V24.0746Z" fill="white"/>
</svg>
