<svg width="40" height="40" viewBox="0 0 40 40" fill="none" xmlns="http://www.w3.org/2000/svg">
<path d="M20 40C31.0457 40 40 31.0457 40 20C40 8.95431 31.0457 0 20 0C8.95431 0 0 8.95431 0 20C0 31.0457 8.95431 40 20 40Z" fill="url(#paint0_linear_907_188)"/>
<path d="M39.9787 20.9033L29.7821 10.7067C27.7338 8.55213 24.9858 7.22531 21.9107 6.78617L18.6599 4.74727C17.8706 4.25221 17.0019 4.66264 17.0019 5.59433V7.02334C11.0191 8.46036 6.5729 13.7323 6.65134 20.1674C6.6522 20.2386 6.6453 20.7712 6.64867 21.0034L6.59424 28.1219C6.59894 28.4487 6.5722 28.7287 6.77298 28.9328C6.8329 28.9937 13.6037 35.7281 17.7741 39.8759C18.5051 39.9568 19.2474 39.9998 20 39.9998C30.7428 39.9999 39.5062 31.5296 39.9787 20.9033V20.9033Z" fill="url(#paint1_linear_907_188)"/>
<path d="M34.7794 18.5843H33.4317C32.7281 11.8839 27.0825 6.60991 20.2298 6.4954C20.0741 6.49281 19.9192 6.49383 19.7646 6.49649V11.2025C19.8428 11.2005 19.9213 11.1993 19.9999 11.1993C24.3705 11.1993 28.007 14.4023 28.6861 18.5843H27.214C26.2822 18.5843 25.7148 19.6098 26.2099 20.3992L29.9926 26.4303C30.457 27.1709 31.5362 27.1709 32.0007 26.4303L35.7834 20.3992C36.2785 19.6098 35.7112 18.5843 34.7794 18.5843V18.5843Z" fill="url(#paint2_linear_907_188)"/>
<path d="M24.6909 8.37318L18.6597 4.59051C17.8703 4.09545 16.8448 4.66283 16.8448 5.59459V6.86667C10.8619 8.30369 6.41575 13.7326 6.49419 20.1678C6.50705 21.2207 6.65128 22.2511 6.90917 23.2435H11.8217C11.435 22.2759 11.2158 21.2257 11.2 20.1296C11.1452 16.3331 13.5082 13.0711 16.8448 11.7854V13.1601C16.8448 14.0918 17.8703 14.6592 18.6597 14.1642L24.6909 10.3815C25.4315 9.91679 25.4315 8.83773 24.6909 8.37318V8.37318Z" fill="url(#paint3_linear_907_188)"/>
<path d="M25.0845 28.9529C24.4563 28.3247 23.5301 28.1104 22.6843 28.3821C21.7499 28.6822 20.7476 28.8299 19.7073 28.796C17.1911 28.714 14.9378 27.5623 13.3832 25.7871L14.6169 24.9883C15.399 24.4819 15.3179 23.3126 14.4733 22.9191L8.02025 19.9122C7.22778 19.5429 6.32198 20.1294 6.3346 21.0036L6.43711 28.1221C6.45052 29.0537 7.48417 29.6063 8.26629 29.0999L9.47052 28.3202C11.9007 31.3608 15.5833 33.3918 19.6261 33.5015C21.2129 33.5446 22.7411 33.3124 24.1661 32.8493C25.8293 32.3088 26.3211 30.1895 25.0845 28.9529V28.9529Z" fill="url(#paint4_linear_907_188)"/>
<defs>
<linearGradient id="paint0_linear_907_188" x1="12.7059" y1="12.7059" x2="36.4718" y2="36.4718" gradientUnits="userSpaceOnUse">
<stop stop-color="#0B799D"/>
<stop offset="1" stop-color="#07485E"/>
</linearGradient>
<linearGradient id="paint1_linear_907_188" x1="28.7204" y1="30.2599" x2="9.66138" y2="11.2009" gradientUnits="userSpaceOnUse">
<stop stop-color="#07485E" stop-opacity="0"/>
<stop offset="1" stop-color="#03232E"/>
</linearGradient>
<linearGradient id="paint2_linear_907_188" x1="23.6112" y1="12.3105" x2="32.3522" y2="21.0514" gradientUnits="userSpaceOnUse">
<stop stop-color="#76E2F8"/>
<stop offset="1" stop-color="#48B2E3"/>
</linearGradient>
<linearGradient id="paint3_linear_907_188" x1="11.4281" y1="11.4145" x2="20.9827" y2="20.9691" gradientUnits="userSpaceOnUse">
<stop stop-color="#B5DBFF"/>
<stop offset="1" stop-color="#48B2E3"/>
</linearGradient>
<linearGradient id="paint4_linear_907_188" x1="16.0552" y1="23.5294" x2="16.0552" y2="32.0785" gradientUnits="userSpaceOnUse">
<stop stop-color="#EDF5FF"/>
<stop offset="1" stop-color="#D5E8FE"/>
</linearGradient>
</defs>
</svg>
