<svg width="50" height="51" viewBox="0 0 50 51" fill="none" xmlns="http://www.w3.org/2000/svg">
<g clip-path="url(#clip0_919_58)">
<path d="M42.052 5.2789L33.7306 2.77264C28.0364 1.05756 21.9634 1.05756 16.2696 2.77264L7.94784 5.2789C6.69357 5.65656 5.68496 6.59421 5.21652 7.81758L1.23626 18.2115C-1.71135 25.9084 0.735775 34.6277 7.25776 39.6673L18.1396 48.0752C22.1801 51.1972 27.8197 51.1972 31.8603 48.0752L42.7421 39.6673C49.2641 34.6277 51.7112 25.9084 48.7636 18.2115L44.7837 7.81758C44.3149 6.59421 43.3063 5.65656 42.052 5.2789Z" fill="url(#paint0_linear_919_58)"/>
<path d="M31.8604 48.0752L42.7422 39.6673C49.2641 34.6277 51.7113 25.9084 48.764 18.2115L44.7838 7.81758C44.315 6.59421 43.3064 5.65656 42.0521 5.2789L33.7307 2.77264C30.8834 1.9151 27.9419 1.48633 25 1.48633V50.4167C27.42 50.4167 29.8401 49.6362 31.8604 48.0752Z" fill="url(#paint1_linear_919_58)"/>
<path d="M6.27148 38.8486C6.58925 39.1309 6.91769 39.4044 7.25797 39.6673L18.1398 48.0752C22.1807 51.1972 27.8199 51.1972 31.8605 48.0752L42.7423 39.6673C43.0826 39.4041 43.411 39.1309 43.7291 38.8486H6.27148Z" fill="url(#paint2_linear_919_58)"/>
<path d="M30.2625 10.8992C28.9388 9.5045 27.07 8.63208 25.0001 8.63208C20.9977 8.63208 17.7419 11.8883 17.7419 15.8903V21.8428C17.2559 21.953 16.7707 22.0732 16.2862 22.2055C15.6484 22.3795 15.207 22.9608 15.207 23.6223V38.8422C15.207 39.3083 15.4271 39.7341 15.78 40.0061L26.1316 50.3576C27.8943 50.1791 29.6235 49.5844 31.1631 48.5712C33.0781 47.0377 35 45.5133 36.9371 44.0096C37.6188 43.4809 38.3321 42.9857 39.0619 42.5112L42.7423 39.6673C46.0023 37.1485 48.2442 33.7103 49.3032 29.9398L30.2625 10.8992Z" fill="url(#paint3_linear_919_58)"/>
<path d="M39.5111 8.35975L32.4295 6.22695C27.5841 4.76745 22.4163 4.76745 17.5705 6.22695L10.4893 8.35975C9.42158 8.68095 8.56327 9.47898 8.16463 10.52L4.77757 19.3648C2.2694 25.915 4.35146 33.335 9.90185 37.6234L19.162 44.7783C22.6006 47.4352 27.3995 47.4352 30.8381 44.7783L40.0982 37.6234C45.6482 33.335 47.7307 25.915 45.2225 19.3648L41.8354 10.52C41.4368 9.47898 40.5785 8.68095 39.5111 8.35975Z" fill="url(#paint4_radial_919_58)"/>
<path d="M30.838 44.7782L40.0982 37.6234C45.6486 33.3349 47.731 25.9149 45.2225 19.3647L41.8354 10.52C41.4368 9.47893 40.5785 8.68089 39.5111 8.3597L32.4295 6.2269C30.0068 5.49715 27.5032 5.13208 25 5.13208V46.771C27.0596 46.771 29.1187 46.1069 30.838 44.7782Z" fill="url(#paint5_linear_919_58)"/>
<path d="M30.2625 10.8992C28.9388 9.5045 27.07 8.63208 25.0001 8.63208C20.9977 8.63208 17.7419 11.8883 17.7419 15.8903V21.8428C17.2559 21.953 16.7707 22.0732 16.2862 22.2055C15.6484 22.3795 15.207 22.9608 15.207 23.6223V38.8422C15.207 39.3083 15.4271 39.7341 15.78 40.0061L22.0895 46.3156C25.0173 47.2521 28.2983 46.7409 30.8381 44.7782L40.0983 37.6234C43.5888 34.9264 45.7071 30.9908 46.1751 26.8122L30.2625 10.8992Z" fill="url(#paint6_linear_919_58)"/>
<path d="M33.714 40.2586C27.9424 41.8345 22.0578 41.8345 16.2862 40.2586C15.6484 40.0847 15.207 39.5033 15.207 38.8418V23.622C15.207 22.9609 15.6484 22.3795 16.2862 22.2056C22.0578 20.6297 27.9424 20.6297 33.714 22.2056C34.3519 22.3795 34.7932 22.9609 34.7932 23.622V38.8418C34.7932 39.5033 34.3519 40.0847 33.714 40.2586Z" fill="url(#paint7_linear_919_58)"/>
<path d="M33.4148 22.126C33.297 22.0951 33.1791 22.0642 33.0612 22.0345C32.9819 22.0146 32.9025 21.9952 32.8232 21.9757C32.7084 21.9475 32.5939 21.92 32.4791 21.8933C32.3986 21.8746 32.3185 21.8559 32.238 21.838C32.1232 21.8121 32.0084 21.7869 31.8932 21.7621C31.8138 21.7449 31.7345 21.7281 31.6551 21.7114C31.5369 21.687 31.4182 21.6633 31.2996 21.64C31.2244 21.6255 31.1489 21.6103 31.0738 21.5962C30.9437 21.5714 30.8136 21.5485 30.6835 21.5252C30.6198 21.5141 30.5561 21.5023 30.4924 21.4913C30.2994 21.4581 30.106 21.4268 29.9122 21.397C29.9088 21.3967 29.9053 21.3963 29.9019 21.3955C29.7115 21.3665 29.5212 21.3394 29.3312 21.3139C29.2671 21.3055 29.203 21.2979 29.1389 21.2895C29.0089 21.2731 28.8788 21.2563 28.7487 21.2414C28.6732 21.2326 28.5976 21.2246 28.5217 21.2162C28.4027 21.2032 28.2837 21.1907 28.1647 21.1788C28.0853 21.1712 28.0056 21.164 27.9259 21.1567C27.8103 21.146 27.6947 21.1361 27.5791 21.127C27.4982 21.1205 27.4174 21.1144 27.3365 21.1086C27.2213 21.1003 27.1057 21.0926 26.9905 21.0854C26.9104 21.0804 26.8303 21.0755 26.7502 21.0713C26.6312 21.0648 26.5121 21.0594 26.3931 21.0545C26.3176 21.051 26.2421 21.0476 26.1662 21.0446C26.0357 21.04 25.9048 21.0365 25.774 21.0335C25.7103 21.032 25.6466 21.0297 25.5825 21.0285C25.3883 21.0251 25.1942 21.0232 25 21.0232H24.9996C24.8055 21.0232 24.6113 21.0251 24.4171 21.0289C24.3534 21.0301 24.2897 21.032 24.2256 21.0335C24.0952 21.0369 23.9643 21.04 23.8338 21.0449C23.7583 21.0476 23.6824 21.051 23.6069 21.0545C23.4879 21.0594 23.3685 21.0648 23.2494 21.0713C23.1697 21.0758 23.0896 21.0804 23.0099 21.0858C22.8943 21.0926 22.7791 21.1003 22.6635 21.1086C22.5826 21.1144 22.5018 21.1205 22.4209 21.127C22.3053 21.1361 22.1897 21.1464 22.0741 21.1567C21.9944 21.164 21.9151 21.1712 21.8353 21.1788C21.7163 21.1907 21.5973 21.2032 21.4783 21.2162C21.4027 21.2246 21.3272 21.2326 21.2517 21.2414C21.1212 21.2563 20.9911 21.2731 20.8611 21.2895C20.797 21.2979 20.7333 21.3055 20.6692 21.3139C20.4792 21.3394 20.2888 21.3665 20.0989 21.3955C20.0951 21.3959 20.0916 21.3967 20.0878 21.397C19.8944 21.4264 19.701 21.4581 19.5076 21.4909C19.4439 21.5019 19.3806 21.5138 19.3169 21.5248C19.1868 21.5481 19.0563 21.5714 18.9262 21.5958C18.8511 21.6099 18.7759 21.6252 18.7008 21.64C18.5822 21.6633 18.4635 21.6866 18.3449 21.7114C18.2655 21.7278 18.1862 21.7449 18.1068 21.7621C17.992 21.7865 17.8772 21.8117 17.7624 21.8376C17.6819 21.8559 17.6014 21.8746 17.5209 21.8933C17.4061 21.92 17.2916 21.9475 17.1772 21.9753C17.0979 21.9948 17.0185 22.0143 16.9392 22.0345C16.8213 22.0638 16.703 22.0947 16.5852 22.126C16.51 22.1459 16.4349 22.1653 16.3597 22.1855C16.3265 22.1943 16.2933 22.2042 16.2601 22.213C15.9065 22.3168 15.6158 22.546 15.4297 22.8443C21.7602 24.7475 28.2398 24.7475 34.5703 22.8443C34.3845 22.546 34.0935 22.3168 33.7399 22.213C33.7067 22.2038 33.6735 22.1943 33.6403 22.1855C33.5651 22.1653 33.49 22.1459 33.4148 22.126Z" fill="url(#paint8_linear_919_58)"/>
<path d="M33.7138 22.2056C28.4267 20.7617 23.0449 20.6419 17.7417 21.8428V22.0286C17.7417 22.4654 17.9649 22.8503 18.3032 23.0753L34.6664 39.4385C34.748 39.2546 34.793 39.0524 34.793 38.8419V23.622C34.793 22.9609 34.3517 22.3795 33.7138 22.2056Z" fill="url(#paint9_linear_919_58)"/>
<path d="M34.7931 23.6219C34.7931 22.9608 34.3518 22.3795 33.714 22.2055C32.3979 21.8462 31.0757 21.5688 29.7505 21.3735V22.0285C29.7505 22.4657 29.9736 22.8502 30.3124 23.0753L34.7931 27.5564V23.6219Z" fill="url(#paint10_linear_919_58)"/>
<path d="M33.0935 35.2135L26.8995 29.0196C26.3849 28.4722 25.6369 28.1468 24.814 28.204C23.5308 28.2929 22.4901 29.3309 22.399 30.6141C22.3398 31.4396 22.6664 32.19 23.2161 32.7053L23.8348 33.3245C24.0347 33.6293 24.1427 33.9928 24.1427 34.3659V35.4336C24.1427 35.7106 24.2705 35.9635 24.4707 36.1275L29.4729 41.1297C30.3751 41.0046 31.2761 40.8413 32.1745 40.6399C32.1791 40.0818 32.4305 39.5462 32.8779 39.2117C33.5135 38.7364 33.9251 37.978 33.9251 37.1228C33.9255 36.369 33.6054 35.69 33.0935 35.2135Z" fill="url(#paint11_linear_919_58)"/>
<path d="M27.6075 30.8052C27.6075 29.3034 26.3384 28.0983 24.814 28.204C23.5307 28.2928 22.4905 29.3308 22.3989 30.6141C22.3329 31.5395 22.7506 32.3715 23.4247 32.8827C23.8851 33.2325 24.143 33.7875 24.143 34.3658V35.4336C24.143 35.9051 24.5123 36.3098 24.9838 36.3186C25.4644 36.3274 25.8566 35.9406 25.8566 35.4618V34.3372C25.8566 33.7738 26.1087 33.2317 26.56 32.8941C27.1959 32.4184 27.6075 31.6601 27.6075 30.8052Z" fill="url(#paint12_linear_919_58)"/>
<path d="M31.0011 23.2855C30.3068 23.2855 29.7442 22.7228 29.7442 22.0285V15.8903C29.7442 13.2742 27.6159 11.146 24.9998 11.146C22.3837 11.146 20.2555 13.2742 20.2555 15.8903V22.0285C20.2555 22.7228 19.6928 23.2855 18.9985 23.2855C18.3043 23.2855 17.7412 22.7228 17.7412 22.0285V15.8903C17.7412 11.8879 20.9974 8.63208 24.9998 8.63208C29.0018 8.63208 32.258 11.8879 32.258 15.8903V22.0285C32.258 22.7228 31.6954 23.2855 31.0011 23.2855Z" fill="url(#paint13_linear_919_58)"/>
<path d="M15.207 34.6636V38.8418C15.207 39.5033 15.6484 40.0846 16.2862 40.2586C22.0578 41.8344 27.9424 41.8344 33.714 40.2586C34.3519 40.0846 34.7932 39.5033 34.7932 38.8418V34.6636H15.207Z" fill="url(#paint14_linear_919_58)"/>
</g>
<defs>
<linearGradient id="paint0_linear_919_58" x1="14.3083" y1="11.8781" x2="34.6591" y2="32.229" gradientUnits="userSpaceOnUse">
<stop stop-color="#ECF7FF"/>
<stop offset="1" stop-color="#C2E0FF"/>
</linearGradient>
<linearGradient id="paint1_linear_919_58" x1="46.7648" y1="25.9516" x2="16.0332" y2="25.9516" gradientUnits="userSpaceOnUse">
<stop offset="0.0029" stop-color="#C2E0FF" stop-opacity="0"/>
<stop offset="0.0763" stop-color="#BFDCFD" stop-opacity="0.07451"/>
<stop offset="1" stop-color="#9EB2E7"/>
</linearGradient>
<linearGradient id="paint2_linear_919_58" x1="25.0002" y1="40.6579" x2="25.0002" y2="49.6288" gradientUnits="userSpaceOnUse">
<stop offset="0.0029" stop-color="#C2E0FF" stop-opacity="0"/>
<stop offset="0.0763" stop-color="#BFDCFD" stop-opacity="0.07451"/>
<stop offset="1" stop-color="#9EB2E7"/>
</linearGradient>
<linearGradient id="paint3_linear_919_58" x1="42.0342" y1="34.9396" x2="-5.66632" y2="18.5668" gradientUnits="userSpaceOnUse">
<stop stop-color="#54498B" stop-opacity="0"/>
<stop offset="0.034" stop-color="#534889" stop-opacity="0.035294"/>
<stop offset="1" stop-color="#3B395F"/>
</linearGradient>
<radialGradient id="paint4_radial_919_58" cx="0" cy="0" r="1" gradientUnits="userSpaceOnUse" gradientTransform="translate(14.2122 7.53079) scale(41.5066 41.5066)">
<stop stop-color="#FF6E3A"/>
<stop offset="0.2085" stop-color="#FF6A3C"/>
<stop offset="0.396" stop-color="#FF5F44"/>
<stop offset="0.5755" stop-color="#FF4D50"/>
<stop offset="0.7501" stop-color="#FF3361"/>
<stop offset="0.9195" stop-color="#FF1278"/>
<stop offset="1" stop-color="#FF0084"/>
</radialGradient>
<linearGradient id="paint5_linear_919_58" x1="32.1788" y1="27.2074" x2="2.8977" y2="20.8676" gradientUnits="userSpaceOnUse">
<stop stop-color="#FF0084" stop-opacity="0"/>
<stop offset="0.0737" stop-color="#F4087E" stop-opacity="0.07451"/>
<stop offset="0.3347" stop-color="#D2216B" stop-opacity="0.333333"/>
<stop offset="0.583" stop-color="#BA335E" stop-opacity="0.584314"/>
<stop offset="0.8111" stop-color="#AB3D56" stop-opacity="0.811765"/>
<stop offset="1" stop-color="#A64153"/>
</linearGradient>
<linearGradient id="paint6_linear_919_58" x1="37.5758" y1="40.014" x2="5.59252" y2="8.03067" gradientUnits="userSpaceOnUse">
<stop stop-color="#FF0084" stop-opacity="0"/>
<stop offset="0.0737" stop-color="#F4087E" stop-opacity="0.07451"/>
<stop offset="0.3347" stop-color="#D2216B" stop-opacity="0.333333"/>
<stop offset="0.583" stop-color="#BA335E" stop-opacity="0.584314"/>
<stop offset="0.8111" stop-color="#AB3D56" stop-opacity="0.811765"/>
<stop offset="1" stop-color="#A64153"/>
</linearGradient>
<linearGradient id="paint7_linear_919_58" x1="18.3583" y1="27.2545" x2="35.9961" y2="37.8172" gradientUnits="userSpaceOnUse">
<stop stop-color="#FFC738"/>
<stop offset="0.4286" stop-color="#FFBB23"/>
<stop offset="1" stop-color="#FFA700"/>
</linearGradient>
<linearGradient id="paint8_linear_919_58" x1="25" y1="21.3072" x2="25" y2="23.732" gradientUnits="userSpaceOnUse">
<stop stop-color="#FFC738"/>
<stop offset="0.4286" stop-color="#FFBB23"/>
<stop offset="1" stop-color="#FFA700"/>
</linearGradient>
<linearGradient id="paint9_linear_919_58" x1="30.546" y1="30.0226" x2="22.0282" y2="15.6359" gradientUnits="userSpaceOnUse">
<stop stop-color="#FFA700" stop-opacity="0"/>
<stop offset="0.0206" stop-color="#FEA600" stop-opacity="0.019608"/>
<stop offset="0.6348" stop-color="#EC8C00" stop-opacity="0.635294"/>
<stop offset="1" stop-color="#E58200"/>
</linearGradient>
<linearGradient id="paint10_linear_919_58" x1="34.8863" y1="25.4531" x2="30.7749" y2="21.2513" gradientUnits="userSpaceOnUse">
<stop stop-color="#FFA700" stop-opacity="0"/>
<stop offset="0.0206" stop-color="#FEA600" stop-opacity="0.019608"/>
<stop offset="0.6348" stop-color="#EC8C00" stop-opacity="0.635294"/>
<stop offset="1" stop-color="#E58200"/>
</linearGradient>
<linearGradient id="paint11_linear_919_58" x1="29.4459" y1="36.336" x2="23.1809" y2="30.071" gradientUnits="userSpaceOnUse">
<stop stop-color="#FFA700" stop-opacity="0"/>
<stop offset="0.0206" stop-color="#FEA600" stop-opacity="0.019608"/>
<stop offset="0.6348" stop-color="#EC8C00" stop-opacity="0.635294"/>
<stop offset="1" stop-color="#E58200"/>
</linearGradient>
<linearGradient id="paint12_linear_919_58" x1="24.1804" y1="29.7663" x2="27.3466" y2="35.6259" gradientUnits="userSpaceOnUse">
<stop stop-color="#3B395F"/>
<stop offset="0.0633" stop-color="#37355A"/>
<stop offset="0.4033" stop-color="#232543"/>
<stop offset="0.7232" stop-color="#171B35"/>
<stop offset="1" stop-color="#131830"/>
</linearGradient>
<linearGradient id="paint13_linear_919_58" x1="24.9999" y1="19.8015" x2="24.9999" y2="24.4334" gradientUnits="userSpaceOnUse">
<stop stop-color="#3B395F"/>
<stop offset="0.0633" stop-color="#37355A"/>
<stop offset="0.4033" stop-color="#232543"/>
<stop offset="0.7232" stop-color="#171B35"/>
<stop offset="1" stop-color="#131830"/>
</linearGradient>
<linearGradient id="paint14_linear_919_58" x1="25.0002" y1="38.2357" x2="25.0002" y2="41.7254" gradientUnits="userSpaceOnUse">
<stop stop-color="#FFA700" stop-opacity="0"/>
<stop offset="0.0206" stop-color="#FEA600" stop-opacity="0.019608"/>
<stop offset="0.6348" stop-color="#EC8C00" stop-opacity="0.635294"/>
<stop offset="1" stop-color="#E58200"/>
</linearGradient>
<clipPath id="clip0_919_58">
<rect width="50" height="50" fill="white" transform="translate(0 0.998047)"/>
</clipPath>
</defs>
</svg>
