<svg width="80" height="80" viewBox="0 0 80 80" fill="none" xmlns="http://www.w3.org/2000/svg">
<path d="M78.1612 63.8478C74.6101 59.1356 68.0182 55.448 68.0735 48.9008C68.1024 45.4766 70.1232 42.4486 71.5963 39.3572C76.4563 29.1594 77.6695 13.858 68.9123 6.05705C65.3767 2.90736 57.6584 1.74658 53.1234 2.98017C41.3982 6.1697 50.5987 13.9624 48.4296 19.258C41.3893 36.4455 2.659 33.7045 0.172438 46.5138C-1.29256 54.061 6.52135 68.0485 25.754 59.1897C40.126 52.5699 55.0081 82.2752 71.3454 76.8341C77.7848 74.6894 82.8707 70.0974 78.1612 63.8478Z" fill="url(#paint0_linear_828_86)"/>
<path d="M63.6598 55.072V66.0314H60.2676V61.5501C60.2676 60.4809 59.4009 59.6142 58.3317 59.6142C57.2625 59.6142 56.3957 60.4809 56.3957 61.5501V66.0314H53.0051V55.072H63.6598Z" fill="#4369FD"/>
<path d="M42.7649 55.3699V6.26196C42.7649 5.39899 43.4644 4.69946 44.3274 4.69946H72.3375C73.2005 4.69946 73.9 5.39899 73.9 6.26196V55.3699C73.9 56.2329 73.2005 56.9324 72.3375 56.9324H44.3274C43.4646 56.9324 42.7649 56.2329 42.7649 55.3699Z" fill="#8399FE"/>
<path d="M68.2648 36.3605H50.8501C50.4187 36.3605 50.0688 36.0106 50.0688 35.5792V10.3376C50.0688 9.90624 50.4187 9.5564 50.8501 9.5564H68.2648C68.6962 9.5564 69.046 9.90624 69.046 10.3376V35.5792C69.046 36.0106 68.6962 36.3605 68.2648 36.3605Z" fill="white"/>
<path d="M62.7468 25.3757C64.95 25.3757 66.736 23.5896 66.736 21.3864C66.736 19.1832 64.95 17.3972 62.7468 17.3972C60.5436 17.3972 58.7576 19.1832 58.7576 21.3864C58.7576 23.5896 60.5436 25.3757 62.7468 25.3757Z" fill="#FF7EB8"/>
<path d="M62.7468 22.0107V27.4112C62.7468 27.7557 62.4671 28.0354 62.1226 28.0354H56.7221C56.3776 28.0354 56.0979 27.7557 56.0979 27.4112V22.0107C56.0979 21.6662 56.3776 21.3865 56.7221 21.3865H62.1226C62.4671 21.3863 62.7468 21.666 62.7468 22.0107Z" fill="#01ECA5"/>
<path d="M69.046 14.0417V10.3376C69.046 9.90624 68.6962 9.5564 68.2648 9.5564H50.8501C50.4187 9.5564 50.0688 9.90624 50.0688 10.3376V14.0417H69.046Z" fill="#FF7EB8"/>
<path d="M47.2274 56.9324V4.69946H44.3274C43.4644 4.69946 42.7649 5.39899 42.7649 6.26196V55.3699C42.7649 56.2329 43.4644 56.9324 44.3274 56.9324H47.2274Z" fill="#4369FD"/>
<path d="M67.2787 69.5052H49.3865C48.9551 69.5052 48.6052 69.1553 48.6052 68.7239V66.8125C48.6052 66.3811 48.9551 66.0312 49.3865 66.0312H67.2787C67.7101 66.0312 68.0599 66.3811 68.0599 66.8125V68.7239C68.0599 69.1553 67.7101 69.5052 67.2787 69.5052Z" fill="#9FB0FE"/>
<path d="M52.0083 66.0312H64.7683V69.5052H52.0083V66.0312Z" fill="#8399FE"/>
<path d="M37.5436 55.0718V66.0312H34.1514V61.5499C34.1514 60.4807 33.2847 59.614 32.2155 59.614C31.1463 59.614 30.2795 60.4807 30.2795 61.5499V66.0312H26.8889V55.0718H37.5436Z" fill="#4369FD"/>
<path d="M56.7701 56.9323H7.66211C6.79914 56.9323 6.09961 56.2327 6.09961 55.3698V27.3596C6.09961 26.4967 6.79914 25.7971 7.66211 25.7971H56.7701C57.633 25.7971 58.3326 26.4967 58.3326 27.3596V55.3698C58.3326 56.2327 57.633 56.9323 56.7701 56.9323Z" fill="#9FB0FE"/>
<path d="M50.6342 25.7969V34.2141C50.6342 35.0766 49.9357 35.7766 49.0717 35.7766H30.2139C29.3498 35.7766 28.6514 35.0766 28.6514 34.2141V25.7969H50.6342Z" fill="#8399FE"/>
<path d="M58.3326 52.47H6.09961V55.37C6.09961 56.2329 6.79914 56.9325 7.66211 56.9325H56.7701C57.633 56.9325 58.3326 56.2329 58.3326 55.37V52.47Z" fill="#6583FE"/>
<path d="M41.1622 69.5052H23.27C22.8386 69.5052 22.4888 69.1553 22.4888 68.7239V66.8125C22.4888 66.3811 22.8386 66.0312 23.27 66.0312H41.1622C41.5936 66.0312 41.9435 66.3811 41.9435 66.8125V68.7239C41.9435 69.1553 41.5936 69.5052 41.1622 69.5052Z" fill="#9FB0FE"/>
<path d="M25.8918 66.0312H38.6518V69.5052H25.8918V66.0312Z" fill="#8399FE"/>
<path d="M49.0727 32.0263H30.2136C29.3507 32.0263 28.6511 31.3268 28.6511 30.4638V21.1309C28.6511 20.2679 29.3507 19.5684 30.2136 19.5684H49.0727C49.9357 19.5684 50.6352 20.2679 50.6352 21.1309V30.4638C50.6352 31.3266 49.9357 32.0263 49.0727 32.0263Z" fill="#01ECA5"/>
<path d="M35.2431 28.3574C35.0433 28.3574 34.8433 28.2812 34.6908 28.1287L32.912 26.3501C32.7654 26.2035 32.6831 26.0047 32.6831 25.7976C32.6831 25.5904 32.7653 25.3916 32.912 25.2451L34.6908 23.4665C34.9956 23.1616 35.4904 23.1615 35.7956 23.4666C36.1006 23.7716 36.1006 24.2663 35.7955 24.5715L34.5692 25.7976L35.7955 27.0237C36.1006 27.3288 36.1006 27.8235 35.7956 28.1285C35.6429 28.281 35.4429 28.3574 35.2431 28.3574Z" fill="white"/>
<path d="M44.0432 28.3572C43.8433 28.3572 43.6432 28.2809 43.4908 28.1283C43.1857 27.8233 43.1857 27.3286 43.4908 27.0236L44.7169 25.7974L43.4908 24.5711C43.1857 24.2661 43.1857 23.7714 43.4908 23.4664C43.7957 23.1613 44.2907 23.1613 44.5955 23.4664L46.3741 25.245C46.6793 25.55 46.6793 26.0447 46.3741 26.3497L44.5955 28.1283C44.4432 28.2808 44.243 28.3572 44.0432 28.3572Z" fill="white"/>
<path d="M38.1321 28.8779C37.9851 28.8779 37.8362 28.8363 37.704 28.7496C37.3434 28.5126 37.2431 28.0284 37.4798 27.6676L40.5 23.0691C40.737 22.7085 41.2209 22.6079 41.582 22.8449C41.9426 23.082 42.0429 23.5662 41.8062 23.927L38.786 28.5254C38.6359 28.7538 38.3865 28.8779 38.1321 28.8779Z" fill="white"/>
<path d="M17.3364 34.5684H25.0572C25.4886 34.5684 25.8385 34.2187 25.8385 33.7871C25.8385 33.3555 25.4886 33.0059 25.0572 33.0059H17.3364C16.905 33.0059 16.5552 33.3555 16.5552 33.7871C16.5552 34.2187 16.905 34.5684 17.3364 34.5684Z" fill="#FFC4DF"/>
<path d="M11.0864 34.5684H14.1197C14.5511 34.5684 14.901 34.2187 14.901 33.7871C14.901 33.3555 14.5511 33.0059 14.1197 33.0059H11.0864C10.655 33.0059 10.3052 33.3555 10.3052 33.7871C10.3052 34.2187 10.655 34.5684 11.0864 34.5684Z" fill="#02FFB3"/>
<path d="M11.0864 37.9639H27.8697C28.3011 37.9639 28.651 37.6142 28.651 37.1826C28.651 36.7511 28.3011 36.4014 27.8697 36.4014H11.0864C10.655 36.4014 10.3052 36.7511 10.3052 37.1826C10.3052 37.6142 10.655 37.9639 11.0864 37.9639Z" fill="#FFC4DF"/>
<path d="M11.0864 48.1506H27.8697C28.3011 48.1506 28.651 47.8009 28.651 47.3694C28.651 46.9378 28.3011 46.5881 27.8697 46.5881H11.0864C10.655 46.5881 10.3052 46.9378 10.3052 47.3694C10.3052 47.8009 10.655 48.1506 11.0864 48.1506Z" fill="#FFC4DF"/>
<path d="M11.0864 41.3594H15.3697C15.8011 41.3594 16.151 41.0097 16.151 40.5781C16.151 40.1466 15.8011 39.7969 15.3697 39.7969H11.0864C10.655 39.7969 10.3052 40.1466 10.3052 40.5781C10.3052 41.0097 10.655 41.3594 11.0864 41.3594Z" fill="#02FFB3"/>
<path d="M19.0552 41.3594H23.3385C23.7699 41.3594 24.1197 41.0097 24.1197 40.5781C24.1197 40.1466 23.7699 39.7969 23.3385 39.7969H19.0552C18.6238 39.7969 18.2739 40.1466 18.2739 40.5781C18.2739 41.0097 18.6238 41.3594 19.0552 41.3594Z" fill="#02FFB3"/>
<path d="M27.0239 41.3594H31.3072C31.7386 41.3594 32.0885 41.0097 32.0885 40.5781C32.0885 40.1466 31.7386 39.7969 31.3072 39.7969H27.0239C26.5925 39.7969 26.2427 40.1466 26.2427 40.5781C26.2427 41.0097 26.5925 41.3594 27.0239 41.3594Z" fill="#02FFB3"/>
<path d="M34.9927 41.3594H39.276C39.7074 41.3594 40.0572 41.0097 40.0572 40.5781C40.0572 40.1466 39.7074 39.7969 39.276 39.7969H34.9927C34.5613 39.7969 34.2114 40.1466 34.2114 40.5781C34.2114 41.0097 34.5613 41.3594 34.9927 41.3594Z" fill="#02FFB3"/>
<path d="M11.0864 44.7551H31.6978C32.1292 44.7551 32.4791 44.4054 32.4791 43.9739C32.4791 43.5423 32.1292 43.1926 31.6978 43.1926H11.0864C10.655 43.1926 10.3052 43.5423 10.3052 43.9739C10.3052 44.4054 10.655 44.7551 11.0864 44.7551Z" fill="#FFC4DF"/>
<path d="M67.9031 40.96C68.3345 40.96 68.6843 40.6102 68.6843 40.1787C68.6843 39.7472 68.3345 39.3975 67.9031 39.3975C67.4716 39.3975 67.1218 39.7472 67.1218 40.1787C67.1218 40.6102 67.4716 40.96 67.9031 40.96Z" fill="#4369FD"/>
<path d="M67.9031 44.6882C68.3345 44.6882 68.6843 44.3385 68.6843 43.907C68.6843 43.4755 68.3345 43.1257 67.9031 43.1257C67.4716 43.1257 67.1218 43.4755 67.1218 43.907C67.1218 44.3385 67.4716 44.6882 67.9031 44.6882Z" fill="#4369FD"/>
<path d="M67.9031 48.4165C68.3345 48.4165 68.6843 48.0667 68.6843 47.6353C68.6843 47.2038 68.3345 46.854 67.9031 46.854C67.4716 46.854 67.1218 47.2038 67.1218 47.6353C67.1218 48.0667 67.4716 48.4165 67.9031 48.4165Z" fill="#4369FD"/>
<path d="M67.9031 52.1448C68.3345 52.1448 68.6843 51.795 68.6843 51.3635C68.6843 50.9321 68.3345 50.5823 67.9031 50.5823C67.4716 50.5823 67.1218 50.9321 67.1218 51.3635C67.1218 51.795 67.4716 52.1448 67.9031 52.1448Z" fill="#4369FD"/>
<path d="M64.9744 42.8242C65.4058 42.8242 65.7556 42.4744 65.7556 42.043C65.7556 41.6115 65.4058 41.2617 64.9744 41.2617C64.5429 41.2617 64.1931 41.6115 64.1931 42.043C64.1931 42.4744 64.5429 42.8242 64.9744 42.8242Z" fill="#4369FD"/>
<path d="M64.9744 46.5525C65.4058 46.5525 65.7556 46.2027 65.7556 45.7712C65.7556 45.3398 65.4058 44.99 64.9744 44.99C64.5429 44.99 64.1931 45.3398 64.1931 45.7712C64.1931 46.2027 64.5429 46.5525 64.9744 46.5525Z" fill="#4369FD"/>
<path d="M64.9744 50.2808C65.4058 50.2808 65.7556 49.931 65.7556 49.4995C65.7556 49.068 65.4058 48.7183 64.9744 48.7183C64.5429 48.7183 64.1931 49.068 64.1931 49.4995C64.1931 49.931 64.5429 50.2808 64.9744 50.2808Z" fill="#4369FD"/>
<path d="M52.8997 12.5803C53.3311 12.5803 53.6809 12.2305 53.6809 11.7991C53.6809 11.3676 53.3311 11.0178 52.8997 11.0178C52.4682 11.0178 52.1184 11.3676 52.1184 11.7991C52.1184 12.2305 52.4682 12.5803 52.8997 12.5803Z" fill="white"/>
<path d="M55.7852 12.5803C56.2166 12.5803 56.5664 12.2305 56.5664 11.7991C56.5664 11.3676 56.2166 11.0178 55.7852 11.0178C55.3537 11.0178 55.0039 11.3676 55.0039 11.7991C55.0039 12.2305 55.3537 12.5803 55.7852 12.5803Z" fill="white"/>
<path d="M58.6707 12.5803C59.1021 12.5803 59.4519 12.2305 59.4519 11.7991C59.4519 11.3676 59.1021 11.0178 58.6707 11.0178C58.2392 11.0178 57.8894 11.3676 57.8894 11.7991C57.8894 12.2305 58.2392 12.5803 58.6707 12.5803Z" fill="white"/>
<path d="M36.3538 12.9098C36.1927 12.9098 36.0316 12.8602 35.8947 12.7606L35.2918 12.3225L34.6886 12.7606C34.4149 12.9595 34.0443 12.9595 33.7702 12.7606C33.4964 12.5617 33.3819 12.2091 33.4866 11.8872L33.7169 11.1783L33.1139 10.7402C32.8402 10.5412 32.7257 10.1886 32.8303 9.86672C32.9349 9.54469 33.2349 9.32688 33.5733 9.32688H34.3188L34.5493 8.61797C34.6538 8.29594 34.9538 8.07812 35.2922 8.07812C35.6307 8.07812 35.9307 8.29609 36.0352 8.61797L36.2657 9.32688H37.0111C37.3496 9.32688 37.6496 9.54484 37.7541 9.86672C37.8588 10.1886 37.7443 10.5411 37.4703 10.7402L36.8674 11.1784L37.0977 11.8872C37.2024 12.2091 37.0878 12.5616 36.8141 12.7606C36.6761 12.8602 36.5149 12.9098 36.3538 12.9098Z" fill="#FF7EB8"/>
<path d="M11.3675 21.4482C11.2064 21.4482 11.0453 21.3985 10.9082 21.299L10.3054 20.8608L9.7023 21.299C9.42855 21.4979 9.05777 21.4979 8.78402 21.299C8.51011 21.1 8.39558 20.7474 8.50027 20.4255L8.73058 19.7166L8.12761 19.2783C7.85386 19.0794 7.73933 18.7268 7.84402 18.4049C7.94855 18.0829 8.24855 17.865 8.58699 17.865H9.33246L9.56292 17.1563C9.66746 16.8343 9.96746 16.6165 10.3059 16.6165C10.6443 16.6165 10.9443 16.8344 11.0489 17.1563L11.2793 17.865H12.0248C12.3632 17.865 12.6632 18.083 12.7678 18.4049C12.8725 18.7268 12.7579 19.0793 12.484 19.2783L11.8811 19.7166L12.1114 20.4255C12.2161 20.7475 12.1015 21.1 11.8276 21.299C11.6896 21.3983 11.5285 21.4482 11.3675 21.4482Z" fill="#01ECA5"/>
<path d="M73.9543 73.5986C73.7932 73.5986 73.6321 73.5489 73.4952 73.4493L72.8921 73.0112L72.2893 73.4493C72.0152 73.6483 71.6446 73.6483 71.3708 73.4493C71.0969 73.2504 70.9824 72.8978 71.0871 72.5759L71.3174 71.8672L70.7144 71.4289C70.4405 71.23 70.326 70.8773 70.4307 70.5554C70.5352 70.2334 70.8352 70.0156 71.1737 70.0156H71.9191L72.1496 69.3067C72.2541 68.9847 72.5541 68.7668 72.8926 68.7668C73.231 68.7668 73.531 68.9848 73.6355 69.3067L73.866 70.0156H74.6115C74.9499 70.0156 75.2499 70.2336 75.3544 70.5554C75.4591 70.8773 75.3446 71.2298 75.0708 71.4289L74.4679 71.867L74.6982 72.5759C74.8029 72.8978 74.6883 73.2503 74.4146 73.4493C74.2765 73.5489 74.1154 73.5986 73.9543 73.5986Z" fill="#8399FE"/>
<path d="M15.3157 68.5902C15.1547 68.5902 14.9936 68.5405 14.8567 68.441C14.5828 68.2422 14.4682 67.8896 14.5729 67.5675L14.8032 66.8586L14.2003 66.4203C13.9264 66.2214 13.8118 65.8688 13.9165 65.5469C14.0211 65.2249 14.3211 65.0071 14.6595 65.0071H15.405L15.6354 64.2981C15.74 63.9761 16.04 63.7583 16.3784 63.7583C16.7168 63.7583 17.0168 63.9763 17.1214 64.2981L17.3518 65.0071H18.0973C18.4357 65.0071 18.7357 65.225 18.8403 65.5469C18.945 65.8688 18.8304 66.2213 18.5567 66.4203L17.9537 66.8586L18.184 67.5675C18.2887 67.8894 18.1742 68.2419 17.9003 68.441C17.6265 68.6399 17.2557 68.6399 16.982 68.441L16.3789 68.0028L15.7761 68.441C15.6379 68.5403 15.4768 68.5902 15.3157 68.5902Z" fill="#01ECA5"/>
<path d="M27.3422 17.4011C27.1424 17.4011 26.9422 17.3248 26.7899 17.1722L25.1493 15.5316C24.8441 15.2266 24.8441 14.7319 25.1493 14.4269L26.7899 12.7862C27.0947 12.4811 27.5897 12.4811 27.8946 12.7862L29.5352 14.4269C29.8404 14.7319 29.8404 15.2266 29.5352 15.5316L27.8946 17.1722C27.7422 17.3248 27.5422 17.4011 27.3422 17.4011ZM26.8065 14.9792L27.3422 15.515L27.878 14.9792L27.3422 14.4434L26.8065 14.9792Z" fill="#8399FE"/>
<path d="M72.3377 4.69946H44.3276C43.4646 4.69946 42.7651 5.39899 42.7651 6.26196V25.7973H7.66211C6.79914 25.7973 6.09961 26.4968 6.09961 27.3598V55.3699C6.09961 56.2329 6.79914 56.9324 7.66211 56.9324H26.8888V66.0313H23.2701C22.8387 66.0313 22.4888 66.3812 22.4888 66.8126V68.724C22.4888 69.1554 22.8387 69.5052 23.2701 69.5052H41.1623C41.5937 69.5052 41.9435 69.1554 41.9435 68.724V66.8126C41.9435 66.3812 41.5937 66.0313 41.1623 66.0313H37.5435V56.9324H53.0054V66.0313H49.3866C48.9552 66.0313 48.6054 66.3812 48.6054 66.8126V68.724C48.6054 69.1554 48.9552 69.5052 49.3866 69.5052H67.2788C67.7102 69.5052 68.0601 69.1554 68.0601 68.724V66.8126C68.0601 66.3812 67.7102 66.0313 67.2788 66.0313H63.6601V56.9324H72.3379C73.2009 56.9324 73.9004 56.2329 73.9004 55.3699V6.26196C73.9002 5.39899 73.2007 4.69946 72.3377 4.69946ZM30.2795 66.0313V61.5501C30.2795 60.4809 31.1462 59.6142 32.2154 59.6142C33.2846 59.6142 34.1513 60.4809 34.1513 61.5501V66.0313H30.2795ZM56.3959 66.0313V61.5501C56.3959 60.4809 57.2626 59.6142 58.3318 59.6142C59.401 59.6142 60.2677 60.4809 60.2677 61.5501V66.0313H56.3959Z" fill="url(#paint1_linear_828_86)"/>
<defs>
<linearGradient id="paint0_linear_828_86" x1="22.0501" y1="75.9702" x2="80.4576" y2="17.5628" gradientUnits="userSpaceOnUse">
<stop offset="0.0485" stop-color="#D2DEFF"/>
<stop offset="0.9993" stop-color="#DCFDEE"/>
</linearGradient>
<linearGradient id="paint1_linear_828_86" x1="39.9999" y1="69.5052" x2="39.9999" y2="4.69946" gradientUnits="userSpaceOnUse">
<stop stop-color="#FF7EB8" stop-opacity="0.6"/>
<stop offset="0.0094" stop-color="#FF83BB" stop-opacity="0.594"/>
<stop offset="0.0786" stop-color="#FFA4CD" stop-opacity="0.553"/>
<stop offset="0.156" stop-color="#FFC1DD" stop-opacity="0.506"/>
<stop offset="0.2421" stop-color="#FFD8E9" stop-opacity="0.454"/>
<stop offset="0.3408" stop-color="#FFE9F3" stop-opacity="0.395"/>
<stop offset="0.46" stop-color="#FFF6FA" stop-opacity="0.323"/>
<stop offset="0.6202" stop-color="#FFFDFE" stop-opacity="0.227"/>
<stop offset="0.9972" stop-color="white" stop-opacity="0"/>
</linearGradient>
</defs>
</svg>
