<svg width="80" height="80" viewBox="0 0 80 80" fill="none" xmlns="http://www.w3.org/2000/svg">
<g clip-path="url(#clip0_828_316)">
<path d="M70.5935 6.86918C45.5067 -8.42286 6.45135 5.52371 1.90697 16.5487C-4.1724 31.2976 6.05978 33.8187 7.96057 45.904C9.48572 55.6011 -0.0366223 64.8876 5.399 73.4481C11.3181 82.7704 30.9404 80.4295 38.3987 76.0179C52.0512 67.9426 45.1657 58.5161 51.6306 46.7525C57.7881 35.5482 69.7937 40.0923 76.7807 31.129C83.4214 22.6101 79.0168 12.0037 70.5935 6.86918Z" fill="url(#paint0_linear_828_316)"/>
<path d="M71.1674 66.8958H8.83301C7.53863 66.8958 6.48926 65.8464 6.48926 64.5521V15.448C6.48926 14.1536 7.53863 13.1042 8.83301 13.1042H71.1674C72.4618 13.1042 73.5111 14.1536 73.5111 15.448V64.5521C73.5111 65.8466 72.4619 66.8958 71.1674 66.8958Z" fill="white"/>
<path d="M30.6252 66.8958H8.83301C7.53863 66.8958 6.48926 65.8464 6.48926 64.5521V15.448C6.48926 14.1536 7.53863 13.1042 8.83301 13.1042H30.6252V66.8958Z" fill="#8399FE"/>
<path d="M73.5111 23.9344V15.448C73.5111 14.1536 72.4618 13.1042 71.1674 13.1042H8.83301C7.53863 13.1042 6.48926 14.1536 6.48926 15.448V23.9344H73.5111Z" fill="#FF7EB8"/>
<path d="M13.3788 20.5733C14.3195 20.5733 15.0821 19.8107 15.0821 18.87C15.0821 17.9293 14.3195 17.1667 13.3788 17.1667C12.4381 17.1667 11.6755 17.9293 11.6755 18.87C11.6755 19.8107 12.4381 20.5733 13.3788 20.5733Z" fill="#FF5BA8"/>
<path d="M18.8166 20.5733C19.7573 20.5733 20.5198 19.8107 20.5198 18.87C20.5198 17.9293 19.7573 17.1667 18.8166 17.1667C17.8759 17.1667 17.1133 17.9293 17.1133 18.87C17.1133 19.8107 17.8759 20.5733 18.8166 20.5733Z" fill="white"/>
<path d="M24.2541 20.5733C25.1948 20.5733 25.9573 19.8107 25.9573 18.87C25.9573 17.9293 25.1948 17.1667 24.2541 17.1667C23.3134 17.1667 22.5508 17.9293 22.5508 18.87C22.5508 19.8107 23.3134 20.5733 24.2541 20.5733Z" fill="#02FFB3"/>
<path d="M67.5436 20.7836H46.2688V16.9563H67.5436C67.9751 16.9563 68.3249 17.3061 68.3249 17.7375V20.0026C68.3249 20.434 67.9751 20.7836 67.5436 20.7836Z" fill="#FFDBED"/>
<path d="M46.3735 17.005C45.5476 16.179 44.2037 16.179 43.3778 17.005C42.5518 17.8309 42.5518 19.1748 43.3778 20.0007C44.0085 20.6315 44.9407 20.7789 45.7142 20.4464L46.3935 21.1257C46.6987 21.4307 47.1934 21.4307 47.4984 21.1257C47.8034 20.8207 47.8034 20.3259 47.4984 20.0209L46.819 19.3415C47.1517 18.5679 47.0043 17.6357 46.3735 17.005ZM44.4826 18.1098C44.6993 17.8931 45.052 17.8931 45.2687 18.1098C45.4854 18.3265 45.4854 18.6792 45.2687 18.8959C45.052 19.1126 44.6993 19.1126 44.4826 18.8959C44.2659 18.6792 44.2659 18.3265 44.4826 18.1098Z" fill="white"/>
<path d="M68.4829 41.4326H35.7983C35.3669 41.4326 35.0171 41.7825 35.0171 42.2139C35.0171 42.6453 35.3669 42.9951 35.7983 42.9951H68.4829C68.9143 42.9951 69.2641 42.6453 69.2641 42.2139C69.2641 41.7825 68.9143 41.4326 68.4829 41.4326Z" fill="#8399FE"/>
<path d="M68.4829 44.6338H35.7983C35.3669 44.6338 35.0171 44.9836 35.0171 45.415C35.0171 45.8464 35.3669 46.1963 35.7983 46.1963H68.4829C68.9143 46.1963 69.2641 45.8464 69.2641 45.415C69.2641 44.9836 68.9143 44.6338 68.4829 44.6338Z" fill="#FF7EB8"/>
<path d="M68.4829 47.835H35.7983C35.3669 47.835 35.0171 48.1848 35.0171 48.6162C35.0171 49.0476 35.3669 49.3975 35.7983 49.3975H68.4829C68.9143 49.3975 69.2641 49.0476 69.2641 48.6162C69.2641 48.1848 68.9143 47.835 68.4829 47.835Z" fill="#8399FE"/>
<path d="M68.4829 53.637H35.7983C35.3669 53.637 35.0171 53.9868 35.0171 54.4182C35.0171 54.8496 35.3669 55.1995 35.7983 55.1995H68.4829C68.9143 55.1995 69.2641 54.8496 69.2641 54.4182C69.2641 53.9868 68.9143 53.637 68.4829 53.637Z" fill="#8399FE"/>
<path d="M68.4829 56.8381H35.7983C35.3669 56.8381 35.0171 57.188 35.0171 57.6194C35.0171 58.0508 35.3669 58.4006 35.7983 58.4006H68.4829C68.9143 58.4006 69.2641 58.0508 69.2641 57.6194C69.2641 57.188 68.9143 56.8381 68.4829 56.8381Z" fill="#8399FE"/>
<path d="M68.4829 60.0396H35.7983C35.3669 60.0396 35.0171 60.3894 35.0171 60.8208C35.0171 61.2522 35.3669 61.6021 35.7983 61.6021H68.4829C68.9143 61.6021 69.2641 61.2522 69.2641 60.8208C69.2641 60.3894 68.9143 60.0396 68.4829 60.0396Z" fill="#8399FE"/>
<path d="M68.4829 29.2283H35.7983C35.3669 29.2283 35.0171 29.5781 35.0171 30.0095C35.0171 30.4409 35.3669 30.7908 35.7983 30.7908H68.4829C68.9143 30.7908 69.2641 30.4409 69.2641 30.0095C69.2641 29.5781 68.9143 29.2283 68.4829 29.2283Z" fill="#8399FE"/>
<path d="M68.4829 32.4294H35.7983C35.3669 32.4294 35.0171 32.7793 35.0171 33.2107C35.0171 33.6421 35.3669 33.9919 35.7983 33.9919H68.4829C68.9143 33.9919 69.2641 33.6421 69.2641 33.2107C69.2641 32.7793 68.9143 32.4294 68.4829 32.4294Z" fill="#8399FE"/>
<path d="M68.4829 35.6309H35.7983C35.3669 35.6309 35.0171 35.9807 35.0171 36.4121C35.0171 36.8435 35.3669 37.1934 35.7983 37.1934H68.4829C68.9143 37.1934 69.2641 36.8435 69.2641 36.4121C69.2641 35.9807 68.9143 35.6309 68.4829 35.6309Z" fill="#8399FE"/>
<path d="M20.9754 37.0055C23.0284 34.9524 23.0284 31.6238 20.9754 29.5707C18.9223 27.5176 15.5937 27.5176 13.5406 29.5707C11.4876 31.6238 11.4876 34.9524 13.5406 37.0055C15.5937 39.0585 18.9223 39.0585 20.9754 37.0055Z" fill="#02FFB3"/>
<path d="M15.4104 35.2823C14.9526 35.751 14.6682 36.3917 14.6682 37.0963V37.8635C15.1479 38.1354 15.6729 38.3354 16.2307 38.4463V37.0963C16.2307 36.5276 16.6932 36.0635 17.2635 36.0635C17.8338 36.0635 18.2963 36.5276 18.2963 37.0963V38.4463C18.8542 38.3354 19.3807 38.1354 19.8588 37.8635V37.0963C19.8588 36.3917 19.576 35.751 19.1167 35.2823C19.576 34.8135 19.8588 34.1729 19.8588 33.4682C19.8588 32.037 18.6948 30.8713 17.2635 30.8713C15.8323 30.8713 14.6682 32.037 14.6682 33.4682C14.6682 34.1729 14.9526 34.8135 15.4104 35.2823ZM16.2307 33.4682C16.2307 32.8979 16.6932 32.4338 17.2635 32.4338C17.8338 32.4338 18.2963 32.8979 18.2963 33.4682C18.2963 34.037 17.8338 34.501 17.2635 34.501C16.6932 34.501 16.2307 34.037 16.2307 33.4682Z" fill="white"/>
<path d="M25.7837 41.4326H12.7869C12.3555 41.4326 12.0056 41.7825 12.0056 42.2139C12.0056 42.6453 12.3555 42.9951 12.7869 42.9951H25.7839C26.2153 42.9951 26.5651 42.6453 26.5651 42.2139C26.5651 41.7825 26.2151 41.4326 25.7837 41.4326Z" fill="#4369FD"/>
<path d="M22.5025 44.634H12.7869C12.3555 44.634 12.0056 44.9839 12.0056 45.4153C12.0056 45.8467 12.3555 46.1965 12.7869 46.1965H22.5026C22.9341 46.1965 23.2839 45.8467 23.2839 45.4153C23.2839 44.9839 22.9339 44.634 22.5025 44.634Z" fill="#4369FD"/>
<path d="M22.5025 47.835H12.7869C12.3555 47.835 12.0056 48.1848 12.0056 48.6162C12.0056 49.0476 12.3555 49.3975 12.7869 49.3975H22.5026C22.9341 49.3975 23.2839 49.0476 23.2839 48.6162C23.2839 48.1848 22.9339 47.835 22.5025 47.835Z" fill="#4369FD"/>
<path d="M25.7837 53.637H12.7869C12.3555 53.637 12.0056 53.9868 12.0056 54.4182C12.0056 54.8496 12.3555 55.1995 12.7869 55.1995H25.7839C26.2153 55.1995 26.5651 54.8496 26.5651 54.4182C26.5651 53.9868 26.2151 53.637 25.7837 53.637Z" fill="white"/>
<path d="M25.7837 56.8381H12.7869C12.3555 56.8381 12.0056 57.188 12.0056 57.6194C12.0056 58.0508 12.3555 58.4006 12.7869 58.4006H25.7839C26.2153 58.4006 26.5651 58.0508 26.5651 57.6194C26.5651 57.188 26.2151 56.8381 25.7837 56.8381Z" fill="white"/>
<path d="M25.7837 60.0396H12.7869C12.3555 60.0396 12.0056 60.3894 12.0056 60.8208C12.0056 61.2522 12.3555 61.6021 12.7869 61.6021H25.7839C26.2153 61.6021 26.5651 61.2522 26.5651 60.8208C26.5651 60.3894 26.2151 60.0396 25.7837 60.0396Z" fill="white"/>
<path d="M26.5648 28.8133C26.5648 29.2449 26.215 29.5949 25.7833 29.5949C25.3517 29.5949 25.0017 29.245 25.0017 28.8133C25.0017 28.3817 25.3516 28.0317 25.7833 28.0317C26.215 28.0317 26.5648 28.3816 26.5648 28.8133Z" fill="white"/>
<path d="M33.2983 9.9982C32.8669 9.9982 32.5171 9.64852 32.5171 9.21695C32.5171 8.69992 32.0966 8.27945 31.5796 8.27945C31.1482 8.27945 30.7983 7.92977 30.7983 7.4982C30.7983 7.06664 31.1482 6.71695 31.5796 6.71695C32.0966 6.71695 32.5171 6.29633 32.5171 5.7793C32.5171 5.34773 32.8669 4.99805 33.2983 4.99805C33.7297 4.99805 34.0796 5.34773 34.0796 5.7793C34.0796 6.29633 34.5001 6.71695 35.0171 6.71695C35.4485 6.71695 35.7983 7.06664 35.7983 7.4982C35.7983 7.92977 35.4485 8.27945 35.0171 8.27945C34.5001 8.27945 34.0796 8.69992 34.0796 9.21695C34.0796 9.64852 33.7297 9.9982 33.2983 9.9982Z" fill="#FF5BA8"/>
<path d="M40.313 8.05029C39.8816 8.05029 39.5317 7.70061 39.5317 7.26904C39.5317 6.75201 39.1111 6.33154 38.5942 6.33154C38.1628 6.33154 37.813 5.98186 37.813 5.55029C37.813 5.11873 38.1628 4.76904 38.5942 4.76904C39.1111 4.76904 39.5317 4.34857 39.5317 3.83154C39.5317 3.39998 39.8816 3.05029 40.313 3.05029C40.7446 3.05029 41.0942 3.39998 41.0942 3.83154C41.0942 4.34857 41.5147 4.76904 42.0317 4.76904C42.4633 4.76904 42.813 5.11873 42.813 5.55029C42.813 5.98186 42.4633 6.33154 42.0317 6.33154C41.5147 6.33154 41.0942 6.75201 41.0942 7.26904C41.0942 7.70045 40.7446 8.05029 40.313 8.05029Z" fill="#FF5BA8"/>
<path d="M59.7739 74.8647C59.3424 74.8647 58.9927 74.515 58.9927 74.0834C58.9927 73.5664 58.5722 73.1459 58.0552 73.1459C57.6236 73.1459 57.2739 72.7962 57.2739 72.3647C57.2739 71.9331 57.6236 71.5834 58.0552 71.5834C58.5722 71.5834 58.9927 71.1628 58.9927 70.6458C58.9927 70.2142 59.3424 69.8645 59.7739 69.8645C60.2055 69.8645 60.5552 70.2142 60.5552 70.6458C60.5552 71.1628 60.9756 71.5834 61.4927 71.5834C61.9242 71.5834 62.2739 71.9331 62.2739 72.3647C62.2739 72.7962 61.9242 73.1459 61.4927 73.1459C60.9756 73.1459 60.5552 73.5664 60.5552 74.0834C60.5552 74.515 60.2055 74.8647 59.7739 74.8647Z" fill="#01ECA5"/>
<path d="M52.1404 75.7217C50.9092 75.7217 49.9075 74.72 49.9075 73.4886C49.9075 72.2573 50.9092 71.2556 52.1404 71.2556C53.3717 71.2556 54.3734 72.2573 54.3734 73.4886C54.3734 74.72 53.3717 75.7217 52.1404 75.7217ZM52.1404 72.8181C51.7707 72.8181 51.47 73.1189 51.47 73.4886C51.47 73.8583 51.7707 74.1592 52.1404 74.1592C52.5101 74.1592 52.8109 73.8583 52.8109 73.4886C52.8109 73.1189 52.5103 72.8181 52.1404 72.8181Z" fill="#6583FE"/>
<path d="M69.264 8.27933C68.0327 8.27933 67.031 7.27761 67.031 6.0462C67.031 4.81495 68.0327 3.81323 69.264 3.81323C70.4954 3.81323 71.4971 4.81495 71.4971 6.0462C71.4971 7.27761 70.4954 8.27933 69.264 8.27933ZM69.264 5.37573C68.8943 5.37573 68.5935 5.67651 68.5935 6.0462C68.5935 6.41589 68.8943 6.71683 69.264 6.71683C69.6337 6.71683 69.9346 6.41589 69.9346 6.0462C69.9346 5.67651 69.6337 5.37573 69.264 5.37573Z" fill="#01ECA5"/>
<path d="M71.1674 66.8958H8.83301C7.53863 66.8958 6.48926 65.8464 6.48926 64.5521V15.448C6.48926 14.1536 7.53863 13.1042 8.83301 13.1042H71.1674C72.4618 13.1042 73.5111 14.1536 73.5111 15.448V64.5521C73.5111 65.8466 72.4619 66.8958 71.1674 66.8958Z" fill="url(#paint1_linear_828_316)"/>
</g>
<defs>
<linearGradient id="paint0_linear_828_316" x1="9.56612e-05" y1="40" x2="80.0001" y2="40" gradientUnits="userSpaceOnUse">
<stop stop-color="#FFDBED" stop-opacity="0"/>
<stop offset="1" stop-color="#FFDBED"/>
</linearGradient>
<linearGradient id="paint1_linear_828_316" x1="40.0002" y1="13.1042" x2="40.0002" y2="66.8958" gradientUnits="userSpaceOnUse">
<stop offset="0.0028" stop-color="#FF7EB8" stop-opacity="0"/>
<stop offset="1" stop-color="#FF7EB8" stop-opacity="0.6"/>
</linearGradient>
<clipPath id="clip0_828_316">
<rect width="80" height="80" fill="white"/>
</clipPath>
</defs>
</svg>
