<svg width="91" height="80" viewBox="0 0 91 80" fill="none" xmlns="http://www.w3.org/2000/svg">
<path d="M12.1069 0H36.063L21.6571 18.9042H11.0688V0H12.1069ZM31.8762 2.07612H13.145V16.8281H20.6305L31.8762 2.07612ZM49.5117 18.9042L38.9696 32.7912L24.2176 52.226V17.5317L37.5163 0.0115312H79.7538L65.4055 18.9042H49.5117ZM48.4967 16.8281H51.0918H64.3905L75.59 2.07612H38.5428L27.3433 16.8281H48.4967ZM26.2822 46.0784L38.2314 30.346C37.6547 28.5582 36.8704 26.8742 35.89 25.3863C34.8635 23.8177 33.6409 22.4567 32.2222 21.384C31.1726 20.5882 30.0769 19.9884 28.9696 19.5847C28.0815 19.2618 27.1818 19.0542 26.2937 18.9619L26.2822 46.0784ZM33.4679 19.7231C35.0942 20.9573 36.4783 22.4913 37.6201 24.2445C38.4506 25.5132 39.1541 26.9088 39.7308 28.3737L46.9165 18.9158H32.2914C32.6836 19.158 33.0757 19.4233 33.4679 19.7231Z" fill="white"/>
<path d="M83.5032 68.0736V65.2477H89.178V63.0447H83.5032V60.3919H89.9277V58.1197H80.7005V70.3342H90.1584V68.062H83.5032V68.0736ZM76.8827 58.1313L73.1111 66.851L69.3972 58.1313H66.3406L71.6117 70.3458H74.4029L79.6855 58.1313H76.8827ZM62.2922 70.3342H65.118V58.1197H62.2922V70.3342ZM54.0338 70.3342H56.8597V60.4265H60.7697V58.1197H50.1238V60.4265H54.0338V70.3342ZM42.0385 65.5822L43.9762 60.9109L45.9139 65.5822H42.0385ZM47.8862 70.3342H50.8505L45.3949 58.1197H42.5921L37.1481 70.3342H40.0431L41.1273 67.716H46.802L47.8862 70.3342ZM29.8586 68.0736V65.2477H35.5333V63.0447H29.8586V60.3919H36.283V58.1197H27.0558V70.3342H36.5137V68.062H29.8586V68.0736ZM21.9578 62.5603C21.9578 63.8867 21.0812 64.6941 19.3626 64.6941H17.0558V60.4265H19.3626C21.0812 60.4265 21.9578 61.2108 21.9578 62.5603ZM25.0374 70.3342L22.2923 66.4127C23.884 65.7322 24.8067 64.3942 24.8067 62.5603C24.8067 59.8152 22.7652 58.1313 19.5011 58.1313H14.2185V70.3458H17.0443V66.9432H19.5011H19.6395L21.9924 70.3458H25.0374V70.3342ZM7.28654 70.5534C9.42033 70.5534 11.1735 69.7806 12.3269 68.3735L10.5161 66.701C9.69714 67.6583 8.67062 68.1428 7.44802 68.1428C5.16428 68.1428 3.53799 66.5395 3.53799 64.2327C3.53799 61.9259 5.16428 60.3227 7.44802 60.3227C8.67062 60.3227 9.69714 60.8071 10.5161 61.7529L12.3269 60.0805C11.1735 58.6849 9.40879 57.9121 7.29807 57.9121C3.49185 57.9121 0.666016 60.5419 0.666016 64.2327C0.666016 67.9121 3.49185 70.5534 7.28654 70.5534Z" fill="white"/>
<path d="M66.4115 79.4347V78.1083H68.4761V77.6123H66.4115V76.3436H68.7298V75.8246H65.8233V79.9538H68.8221V79.4347H66.4115ZM63.4011 79.9883C64.047 79.9883 64.6006 79.7692 64.9697 79.3424L64.5891 78.9734C64.2662 79.3078 63.8855 79.4693 63.4242 79.4693C62.4899 79.4693 61.8094 78.8003 61.8094 77.8892C61.8094 76.978 62.5015 76.309 63.4242 76.309C63.874 76.309 64.2662 76.4589 64.5891 76.7934L64.9697 76.4243C64.5891 75.9976 64.0355 75.7784 63.4011 75.7784C62.1439 75.7784 61.2097 76.6666 61.2097 77.8892C61.2097 79.1118 62.1554 79.9883 63.4011 79.9883ZM57.9455 78.4428L58.8337 76.4243L59.7218 78.4428H57.9455ZM60.3907 79.9422H61.0136L59.1451 75.813H58.5568L56.6883 79.9422H57.2996L57.7495 78.9157H59.9409L60.3907 79.9422ZM54.9005 78.1775H53.8971V76.3321H54.9005C55.6503 76.3321 56.0539 76.6666 56.0539 77.2548C56.0539 77.843 55.6618 78.1775 54.9005 78.1775ZM54.9236 75.8246H53.3204V79.9538H53.9086V78.7081H54.9236C55.9963 78.7081 56.6422 78.166 56.6422 77.2663C56.6422 76.3667 55.9963 75.8246 54.9236 75.8246ZM50.8636 79.9883C51.9594 79.9883 52.4553 79.4463 52.4553 78.8119C52.4553 77.3009 49.9525 77.9353 49.9525 76.9203C49.9525 76.5627 50.2523 76.2629 50.9559 76.2629C51.325 76.2629 51.7287 76.3667 52.0863 76.5973L52.2823 76.1245C51.9363 75.8938 51.4403 75.7554 50.9559 75.7554C49.8717 75.7554 49.3758 76.2975 49.3758 76.9318C49.3758 78.4659 51.8786 77.8315 51.8786 78.8349C51.8786 79.1925 51.5672 79.4693 50.8636 79.4693C50.3331 79.4693 49.8141 79.2732 49.5026 78.9964L49.2835 79.4578C49.6064 79.7807 50.2293 79.9883 50.8636 79.9883ZM46.25 75.8246V78.9041L43.7702 75.8246H43.2858V79.9538H43.874V76.8742L46.3538 79.9538H46.8383V75.8246H46.25ZM39.618 78.4428L40.5061 76.4243L41.3942 78.4428H39.618ZM42.0517 79.9422H42.6745L40.806 75.813H40.2178L38.3492 79.9422H38.9606L39.4104 78.9157H41.6018L42.0517 79.9422ZM37.2766 79.204C36.9767 79.3886 36.6537 79.4693 36.3077 79.4693C35.3619 79.4693 34.6699 78.7888 34.6699 77.8892C34.6699 76.9664 35.3619 76.309 36.3193 76.309C36.7806 76.309 37.1728 76.4589 37.5188 76.7819L37.8879 76.4128C37.5073 75.9976 36.9536 75.7784 36.3077 75.7784C35.0275 75.7784 34.0932 76.6666 34.0932 77.8892C34.0932 79.1118 35.0275 79.9999 36.2962 79.9999C36.8729 79.9999 37.4496 79.8269 37.8533 79.4808V77.8661H37.2881V79.204H37.2766ZM31.3366 79.4693C30.4139 79.4693 29.7333 78.8003 29.7333 77.8892C29.7333 76.978 30.4139 76.309 31.3366 76.309C32.2478 76.309 32.9283 76.978 32.9283 77.8892C32.9283 78.8003 32.2478 79.4693 31.3366 79.4693ZM31.3366 79.9883C32.5938 79.9883 33.528 79.0887 33.528 77.8776C33.528 76.6666 32.5938 75.7669 31.3366 75.7669C30.0678 75.7669 29.1336 76.6666 29.1336 77.8776C29.1336 79.0887 30.0678 79.9883 31.3366 79.9883ZM26.054 79.9422H28.8798V79.4232H26.6422V75.813H26.054V79.9422ZM23.5973 79.9883C24.693 79.9883 25.1889 79.4463 25.1889 78.8119C25.1889 77.3009 22.6861 77.9353 22.6861 76.9203C22.6861 76.5627 22.9859 76.2629 23.6895 76.2629C24.0586 76.2629 24.4623 76.3667 24.8199 76.5973L25.0159 76.1245C24.6699 75.8938 24.1739 75.7554 23.6895 75.7554C22.6053 75.7554 22.1094 76.2975 22.1094 76.9318C22.1094 78.4659 24.6122 77.8315 24.6122 78.8349C24.6122 79.1925 24.3008 79.4693 23.5973 79.4693C23.0667 79.4693 22.5477 79.2732 22.2362 78.9964L22.0171 79.4578C22.34 79.7807 22.9629 79.9883 23.5973 79.9883Z" fill="white"/>
</svg>
