<svg width="92" height="80" viewBox="0 0 92 80" fill="none" xmlns="http://www.w3.org/2000/svg">
<path d="M48.8567 1.85829H19.7201V7.78377H46.0167C46.2504 7.78377 46.4959 7.87727 46.6712 8.05258L57.5638 18.9452H72.9209V1.85829H56.2665L62.192 7.78377H66.0604C66.5747 7.78377 66.9954 8.20451 66.9954 8.71875V12.0964C66.9954 12.6106 66.5747 13.0314 66.0604 13.0314H60.4038C60.17 13.0314 59.9246 12.9379 59.7493 12.7626L48.8567 1.85829ZM44.1701 13.0314H19.7201V18.9569H41.3417C41.5755 18.9569 41.8209 19.0504 41.9962 19.2257L47.9217 25.1512C48.0853 25.3148 48.1905 25.5485 48.1905 25.8056V40.0174C48.1905 40.5317 47.7698 40.9524 47.2555 40.9524H43.8779C43.3637 40.9524 42.9429 40.5317 42.9429 40.0174V27.7224L39.5419 24.1928H37.0291V46.8662H54.116V22.9773L44.1701 13.0314ZM18.7852 11.1614H44.5674C44.8246 11.1614 45.0583 11.2666 45.2336 11.4302L55.7172 21.9138C55.9041 22.1008 55.986 22.3345 55.986 22.5799V47.8012C55.986 48.3155 55.5652 48.7362 55.051 48.7362H36.0941C35.5799 48.7362 35.1591 48.3155 35.1591 47.8012V23.2578C35.1591 22.7436 35.5799 22.3228 36.0941 22.3228H39.9392C40.2314 22.3228 40.4886 22.4514 40.6522 22.6617L44.5557 26.7056C44.7311 26.8809 44.8129 27.1146 44.8129 27.3484V39.0708H46.3205V26.203L40.9444 20.8268H18.7852C18.2709 20.8268 17.8502 20.4061 17.8502 19.8919V12.0964C17.8502 11.5822 18.2709 11.1614 18.7852 11.1614ZM18.7852 0H49.2424C49.4995 0 49.7333 0.105186 49.8969 0.268809L60.7895 11.1614H65.1255V9.65374H61.8063C61.5491 9.65374 61.3154 9.54856 61.1401 9.38493L53.3446 1.58948C52.9823 1.22717 52.9823 0.631117 53.3446 0.268809C53.5316 0.0818117 53.7654 0 54.0108 0H73.8559C74.3702 0 74.7909 0.420744 74.7909 0.934987V19.8919C74.7909 20.4061 74.3702 20.8268 73.8559 20.8268H57.1781C56.9209 20.8268 56.6872 20.7216 56.5119 20.5463L45.6193 9.65374H18.7735C18.2592 9.65374 17.8385 9.233 17.8385 8.71875V0.9233C17.8502 0.409057 18.2709 0 18.7852 0Z" fill="white"/>
<path d="M84.9223 67.9153V65.052H90.6725V62.8197H84.9223V60.1316H91.4322V57.8292H82.0823V70.2061H91.6659V67.9037H84.9223V67.9153ZM78.2021 57.8409L74.3803 66.6765L70.617 57.8409H67.5199L72.861 70.2178H75.6893L81.0421 57.8409H78.2021ZM63.4293 70.2178H66.2927V57.8409H63.4293V70.2178ZM55.0612 70.2178H57.9246V60.1783H61.8866V57.8409H51.0992V60.1783H55.0612V70.2178ZM42.8946 65.3909L44.8581 60.6575L46.8216 65.3909H42.8946ZM48.8201 70.2178H51.8238L46.284 57.8409H43.4556L37.9392 70.2178H40.8727L41.9714 67.5647H47.7215L48.8201 70.2178ZM30.5645 67.9153V65.052H36.3147V62.8197H30.5645V60.1316H37.0743V57.8292H27.7245V70.2061H37.3081V67.9037H30.5645V67.9153ZM22.547 62.3288C22.547 63.6728 21.6588 64.491 19.9174 64.491H17.5799V60.1783H19.9174C21.6705 60.1666 22.547 60.9731 22.547 62.3288ZM25.6792 70.2178L22.8976 66.2441C24.5105 65.5545 25.4454 64.1871 25.4454 62.3405C25.4454 59.5589 23.3768 57.8525 20.0693 57.8525H14.7165V70.2294H17.5799V66.7817H20.0693H20.2095L22.5937 70.2294H25.6792V70.2178ZM7.68069 70.4281C9.84285 70.4281 11.6193 69.6451 12.7881 68.2192L10.9531 66.5246C10.1233 67.4946 9.08319 67.9972 7.84433 67.9972C5.53024 67.9972 3.8823 66.3726 3.8823 64.0352C3.8823 61.6977 5.53024 60.0731 7.84433 60.0731C9.08319 60.0731 10.1233 60.564 10.9531 61.5224L12.7881 59.8277C11.6193 58.4135 9.83117 57.6305 7.69239 57.6305C3.83557 57.6305 0.972168 60.2952 0.972168 64.0352C0.983855 67.7517 3.84724 70.4281 7.68069 70.4281Z" fill="white"/>
<path d="M67.59 79.4273V78.0832H69.6821V77.5807H67.59V76.2951H69.9392V75.7808H66.994V79.9649H70.021V79.439H67.59V79.4273ZM64.5513 79.9999C65.2058 79.9999 65.7668 79.7779 66.1408 79.3455L65.7551 78.9715C65.4279 79.3104 65.0422 79.474 64.5747 79.474C63.628 79.474 62.9385 78.7962 62.9385 77.8729C62.9385 76.9496 63.6397 76.2717 64.5747 76.2717C65.0305 76.2717 65.4279 76.4236 65.7551 76.7626L66.1408 76.3886C65.7551 75.9561 65.1941 75.7341 64.5513 75.7341C63.2774 75.7341 62.3424 76.634 62.3424 77.8729C62.3424 79.0883 63.2774 79.9999 64.5513 79.9999ZM59.0232 78.4222L59.9231 76.3769L60.8231 78.4222H59.0232ZM61.4892 79.9415H62.1203L60.227 75.7574H59.6426L57.7493 79.9415H58.3687L58.8245 78.9013H61.0451L61.4892 79.9415ZM55.9378 78.165H54.921V76.2951H55.9378C56.6974 76.2951 57.1065 76.634 57.1065 77.23C57.1065 77.8261 56.6974 78.165 55.9378 78.165ZM55.9611 75.7691H54.3249V79.9532H54.921V78.691H55.9494C57.0364 78.691 57.6909 78.1417 57.6909 77.23C57.7025 76.3184 57.048 75.7691 55.9611 75.7691ZM51.8355 79.9999C52.9458 79.9999 53.46 79.4506 53.46 78.8078C53.46 77.2768 50.9239 77.9196 50.9239 76.8911C50.9239 76.5288 51.2278 76.2249 51.9407 76.2249C52.3147 76.2249 52.7237 76.3301 53.086 76.5639L53.2847 76.0847C52.9341 75.8509 52.4316 75.7107 51.9407 75.7107C50.8421 75.7107 50.3395 76.26 50.3395 76.9028C50.3395 78.4572 52.8757 77.8144 52.8757 78.8312C52.8757 79.1935 52.5601 79.474 51.8472 79.474C51.3096 79.474 50.7836 79.2753 50.4681 78.9948L50.246 79.4623C50.5733 79.7779 51.1927 79.9999 51.8355 79.9999ZM47.1606 75.7691V78.8896L44.6478 75.7691H44.1569V79.9532H44.753V76.8327L47.2658 79.9532H47.7566V75.7691H47.1606ZM40.4403 78.4222L41.3403 76.3769L42.2402 78.4222H40.4403ZM42.918 79.9415H43.5492L41.6558 75.7574H41.0598L39.1664 79.9415H39.7859L40.2417 78.9013H42.4622L42.918 79.9415ZM38.0795 79.1935C37.7873 79.3805 37.4484 79.4623 37.0978 79.4623C36.1394 79.4623 35.4381 78.7728 35.4381 77.8612C35.4381 76.9262 36.1394 76.26 37.1094 76.26C37.5769 76.26 37.9743 76.4119 38.3249 76.7392L38.6989 76.3652C38.3132 75.9444 37.7523 75.7224 37.0978 75.7224C35.8005 75.7224 34.8538 76.6223 34.8538 77.8612C34.8538 79.1 35.8005 79.9999 37.0861 79.9999C37.6704 79.9999 38.2548 79.8246 38.6639 79.474V77.8378H38.0912V79.1935H38.0795ZM32.0605 79.4623C31.1255 79.4623 30.436 78.7845 30.436 77.8612C30.436 76.9379 31.1255 76.26 32.0605 76.26C32.9838 76.26 33.6734 76.9379 33.6734 77.8612C33.6734 78.7845 32.9838 79.4623 32.0605 79.4623ZM32.0605 79.9999C33.3344 79.9999 34.2811 79.0883 34.2811 77.8612C34.2811 76.634 33.3344 75.7224 32.0605 75.7224C30.7749 75.7224 29.8282 76.634 29.8282 77.8612C29.8282 79.0766 30.7749 79.9999 32.0605 79.9999ZM26.696 79.9415H29.5594V79.4156H27.2921V75.7574H26.696V79.9415ZM24.2066 79.9999C25.3052 79.9999 25.8195 79.4506 25.8195 78.8078C25.8195 77.2768 23.2833 77.9196 23.2833 76.8911C23.2833 76.5288 23.5872 76.2249 24.3001 76.2249C24.6741 76.2249 25.0832 76.3301 25.4455 76.5639L25.6442 76.0847C25.2936 75.8509 24.791 75.7107 24.3001 75.7107C23.2015 75.7107 22.6989 76.26 22.6989 76.9028C22.6989 78.4572 25.2351 77.8144 25.2351 78.8312C25.2351 79.1935 24.9196 79.474 24.2066 79.474C23.669 79.474 23.1431 79.2753 22.8275 78.9948L22.6055 79.4623C22.9444 79.7779 23.5755 79.9999 24.2066 79.9999Z" fill="white"/>
</svg>
