<svg width="91" height="80" viewBox="0 0 91 80" fill="none" xmlns="http://www.w3.org/2000/svg">
<path d="M37.0617 0H48.3331C48.5087 0 48.6608 0.0585228 48.7896 0.187272L60.2249 11.6226H66.1123V8.11122H61.9454C61.7699 8.11122 61.6177 8.0527 61.489 7.92395L53.565 0H73.5797C73.9425 0 74.2352 0.292612 74.2352 0.643748V19.09C74.2352 19.4412 73.9425 19.7455 73.5797 19.7455H56.8657L45.2314 8.11122H45.1729L37.0617 0ZM17.5269 0H24.9943H31.8298C32.0053 0 32.1575 0.0585228 32.2862 0.187272L40.2102 8.11122H24.9943V11.6226H43.4523C43.6279 11.6226 43.78 11.6811 43.9088 11.8098L54.4546 22.3556C54.5833 22.4843 54.6418 22.6365 54.6418 22.8121V48.164C54.6418 48.5152 54.3492 48.8078 53.9864 48.8078H35.5401C35.1772 48.8078 34.8963 48.5152 34.8963 48.164V23.2568H38.8993L43.0076 27.5173V40.7082H46.5189V25.9138L40.3506 19.7455H17.5151C17.1523 19.7455 16.8714 19.4529 16.8714 19.09C16.8714 12.9452 16.8714 6.78861 16.8714 0.643748C16.8714 0.292612 17.164 0 17.5269 0Z" fill="white"/>
<path d="M84.2187 67.8979V65.0303H89.9773V62.7947H84.2187V60.1027H90.7381V57.7969H81.3745V70.1919H90.9722V67.8862H84.2187V67.8979ZM77.4886 57.8086L73.6613 66.6572L69.8924 57.8086H66.7907L72.1397 70.2037H74.9722L80.3328 57.8086H77.4886ZM62.6824 70.2037H65.55V57.8086H62.6824V70.2037ZM54.3137 70.2037H57.1813V60.1495H61.1491V57.8086H50.3459V60.1495H54.3137V70.2037ZM42.1293 65.3697L44.0957 60.6294L46.062 65.3697H42.1293ZM48.0635 70.2037H51.0716L45.5353 57.8086H42.7028L37.1783 70.2037H40.1161L41.2164 67.5467H46.975L48.0635 70.2037ZM29.7694 67.8979V65.0303H35.528V62.7947H29.7694V60.1027H36.2888V57.7969H26.9252V70.1919H36.5229V67.8862H29.7694V67.8979ZM21.7518 62.3031C21.7518 63.6491 20.8622 64.4684 19.1183 64.4684H16.7774V60.1495H19.1183C20.8622 60.1378 21.7518 60.9454 21.7518 62.3031ZM24.8886 70.2037L22.1029 66.2241C23.7181 65.5336 24.6545 64.1641 24.6545 62.3148C24.6545 59.5291 22.5828 57.8203 19.2704 57.8203H13.9098V70.2154H16.7774V66.7625H19.2704H19.4109L21.7986 70.2154H24.8886V70.2037ZM6.86364 70.4143C9.02897 70.4143 10.8081 69.6301 11.9785 68.2022L10.1409 66.505C9.30988 67.4765 8.26819 67.9798 7.02752 67.9798C4.71003 67.9798 3.05967 66.3529 3.05967 64.012C3.05967 61.6711 4.71003 60.0441 7.02752 60.0441C8.26819 60.0441 9.30988 60.5357 10.1409 61.4955L11.9785 59.7983C10.8081 58.3821 9.01728 57.5979 6.87535 57.5979C3.01287 57.5979 0.145264 60.2665 0.145264 64.012C0.156968 67.734 3.02456 70.4143 6.86364 70.4143Z" fill="white"/>
<path d="M66.8608 79.4265V78.0805H68.9559V77.5772H66.8608V76.2897H69.2134V75.7747H66.2639V79.9649H69.307V79.4382H66.8608V79.4265ZM63.8059 80C64.4614 80 65.0232 79.7776 65.3977 79.3446L65.0115 78.97C64.6838 79.3095 64.2975 79.4733 63.8293 79.4733C62.8813 79.4733 62.1907 78.7945 62.1907 77.8698C62.1907 76.9451 62.893 76.2663 63.8293 76.2663C64.2858 76.2663 64.6838 76.4184 65.0115 76.7579L65.3977 76.3833C65.0115 75.9503 64.4497 75.7279 63.8059 75.7279C62.5301 75.7279 61.5821 76.6291 61.5821 77.8698C61.5938 79.0871 62.5418 80 63.8059 80ZM58.2697 78.4199L59.1709 76.3716L60.0722 78.4199H58.2697ZM60.751 79.9415H61.3831L59.487 75.7513H58.89L56.9939 79.9415H57.6142L58.0707 78.8998H60.2946L60.751 79.9415ZM55.1914 78.1624H54.1731V76.2897H55.1914C55.9522 76.2897 56.3501 76.6291 56.3501 77.2261C56.3501 77.823 55.9522 78.1624 55.1914 78.1624ZM55.2031 75.763H53.5645V79.9532H54.1614V78.6891H55.1914C56.2799 78.6891 56.9354 78.139 56.9354 77.2261C56.9471 76.3131 56.2916 75.763 55.2031 75.763ZM51.0831 80C52.1833 80 52.6983 79.4499 52.6983 78.8062C52.6983 77.2729 50.1585 77.9166 50.1585 76.8866C50.1585 76.5238 50.4628 76.2195 51.1768 76.2195C51.5513 76.2195 51.961 76.3248 52.3238 76.5589L52.5228 76.079C52.1716 75.8449 51.6684 75.7045 51.1768 75.7045C50.0765 75.7045 49.5732 76.2546 49.5732 76.8983C49.5732 78.455 52.1131 77.8113 52.1131 78.8296C52.1131 79.1924 51.7971 79.4733 51.0831 79.4733C50.5447 79.4733 50.018 79.2743 49.702 78.9934L49.4796 79.4616C49.8073 79.7776 50.4394 80 51.0831 80ZM46.4013 75.763V78.8881L43.8849 75.763H43.3933V79.9532H43.9902V76.8281L46.5067 79.9532H46.9983V75.763H46.4013ZM39.6712 78.4199L40.5725 76.3716L41.4737 78.4199H39.6712ZM42.1526 79.9415H42.7846L40.8885 75.7513H40.2916L38.3955 79.9415H39.0158L39.4723 78.8998H41.6961L42.1526 79.9415ZM37.3069 79.1924C37.0026 79.3797 36.6749 79.4616 36.3238 79.4616C35.364 79.4616 34.6617 78.771 34.6617 77.8581C34.6617 76.9217 35.364 76.2546 36.3238 76.2546C36.7919 76.2546 37.1899 76.4067 37.541 76.7345L37.9156 76.3599C37.5293 75.9386 36.9675 75.7162 36.312 75.7162C35.0128 75.7162 34.0648 76.6174 34.0648 77.8581C34.0648 79.0988 35.0128 80 36.3003 80C36.8856 80 37.4708 79.8244 37.8804 79.4733V77.8347H37.3069V79.1924ZM31.2674 79.4616C30.331 79.4616 29.6405 78.7827 29.6405 77.8581C29.6405 76.9334 30.331 76.2546 31.2674 76.2546C32.192 76.2546 32.8826 76.9334 32.8826 77.8581C32.8943 78.7827 32.192 79.4616 31.2674 79.4616ZM31.2674 80C32.5432 80 33.4913 79.0871 33.4913 77.8581C33.4913 76.6291 32.5432 75.7162 31.2674 75.7162C29.9799 75.7162 29.0319 76.6291 29.0319 77.8581C29.0436 79.0754 29.9799 80 31.2674 80ZM25.9068 79.9415H28.7744V79.4148H26.5037V75.7513H25.9068V79.9415ZM23.4137 80C24.5256 80 25.0289 79.4499 25.0289 78.8062C25.0289 77.2729 22.489 77.9166 22.489 76.8866C22.489 76.5238 22.7934 76.2195 23.5073 76.2195C23.8819 76.2195 24.2915 76.3248 24.6544 76.5589L24.8534 76.079C24.5022 75.8449 23.9989 75.7045 23.5073 75.7045C22.4071 75.7045 21.9038 76.2546 21.9038 76.8983C21.9038 78.455 24.4437 77.8113 24.4437 78.8296C24.4437 79.1924 24.1277 79.4733 23.4137 79.4733C22.8753 79.4733 22.3486 79.2743 22.0326 78.9934L21.8102 79.4616C22.1496 79.7776 22.7699 80 23.4137 80Z" fill="white"/>
</svg>
