<svg width="87" height="80" viewBox="0 0 87 80" fill="none" xmlns="http://www.w3.org/2000/svg">
<path d="M79.911 68.4971V65.7714H85.3845V63.6465H79.911V61.0878H86.1077V58.8962H77.2076V70.6776H86.3301V68.4859H79.911V68.4971ZM73.5141 58.9073L69.8762 67.3178L66.294 58.9073H63.3459L68.43 70.6887H71.1222L76.2175 58.9073H73.5141ZM59.4521 70.6887H62.1777V58.9073H59.4521V70.6887ZM51.4866 70.6887H54.2122V61.1323H57.9836V58.9073H47.7152V61.1323H51.4866V70.6887ZM39.9166 66.094L41.7856 61.5884L43.6546 66.094H39.9166ZM45.5458 70.6887H48.405L43.1428 58.9073H40.4506L35.1996 70.6887H37.9919L39.0377 68.1633H44.5112L45.5458 70.6887ZM28.1686 68.4971V65.7714H33.6421V63.6465H28.1686V61.0878H34.3652V58.8962H25.4652V70.6776H34.5877V68.4859H28.1686V68.4971ZM20.5368 63.1793C20.5368 64.4587 19.6913 65.2374 18.0337 65.2374H15.8087V61.1323H18.0337C19.7024 61.1212 20.5368 61.8888 20.5368 63.1793ZM23.5183 70.6887L20.8705 66.9062C22.4058 66.2498 23.2958 64.9482 23.2958 63.1904C23.2958 60.5427 21.3267 58.9184 18.1783 58.9184H13.083V70.6998H15.8087V67.4179H18.1783H18.3118L20.5813 70.6998H23.5183V70.6887ZM6.38576 70.8889C8.44389 70.8889 10.1349 70.1436 11.2474 68.7863L9.50077 67.1732C8.71089 68.0965 7.72076 68.5749 6.54151 68.5749C4.33876 68.5749 2.77013 67.0285 2.77013 64.8035C2.77013 62.5785 4.33876 61.0322 6.54151 61.0322C7.72076 61.0322 8.71089 61.4994 9.50077 62.4117L11.2474 60.7985C10.1349 59.4524 8.43276 58.707 6.39689 58.707C2.72563 58.707 0 61.2435 0 64.8035C0.011125 68.3413 2.73675 70.8889 6.38576 70.8889Z" fill="white"/>
<path d="M63.4131 79.4549V78.1755H65.4045V77.6971H63.4131V76.4734H65.6492V75.9839H62.8457V79.9666H65.7382V79.466H63.4131V79.4549ZM60.5206 80C61.1436 80 61.6776 79.7886 62.0336 79.377L61.6665 79.021C61.355 79.3436 60.9878 79.4994 60.5428 79.4994C59.6417 79.4994 58.9853 78.8541 58.9853 77.9752C58.9853 77.0964 59.6528 76.4511 60.5428 76.4511C60.9767 76.4511 61.355 76.5957 61.6665 76.9184L62.0336 76.5624C61.6665 76.1507 61.1325 75.9394 60.5206 75.9394C59.308 75.9394 58.4068 76.796 58.4068 77.9752C58.418 79.1322 59.3191 80 60.5206 80ZM55.2585 78.4981L56.1151 76.5512L56.9717 78.4981H55.2585ZM57.6058 79.9444H58.2066L56.4043 75.9616H55.837L54.0347 79.9444H54.6243L55.0582 78.9542H57.172L57.6058 79.9444ZM52.3214 78.2534H51.3536V76.4734H52.3214C53.0446 76.4734 53.434 76.796 53.434 77.3634C53.434 77.9307 53.0557 78.2534 52.3214 78.2534ZM52.3437 75.9727H50.7973V79.9555H51.3647V78.754H52.3437C53.3783 78.754 54.0013 78.2311 54.0013 77.3634C54.0013 76.4956 53.3783 75.9727 52.3437 75.9727ZM48.4166 80C49.4734 80 49.9518 79.4771 49.9518 78.8652C49.9518 77.4079 47.5377 78.0197 47.5377 77.0407C47.5377 76.6959 47.8269 76.4066 48.5056 76.4066C48.8616 76.4066 49.2509 76.5067 49.5958 76.7292L49.7849 76.2731C49.4512 76.0506 48.9728 75.9171 48.5056 75.9171C47.4598 75.9171 46.9814 76.44 46.9814 77.0519C46.9814 78.5315 49.3956 77.9196 49.3956 78.8875C49.3956 79.2324 49.0952 79.4994 48.4166 79.4994C47.9048 79.4994 47.4042 79.3102 47.1038 79.0432L46.8924 79.4882C47.2151 79.7886 47.8158 80 48.4166 80ZM43.9666 75.9727V78.9431L41.5747 75.9727H41.1074V79.9555H41.6748V76.9851L44.0667 79.9555H44.5339V75.9727H43.9666ZM37.5697 78.4981L38.4263 76.5512L39.2829 78.4981H37.5697ZM39.9282 79.9444H40.5289L38.7267 75.9616H38.1593L36.357 79.9444H36.9467L37.3805 78.9542H39.4943L39.9282 79.9444ZM35.3224 79.2324C35.0332 79.4104 34.7217 79.4882 34.3879 79.4882C33.4757 79.4882 32.8082 78.8319 32.8082 77.9641C32.8082 77.0741 33.4757 76.44 34.3879 76.44C34.8329 76.44 35.2112 76.5846 35.5449 76.8961L35.9009 76.5401C35.5338 76.1396 34.9998 75.9282 34.3768 75.9282C33.1419 75.9282 32.2408 76.7849 32.2408 77.9641C32.2408 79.1434 33.1419 80 34.3657 80C34.9219 80 35.4782 79.8331 35.8675 79.4994V77.9419H35.3224V79.2324ZM29.593 79.4882C28.703 79.4882 28.0467 78.843 28.0467 77.9641C28.0467 77.0852 28.703 76.44 29.593 76.44C30.4719 76.44 31.1283 77.0852 31.1283 77.9641C31.1283 78.843 30.4719 79.4882 29.593 79.4882ZM29.593 80C30.8057 80 31.7068 79.1322 31.7068 77.9641C31.7068 76.796 30.8057 75.9282 29.593 75.9282C28.3693 75.9282 27.4682 76.796 27.4682 77.9641C27.4682 79.1211 28.3693 80 29.593 80ZM24.4867 79.9444H27.2123V79.4437H25.054V75.9616H24.4867V79.9444ZM22.117 80C23.1739 80 23.6523 79.4771 23.6523 78.8652C23.6523 77.4079 21.2381 78.0197 21.2381 77.0407C21.2381 76.6959 21.5274 76.4066 22.206 76.4066C22.562 76.4066 22.9514 76.5067 23.2963 76.7292L23.4854 76.2731C23.1516 76.0506 22.6733 75.9171 22.206 75.9171C21.1603 75.9171 20.6819 76.44 20.6819 77.0519C20.6819 78.5315 23.096 77.9196 23.096 78.8875C23.096 79.2324 22.7956 79.4994 22.117 79.4994C21.6053 79.4994 21.1046 79.3102 20.8043 79.0432L20.5929 79.4882C20.9155 79.7886 21.5163 80 22.117 80Z" fill="white"/>
<path fill-rule="evenodd" clip-rule="evenodd" d="M30.3156 19.9694H43.2651L40.406 15.0299H27.4787L20.4032 27.2897L14.4402 17.4218L21.6492 4.93951H36.7013L60.0416 45.379C55.981 45.3901 51.9203 45.4012 47.8597 45.4235L37.8472 28.0684L34.9992 32.9968L45.0228 50.363H45.479C46.7695 50.3518 48.06 50.3518 49.3616 50.3407C54.3456 50.3185 59.3296 50.3185 64.3136 50.3185H68.5856L39.5271 0H18.8012L8.69965 17.4885L20.4922 36.9907L30.3156 19.9694ZM69.0751 4.93951L63.2567 15.0299H50.3072L53.1663 19.9694H66.1047L77.6303 0H41.6297L44.4888 4.93951H69.0751Z" fill="white"/>
</svg>
