<svg width="92" height="80" viewBox="0 0 92 80" fill="none" xmlns="http://www.w3.org/2000/svg">
<path fill-rule="evenodd" clip-rule="evenodd" d="M37.4446 17.0769H25.4358L12.4672 0H24.4878L37.4446 17.0769V32.9014L49.5237 48.8195H61.5442L37.4446 17.0769ZM65.6642 25.668V48.8195L41.5646 17.0769L28.596 0C41.073 0 53.5617 0 66.0387 0L79.0073 17.0769H76.8186C73.0966 17.0769 69.3862 17.0769 65.6642 17.0769V25.668Z" fill="white"/>
<path opacity="0.4" fill-rule="evenodd" clip-rule="evenodd" d="M65.6646 23.2571V17.0771H65.372C62.8438 17.1357 60.304 18.0135 57.9631 19.7926C54.8263 22.1803 52.5556 25.8087 51.3266 29.9287C54.3932 25.1064 59.9879 22.4963 65.6646 23.2571Z" fill="white"/>
<path d="M84.3918 67.8979V65.0303H90.1504V62.7947H84.3918V60.1027H90.9112V57.7969H81.5476V70.1919H91.1453V67.8862H84.3918V67.8979ZM77.6734 57.8086L73.846 66.6572L70.0772 57.8086H66.9755L72.3245 70.2037H75.157L80.5176 57.8086H77.6734ZM62.8672 70.2037H65.7348V57.8086H62.8672V70.2037ZM54.4868 70.2037H57.3544V60.1495H61.3222V57.8086H50.519V60.1495H54.4868V70.2037ZM42.3141 65.3697L44.2805 60.6294L46.2468 65.3697H42.3141ZM48.2483 70.2037H51.2564L45.7201 57.8086H42.8759L37.3514 70.2037H40.2892L41.3895 67.5467H47.1481L48.2483 70.2037ZM29.9542 67.8979V65.0303H35.7128V62.7947H29.9542V60.1027H36.4736V57.7969H27.11V70.1919H36.7077V67.8862H29.9542V67.8979ZM21.9366 62.3031C21.9366 63.6491 21.047 64.4684 19.3031 64.4684H16.9622V60.1495H19.3031C21.047 60.1378 21.9366 60.9454 21.9366 62.3031ZM25.0617 70.2037L22.276 66.2241C23.8912 65.5336 24.8276 64.1641 24.8276 62.3148C24.8276 59.5291 22.7559 57.8203 19.4435 57.8203H14.0829V70.2154H16.9505V66.7625H19.4435H19.584L21.9717 70.2154H25.0617V70.2037ZM7.04846 70.4143C9.2138 70.4143 10.9929 69.6301 12.1633 68.2022L10.3257 66.505C9.49471 67.4765 8.45301 67.9798 7.21233 67.9798C4.89484 67.9798 3.2445 66.3529 3.2445 64.012C3.2445 61.6711 4.89484 60.0441 7.21233 60.0441C8.45301 60.0441 9.49471 60.5357 10.3257 61.4955L12.1633 59.7983C10.9929 58.3821 9.20209 57.5979 7.06017 57.5979C3.19768 57.5979 0.330078 60.2665 0.330078 64.012C0.330078 67.734 3.19768 70.4143 7.04846 70.4143Z" fill="white"/>
<path d="M67.048 79.4265V78.0805H69.1431V77.5772H67.048V76.2897H69.4006V75.7747H66.4511V79.9649H69.4943V79.4382H67.048V79.4265ZM63.9931 80C64.6486 80 65.2104 79.7776 65.5849 79.3446L65.1987 78.97C64.871 79.3095 64.4847 79.4733 64.0165 79.4733C63.0685 79.4733 62.3779 78.7945 62.3779 77.8698C62.3779 76.9451 63.0802 76.2663 64.0165 76.2663C64.473 76.2663 64.871 76.4184 65.1987 76.7579L65.5849 76.3833C65.1987 75.9503 64.6369 75.7279 63.9931 75.7279C62.7174 75.7279 61.7693 76.6291 61.7693 77.8698C61.781 79.0871 62.7291 80 63.9931 80ZM58.4569 78.4199L59.3582 76.3716L60.2594 78.4199H58.4569ZM60.9383 79.9415H61.5703L59.6742 75.7513H59.0772L57.1811 79.9415H57.8015L58.2579 78.8998H60.4818L60.9383 79.9415ZM55.3669 78.1624H54.3486V76.2897H55.3669C56.1277 76.2897 56.5374 76.6291 56.5374 77.2261C56.5374 77.823 56.1394 78.1624 55.3669 78.1624ZM55.3903 75.763H53.7634V79.9532H54.3603V78.6891H55.3903C56.4788 78.6891 57.1343 78.139 57.1343 77.2261C57.1343 76.3131 56.4788 75.763 55.3903 75.763ZM51.2703 80C52.3823 80 52.8856 79.4499 52.8856 78.8062C52.8856 77.2729 50.3457 77.9166 50.3457 76.8866C50.3457 76.5238 50.65 76.2195 51.364 76.2195C51.7385 76.2195 52.1482 76.3248 52.511 76.5589L52.71 76.079C52.3589 75.8449 51.8556 75.7045 51.364 75.7045C50.2638 75.7045 49.7605 76.2546 49.7605 76.8983C49.7605 78.455 52.3003 77.8113 52.3003 78.8296C52.3003 79.1924 51.9843 79.4733 51.2703 79.4733C50.7319 79.4733 50.2052 79.2743 49.8892 78.9934L49.6668 79.4616C49.9946 79.7776 50.6266 80 51.2703 80ZM46.5885 75.763V78.8881L44.0721 75.763H43.5805V79.9532H44.1774V76.8281L46.6939 79.9532H47.1855V75.763H46.5885ZM39.8584 78.4199L40.7597 76.3716L41.6609 78.4199H39.8584ZM42.3281 79.9415H42.9601L41.064 75.7513H40.4671L38.5709 79.9415H39.1913L39.6478 78.8998H41.8716L42.3281 79.9415ZM37.4824 79.1924C37.1781 79.3797 36.8504 79.4616 36.4993 79.4616C35.5395 79.4616 34.8372 78.771 34.8372 77.8581C34.8372 76.9217 35.5395 76.2546 36.511 76.2546C36.9791 76.2546 37.3771 76.4067 37.7282 76.7345L38.1028 76.3599C37.7165 75.9386 37.1547 75.7162 36.4993 75.7162C35.2001 75.7162 34.252 76.6174 34.252 77.8581C34.252 79.0988 35.2001 80 36.4876 80C37.0728 80 37.658 79.8244 38.0677 79.4733V77.8347H37.4941V79.1924H37.4824ZM31.4546 79.4616C30.5183 79.4616 29.8277 78.7827 29.8277 77.8581C29.8277 76.9334 30.5183 76.2546 31.4546 76.2546C32.3793 76.2546 33.0698 76.9334 33.0698 77.8581C33.0698 78.7827 32.3793 79.4616 31.4546 79.4616ZM31.4546 80C32.7304 80 33.6785 79.0871 33.6785 77.8581C33.6785 76.6291 32.7304 75.7162 31.4546 75.7162C30.1671 75.7162 29.2191 76.6291 29.2191 77.8581C29.2191 79.0754 30.1671 80 31.4546 80ZM26.094 79.9415H28.9616V79.4148H26.6909V75.7513H26.094V79.9415ZM23.6009 80C24.7128 80 25.2161 79.4499 25.2161 78.8062C25.2161 77.2729 22.6762 77.9166 22.6762 76.8866C22.6762 76.5238 22.9806 76.2195 23.6945 76.2195C24.0691 76.2195 24.4787 76.3248 24.8416 76.5589L25.0405 76.079C24.6894 75.8449 24.1861 75.7045 23.6945 75.7045C22.5943 75.7045 22.091 76.2546 22.091 76.8983C22.091 78.455 24.6309 77.8113 24.6309 78.8296C24.6309 79.1924 24.3149 79.4733 23.6009 79.4733C23.0625 79.4733 22.5358 79.2743 22.2198 78.9934L21.9974 79.4616C22.3251 79.7776 22.9572 80 23.6009 80Z" fill="white"/>
</svg>
