<svg width="90" height="80" viewBox="0 0 90 80" fill="none" xmlns="http://www.w3.org/2000/svg">
<path fill-rule="evenodd" clip-rule="evenodd" d="M58.2325 20.7151H44.8069L47.7596 15.594H61.1737L68.5093 28.3045L74.6916 18.0738L67.2175 5.13264H51.612L27.4136 47.0473C31.6235 47.0588 35.8334 47.0704 40.0433 47.0934L50.424 29.1004L53.3767 34.2099L42.9845 52.2146H42.5116C41.1737 52.203 39.8357 52.203 38.4862 52.1915C33.319 52.1684 28.1517 52.1684 22.9845 52.1684H18.5554L48.6708 0H70.1702L80.6431 18.1315L68.417 38.3507L58.2325 20.7151ZM18.048 5.13264L24.0802 15.5825H37.5059L34.5416 20.7036H21.1275L9.16675 0H46.4908L43.5382 5.12111H18.048V5.13264Z" fill="white"/>
<path d="M83.0074 68.0741V65.2483H88.6821V63.0452H83.0074V60.3924H89.4318V58.1202H80.2046V70.3348H89.6625V68.0625H83.0074V68.0741ZM76.3753 58.1317L72.6037 66.8515L68.8897 58.1317H65.8332L71.1043 70.3463H73.8955L79.1781 58.1317H76.3753ZM61.7848 70.3348H64.6106V58.1202H61.7848V70.3348ZM53.5379 70.3348H56.3638V60.427H60.2738V58.1202H49.6279V60.427H53.5379V70.3348ZM41.531 65.5827L43.4687 60.9114L45.4064 65.5827H41.531ZM47.3787 70.3348H50.343L44.8874 58.1202H42.0962L36.6521 70.3348H39.5472L40.6313 67.7165H46.3061L47.3787 70.3348ZM29.3511 68.0741V65.2483H35.0258V63.0452H29.3511V60.3924H35.7755V58.1202H26.5483V70.3348H36.0062V68.0625H29.3511V68.0741ZM21.4503 62.5608C21.4503 63.8872 20.5737 64.6946 18.8551 64.6946H16.5483V60.427H18.8551C20.5737 60.427 21.4503 61.2113 21.4503 62.5608ZM24.5414 70.3348L21.7963 66.4132C23.388 65.7327 24.3107 64.3947 24.3107 62.5608C24.3107 59.8157 22.2692 58.1317 19.005 58.1317H13.7225V70.3463H16.5483V66.9437H19.005H19.1435L21.4964 70.3463H24.5414V70.3348ZM6.77897 70.5539C8.91276 70.5539 10.666 69.7811 11.8194 68.374L10.0085 66.7015C9.18958 67.6589 8.16307 68.1433 6.94046 68.1433C4.65672 68.1433 3.03041 66.5401 3.03041 64.2333C3.03041 61.9264 4.65672 60.3232 6.94046 60.3232C8.16307 60.3232 9.18958 60.8076 10.0085 61.7534L11.8194 60.081C10.666 58.6854 8.90124 57.9126 6.79051 57.9126C2.98428 57.9126 0.158447 60.5424 0.158447 64.2333C0.169981 67.9126 2.99581 70.5539 6.77897 70.5539Z" fill="white"/>
<path d="M65.9028 79.4347V78.1083H67.9673V77.6123H65.9028V76.3436H68.2211V75.8246H65.3145V79.9538H68.3134V79.4347H65.9028ZM62.8924 79.9884C63.5383 79.9884 64.0919 79.7692 64.461 79.3425L64.0804 78.9734C63.7574 79.3079 63.3768 79.4693 62.9155 79.4693C61.9812 79.4693 61.3007 78.8004 61.3007 77.8892C61.3007 76.978 61.9927 76.309 62.9155 76.309C63.3653 76.309 63.7574 76.4589 64.0804 76.7934L64.461 76.4243C64.0804 75.9976 63.5267 75.7784 62.8924 75.7784C61.6352 75.7784 60.7009 76.6666 60.7009 77.8892C60.7009 79.1118 61.6467 79.9884 62.8924 79.9884ZM57.4368 78.4428L58.3249 76.4243L59.213 78.4428H57.4368ZM59.882 79.9422H60.5048L58.6363 75.813H58.0481L56.1796 79.9422H56.7909L57.2407 78.9157H59.4322L59.882 79.9422ZM54.4033 78.1775H53.3999V76.3321H54.4033C55.1531 76.3321 55.5452 76.6666 55.5452 77.2548C55.5452 77.843 55.1531 78.1775 54.4033 78.1775ZM54.4149 75.8246H52.8001V79.9538H53.3883V78.7081H54.4033C55.476 78.7081 56.1219 78.166 56.1219 77.2663C56.1334 76.3667 55.4875 75.8246 54.4149 75.8246ZM50.3549 79.9884C51.4391 79.9884 51.9466 79.4463 51.9466 78.8119C51.9466 77.3009 49.4437 77.9353 49.4437 76.9203C49.4437 76.5628 49.7436 76.2629 50.4472 76.2629C50.8163 76.2629 51.22 76.3667 51.5775 76.5973L51.7736 76.1245C51.4276 75.8938 50.9316 75.7554 50.4472 75.7554C49.363 75.7554 48.867 76.2975 48.867 76.9318C48.867 78.4659 51.3699 77.8315 51.3699 78.835C51.3699 79.1925 51.0585 79.4693 50.3549 79.4693C49.8243 79.4693 49.3053 79.2732 48.9939 78.9964L48.7747 79.4578C49.0977 79.7807 49.7205 79.9884 50.3549 79.9884ZM45.7413 75.8246V78.9042L43.2615 75.8246H42.777V79.9538H43.3653V76.8742L45.8451 79.9538H46.3295V75.8246H45.7413ZM39.1092 78.4428L39.9973 76.4243L40.8855 78.4428H39.1092ZM41.5544 79.9422H42.1773L40.3088 75.813H39.7205L37.852 79.9422H38.4633L38.9131 78.9157H41.1046L41.5544 79.9422ZM36.7793 79.204C36.4795 79.3886 36.1565 79.4693 35.8105 79.4693C34.8647 79.4693 34.1726 78.7888 34.1726 77.8892C34.1726 76.9664 34.8647 76.309 35.8105 76.309C36.2719 76.309 36.664 76.4589 37.01 76.7819L37.3791 76.4128C36.9985 75.9976 36.4449 75.7784 35.799 75.7784C34.5187 75.7784 33.5844 76.6666 33.5844 77.8892C33.5844 79.1118 34.5187 79.9999 35.7874 79.9999C36.3641 79.9999 36.9408 79.8269 37.3445 79.4809V77.8661H36.7793V79.204ZM30.8278 79.4693C29.9051 79.4693 29.2246 78.8004 29.2246 77.8892C29.2246 76.978 29.9051 76.309 30.8278 76.309C31.739 76.309 32.4195 76.978 32.4195 77.8892C32.4195 78.8004 31.739 79.4693 30.8278 79.4693ZM30.8278 79.9884C32.085 79.9884 33.0192 79.0887 33.0192 77.8776C33.0192 76.6666 32.085 75.7669 30.8278 75.7669C29.559 75.7669 28.6248 76.6666 28.6248 77.8776C28.6248 79.0887 29.559 79.9884 30.8278 79.9884ZM25.5452 79.9422H28.371V79.4232H26.1334V75.813H25.5452V79.9422ZM23.0885 79.9884C24.1842 79.9884 24.6802 79.4463 24.6802 78.8119C24.6802 77.3009 22.1773 77.9353 22.1773 76.9203C22.1773 76.5628 22.4772 76.2629 23.1807 76.2629C23.5498 76.2629 23.9535 76.3667 24.311 76.5973L24.5071 76.1245C24.1611 75.8938 23.6652 75.7554 23.1807 75.7554C22.0965 75.7554 21.6006 76.2975 21.6006 76.9318C21.6006 78.4659 24.1035 77.8315 24.1035 78.835C24.1035 79.1925 23.792 79.4693 23.0885 79.4693C22.5579 79.4693 22.0389 79.2732 21.7274 78.9964L21.5083 79.4578C21.8428 79.7807 22.4541 79.9884 23.0885 79.9884Z" fill="white"/>
</svg>
